
<svg id="icon-id" viewBox="0 0 28 28" fill="none" xmlns="http://www.w3.org/2000/svg">
<path d="M1.01737 1.3461L6.70487 0.0337676C7.32361 -0.109021 7.95607 0.211611 8.20637 0.795619L10.8314 6.92045C10.9435 7.18209 10.9675 7.47309 10.8998 7.74957C10.8322 8.02606 10.6764 8.27304 10.4561 8.45329L7.14112 11.1656C9.10839 15.3587 12.5518 18.8496 16.8344 20.8588L19.5467 17.5439C19.727 17.3236 19.9739 17.1678 20.2504 17.1001C20.5269 17.0325 20.8179 17.0565 21.0795 17.1686L27.2044 19.7936C27.7882 20.0438 28.1091 20.6762 27.9662 21.2951L26.6539 26.9826C26.5175 27.5736 25.9904 28 25.375 28C11.3703 28 2.09808e-05 16.6506 2.09808e-05 2.62497C2.09808e-05 2.01378 0.42188 1.48348 1.01737 1.3461Z" fill="currentColor"/>
</svg>
