
<svg id='icon-id'  viewBox="0 0 22 22" fill="none" xmlns="http://www.w3.org/2000/svg">
<path d="M1.76405 1.718C3.07955 0.226249 4.62005 -0.531251 5.57405 0.423499L8.7563 3.605C9.5633 4.412 9.36755 5.48075 8.4398 6.58325C8.02446 7.07659 7.77915 7.69065 7.74024 8.33437C7.70133 8.9781 7.8709 9.61722 8.22379 10.157C8.65129 10.811 9.1868 11.4605 9.8303 12.104C10.6148 12.8885 11.424 13.5282 12.2573 14.0255C12.7852 14.3403 13.397 14.4854 14.01 14.4411C14.623 14.3969 15.2076 14.1654 15.6848 13.778C16.8413 12.839 17.6498 12.4992 18.3023 13.151L21.4845 16.3333C23.3835 18.2323 18.8033 22.4157 15.522 21.845C12.8745 21.3837 8.78705 18.485 6.10505 15.803C3.73805 13.436 0.550545 8.828 0.0660454 6.404C-0.230955 4.92125 0.498045 3.15125 1.76405 1.7165V1.718Z" fill="currentColor"/>
</svg>
