
<svg id="icon-id" width="1em" viewBox="0 0 27 24" fill="none" xmlns="http://www.w3.org/2000/svg">
<path d="M22.2152 8.38667C19.4365 7.40133 20.5512 5.524 18.8818 4.79467C17.1244 4.04208 15.2385 3.63467 13.3272 3.59467C11.4165 3.64105 9.53188 4.0482 7.77249 4.79467C6.10049 5.51733 7.21782 7.40133 4.43916 8.38667C1.50582 9.428 -0.0315104 7.90133 0.000489563 6.016C0.0424802 5.27698 0.266988 4.55988 0.653933 3.92886C1.04088 3.29783 1.57819 2.77255 2.21782 2.4C5.98982 0.0293334 13.3272 0 13.3272 0C13.3272 0 20.6605 0.0240002 24.4365 2.4C25.0717 2.77057 25.606 3.29164 25.9925 3.91732C26.3789 4.543 26.6056 5.2541 26.6525 5.988C26.6992 7.88667 25.1658 9.432 22.2152 8.388V8.38667ZM9.53649 7.536H11.4272V9.59067H15.2392V7.536H17.1445V9.59067L24.7778 16.7613V21.5613C24.7249 22.2084 24.433 22.8126 23.9591 23.2562C23.4851 23.6999 22.863 23.9512 22.2138 23.9613H4.44049C3.79467 23.9503 3.1764 23.6978 2.70749 23.2536C2.23859 22.8093 1.95306 22.2056 1.90716 21.5613V16.7613L9.53516 9.58533L9.53649 7.536ZM13.3498 20.9107C14.1753 20.9726 15.0002 20.7843 15.717 20.3705C16.4339 19.9566 17.0094 19.3364 17.3686 18.5906C17.7278 17.8448 17.8539 17.0081 17.7305 16.1896C17.6071 15.3711 17.24 14.6088 16.6769 14.002C16.1139 13.3953 15.3811 12.9722 14.5741 12.7881C13.7671 12.6039 12.9233 12.6672 12.1528 12.9697C11.3823 13.2722 10.7208 13.7998 10.2546 14.4837C9.78838 15.1677 9.53906 15.9763 9.53916 16.804C9.5013 17.8535 9.88121 18.8752 10.5956 19.6451C11.3099 20.4149 12.3004 20.87 13.3498 20.9107Z" fill="currentColor"/>
</svg>
