
<svg  id="icon-id" viewBox="0 0 26 26" fill="none" xmlns="http://www.w3.org/2000/svg">
<path d="M20.8404 25.5001L20.8369 25.5001L20.8267 25.4988L20.8108 25.4978C15.5247 25.177 10.5503 22.9375 6.8082 19.1922L6.8079 19.1919C3.06537 15.4526 0.826408 10.4826 0.503027 5.20076C0.502519 5.17864 0.501272 5.16018 0.500657 5.15108L0.500518 5.14901C0.500248 5.14497 0.50009 5.1424 0.500002 5.14093C0.502154 3.30313 1.99996 1.80664 3.83825 1.80664H9.074C9.36711 1.80664 9.63127 1.98464 9.74054 2.25878L9.74079 2.25942L12.3599 8.8039C12.36 8.80409 12.36 8.80428 12.3601 8.80447C12.4909 9.13407 12.3652 9.50719 12.0632 9.68883C12.0632 9.68885 12.0631 9.68886 12.0631 9.68888L9.79491 11.0504L9.3644 11.3089L9.62465 11.7383C10.7714 13.6304 12.3729 15.232 14.2651 16.3787L14.6945 16.639L14.9529 16.2085L16.3145 13.9403C16.3145 13.9403 16.3145 13.9402 16.3146 13.9402C16.4976 13.6359 16.871 13.511 17.1972 13.6426L17.1985 13.6431L23.737 16.2592C23.7371 16.2592 23.7373 16.2593 23.7374 16.2593C24.0106 16.3692 24.1903 16.6349 24.1903 16.9261V22.1619C24.1903 24.0021 22.6943 25.5001 20.8552 25.5001L20.8404 25.5001ZM20.8352 25.5001L20.8345 25.5L20.8352 25.5001Z" fill="currentColor" />
<path d="M16.926 5.23575C16.2533 5.23575 15.7073 5.78175 15.7073 6.4545C15.7073 7.12725 16.2533 7.67325 16.926 7.67325C17.6963 7.67325 18.3268 8.3005 18.3268 9.074C18.3268 9.74675 18.8728 10.2928 19.5455 10.2928C20.2183 10.2928 20.7643 9.74675 20.7643 9.074C20.7643 6.95825 19.0418 5.23575 16.926 5.23575ZM23.3415 2.6585C21.6288 0.9425 19.3505 0 16.926 0C16.2533 0 15.7073 0.546 15.7073 1.21875C15.7073 1.8915 16.2533 2.4375 16.926 2.4375C20.5855 2.4375 23.5625 5.4145 23.5625 9.074C23.5625 9.74675 24.1085 10.2928 24.7813 10.2928C25.454 10.2928 26 9.74675 26 9.074C26 6.6495 25.0575 4.37125 23.3415 2.6585Z" fill="currentColor"/>
</svg>

