
<svg id="icon-id" height="1em" viewBox="0 0 17 21" fill="none" xmlns="http://www.w3.org/2000/svg">
<path d="M10.2656 14.1023C10.298 14.0711 10.7096 13.8263 10.8212 13.7495C11.0132 13.6271 11.2028 13.5359 11.3936 13.4279C12.6644 12.8471 13.7756 13.2599 15.2528 15.0047C16.0784 15.7391 16.3964 16.8551 16.0784 17.8967C15.7183 18.6074 15.1313 19.1775 14.4104 19.5167C14.3468 19.5479 13.8392 19.8539 13.6964 19.9463C11.6 21.2459 6.80363 18.2627 3.35843 13.1531C-0.0879714 8.0435 -0.977171 2.5667 1.13483 1.2359L1.42043 1.0523L1.72163 0.853098C2.07298 0.548448 2.48168 0.317096 2.9237 0.172638C3.36573 0.0281795 3.83218 -0.0264707 4.29563 0.0118983C5.26523 0.271098 6.04283 0.959898 6.39203 1.8623C7.63043 4.2023 7.36163 5.3207 5.77283 6.3299C5.64563 6.4067 5.23283 6.6515 5.20163 6.6815C4.80443 6.9263 5.47163 8.5487 6.99563 10.8275C8.55203 13.1219 9.83843 14.3615 10.2668 14.1023H10.2656ZM9.71963 4.8479C10.6381 5.13451 11.4132 5.75952 11.888 6.5963C12.3404 7.4231 12.434 8.3603 12.1532 9.2339C12.0908 9.4523 12.2012 9.7019 12.434 9.7643H12.4496C12.5553 9.79488 12.6687 9.78255 12.7654 9.72997C12.862 9.67739 12.9339 9.58882 12.9656 9.4835C13.1383 8.93772 13.1969 8.36225 13.1376 7.79288C13.0784 7.22351 12.9026 6.67242 12.6212 6.1739C12.0491 5.14013 11.0985 4.36845 9.96923 4.0211H9.95243C9.84698 3.99277 9.73466 4.00614 9.63881 4.05842C9.54295 4.11071 9.4709 4.1979 9.43763 4.3019C9.4069 4.41155 9.41876 4.52876 9.47084 4.63002C9.52292 4.73129 9.61136 4.80912 9.71843 4.8479H9.71963ZM11.4512 2.7095C14.3384 3.6299 15.9764 6.5963 15.1184 9.3275C15.056 9.5459 15.1664 9.7955 15.3992 9.8579H15.4148C15.5205 9.88848 15.6339 9.87615 15.7306 9.82357C15.8272 9.77099 15.8991 9.68243 15.9308 9.5771C16.1699 8.8095 16.2502 8.00127 16.1669 7.20163C16.0835 6.40199 15.8383 5.62769 15.446 4.9259C14.6442 3.46978 13.3063 2.38366 11.7164 1.8983C11.6632 1.87989 11.6068 1.87262 11.5507 1.87695C11.4946 1.88127 11.4399 1.89709 11.3902 1.92343C11.3405 1.94976 11.2967 1.98605 11.2615 2.03004C11.2264 2.07402 11.2007 2.12476 11.186 2.1791C11.151 2.28445 11.1591 2.39939 11.2086 2.49878C11.258 2.59817 11.3449 2.67393 11.45 2.7095H11.4512Z" fill="currentColor"/>
</svg>
