
<svg id="icon-id"  viewBox="0 0 22 22" fill="none" xmlns="http://www.w3.org/2000/svg">
<path d="M17.6467 22.0001C17.6248 22.0001 17.6055 22.0001 17.5835 21.9973C13.0075 21.7196 8.701 19.7808 5.4615 16.5386C2.21925 13.2991 0.2805 8.99259 0.00274996 4.41659C0.00274996 4.39459 0 4.37534 0 4.35334C0 2.56309 1.4575 1.10559 3.24775 1.10559H7.678C8.09875 1.10559 8.47825 1.36134 8.635 1.75459L10.8515 7.29309C11.0385 7.76334 10.8597 8.29959 10.4253 8.56084L8.50575 9.71309C9.44075 11.2558 10.747 12.5621 12.2898 13.4971L13.442 11.5776C13.7032 11.1431 14.2395 10.9616 14.7098 11.1513L20.2428 13.3651C20.6332 13.5218 20.8918 13.9013 20.8918 14.3221V18.7523C20.8918 20.5426 19.437 22.0001 17.6467 22.0001ZM2.0625 4.32859C2.5905 12.7078 9.29225 19.4096 17.6715 19.9376C18.3123 19.9238 18.8293 19.3986 18.8293 18.7551V15.0206L14.7565 13.3926L13.5465 15.4083C13.2715 15.8676 12.6885 16.0408 12.2073 15.8016C10.9093 15.1608 9.73225 14.3166 8.70925 13.2936C7.68625 12.2706 6.842 11.0936 6.20125 9.79559C5.96475 9.31434 6.13525 8.73134 6.5945 8.45634L8.61025 7.24634L6.9795 3.17084H3.24775C2.6015 3.17084 2.07625 3.68784 2.0625 4.32859Z" fill="currentColor"/>
<path d="M14.322 4.43025C13.7528 4.43025 13.2908 4.89225 13.2908 5.4615C13.2908 6.03075 13.7528 6.49275 14.322 6.49275C14.9738 6.49275 15.5073 7.0235 15.5073 7.678C15.5073 8.24725 15.9693 8.70925 16.5385 8.70925C17.1078 8.70925 17.5698 8.24725 17.5698 7.678C17.5698 5.88775 16.1123 4.43025 14.322 4.43025ZM19.7505 2.2495C18.3013 0.7975 16.3735 0 14.322 0C13.7528 0 13.2908 0.462 13.2908 1.03125C13.2908 1.6005 13.7528 2.0625 14.322 2.0625C17.4185 2.0625 19.9375 4.5815 19.9375 7.678C19.9375 8.24725 20.3995 8.70925 20.9688 8.70925C21.538 8.70925 22 8.24725 22 7.678C22 5.6265 21.2025 3.69875 19.7505 2.2495Z" fill="currentColor"/>
</svg>
