
<svg  id="icon-id" viewBox="0 0 26 26" fill="none" xmlns="http://www.w3.org/2000/svg">
<path d="M20.8552 26.0001C20.8293 26.0001 20.8065 26.0001 20.7805 25.9969C15.3725 25.6686 10.283 23.3774 6.4545 19.5456C2.62275 15.7171 0.3315 10.6276 0.00324995 5.21964C0.00324995 5.19364 0 5.17089 0 5.14489C0 3.02914 1.7225 1.30664 3.83825 1.30664H9.074C9.57125 1.30664 10.0197 1.60889 10.205 2.07364L12.8245 8.61914C13.0455 9.17489 12.8342 9.80864 12.3207 10.1174L10.0522 11.4791C11.1572 13.3024 12.701 14.8461 14.5243 15.9511L15.886 13.6826C16.1947 13.1691 16.8285 12.9546 17.3843 13.1789L23.9232 15.7951C24.3847 15.9804 24.6903 16.4289 24.6903 16.9261V22.1619C24.6903 24.2776 22.971 26.0001 20.8552 26.0001ZM2.4375 5.11564C3.0615 15.0184 10.9817 22.9386 20.8845 23.5626C21.6417 23.5464 22.2528 22.9256 22.2528 22.1651V17.7516L17.4395 15.8276L16.0095 18.2099C15.6845 18.7526 14.9955 18.9574 14.4268 18.6746C12.8928 17.9174 11.5017 16.9196 10.2928 15.7106C9.08375 14.5016 8.086 13.1106 7.32875 11.5766C7.04925 11.0079 7.25075 10.3189 7.7935 9.99389L10.1757 8.56389L8.2485 3.74739H3.83825C3.0745 3.74739 2.45375 4.35839 2.4375 5.11564Z" fill="currentColor"/>
<path d="M16.926 5.23575C16.2533 5.23575 15.7073 5.78175 15.7073 6.4545C15.7073 7.12725 16.2533 7.67325 16.926 7.67325C17.6963 7.67325 18.3268 8.3005 18.3268 9.074C18.3268 9.74675 18.8728 10.2928 19.5455 10.2928C20.2183 10.2928 20.7643 9.74675 20.7643 9.074C20.7643 6.95825 19.0418 5.23575 16.926 5.23575ZM23.3415 2.6585C21.6288 0.9425 19.3505 0 16.926 0C16.2533 0 15.7073 0.546 15.7073 1.21875C15.7073 1.8915 16.2533 2.4375 16.926 2.4375C20.5855 2.4375 23.5625 5.4145 23.5625 9.074C23.5625 9.74675 24.1085 10.2928 24.7813 10.2928C25.454 10.2928 26 9.74675 26 9.074C26 6.6495 25.0575 4.37125 23.3415 2.6585Z" fill="currentColor"/>
</svg>
