
<svg id="icon-id"  viewBox="0 0 24 24" fill="none" xmlns="http://www.w3.org/2000/svg">
<path d="M9.19746 14.8364C11.3456 16.9725 13.8386 19.029 14.8199 18.0339C16.2255 16.6143 17.0874 15.3936 20.1903 17.8747C23.2933 20.3558 20.9196 22.0275 19.5671 23.4074C18.0024 24.9862 12.1413 23.5135 6.33322 17.742C0.525164 11.9573 -0.986522 6.09293 0.578205 4.50079C1.93077 3.13421 3.58832 0.732746 6.08127 3.83741C8.58748 6.9288 7.36753 7.80447 5.96193 9.22412C4.99392 10.2192 7.04928 12.7003 9.19746 14.8364ZM12.3269 4.6202C12.3269 4.6202 11.6772 4.51406 11.2263 4.97843C10.7622 5.44281 10.7357 6.25214 11.2263 6.74305C11.518 7.03494 11.9291 7.10128 11.9291 7.10128C12.7247 7.24722 13.9314 7.51258 15.2177 8.79955C16.5039 10.0865 16.7559 11.2939 16.9018 12.1032C16.9018 12.1032 16.9681 12.5145 17.2598 12.8064C17.7504 13.2973 18.5593 13.2841 19.0234 12.8064C19.4743 12.3553 19.3814 11.7052 19.3814 11.7052C19.1295 10.0733 18.3471 8.37498 16.9946 7.02167C15.642 5.65509 13.9447 4.87229 12.3269 4.6202ZM18.4134 5.58875C20.7738 7.95042 21.7683 10.6305 21.4501 12.8064C21.4501 12.8064 21.3307 13.4963 21.7816 13.9474C22.2855 14.4516 23.0811 14.4251 23.5585 13.9474C23.8635 13.6423 23.9298 13.1514 23.9298 13.1514C24.195 11.2806 23.8635 7.49931 20.1903 3.82414C16.5172 0.148964 12.7645 -0.195998 10.8815 0.0693577C10.8815 0.0693577 10.3909 0.135696 10.0859 0.440855C9.60853 0.918495 9.58201 1.71456 10.0859 2.21874C10.5368 2.66984 11.213 2.55043 11.213 2.55043C13.3877 2.21874 16.0531 3.22709 18.4134 5.58875Z" fill="currentColor"/>
</svg>
