
<svg  id="icon-id" viewBox="0 0 30 30" fill="none" xmlns="http://www.w3.org/2000/svg">
<path d="M25.5 21.75C23.6811 21.7529 21.8736 21.4645 20.1459 20.8959C19.8812 20.8109 19.5981 20.8008 19.328 20.8669C19.058 20.9329 18.8115 21.0724 18.6159 21.27L15.3159 24.57C11.0606 22.4004 7.60039 18.9407 5.43 14.6859L8.73 11.3859C8.92787 11.1905 9.06774 10.9441 9.13409 10.674C9.20044 10.4039 9.19068 10.1207 9.10588 9.85588C8.53647 8.12773 8.24751 6.31954 8.25 4.5C8.24907 4.10246 8.09073 3.72147 7.80963 3.44037C7.52853 3.15927 7.14754 3.00093 6.75 3H1.5C1.10246 3.00093 0.721472 3.15927 0.440369 3.44037C0.159267 3.72147 0.000932101 4.10246 0 4.5C0 18.5841 11.4159 30 25.5 30C26.3259 30 27 29.3241 27 28.5V23.25C26.9991 22.8525 26.8407 22.4715 26.5596 22.1904C26.2785 21.9093 25.8975 21.7509 25.5 21.75ZM22 15L30 7.5L22 0V5H15V10H22V15Z" fill="currentColor"/>
</svg>
