
<svg id="icon-id"  viewBox="0 0 20 20" fill="none" xmlns="http://www.w3.org/2000/svg">
<path d="M3.93333 2.225C3.99755 3.19836 4.16516 4.16212 4.43333 5.1L3.1 6.43333C2.64197 5.08666 2.36183 3.68592 2.26667 2.26667L3.93333 2.225ZM14.8917 15.5583C15.8333 15.825 16.7992 15.9917 17.775 16.0583V17.725C16.3401 17.6246 14.9235 17.3447 13.5583 16.8917L14.8917 15.5583ZM5 0H1.10833C0.815059 0.00218057 0.534415 0.119651 0.327033 0.327033C0.119651 0.534415 0.00218057 0.815059 0 1.10833C0 6.11871 1.99037 10.9239 5.53324 14.4668C9.07612 18.0096 13.8813 20 18.8917 20C19.1849 19.9978 19.4656 19.8804 19.673 19.673C19.8804 19.4656 19.9978 19.1849 20 18.8917V15C19.9978 14.7067 19.8804 14.4261 19.673 14.2187C19.4656 14.0113 19.1849 13.8938 18.8917 13.8917C17.5442 13.8917 16.205 13.6783 14.925 13.2583C14.8126 13.2187 14.6942 13.1989 14.575 13.2C14.2818 13.2037 14.0014 13.3201 13.7917 13.525L11.3417 15.9667C8.19475 14.3569 5.63476 11.7969 4.025 8.65L6.46667 6.20833C6.6133 6.06364 6.71671 5.88095 6.76528 5.68076C6.81386 5.48057 6.80568 5.2708 6.74167 5.075C6.32105 3.79485 6.10725 2.45581 6.10833 1.10833C6.10615 0.815059 5.98868 0.534415 5.7813 0.327033C5.57392 0.119651 5.29327 0.00218057 5 0Z" fill="currentColor"/>
</svg>
