
<svg id="icon-id"  height="1em" viewBox="0 0 24 27" fill="none" xmlns="http://www.w3.org/2000/svg">
<path d="M22.3863 20.0244C21.6493 19.1113 20.4524 17.7882 19.4278 17.6628C18.8044 17.5866 18.088 18.0948 17.3819 18.5743C17.2441 18.642 16.1799 19.2655 16.0507 19.3027C15.3688 19.4942 13.9136 19.5501 13.0336 18.7606C12.1864 17.9982 10.8466 16.587 9.76511 15.2944C8.73185 13.9628 7.64866 12.3619 7.09414 11.3793C6.51552 10.3611 6.93227 9.01423 7.29046 8.42128C7.3559 8.31455 8.14806 7.51323 8.32544 7.32687L8.35127 7.35737C9.00739 6.81524 9.6945 6.26465 9.77199 5.66831C9.89943 4.67554 8.8679 3.23045 8.13084 2.31561C7.39379 1.39908 6.25204 -0.205267 4.69699 0.0217472C4.11148 0.106454 3.60691 0.308057 3.10922 0.597754L3.09545 0.582507L3.01279 0.64519L2.96974 0.667214L2.9749 0.67399C2.68903 0.89084 1.87276 1.49057 1.77977 1.57188C0.770625 2.45453 -0.74826 4.53324 0.426206 8.2722C1.29758 11.0506 3.15572 14.3135 5.6872 17.6137L5.67342 17.6255C5.79741 17.7848 5.92484 17.9288 6.054 18.083C6.17455 18.2405 6.29337 18.3964 6.41736 18.5522L6.43458 18.5404C9.12105 21.7237 11.9384 24.2683 14.5095 25.7693C17.9709 27.7887 20.4317 26.8789 21.5683 26.1555C21.6751 26.0861 22.4879 25.4643 22.7635 25.2593L22.7703 25.2661C22.7807 25.2559 22.7876 25.2424 22.8013 25.2322C22.8262 25.2138 22.8509 25.1951 22.8754 25.1763L22.8651 25.1628C23.2818 24.7663 23.6159 24.3428 23.8466 23.8091C24.4511 22.4047 23.1234 20.941 22.3863 20.0244Z" fill="currentColor"/>
</svg>
