
<svg id="icon-id" viewBox="0 0 24 24" fill="none" xmlns="http://www.w3.org/2000/svg">
<path d="M5.31357 18.6798C10.6629 24.0057 18.1319 25.4674 23.1012 22.454C23.3471 22.2994 23.5548 22.0909 23.7086 21.8442C23.8624 21.5976 23.9584 21.3192 23.9892 21.0301C24.02 20.7409 23.9849 20.4486 23.8865 20.175C23.7881 19.9014 23.629 19.6537 23.4211 19.4506L20.5115 16.5374C20.1871 16.2046 19.7537 16.0002 19.2909 15.9616C18.828 15.9229 18.3668 16.0527 17.9919 16.3272L15.3422 18.2093C13.0004 17.686 10.8607 16.4931 9.18305 14.7754C7.46752 13.0957 6.27609 10.9533 5.75351 8.60854L7.66325 5.98561C7.92916 5.61266 8.05404 5.15722 8.01558 4.7006C7.97712 4.24399 7.77782 3.81592 7.45328 3.49283L4.54367 0.579577C4.34082 0.371487 4.09347 0.212187 3.82023 0.113674C3.54699 0.0151611 3.25499 -0.0199985 2.96622 0.0108427C2.67744 0.041684 2.39942 0.137722 2.15308 0.291726C1.90674 0.44573 1.69851 0.653686 1.54407 0.899934C-1.46553 5.84546 -0.00572395 13.3238 5.31357 18.6798Z" fill="currentColor"/>
<path d="M7.24306 16.7569C2.18937 11.7033 0.920839 4.60356 3.93873 0C4.09565 0.0857652 4.24019 0.192452 4.36839 0.317134L7.34536 3.2941C7.6854 3.62603 7.89433 4.06946 7.93379 4.54301C7.97325 5.01656 7.8406 5.48846 7.56019 5.87209L5.63692 8.58307C6.1716 10.9792 7.39061 13.1684 9.14586 14.8848C10.8623 16.6401 13.0515 17.8591 15.4476 18.3938L18.1279 16.4398C18.509 16.1677 18.9744 16.04 19.441 16.0793C19.9076 16.1187 20.3451 16.3226 20.6752 16.6546L23.6829 19.6316C23.8075 19.7598 23.9142 19.9044 24 20.0613C19.3964 23.0792 12.2967 21.8106 7.24306 16.7569Z" fill="currentColor"/>
</svg>
