
<svg id="icon-id" height="1em" viewBox="0 0 24 26" fill="none" xmlns="http://www.w3.org/2000/svg">
<path d="M22.3863 19.2828C21.6493 18.4035 20.4524 17.1294 19.4278 17.0086C18.8044 16.9352 18.088 17.4246 17.3819 17.8863C17.2441 17.9516 16.1799 18.5519 16.0507 18.5878C15.3688 18.7722 13.9136 18.826 13.0336 18.0658C12.1864 17.3316 10.8466 15.9727 9.76511 14.7279C8.73185 13.4457 7.64866 11.904 7.09414 10.9578C6.51552 9.97733 6.93227 8.68037 7.29046 8.10939C7.3559 8.00661 8.14806 7.23496 8.32544 7.05551L8.35127 7.08487C9.00739 6.56283 9.6945 6.03262 9.77199 5.45837C9.89943 4.50238 8.8679 3.1108 8.13084 2.22985C7.39379 1.34726 6.25204 -0.197665 4.69699 0.0209418C4.11148 0.102511 3.60691 0.296647 3.10922 0.575615L3.09545 0.560933L3.01279 0.621294L2.96974 0.642502L2.9749 0.649028C2.68903 0.857846 1.87276 1.43536 1.77977 1.51367C0.770625 2.36362 -0.74826 4.36534 0.426206 7.96582C1.29758 10.6413 3.15572 13.7834 5.6872 16.9613L5.67342 16.9727C5.79741 17.1261 5.92484 17.2648 6.054 17.4132C6.17455 17.5649 6.29337 17.715 6.41736 17.8651L6.43458 17.8537C9.12105 20.9191 11.9384 23.3694 14.5095 24.8148C17.9709 26.7595 20.4317 25.8834 21.5683 25.1868C21.6751 25.1199 22.4879 24.5212 22.7635 24.3238L22.7703 24.3303C22.7807 24.3205 22.7876 24.3075 22.8013 24.2977C22.8262 24.2799 22.8509 24.262 22.8754 24.2439L22.8651 24.2308C23.2818 23.8491 23.6159 23.4412 23.8466 22.9273C24.4511 21.5749 23.1234 20.1654 22.3863 19.2828Z" fill="currentColor"/>
<path fill-rule="evenodd" clip-rule="evenodd" d="M15 3.5C15 2.67157 15.6716 2 16.5 2H22.5C23.3284 2 24 2.67157 24 3.5V9.5C24 10.3284 23.3284 11 22.5 11C21.6716 11 21 10.3284 21 9.5V5H16.5C15.6716 5 15 4.32843 15 3.5Z" fill="currentColor"/>
<path fill-rule="evenodd" clip-rule="evenodd" d="M22.6389 4.02384C23.178 4.65283 23.1052 5.59978 22.4762 6.13891L15.4762 12.1389C14.8472 12.678 13.9003 12.6052 13.3611 11.9762C12.822 11.3472 12.8949 10.4003 13.5238 9.86114L20.5238 3.86114C21.1528 3.32201 22.0998 3.39485 22.6389 4.02384Z" fill="currentColor"/>
</svg>
