
<svg id="icon-id" height="1em" viewBox="0 0 18 21" fill="none" xmlns="http://www.w3.org/2000/svg">
<path d="M11.166 14.3024C11.1984 14.2712 11.61 14.0264 11.7216 13.9496C11.9136 13.8272 12.1032 13.736 12.294 13.628C13.5648 13.0472 14.676 13.46 16.1532 15.2048C16.9788 15.9392 17.2968 17.0552 16.9788 18.0968C16.6187 18.8074 16.0317 19.3776 15.3108 19.7168C15.2472 19.748 14.7396 20.054 14.5968 20.1464C12.5004 21.446 7.70399 18.4628 4.25879 13.3532C0.812389 8.24357 -0.0768113 2.76677 2.03519 1.43597L2.32079 1.25237L2.62199 1.05317C2.97334 0.748521 3.38204 0.517169 3.82406 0.372711C4.26609 0.228253 4.73254 0.173603 5.19599 0.211972C6.16559 0.471172 6.94319 1.15997 7.29239 2.06237C8.53079 4.40237 8.26199 5.52077 6.67319 6.52997C6.54599 6.60677 6.13319 6.85157 6.10199 6.88157C5.70479 7.12637 6.37199 8.74877 7.89599 11.0276C9.45239 13.322 10.7388 14.5616 11.1672 14.3024H11.166ZM10.62 5.04797C11.5384 5.33458 12.3136 5.95959 12.7884 6.79637C13.2408 7.62317 13.3344 8.56037 13.0536 9.43397C12.9912 9.65237 13.1016 9.90197 13.3344 9.96437H13.35C13.4556 9.99495 13.5691 9.98262 13.6657 9.93004C13.7623 9.87747 13.8343 9.7889 13.866 9.68357C14.0387 9.1378 14.0972 8.56233 14.038 7.99295C13.9787 7.42358 13.803 6.87249 13.5216 6.37397C12.9495 5.34021 11.9989 4.56852 10.8696 4.22117H10.8528C10.7473 4.19284 10.635 4.20621 10.5392 4.2585C10.4433 4.31078 10.3713 4.39797 10.338 4.50197C10.3073 4.61162 10.3191 4.72883 10.3712 4.8301C10.4233 4.93136 10.5117 5.00919 10.6188 5.04797H10.62ZM12.3516 2.90957C15.2388 3.82997 16.8768 6.79637 16.0188 9.52757C15.9564 9.74597 16.0668 9.99557 16.2996 10.058H16.3152C16.4208 10.0886 16.5343 10.0762 16.6309 10.0236C16.7275 9.97107 16.7995 9.8825 16.8312 9.77717C17.0703 9.00957 17.1506 8.20134 17.0672 7.4017C16.9839 6.60207 16.7386 5.82777 16.3464 5.12597C15.5446 3.66985 14.2066 2.58373 12.6168 2.09837C12.5636 2.07996 12.5072 2.0727 12.4511 2.07702C12.3949 2.08134 12.3403 2.09717 12.2906 2.1235C12.2408 2.14984 12.197 2.18613 12.1619 2.23011C12.1268 2.27409 12.1011 2.32483 12.0864 2.37917C12.0514 2.48452 12.0595 2.59946 12.1089 2.69885C12.1584 2.79825 12.2452 2.87401 12.3504 2.90957H12.3516Z" fill="currentColor"/>
</svg>
