<?xml version="1.0" encoding="utf-8"?>
<!-- Generator: Adobe Illustrator 23.1.0, SVG Export Plug-In . SVG Version: 6.00 Build 0)  -->
<svg version="1.1" id="图层_1" xmlns="http://www.w3.org/2000/svg" xmlns:xlink="http://www.w3.org/1999/xlink" x="0px" y="0px"
	 viewBox="0 0 121 104.2" style="enable-background:new 0 0 121 104.2;" xml:space="preserve">
<style type="text/css">
	.st0{fill-rule:evenodd;clip-rule:evenodd;fill:#75AFDE;}
</style>
<g>
	<path class="st0" d="M107.7,90.7c-0.2,10.9-4.6,14.8-14.8,13c-6-1-11.9-2.6-17.8-3.8c-13.4-2.9-26.6-1-39.7,2.3
		c-2.4,0.6-4.7,1.3-7.1,1.5c-4.6,0.5-9.8,1.5-12.7-3.4c-3.1-5.2-4.3-11.8-0.4-16.3c9.1-10.5,14.5-23.2,22.3-34.4
		C49.1,33,71.9,33.4,83.9,49.9c1.8,2.5,3.6,5.2,4.8,8c3.7,8.1,8.2,15.7,14.5,22.1C106.2,83,108.3,86.6,107.7,90.7z"/>
	<path class="st0" d="M39.4,27.1c-7.6,0.1-13.5-5.8-13.5-13.5c0-7.4,5.7-13.3,13-13.5c7.4-0.2,13.8,5.9,14,13.3
		C53.1,20.7,46.9,27,39.4,27.1z"/>
	<path class="st0" d="M81.7,27.1c-7.5,0-13.7-6.3-13.6-13.7S74.6-0.2,82,0c7.3,0.2,13.1,6.1,13.1,13.5
		C95.2,21.2,89.3,27.1,81.7,27.1z"/>
	<path class="st0" d="M121,41.6c0.1,6.8-5.5,12.7-12.3,13c-7,0.3-13.1-5.5-13.3-12.6c-0.2-7,5.8-13,12.8-13
		C115.1,29,120.9,34.7,121,41.6z"/>
	<path class="st0" d="M12.9,54.6C6.2,54.7,0.2,49,0,42.2c-0.2-7,5.6-13.1,12.6-13.2c6.8-0.1,12.6,5.5,12.9,12.4
		C25.7,48.4,19.9,54.5,12.9,54.6z"/>
</g>
</svg>
