<?xml version="1.0" encoding="utf-8"?>
<!-- Generator: Adobe Illustrator 23.1.0, SVG Export Plug-In . SVG Version: 6.00 Build 0)  -->
<svg version="1.1" id="图层_1" xmlns="http://www.w3.org/2000/svg" xmlns:xlink="http://www.w3.org/1999/xlink" x="0px" y="0px"
	 viewBox="0 0 353.5 397.1" style="enable-background:new 0 0 353.5 397.1;" xml:space="preserve">
<style type="text/css">
	.st0{fill-rule:evenodd;clip-rule:evenodd;fill:#75AFDE;}
</style>
<g>
	<path class="st0" d="M192.1,141.6c0,0,10,180.9-16.5,227.6s-81.4,29.3-77.3-11.5s26.3-25.7,23-11.8c-9.6,40,35.2,45,46.3-28.9
		c5.6-37.5,7.8-107.1,6.4-166L192.1,141.6z"/>
	<path class="st0" d="M169.3,52.4c0,0-0.9-46.9,11.3-52.1s11.5,52.1,11.5,52.1H169.3z"/>
	<path class="st0" d="M292.6,203.3c7.4,1.1,15.4,5.2,30.4,13c35.3,18.3,41.6-45.5,10.8-98.8c-25.2-43.6-86-78.8-152.7-80.7
		C240.5,39.7,276.4,141.9,292.6,203.3"/>
	<path class="st0" d="M135.8,40.7c0,0-103.8,16-128.3,99s15.7,85.3,50.1,57.1c4.4-3.6,8.6-5.7,12.9-6.6c16-57,49-137.4,110.3-153.4
		C166,36.3,150.9,37.6,135.8,40.7"/>
	<path class="st0" d="M181.5,196.8c3.8-0.4,7.3,0,10.5,0.9c17.1,4.9,28.7,24,57.2,15.4c24.3-7.4,33.4-11.2,43.4-9.7
		C276.7,143.2,242,44,184.7,37.1c-1.2-0.2-2.4-0.3-3.7-0.3h-0.2c-0.5,0.1-0.9,0.3-1.4,0.4C177.7,78.1,176.3,143.9,181.5,196.8"/>
	<path class="st0" d="M70.5,190.2c28.9-6.6,54.9,39.6,90.5,15.2c8-5.5,14.7-8,20.5-8.6c-5.2-52.9-3.8-118.6-2-159.6
		C119,54,86.4,133.6,70.5,190.2"/>
</g>
</svg>
