<?xml version="1.0" encoding="utf-8"?>
<!-- Generator: Adobe Illustrator 21.0.0, SVG Export Plug-In . SVG Version: 6.00 Build 0)  -->
<svg version="1.1" id="图层_1" xmlns="http://www.w3.org/2000/svg" xmlns:xlink="http://www.w3.org/1999/xlink" x="0px" y="0px"
	 viewBox="0 0 820 676" style="enable-background:new 0 0 820 676;" xml:space="preserve">
<path class="st0" d="M116.6,182.1c0,0,179,114.4,179.9,17.6c0,0,59.2,37.2,16.8-78.2c0,0,51.3,67,86.6,14.9
	c0,0,21.8,109.9,110.7-14.9c0,0-80.7,165.7,89,89.4c0,0-92.9,106.8,127.1,71c0,0-289.7,53.8-116.5,219.5c0,0-179.7-169.4-99.6,54
	c0,0-73.8-182.5-68.4-35.4c0,0-30-119.2-117.5,35.4c0,0,85.8-214.1-28.2-89.4c0,0,5-100.5-123.2,7.4
	C173.3,473.4,353.4,327.3,116.6,182.1z"/>
<path class="st1" d="M116.8,181.7c7.7,4.7,15.5,9.1,23.4,13.4c7.9,4.3,15.9,8.4,24,12.4c16.2,7.9,32.7,15.1,49.8,20.6
	c8.5,2.8,17.2,5.1,25.9,6.6c8.7,1.5,17.7,2.3,26.2,1.1c4.3-0.6,8.4-1.8,12.1-3.8c3.7-1.9,6.9-4.7,9.3-8.1c2.4-3.4,4-7.4,5-11.5
	c1-4.2,1.3-8.5,1.4-12.9l0-4.4l3.8,2.3c1.8,1.1,3.9,2.1,5.9,2.9c2.1,0.8,4.2,1.5,6.3,1.9c2.1,0.4,4.2,0.5,6.1,0.3
	c1.9-0.3,3.6-1,4.9-2.2c2.7-2.4,4-6.6,4.4-10.9c0.5-4.3,0.2-8.9-0.4-13.4c-1.1-9.1-3.4-18.1-6-27c-2.6-8.9-5.7-17.7-8.9-26.5l-7-19
	l12.5,15.9c1.3,1.6,2.7,3.3,4.1,4.9c1.4,1.6,2.9,3.2,4.4,4.7c3,3.1,6.2,6,9.5,8.7c6.6,5.4,13.9,10.1,21.7,12.8
	c3.9,1.3,7.9,2.2,11.9,2.2c4,0,7.9-0.7,11.5-2.3c7.3-3.1,13.3-9.2,18-16.2l4.6-6.7l1.7,8c0.6,3,1.6,6.2,2.6,9.2c1,3,2.2,6,3.6,8.9
	c2.7,5.8,6.1,11.2,10.4,15.5c4.3,4.3,9.6,7.3,15.3,7.9c5.8,0.7,11.8-0.8,17.4-3.4c5.7-2.6,10.9-6.3,15.9-10.4
	c2.5-2.1,4.9-4.2,7.3-6.5c1.2-1.1,2.4-2.2,3.5-3.4c1.2-1.1,2.3-2.3,3.4-3.5c9-9.5,17.1-20,24.8-30.7l6.4,3.8
	c-1.8,3.8-3.5,7.8-5.1,11.8c-1.6,4-3.1,8-4.5,12.1c-2.8,8.1-5.2,16.4-7,24.7c-1.7,8.3-2.7,16.8-2.3,25.1c0.5,8.2,2.7,16.3,8,22
	c2.6,2.8,5.9,4.9,9.6,6.4c3.7,1.4,7.7,2.2,11.8,2.5c8.3,0.6,16.8-0.5,25.1-2.3c8.4-1.8,16.6-4.3,24.8-7.2c8.2-2.9,16.2-6.2,24.1-9.7
	l10.7-4.7l-7.6,8.9c-2.7,3.2-5.3,6.7-7.7,10.3c-2.4,3.6-4.5,7.4-6.3,11.3c-1.8,3.9-3.3,7.9-4.2,12c-0.9,4.1-1.3,8.3-0.7,12.3
	c0.6,4,2.2,7.9,4.7,11.1c2.5,3.3,5.8,5.8,9.5,8c3.7,2.1,7.7,3.7,11.8,5c4.1,1.3,8.4,2.2,12.7,2.9c4.3,0.7,8.7,1.2,13,1.6
	c4.4,0.3,8.8,0.5,13.2,0.5c4.4,0.1,8.8,0,13.2-0.1c4.4-0.1,8.8-0.4,13.2-0.7c17.6-1.2,35.1-3.5,52.6-6.2l0.5,2.7
	c-6.9,1.3-13.8,2.9-20.7,4.7c-6.9,1.8-13.7,3.6-20.4,5.8c-13.5,4.2-26.8,9-39.8,14.6c-13,5.6-25.6,12-37.5,19.6
	c-11.8,7.6-23,16.4-32.2,27c-4.5,5.3-8.6,11.1-11.7,17.2c-3.2,6.2-5.5,12.8-6.7,19.6c-2.5,13.6-0.4,27.8,4.6,40.7
	c2.5,6.5,5.6,12.8,9.2,18.8c3.6,6,7.6,11.8,11.9,17.3c8.6,11.1,18.3,21.3,28.5,31l-3.7,3.9c-7.6-6.9-15.5-13.6-23.5-20
	c-8-6.4-16.3-12.6-24.8-18.3c-8.5-5.7-17.2-11.1-26.4-15.4c-4.6-2.1-9.2-4-14-5.2c-4.7-1.2-9.6-1.7-13.8-0.7c-4.2,1-7.4,3.7-9.3,7.7
	c-1.9,4-2.7,8.8-3,13.7c-0.4,9.8,1.1,20,3.1,29.9c2.1,10,4.7,19.9,7.7,29.7c3,9.8,6.3,19.6,9.8,29.3l-7.2,2.8
	c-2.7-6.6-5.6-13.2-8.5-19.7c-2.9-6.5-6-13-9.2-19.4c-3.2-6.4-6.4-12.7-9.9-18.9c-3.5-6.2-7.1-12.3-11.1-18c-2-2.8-4.1-5.6-6.4-8.1
	c-2.2-2.4-4.8-4.7-6.9-5.6c-1.1-0.4-1.7-0.4-2.1-0.2c-0.4,0.2-1.2,0.9-1.9,2c-1.4,2.3-2.3,5.6-2.9,8.8c-1.3,6.6-1.7,13.7-1.9,20.8
	c-0.2,7.1,0,14.2,0.2,21.3l1.4,37.6l-9.9-36.4c-0.9-3.2-2.1-6.7-3.4-10c-1.3-3.3-2.8-6.5-4.5-9.6c-3.4-6.1-7.6-11.8-12.8-15.8
	c-2.6-2-5.4-3.5-8.4-4.3c-3-0.9-6.1-1-9.2-0.6c-6.3,0.8-12.5,4.1-18.1,8.2c-2.8,2-5.5,4.3-8.1,6.8c-2.6,2.4-5.1,5-7.5,7.7
	c-4.9,5.3-9.4,11.1-13.7,17c-2.1,3-4.3,5.9-6.3,9c-2.1,3-4,6.1-6,9.2c-1.9,3.1-3.9,6.2-5.7,9.4c-1.9,3.1-3.7,6.4-5.5,9.5l-8.1-3.9
	c3.1-7.7,6-15.6,8.8-23.5c2.8-7.9,5.5-15.8,8.1-23.8c2.6-8,5-16,7.1-24c2.1-8,4.1-16.1,5.4-24.2c0.7-4,1.2-8.1,1.3-12.1
	c0.2-3.9,0-7.9-0.9-11.1c-0.5-1.6-1.2-2.7-1.8-3.2c-0.6-0.5-1.5-0.7-2.9-0.6c-2.9,0.3-6.5,2.1-9.8,4.2c-6.7,4.3-12.9,9.8-18.9,15.4
	c-6,5.7-11.8,11.7-17.5,17.9l-7.4,7.9l0.4-10.9c0.1-3-0.1-6.4-0.5-9.6c-0.4-3.2-1.1-6.4-2.1-9.4c-1-3-2.2-5.9-3.9-8.5
	c-1.6-2.6-3.7-4.8-6-6.5c-2.3-1.8-5.1-3-8-3.7c-2.9-0.7-6-0.9-9.2-0.8c-6.3,0.3-12.8,2-19,4.4c-3.1,1.2-6.2,2.5-9.2,4
	c-3,1.5-6,3-9,4.7c-3,1.7-5.9,3.4-8.8,5.2c-2.9,1.8-5.7,3.7-8.6,5.6c-11.3,7.7-22.1,16.1-32.7,24.9l-4.2-5.1
	c5.5-4.6,10.9-9.9,15.9-15.3c5.1-5.4,9.8-11.1,14.3-17c9-11.8,16.8-24.5,22.8-38.1c6-13.5,10.1-27.9,11.5-42.6
	c1.5-14.7,0.3-29.6-3.4-44c-1.8-7.2-4.4-14.2-7.4-20.9c-3-6.8-6.5-13.4-10.5-19.7c-1.9-3.2-4.1-6.2-6.1-9.3c-2.3-3-4.4-6.1-6.8-8.9
	l-3.5-4.4l-3.7-4.2c-2.4-2.9-5.1-5.5-7.6-8.3c-2.6-2.7-5.3-5.3-8-7.9c-2.8-2.5-5.5-5.1-8.3-7.6c-5.6-5-11.4-9.8-17.3-14.3
	c-5.9-4.6-12-9-18.2-13.3c-3.1-2.1-6.2-4.3-9.3-6.3l-9.5-6.1L116.8,181.7z M116.8,181.7l9.6,5.9c3.2,2,6.3,4.1,9.5,6.1
	c6.3,4.2,12.5,8.5,18.5,13c6.1,4.5,12,9.2,17.7,14.1c2.9,2.4,5.7,5,8.5,7.5c2.7,2.6,5.5,5.2,8.2,7.9c2.6,2.7,5.3,5.4,7.8,8.2
	l3.8,4.2l3.6,4.4c2.5,2.9,4.7,6,7,8.9c2.2,3.1,4.5,6.2,6.4,9.4c4.2,6.4,7.9,13,11,20c3.2,6.9,5.9,14.1,7.9,21.5
	c4.1,14.7,5.5,30.3,4.2,45.5c-1.3,15.3-5.4,30.3-11.3,44.4c-6,14.1-13.8,27.3-22.9,39.6c-4.5,6.1-9.4,12-14.6,17.6
	c-5.2,5.6-10.5,11-16.5,16.1l-4.2-5.1c10.6-9,21.5-17.7,33-25.6c2.9-2,5.8-3.9,8.8-5.8c3-1.9,6-3.7,9-5.4c3.1-1.7,6.2-3.4,9.4-5
	c3.2-1.5,6.4-3,9.8-4.3c6.7-2.6,13.7-4.6,21.2-5c3.7-0.2,7.6,0,11.4,0.9c3.8,0.9,7.5,2.5,10.7,4.9c3.2,2.3,5.9,5.3,8,8.5
	c2.1,3.2,3.7,6.7,4.9,10.3c1.2,3.5,2,7.2,2.5,10.8c0.5,3.7,0.8,7.2,0.7,11.1l-7-2.9c5.7-6.3,11.6-12.5,17.7-18.4
	c6.2-5.9,12.6-11.7,20.1-16.6c1.9-1.2,3.9-2.3,6.1-3.3c2.2-1,4.5-1.9,7.3-2.2c1.4-0.2,2.9-0.2,4.5,0.2c1.6,0.3,3.2,1.1,4.5,2.1
	c2.7,2.1,4,4.9,4.8,7.3c1.5,5,1.5,9.5,1.4,14c-0.2,4.5-0.7,8.8-1.4,13.1c-1.4,8.5-3.3,16.9-5.5,25.1c-2.2,8.2-4.6,16.4-7.1,24.5
	c-2.6,8.1-5.3,16.1-8.1,24.1c-2.8,8-5.8,15.9-8.9,23.8l-8.1-3.9c1.9-3.2,3.7-6.5,5.7-9.7c1.9-3.2,3.9-6.4,5.9-9.6
	c2-3.2,4-6.3,6.2-9.4c2.1-3.1,4.3-6.2,6.5-9.3c4.4-6.1,9.2-12.1,14.3-17.7c2.6-2.8,5.2-5.6,8.1-8.2c2.8-2.6,5.8-5.2,9-7.4
	c3.2-2.3,6.6-4.4,10.3-6.2c3.7-1.7,7.7-3.1,11.9-3.6c4.2-0.6,8.7-0.3,12.8,0.9c4.2,1.2,8,3.3,11.3,5.8c3.3,2.5,6.1,5.5,8.6,8.7
	c2.5,3.2,4.6,6.5,6.5,9.9c1.9,3.4,3.5,7,4.9,10.5c1.4,3.6,2.7,7.2,3.7,11.1l-8.5,1.2c-0.2-7.3-0.3-14.5-0.1-21.9
	c0.2-7.3,0.7-14.7,2.1-22.2c0.8-3.8,1.7-7.6,4-11.5c1.2-1.9,2.9-4.1,5.8-5.3c1.4-0.6,3.1-0.8,4.5-0.7c1.5,0.1,2.8,0.5,3.9,1
	c2.3,1,4,2.2,5.6,3.6c1.6,1.3,3,2.7,4.3,4.2c2.6,2.9,4.8,5.9,7,8.9c4.2,6.1,8,12.4,11.5,18.8c3.5,6.4,6.8,12.8,10,19.4
	c3.2,6.5,6.2,13.1,9.2,19.7c2.9,6.6,5.8,13.2,8.5,20l-7.2,2.8c-6.9-19.6-13.3-39.5-17.4-60.2c-1-5.2-1.8-10.4-2.4-15.7
	c-0.6-5.3-0.8-10.6-0.5-16.1c0.3-5.4,1.2-11,3.8-16.4c1.3-2.7,3.2-5.2,5.6-7.2c2.4-2,5.4-3.4,8.3-4c6-1.3,11.7-0.4,17,0.9
	c5.3,1.4,10.3,3.4,15.1,5.7c9.6,4.6,18.5,10.2,27.1,16.1c8.6,6,16.9,12.3,24.9,18.9c8.1,6.6,15.9,13.4,23.5,20.6l-3.7,3.9
	c-10.2-10-20-20.5-28.6-32c-4.3-5.7-8.3-11.7-11.9-18c-3.6-6.2-6.8-12.8-9.2-19.6c-2.5-6.8-4.3-13.9-5.1-21.1
	c-0.8-7.2-0.6-14.6,0.8-21.8c1.4-7.2,3.9-14.1,7.3-20.5c3.4-6.4,7.6-12.3,12.4-17.7c9.5-10.8,20.9-19.7,33-27.4
	c12.1-7.6,24.9-14,38-19.6c13.1-5.6,26.5-10.4,40.1-14.6c13.6-4.1,27.3-7.9,41.3-10.7l0.5,2.7c-17.5,2.9-35.1,5.3-52.8,6.6
	c-4.4,0.3-8.9,0.6-13.3,0.8c-4.4,0.2-8.9,0.3-13.3,0.2c-4.5,0-8.9-0.2-13.4-0.5c-4.5-0.3-8.9-0.7-13.3-1.4
	c-4.4-0.6-8.9-1.6-13.2-2.8c-4.3-1.3-8.6-2.9-12.7-5.1c-4-2.2-7.9-5.1-10.8-8.8c-3-3.7-5-8.3-5.8-13c-0.8-4.7-0.4-9.5,0.5-14
	c0.9-4.5,2.5-8.9,4.3-13.1c1.9-4.2,4.1-8.1,6.5-12c2.4-3.8,5-7.5,8-11.1l3.1,4.2c-8,3.6-16.1,7.1-24.4,10.2
	c-8.3,3.1-16.7,5.8-25.4,7.8c-8.7,2-17.6,3.3-26.9,2.8c-4.6-0.3-9.3-1.1-13.8-2.7c-4.5-1.6-8.8-4.3-12.2-7.9
	c-3.4-3.6-5.9-7.9-7.4-12.4c-1.6-4.5-2.3-9.1-2.7-13.7c-0.6-9.2,0.5-18.2,2.2-27c1.7-8.8,4.2-17.3,7-25.7c1.4-4.2,3-8.3,4.6-12.5
	c1.7-4.1,3.4-8.1,5.3-12.3l6.4,3.8c-7.8,10.9-16.1,21.6-25.4,31.5c-1.2,1.2-2.3,2.5-3.5,3.7c-1.2,1.2-2.4,2.4-3.7,3.6
	c-2.5,2.4-5.1,4.6-7.7,6.8c-5.4,4.3-11.1,8.3-17.6,11.3c-3.2,1.5-6.7,2.7-10.3,3.4c-3.6,0.7-7.4,1-11.1,0.5
	c-3.8-0.4-7.4-1.7-10.7-3.4c-3.3-1.8-6.2-4.1-8.8-6.7c-5.1-5.2-8.8-11.3-11.7-17.6c-1.5-3.2-2.7-6.4-3.8-9.7
	c-1.1-3.3-2-6.5-2.8-10.1l6.3,1.3c-1.3,1.9-2.7,3.8-4.2,5.6c-1.5,1.8-3.1,3.5-4.9,5.1c-3.5,3.2-7.5,6-12,7.9
	c-4.5,1.9-9.4,2.8-14.3,2.7c-4.9-0.1-9.6-1.1-14-2.7c-8.9-3.2-16.6-8.3-23.6-14.1c-3.5-2.9-6.8-6-10-9.2c-1.6-1.6-3.1-3.3-4.6-5
	c-1.5-1.7-2.9-3.4-4.4-5.3l5.5-3c3.2,8.9,6.3,17.8,8.8,27c2.5,9.1,4.8,18.4,5.8,28c0.5,4.8,0.8,9.7,0.2,14.7c-0.3,2.5-0.8,5-1.8,7.5
	c-1,2.5-2.4,5-4.7,6.9c-2.2,1.9-5,3.1-7.7,3.4c-2.7,0.4-5.4,0.1-7.9-0.4c-2.5-0.5-4.9-1.3-7.2-2.3c-2.3-1-4.4-2-6.7-3.4l3.9-2.1
	c-0.1,4.7-0.5,9.3-1.7,14c-1.1,4.6-3,9.1-5.9,13.1c-2.9,4-6.7,7.2-11,9.4c-4.3,2.2-9,3.4-13.6,4c-4.7,0.6-9.3,0.6-13.9,0.3
	c-4.6-0.3-9.2-0.9-13.6-1.8c-9-1.8-17.7-4.3-26.3-7.3c-17.1-6-33.6-13.6-49.7-21.8c-8-4.1-16-8.4-23.8-13
	c-7.8-4.5-15.5-9.2-23.1-14.1L116.8,181.7z"/>
<path d="M197,164.7c0,0,2.7,1.7,7.4,4.6c4.7,2.9,11.5,7.1,19.6,11.9c4.1,2.4,8.6,4.9,13.3,7.5c4.8,2.5,9.9,5.1,15.2,7.3
	c2.7,1.1,5.4,2.1,8.2,2.7c1.4,0.3,2.7,0.5,4,0.6c1.3,0.1,2.4-0.1,3-0.4c0.1-0.1,0.3-0.2,0.4-0.3c0.1,0,0.1-0.1,0.1-0.1l0.1-0.1l0,0
	l0,0c-0.4,0.6-0.1,0.1-0.1,0.2l0.3-0.5c0.1-0.1-0.1,0-0.1,0c0,0.1,0,0,0,0c0-0.1,0-0.1,0-0.2c0-0.7-0.4-1.9-1.1-3.1
	c-1.3-2.4-3.1-4.9-5.1-7.2c-3.9-4.7-8.3-9.2-12.8-13.4c-4.5-4.2-8.9-8.4-13.4-12.3c-8.8-7.9-17.3-15-24.5-21.2
	c-14.5-12.3-24.2-20.5-24.2-20.5c0,0,10.9,6.6,26.4,17.7c3.9,2.8,8.1,5.8,12.4,9.2c4.3,3.3,8.9,6.9,13.5,10.7
	c4.6,3.8,9.4,7.8,13.9,12.1c4.6,4.3,9.2,8.8,13.4,13.8c2.1,2.6,4.1,5.2,5.7,8.4c0.8,1.6,1.6,3.4,1.7,5.8c0,0.3,0,0.6-0.1,1
	c0,0.3-0.1,0.6-0.2,1.1c-0.1,0.4-0.3,1-0.4,1.2l-0.3,0.5l-0.2,0.4l-0.1,0.1l-0.2,0.2l-0.3,0.4c-0.2,0.3-0.4,0.5-0.7,0.7
	c-0.5,0.4-1,0.8-1.6,1.1c-2.2,1.1-4.3,1.1-6.1,1c-1.8-0.1-3.5-0.5-5.1-0.9c-3.2-0.9-6.1-2.1-8.9-3.3c-5.6-2.5-10.6-5.4-15.3-8.3
	c-4.7-2.9-9-5.8-12.9-8.5c-7.8-5.5-14.1-10.4-18.4-13.9C199.4,166.8,197,164.7,197,164.7z"/>
<path d="M590.4,89c0,0-8.1,9.3-20.6,22.8c-3.1,3.4-6.5,7-10.1,10.9c-3.6,3.9-7.4,7.9-11.3,12.1c-3.9,4.2-8,8.6-12.1,13
	c-4.1,4.4-8.3,8.9-12.3,13.5c-4.1,4.5-8.2,9.1-11.9,13.7c-0.9,1.2-1.8,2.3-2.6,3.5c-0.4,0.6-0.8,1.1-1.1,1.7
	c-0.2,0.3-0.3,0.5-0.4,0.7c-0.1,0.2-0.1,0.4-0.1,0.2c0-0.2,0-0.7-0.6-1.4c-0.4-0.3-0.5-0.4-0.9-0.5c-0.2,0-0.3-0.1-0.4,0
	c-0.2,0,0.1,0,0.3-0.1c0.5-0.2,1.1-0.4,1.7-0.7c1.2-0.6,2.4-1.4,3.6-2.1c4.7-3,9.3-6.3,13.5-9.3c4.2-3.1,8.3-6.1,12-8.8
	c7.4-5.5,13.6-10,17.9-13.2c4.4-3.2,6.8-5,6.8-5s-2.2,2.1-6.2,5.8c-4,3.6-9.6,8.8-16.7,14.8c-3.5,3-7.3,6.2-11.4,9.5
	c-4.1,3.3-8.5,6.8-13.4,10.1c-1.2,0.8-2.5,1.6-3.9,2.4c-0.7,0.4-1.4,0.8-2.3,1.1c-0.5,0.2-1,0.4-1.9,0.4c-0.3,0-0.6,0-0.9-0.1
	c-0.5-0.2-0.9-0.3-1.3-0.7c-0.5-0.5-0.7-0.9-0.8-1.4c-0.1-0.3-0.1-0.4-0.1-0.6c0-0.2,0-0.3,0-0.5c0.1-1,0.3-1.5,0.5-1.9
	c0.2-0.5,0.4-0.9,0.6-1.2c0.4-0.7,0.9-1.4,1.3-2.1c0.9-1.3,1.8-2.5,2.8-3.8c3.8-4.8,7.9-9.5,12-14.1c4.2-4.6,8.4-9,12.5-13.4
	c4.2-4.4,8.4-8.6,12.4-12.7c4-4.1,8-8,11.8-11.7c3.8-3.7,7.4-7.1,10.8-10.3C581,97,590.4,89,590.4,89z"/>
<path d="M704.3,434.7c0,0-11.7-4.9-29-12.8c-8.6-3.9-18.7-8.5-29.5-13.4c-5.4-2.4-11-4.9-16.6-7.5c-5.7-2.5-11.4-5-17.2-7.4
	c-2.9-1.2-5.8-2.3-8.7-3.4c-1.4-0.5-2.9-1-4.3-1.4c-1.4-0.4-2.9-0.8-4-0.9c-0.3,0-0.5,0-0.6,0c-0.1,0,0,0,0,0c0.1,0,0.2-0.1,0.3-0.1
	c0.1-0.1,0.3-0.2,0.4-0.3c0.3-0.3,0.6-0.8,0.6-1.2c0-0.1,0-0.3,0-0.4c0-0.1,0-0.1,0-0.1c0-0.1,0,0.1,0.1,0.3c0.5,0.9,1.5,2,2.4,3
	c2,2.1,4.2,4,6.4,6c8.9,7.6,17.7,14.3,25.2,20.2c7.5,5.8,13.7,10.7,18.1,14.1c4.3,3.5,6.8,5.4,6.8,5.4s-2.8-1.6-7.5-4.4
	c-4.8-2.8-11.5-7-19.5-12.2c-4-2.6-8.3-5.4-12.8-8.6c-4.5-3.1-9.2-6.5-13.9-10.2c-2.4-1.9-4.7-3.8-7-6.1c-1.2-1.2-2.3-2.3-3.5-4
	c-0.3-0.5-0.6-1-0.8-1.8c-0.1-0.2-0.1-0.4-0.1-0.7c0-0.3,0-0.6,0-1c0.1-0.4,0.2-0.8,0.3-1.2c0.2-0.4,0.5-0.8,0.8-1.1
	c0.3-0.3,0.6-0.5,0.9-0.7c0.3-0.1,0.5-0.3,0.8-0.4c0.4-0.1,0.9-0.2,1.2-0.3c0.7-0.1,1.2-0.1,1.7,0c2,0.2,3.6,0.6,5.2,1
	c1.6,0.4,3.1,0.9,4.7,1.5c3.1,1,6.1,2.2,9,3.4c5.9,2.4,11.7,5,17.4,7.7c5.7,2.6,11.2,5.4,16.5,8c5.3,2.6,10.4,5.3,15.2,7.9
	c4.8,2.5,9.3,5,13.5,7.3C693.5,427.9,704.3,434.7,704.3,434.7z"/>
<path d="M550.8,475.7c0,0-1.5-1-4-2.8c-1.3-0.9-2.8-1.9-4.6-3c-1.8-1.1-4-2.3-6.1-2.9c-0.5-0.1-1-0.2-1.3-0.1c-0.3,0.1,0,0-0.1,0.2
	c0,0.1-0.1,0.6-0.1,1.2c0,0.5,0.1,1.2,0.2,1.8c0.6,2.7,1.7,5.6,2.9,8.6c1.2,3,2.7,6,4.1,9.2c1.4,3.1,3,6.3,4.6,9.4
	c3.1,6.3,6.3,12.6,9.2,18.6c1.5,2.9,2.9,5.8,4.2,8.6c1.3,2.7,2.6,5.3,3.7,7.7c2.3,4.8,4.1,8.9,5.3,11.7c1.2,2.9,1.9,4.5,1.9,4.5
	s-1.1-1.4-3-3.9s-4.5-6.1-7.4-10.6c-3-4.4-6.3-9.7-9.6-15.5c-1.7-2.9-3.4-5.9-5.1-9c-1.7-3.1-3.3-6.3-4.9-9.5
	c-1.5-3.2-3-6.5-4.5-9.7c-1.4-3.2-2.6-6.5-3.7-9.7c-1.1-3.2-2-6.5-2.3-9.8c-0.1-0.9-0.1-1.7-0.1-2.7c0.1-0.9,0.2-1.9,0.9-3.1
	c0.3-0.6,0.9-1.1,1.5-1.5c0.6-0.3,1.3-0.5,1.9-0.5c1.1,0,2,0.3,2.7,0.5c2.9,1.2,4.7,2.9,6.4,4.4c1.7,1.5,3,2.9,4,4
	C549.7,474.2,550.8,475.7,550.8,475.7z"/>
<path d="M279.2,592.7c0,0,4-10.7,10.4-26.6c3.2-7.9,6.9-17.2,10.8-27.1c2-5,4-10.1,6-15.3c2.1-5.2,4.1-10.5,6-15.8
	c2-5.3,3.9-10.6,5.6-15.9c1.6-5.3,3.2-10.5,4-15.5c0.2-1.2,0.3-2.4,0.3-3.5c0-1.1-0.2-2.1-0.3-2.4c0,0,0-0.1,0-0.1c0,0,0,0,0,0
	c0,0,0,0,0,0c0,0,0,0,0,0c0,0-0.1,0-0.2,0c-0.1,0-0.1,0-0.2,0l-0.3,0.1c-0.2,0.1-0.4,0.1-0.6,0.1l-0.7,0.3c-0.5,0.1-0.9,0.5-1.4,0.7
	c-1.9,1.1-3.7,2.5-5.5,3.9c-1.7,1.4-3.4,2.9-4.9,4.3c-3.1,2.9-5.9,5.6-8.3,8.1c-2.4,2.5-4.5,4.7-6.3,6.4c-3.5,3.6-5.5,5.6-5.5,5.6
	s0.4-0.6,1.2-1.7c0.8-1.1,1.8-2.8,3.3-4.8c1.5-2,3.3-4.5,5.4-7.2c2.2-2.7,4.6-5.8,7.5-9c2.9-3.2,6.1-6.7,10.5-9.7
	c0.6-0.4,1.1-0.8,1.8-1.1l1-0.5c0.4-0.2,0.8-0.3,1.2-0.4c0.2-0.1,0.4-0.1,0.6-0.2l0.8-0.1c0.5,0,1,0,1.7,0.2
	c0.3,0.1,0.6,0.2,0.9,0.3c0.3,0.1,0.5,0.3,0.8,0.5c0.3,0.2,0.5,0.4,0.7,0.6c0.2,0.2,0.3,0.5,0.5,0.7c1.2,1.9,1.3,3.6,1.4,5.1
	c0.1,1.5,0,3-0.2,4.4c-0.7,5.6-2,11.1-3.7,16.6c-1.7,5.4-3.5,10.9-5.5,16.3c-2,5.4-4.1,10.7-6.3,15.9c-2.1,5.2-4.4,10.3-6.6,15.2
	c-2.2,4.9-4.4,9.6-6.5,14c-2.1,4.4-4.2,8.6-6.1,12.4C285.1,582.8,279.2,592.7,279.2,592.7z"/>
<path d="M187,418.9c0,0,0.5-2,1.2-5.6c0.3-1.8,0.7-3.9,0.9-6.4c0.1-1.2,0.2-2.5,0.1-3.8c-0.1-1.3-0.2-2.7-0.7-3.7
	c-0.6-1-1-1.3-2-1.2c-1.1,0.1-2.5,0.6-3.9,1.3c-2.8,1.5-5.7,3.8-8.6,6.1c-2.9,2.4-5.8,5.1-8.7,7.8c-2.9,2.8-5.8,5.6-8.7,8.6
	c-2.9,2.9-5.8,5.8-8.6,8.7c-2.8,2.9-5.6,5.8-8.3,8.6c-5.4,5.6-10.4,10.8-14.7,15.2c-4.3,4.4-8,8.1-10.6,10.6
	c-2.6,2.5-4.1,3.9-4.1,3.9s1.1-1.8,3.2-4.8c2.1-3,5.1-7.2,8.8-12.2c1.9-2.5,3.9-5.2,6.2-7.9c2.2-2.8,4.6-5.7,7.2-8.6
	c2.6-2.9,5.1-6,7.9-9c2.8-3,5.6-6,8.6-9c3-2.9,6-5.8,9-8.6c3-2.8,6.2-5.3,9.4-7.7c3.2-2.4,6.5-4.5,10.1-6c1.8-0.7,3.7-1.4,6-1.3
	c1.1,0.1,2.4,0.5,3.4,1.3c1,0.8,1.5,1.9,1.8,2.8c0.6,1.9,0.5,3.6,0.4,5.1c-0.2,1.5-0.4,2.9-0.8,4.1c-0.6,2.5-1.4,4.6-2.1,6.3
	c-0.7,1.7-1.3,3-1.7,3.9C187.2,418.4,187,418.9,187,418.9z"/>
</svg>
