<?xml version="1.0" encoding="utf-8"?>
<!-- Generator: Adobe Illustrator 21.0.0, SVG Export Plug-In . SVG Version: 6.00 Build 0)  -->
<svg version="1.1" xmlns="http://www.w3.org/2000/svg" xmlns:xlink="http://www.w3.org/1999/xlink" x="0px" y="0px"
	 viewBox="0 0 460 480" xml:space="preserve">
<g id="OBJECTS">
	<path class="st1" d="M214.5,333c1.3-0.9,2.3-1.7,3.2-2.4c-1.6,25.6-0.5,49.9,4.8,70.4c0.3,1.3,1.7,2.1,3,1.7
		c0.3-0.1,0.6-0.2,0.8-0.4c0.8-0.6,1.2-1.6,0.9-2.6c-5.1-19.2-6.1-42.2-4.7-66.6c70.3,58.2,124.4,26.3,125,25.9c0,0,0.1-0.1,0.1-0.1
		c0,0,0,0,0.1,0c1.1-0.8,1.4-2.3,0.6-3.4c-0.4-0.5-1-0.9-1.6-1c-4.9-2.1-8.7-4.7-11.3-6.7c15.5-2.6,29.1-10.4,38.1-16.8
		c10.2-7.2,16.4-13.9,16.6-14.1c0.8-0.8,0.9-2.1,0.2-3c-14.3-21.2-39.9-30.1-53.9-33.5c8.7-3.3,17.6-8.1,26.5-14.4
		c11.6-8.2,18.8-15.9,19.1-16.3c0.5-0.5,0.7-1.2,0.7-1.9c-0.1-0.7-0.4-1.3-0.9-1.7c-5.5-4.2-11.3-4.6-15.7-4
		c11.8-17.8,18.5-42.1,18.8-43.2c0.3-1.2-0.3-2.5-1.5-2.9c-30.3-12-60.7,0.8-76.2,9.6c20.5-33,23.4-69.8,23.5-71.5
		c0.1-0.8-0.3-1.6-0.9-2.1c-0.6-0.5-1.5-0.7-2.2-0.4c-3.2,1-7.3,3.3-12.4,6.9c-1.6,1.1-3.1,2.3-4.5,3.3c4-30.9-10.1-84-10.8-86.4
		c-0.2-0.7-0.6-1.2-1.2-1.5c-0.6-0.3-1.3-0.4-1.9-0.1c-7.6,2.7-15.3,6.7-22.9,12.1c-20.8,14.8-35.6,35.6-41.2,44.2
		c-3.7-6.5-9.1-9.8-9.4-10c-1.1-0.6-2.5-0.3-3.2,0.7c-10.3,14.5-17.6,56-20.1,71.8c-25.3-33.3-67.4-38.6-69.3-38.8
		c-0.9-0.1-1.8,0.3-2.3,1.1c-7.4,11.2-6.9,31.9-6.1,41.7c-6.4-3.1-14.5-2.9-15-2.9c-1.3,0-2.3,1.1-2.4,2.4
		c-0.5,12.4,12.3,46.1,16.7,57.4c-22.4-1-48.3,14.4-49.5,15.1c-1,0.7-1.5,2-1,3.1c9.9,21.8,22.9,35.8,29.4,41.8
		c-5.6,1.7-7.8,4.7-8,5c-0.7,0.9-0.6,2.2,0.1,3C151.6,369.2,200.8,342.7,214.5,333z"/>
</g>
</svg>
