<?xml version="1.0" encoding="utf-8"?>
<!-- Generator: Adobe Illustrator 23.1.0, SVG Export Plug-In . SVG Version: 6.00 Build 0)  -->
<svg version="1.1" id="图层_1" xmlns="http://www.w3.org/2000/svg" xmlns:xlink="http://www.w3.org/1999/xlink" x="0px" y="0px"
	 viewBox="0 0 551.8 473.2" style="enable-background:new 0 0 551.8 473.2;" xml:space="preserve">
<style type="text/css">
	.st0{fill-rule:evenodd;clip-rule:evenodd;fill:#75AFDE;}
</style>
<path class="st0" d="M57.1,337.2C40.5,350.5,11,373.4,7.3,377.1s-9.9-0.5-6-5.2c35.5-33.5,29.5-76.7,31.1-118.6
	c1.8-46.4,35.4-83.6,82-88.9c35.5-4,71.6-3.8,107.4-2.9c111.9,2.8,132.1-16.3,175.3-118.9C411.2,9,423.6-3,454.1,0.7
	c12.8,1.5,26.9,9.3,36.1,18.5c11.7,11.6,22.8,18.4,39.2,15.7c15.4-2.5,23.1,1.2,22.4,19.9c-1.4,40.7-1.5,42.5-42.8,44.6
	c-13.1,0.7-20.4,5.3-24.7,17.7c-15,42.8-35.8,83.6-38.7,130.3c-1,15.6-10.6,30.6-15.9,45.9c-2.1,6.2-4.7,12.7-4.8,19.1
	c-0.3,32.9-0.5,65.8,1,98.6c0.3,7.4,7,14.8,11.7,21.6c3.5,5,8.5,8.9,12.8,13.4c-8.6,5.1-16.7,11.7-26,14.6c-3.9,1.2-12.5-4-14.9-8.5
	c-4.1-7.7-4.2-17.4-7.2-25.7c-10.9-30.1-21.1-60.5-34.3-89.6c-3.7-8.2-16.1-16.8-25.1-17.4c-58.8-4.2-117.8-6.6-176.8-8.5
	c-6.8-0.2-15.1,5.3-20.5,10.4c-22,21-43.2,43-64.7,64.5c-4.2,4.2-8.9,8-13,12.4c-23.3,24.7-24.1,41.7,1.9,73.1
	c-16.8,0.6-29.9,4-40.3,0.2c-6.5-2.4-9.8-15.4-12.9-24.2c-1.9-5.4,0.1-11.9-0.6-17.8c-3.5-27.8,2.8-51,26.9-68.5
	c7.6-5.5,11.7-15.7,17.3-23.8C59.1,337.2,58.1,337.2,57.1,337.2z"/>
</svg>
