<?xml version="1.0" encoding="utf-8"?>
<svg version="1.1" id="图层_1" xmlns="http://www.w3.org/2000/svg" xmlns:xlink="http://www.w3.org/1999/xlink" x="0px" y="0px"
	 viewBox="2 0 310 270" xml:space="preserve">
<path d="M279,132.7c-10.6-12.4-30.4-18.4-60.4-18.4c-1.5,0-2.9,0-4.4,0c1.4-2.3,2.8-4.7,4.2-7.1
	c14.2-25.2,18.5-44.7,13.3-59.7c-9.3-26.3-31.7-35.7-48-35.7c-9,0-17.3,2.6-23.9,7.3c-6.6-4.7-15-7.3-23.9-7.3
	c-16.4,0-38.8,9.3-48,35.7c-5.3,15-0.9,34.5,13.3,59.7c1.1,1.9,2.1,3.7,3.3,5.6c-2.1-0.1-4.1-0.1-6.2-0.1c-30,0-49.8,6-60.4,18.4
	c-18.2,21.2-15.1,45.3-6.9,59.4c4.5,7.8,10.9,13.7,18.3,17.1c-0.8,8.1,1.2,16.6,5.7,24.4c6.9,12,22.1,24.8,44.2,24.8
	c3.5,0,7.2-0.3,10.8-1c15.6-2.9,30.4-16.4,45.1-41.3c1.1-1.8,2.2-3.7,3.2-5.6c1.3,2.4,2.6,4.8,4,7.1c14.7,24.9,29.4,38.4,45.1,41.3
	c3.6,0.7,7.2,1,10.8,1c22,0,37.2-12.8,44.2-24.8c4.5-7.8,6.4-16.3,5.7-24.4c7.4-3.4,13.8-9.3,18.3-17.1
	C294.1,178,297.2,153.9,279,132.7z"/>
</svg>
