<?xml version="1.0" encoding="utf-8"?>
<!-- Generator: Adobe Illustrator 23.1.0, SVG Export Plug-In . SVG Version: 6.00 Build 0)  -->
<svg version="1.1" id="图层_1" xmlns="http://www.w3.org/2000/svg" xmlns:xlink="http://www.w3.org/1999/xlink" x="0px" y="0px"
	 viewBox="0 0 103.3 47" style="enable-background:new 0 0 103.3 47;" xml:space="preserve">
<style type="text/css">
	.st0{fill-rule:evenodd;clip-rule:evenodd;fill:#75AFDE;}
</style>
<path class="st0" d="M91.1,46.9c-7,0-10.4-2.5-12.7-9.3c-0.6-1.9-1.6-2.7-3.7-2.7c-15.3,0.1-30.6,0.1-45.9,0c-2.5,0-3.1,1.3-3.8,3.1
	c-2.2,5.9-6.1,9.1-12.8,9c-5.7-0.1-8.9-3.1-11.1-7.7S-0.3,30,3.3,26.4c2.1-2,2.1-2.9,0-5.1c-3.9-4.1-4.4-10.1-1.6-15
	C4.5,1.8,8.8-0.4,14,0.2c5.6,0.6,9.3,4,10.9,9.3c0.8,2.5,2,3.5,4.8,3.5c14.6-0.2,29.2-0.1,43.7,0c2.7,0,4.1-0.6,4.9-3.3
	c1.6-5.4,5.3-8.6,10.8-9.4c5.7-0.8,9.9,1.8,12.5,6.8s1.9,10-1.7,14.2c-1.9,2.2-1.8,3.4,0.2,5.5c3.5,3.8,4.1,8.4,1.8,13
	C99.7,44.1,96.4,47.6,91.1,46.9z"/>
</svg>
