<?xml version="1.0" encoding="utf-8"?>
<!-- Generator: Adobe Illustrator 23.1.0, SVG Export Plug-In . SVG Version: 6.00 Build 0)  -->
<svg version="1.1" id="图层_1" xmlns="http://www.w3.org/2000/svg" xmlns:xlink="http://www.w3.org/1999/xlink" x="0px" y="0px"
	 viewBox="0 0 97.7 125.9" style="enable-background:new 0 0 97.7 125.9;" xml:space="preserve">
<style type="text/css">
	.st0{fill:#75AFDE;}
</style>
<g>
	<path class="st0" d="M51.1,107.8c-4.3-4.9-10.3-8.6-15.3-12.9s-9.5-9.2-14.4-13.6C13.8,74.7,4.7,66.7,2,56.2
		C0.7,51.3-0.6,44,0.3,39c0.4-1.5,2.2,0.6,3.4,0.8c1.7-4-0.4-8.8,1.1-13c2.2-6.3,5-1.9,9.4-1.1C17.1,21.3,14,12.6,18,9.1
		c4.5-3.9,4.9,6.1,10,4.9c1.6-3.9,0.1-9.3,4.9-11.6c4.7-2.3,5,2.8,8.1,5.2c0.8-1.2,2.7-4.9,4.5-4.9c2.1,0,2.5,3.5,4.1,4.5
		c1.5-1.9,1.7-4.7,1.9-7C56-1,57.5,5.9,57.7,9c1.9-2.5,4.9-10.6,8.4-5c1,1.6,0,5.1,1.9,5.8c1.8,0.6,3.9-2.1,4.7-3.4
		c4.8,1.6,7.4,9.1,7.4,13.7c3.7-0.1,4.1-4.8,6.5,1.5c0.7,1.8-0.4,7.8,0.7,8.9c1.9,2,2.5-2,4.4,1.9c1.3,2.7,0.1,7.8,0.1,10.7
		c1.7,0.4,3.6-1.8,5.2-0.7c2.1,1.5-0.1,7.5-0.6,9.3C93.6,62,88.2,71,81.7,79.3C72.4,90.9,60.4,98.3,51.1,107.8z"/>
	<g>
		<path class="st0" d="M49.7,78.9c4,14.9,1.3,31.6-3.7,45.9c-0.4,1.1,1.3,1.5,1.7,0.5c5-14.6,7.8-31.7,3.7-46.8
			C51.1,77.3,49.4,77.8,49.7,78.9L49.7,78.9z"/>
	</g>
</g>
</svg>
