<?xml version="1.0" encoding="utf-8"?>
<!-- Generator: Adobe Illustrator 23.1.0, SVG Export Plug-In . SVG Version: 6.00 Build 0)  -->
<svg version="1.1" id="图层_1" xmlns="http://www.w3.org/2000/svg" xmlns:xlink="http://www.w3.org/1999/xlink" x="0px" y="0px"
	 viewBox="0 0 131.3 113.9" style="enable-background:new 0 0 131.3 113.9;" xml:space="preserve">
<style type="text/css">
	.st0{fill:#75AFDE;}
</style>
<g>
	<g>
		<g>
			<path class="st0" d="M92.5,91.6c0.9,2.1,1.1,4.5,0.5,6.7"/>
		</g>
		<g>
			<path class="st0" d="M93,91.6c7.5,1.1,15.3,2.2,22.6,0c2.8-0.9,8-4.4,10.4-6.2c-0.3-1.5-1.6-2.6-2.9-3.5
				c-5.2-3.8-10.6-7.2-16.1-10.3c2.5-1,4.9-2,7.4-3c-0.7-0.9-1.3-1.8-2-2.7c2.5-1.4,4.9-2.9,7-4.9c2.2-2.1,3.9-4.8,5.5-7.4
				c2.4-3.8,4-10.1,6.4-13.9c-13.2-3-27.2-2.5-40.1,1.6c-0.1-1.3-0.2-2.6-0.9-3.6c-0.7-1-2.2-1.7-3.3-1c-0.6,0.3-0.9,0.9-1.2,1.5
				c-0.9,1.7-1.9,3.4-2.8,5.2c2.2-7.6,2.4-15.8,0.5-23.6c-1.1,0.5-2.2,1-3.2,1.5C79.5,13.4,76.1,5.9,70.8,0l-0.3,0.1
				c-5.9,4.4-10.8,10.3-13.9,17c-0.8,1.8-1.6,3.7-3.2,4.9s-4.1,1.4-5.2-0.2c-1.7,4.4-1.5,9.5,0.3,13.8c-8.6-5.9-18.3-12.1-28.7-10.7
				c-0.3,7.9,0.3,15.8,1.9,23.5c-2.3-1.4-5.3,1.3-5.1,4s2.6,4.6,5,5.9c2.4,1.2,5,2.1,7,3.9c-10-0.9-20.2,1.6-28.6,6.9
				c9.9,8.5,22.6,13.6,35.6,14.4c-3,1.3-5,4.5-4.9,7.7c11.2,2.2,24.7-1.9,33.1-9.6c2.8,3.9,6.8,6.7,10.9,9.1
				c3.7,2.3,7.5,4.4,11.4,6.3c2.1,1,4.4,2,6.6,1.3"/>
		</g>
		<g>
			<path class="st0" d="M65.8,73.9c-0.7,13.2,0,26.4,2.2,39.4l-0.3,0.3c-1.4,0.1-2.9,0.1-4.4,0.2c-1.4-13.7-0.6-30.2-2.4-43.9"/>
		</g>
	</g>
</g>
</svg>
