<?xml version="1.0" encoding="utf-8"?>
<svg version="1.1" id="图层_1" xmlns="http://www.w3.org/2000/svg" xmlns:xlink="http://www.w3.org/1999/xlink" x="0px" y="0px"
	 viewBox="0 0 333 252" style="enable-background:new 0 0 333 252;" xml:space="preserve">
<path d="M314,130.5c-38.9,0-65.4,18.2-36.6,25.1c-28.8-6.9-29.9,26.5-1.5,46.2c-28.4-19.7-59.8-27.1-43.3-10.2
	c-16.5-16.9-33.8,11.7-24,39.4c-9.9-27.7-35.7-48-35.7-27.9c0-20-25.9,0.2-35.7,27.9c9.9-27.7-7.5-56.3-24-39.4
	c16.5-16.9-14.9-9.4-43.3,10.2c28.4-19.7,27.3-53.2-1.5-46.2c28.8-6.9,2.3-25.1-36.6-25.1c38.9,0,65.4-18.2,36.6-25.1
	c28.8,6.9,29.9-26.5,1.5-46.2c28.4,19.7,59.8,27.1,43.3,10.2c16.5,16.9,33.8-11.7,24-39.4c9.8,27.7,35.7,48,35.7,27.9
	c0,20,25.9-0.2,35.7-27.9c-9.9,27.7,7.5,56.3,24,39.4c-16.5,16.9,14.9,9.4,43.3-10.2c-28.4,19.7-27.3,53.2,1.5,46.2
	C248.6,112.3,275.1,130.5,314,130.5z"/>
</svg>
