<?xml version="1.0" encoding="utf-8"?>
<!-- Generator: Adobe Illustrator 23.1.0, SVG Export Plug-In . SVG Version: 6.00 Build 0)  -->
<svg version="1.1" id="图层_1" xmlns="http://www.w3.org/2000/svg" xmlns:xlink="http://www.w3.org/1999/xlink" x="0px" y="0px"
	 viewBox="0 0 91.1 117.3" style="enable-background:new 0 0 91.1 117.3;" xml:space="preserve">
<style type="text/css">
	.st0{fill:#75AFDE;}
</style>
<g>
	<path class="st0" d="M90.3,72.2C82.9,35.7,61,18.9,54.1,13.4C47.1,8,45.5,0,45.5,0S44,8,37,13.5C30,18.9,8.2,35.8,0.8,72.2
		c-6.7,33.1,33.1,48.2,44.8,34.9C57.2,120.4,97.1,105.4,90.3,72.2z"/>
	<path class="st0" d="M44.2,106.6c-0.2,0.3,0.4,0.8,0,3.9s-1.2,3.6-1.8,5.1s1,2.4,1.8,1.3c1.3-2.1,1.6-2.5,2.6-6.9
		c0.7-4-2-4.3-2-4.3l-0.4,0.6C44.5,106.2,44.4,106.3,44.2,106.6z"/>
</g>
</svg>
