<?xml version="1.0" encoding="utf-8"?>
<!-- Generator: Adobe Illustrator 23.1.0, SVG Export Plug-In . SVG Version: 6.00 Build 0)  -->
<svg version="1.1" id="图层_1" xmlns="http://www.w3.org/2000/svg" xmlns:xlink="http://www.w3.org/1999/xlink" x="0px" y="0px"
	 viewBox="0 0 148.7 277" style="enable-background:new 0 0 148.7 277;" xml:space="preserve">
<style type="text/css">
	.st0{fill:#75AFDE;}
</style>
<g id="XMLID_7_">
	<g>
		<g>
			<g>
				<g>
					<path class="st0" d="M100.7,276.1c-1.2,0-0.8,0.7-1,0.8C101.8,276.7,100.6,275.9,100.7,276.1z"/>
					<path class="st0" d="M119.2,270.1l-0.2,0.4c0.8-0.6,1.4-1.3,2.1-2C120.5,269,119.9,269.6,119.2,270.1z"/>
					<path class="st0" d="M133,258.8c-0.5,0.1-1,0.5-1.5,1s-1.1,1.1-1.6,1.9c-0.3,0.3-0.6,0.7-0.9,1.1c-0.3,0.3-0.6,0.7-1,1
						c-0.7,0.6-1.3,1.3-2,1.7l-0.6,0.1l-0.6,1.6c1.6-1.1,3.1-2.8,4.6-4.3C130.8,261.3,132.1,259.9,133,258.8z"/>
					<path class="st0" d="M140.5,251.9c-0.7,0.4,0.6-2.1-1.2,2.1c0.1-0.2,0.2-0.2,0.3-0.3C139.8,253.3,140,252.8,140.5,251.9z"/>
					<path class="st0" d="M139.6,253.6C138.7,255.5,140.6,252.7,139.6,253.6L139.6,253.6z"/>
					<path class="st0" d="M142.8,245c-0.1,0.9-0.2,1.8-0.4,2.7c0.5-0.4,1.2-2.7,1.1-1.8C144.1,243.1,143.7,243.6,142.8,245z"/>
					<path class="st0" d="M142.6,242.4l-0.2,1.3C142.6,243.5,142.7,243.2,142.6,242.4z"/>
					<path class="st0" d="M142,246.6l0.4-2.9c-0.3,0.3-0.7,0.2-0.2,1.3C141.9,244.7,142.1,245.3,142,246.6z"/>
					<path class="st0" d="M141.3,248c-0.8,1.3-1.6,2.9-1.1,0.4c-0.8,2.3-1.1,3.3-0.8,3.3c0.1,0,0.4-0.4,0.8-0.9
						C140.5,250.1,140.8,249.2,141.3,248z"/>
					<path class="st0" d="M132.6,257.3l-1.4,1.2c-0.2,0.5-0.5,1-0.7,1.4C130.9,259.3,132.9,257.5,132.6,257.3z"/>
					<path class="st0" d="M145.3,229.3c-0.3-0.1-0.7,0.8-1.1,0.9l0.3,1.7C144.7,231.1,144.9,229.4,145.3,229.3z"/>
					<path class="st0" d="M144.2,230.3l-0.4-2.6C143.7,230,143.9,230.4,144.2,230.3z"/>
					<path class="st0" d="M141.3,241.6c0,1.5-0.2,3.1-0.3,4.7l0.3-2.8l0.1-1.4v-1.4L141.3,241.6z"/>
					<polygon class="st0" points="145.5,219.5 146.1,220.9 145.2,218.3 					"/>
					<path class="st0" d="M145.5,212.9c0.5,1.1,0.9-1.5,1.2-0.3c-0.1-1.8-0.5-3.3-0.8-4.7C146.1,209.4,146,210.9,145.5,212.9z"/>
					<path class="st0" d="M145.4,205.6c0.1,0.7,0.3,1.5,0.5,2.3C145.8,207.2,145.6,206.4,145.4,205.6z"/>
					<path class="st0" d="M144,223.3c0.2-0.2,0.6-0.6,0.8-2l-0.8,1C144.1,222.6,144,222.9,144,223.3z"/>
					<path class="st0" d="M144,222.3L144,222.3c0.1-1.1,0.1-1.9,0.1-2.2C144.1,220.4,144.1,221,144,222.3z"/>
					<path class="st0" d="M144,223.5c0-0.1,0-0.2,0-0.3C144,223.4,143.9,223.4,144,223.5z"/>
					<path class="st0" d="M142.9,234.5c-0.1-0.9-0.4-2-0.6-2.6c-0.2-0.6-0.5-0.6-0.8,0.9c0.2,0.6,0.5,0.4,0.7,0.4
						c0.1,0,0.2,0,0.4,0.2C142.6,233.5,142.8,233.8,142.9,234.5z"/>
					<path class="st0" d="M143.1,224.8l-0.2,2.7c0.2-0.1,0.5-0.5,0.7,0.2L143.1,224.8z"/>
					<polygon class="st0" points="142.9,223.4 143.1,224.8 143.2,223.8 					"/>
					<path class="st0" d="M144.6,210.3c-0.3-1.2-0.3-2.5-0.3-3.9c-0.2,1.6-0.3,3.2-0.3,4.7C144.2,211.3,144.6,212,144.6,210.3z"/>
					<path class="st0" d="M144.2,216.1c0-0.1,0-0.2,0-0.3C144.1,216,144.1,216.2,144.2,216.1z"/>
					<path class="st0" d="M144.5,192c-0.1,0.1-0.1,0.1-0.1,0.2c0,0,0.1,0,0.1,0.1V192z"/>
					<path class="st0" d="M143.8,211.3c-0.2,1.2,0,1.9,0.2,2.6c-0.1-0.9-0.1-1.8-0.1-2.8C143.8,211,143.8,211,143.8,211.3z"/>
					<path class="st0" d="M145.1,201.6c-0.2,0.6-0.3,1.3-0.4,2C144.9,203,145.3,201.8,145.1,201.6z"/>
					<path class="st0" d="M144.4,215.5c0,0.1,0,0.1,0,0.2C144.6,215.3,144.5,215.3,144.4,215.5z"/>
					<path class="st0" d="M144.4,215.5c-0.1-0.6-0.3-1.1-0.4-1.6c0,0.7,0.1,1.4,0.2,2C144.3,215.7,144.3,215.6,144.4,215.5z"/>
					<path class="st0" d="M139.9,187.5c0.7,0.2,1.3,3.3,0.5,6c0.5,2.6,2.8,1,4.1-1.3c-0.3-0.1-0.6-0.1-0.9-2.8c-0.4,0.9-1,6-1.6,3.7
						c-0.3-3.6,0.3-2.9,0.7-4.7c-0.9,1.5-1.1-4.6-2.4-3.8l0.4,3.2C140.4,187.8,140.1,186.6,139.9,187.5z"/>
					<path class="st0" d="M144.2,197.3l0.1,1.1c0.1-1.3,0.4-2.2,1-3.8c-0.3-1.9-0.5-2.3-0.8-2.4l-0.2,5.5L144.2,197.3z"/>
					<path class="st0" d="M144.2,203.5c-0.7-0.9-1-3.6-1.8-1.9c0,3.3,0.6,2.3,0.9,4.3C143.1,200.5,143.6,207.3,144.2,203.5
						c0,1.1,0,2,0.1,2.9c0.1-0.9,0.2-1.9,0.4-2.7c0,0.1,0,0.1-0.1,0.1l0,0l0,0c-0.1,0.2-0.2,0.3-0.1,0v-0.1
						C144.4,203.7,144.3,203.6,144.2,203.5c0.2-1.5,0.2-0.2,0.3,0.2l0.1,0.1l0,0l-0.3-5.3C144.2,199.6,144.2,201,144.2,203.5z"/>
					<path class="st0" d="M139.9,229.9c0.1-0.2,0.1-0.1,0.2-0.2C140,229.4,140,229.3,139.9,229.9z"/>
					<path class="st0" d="M140.4,227.8c0.1,0.4,0.4,0.7,0.3,2c-0.3,1.1-0.4,0-0.6,0c0.2,0.8,0.5,2.6,0.9,0.3l-0.1-0.4
						c0.3-2.1,1.3-4.8,1.4-4.5C141.6,225.8,141.1,226.4,140.4,227.8z"/>
					<path class="st0" d="M142.1,215.5l-0.3-4.4l-0.7,2.2l0.4-0.1C141.3,215.7,141.8,215.1,142.1,215.5z"/>
					<polygon class="st0" points="144.9,191.5 145.7,192.1 144.6,189.5 					"/>
					<polygon class="st0" points="144.9,185.7 145.6,186 145.2,184.4 					"/>
					<path class="st0" d="M11.1,44.2l0.2,1.3C11.2,44.9,11.1,44.5,11.1,44.2z"/>
					<path class="st0" d="M12,35.7l-0.3-0.3C11.8,35.9,11.9,36,12,35.7z"/>
					<path class="st0" d="M147.7,45.2c0.6-2.1,1.5-4.6,0.7-4.2l-0.7,0.7C147.9,43.1,147.8,44.3,147.7,45.2z"/>
					<path class="st0" d="M70,4.9C70.2,5,70.4,5,70.6,5.1c0.5-0.3,0.9-0.5,1.3-0.7C71.3,4.6,70.7,4.7,70,4.9z"/>
					<path class="st0" d="M68.6,8l-2.5-0.5C66.7,7.6,67.5,7.8,68.6,8z"/>
					<path class="st0" d="M10.8,95.4l0.7,1.5C11.6,94.5,11.2,95.6,10.8,95.4z"/>
					<path class="st0" d="M145.8,127.1c0.3-1.6,0.5-2.9,0.5-4.1C145.9,125,145.2,126.6,145.8,127.1z"/>
					<path class="st0" d="M3.3,40.2c0.1,0.9,0.2,1.3,0.4,1.2C3.6,40.5,3.5,40,3.3,40.2z"/>
					<path class="st0" d="M146.5,118.4c-0.1,0.3-0.1,0.6-0.2,0.9c0.1,1.2,0.2,2.4,0.1,3.8C146.7,121.6,146.9,120,146.5,118.4z"/>
					<path class="st0" d="M31.6,264.8c0.1,0.1,0.2,0.1,0.3,0.2C32,264.9,31.8,264.8,31.6,264.8z"/>
					<path class="st0" d="M84,274.9c-0.5,0-1.4,0-2.2,0C82.2,275,82.9,275,84,274.9z"/>
					<path class="st0" d="M145.7,162.7C145.8,163.9,145.8,162.9,145.7,162.7L145.7,162.7z"/>
					<path class="st0" d="M142.6,168.6c-0.1-0.3-0.2-0.5-0.4-0.5C142.5,168.2,142.6,168.3,142.6,168.6z"/>
					<path class="st0" d="M142,106.2C142,106.2,142,106.1,142,106.2C141.9,106.5,141.9,106.4,142,106.2z"/>
					<path class="st0" d="M145.3,164.5c0.1-0.4,0.2-1,0.3-1.6C145.5,163.2,145.5,163.7,145.3,164.5z"/>
					<path class="st0" d="M145.7,164.3c0,0.4-0.1,0.8-0.1,1.1C145.7,165.5,145.8,165.4,145.7,164.3z"/>
					<path class="st0" d="M145.7,161c0,0.7-0.1,1.3-0.1,2c0.1-0.2,0.1-0.3,0.1-0.3C145.7,162.4,145.7,161.9,145.7,161z"/>
					<path class="st0" d="M6.5,181.4c0,0.1,0,0.2-0.1,0.3C6.7,182.9,6.7,182.4,6.5,181.4z"/>
					<path class="st0" d="M129.3,19.2c0,0,0.1,0,0.1,0.1C129.3,19.2,129.3,19.2,129.3,19.2L129.3,19.2z"/>
					<path class="st0" d="M125.9,17c1.9,0.3,2.5,1.1,3.3,2.1c0.2-0.8,0.4-1.6,0.5-2.5c-0.7,0-1.3,0-1.9,0.1
						C127.2,16.8,126.6,16.9,125.9,17z"/>
					<path class="st0" d="M10.8,66.6l0.7-3.1c1,3.7,0.6,6.4,1.6,3.5c-2.3-0.5,0-11.9-2.3-12.4l0.5-2c0,0.6,0.1,0.7,0.1,1.2
						c1.2-3.9-1.6-3-1.2-8c0.2-1.8,0.6-3,0.8-1.8c-0.1-0.6-0.2-1.3-0.2-1.9l-0.2-1.8c0.1-1,0.5-0.7,0.4,0.3c0-1.8,0.3-3.6,0.6-5.4
						h0.1c-0.1-0.8-0.2-2.7-0.2-3.6c0.4-0.6,0.4-0.4,0.4-0.1c-0.1,0.3-0.1,0.8,0.1,0.6c0.1-1,0.4-2,0.6-3.1c0.5-0.5,0.7,0,0.6,0.7
						c0,0.4-0.1,0.9-0.3,1.3c-0.1,0.2-0.1,0.5-0.2,0.7c-0.1,0.3-0.1,0.5-0.2,0.8c0.7-0.5,1.2-0.9,1.4-1.3s0.3-0.8,0.3-1.3
						s0.1-1.2,0.5-1.9c0.2-0.4,0.4-0.8,0.7-1.3c0.1-0.2,0.3-0.5,0.5-0.8s0.5-0.5,0.7-0.8c-0.5,0.8-0.7,1.7-1.1,2.6
						c1-0.5,1.6-1.3,2.3-2.1c0.4-0.4,0.7-0.9,1.1-1.4s1-0.9,1.6-1.4c-0.4,0.1-1.8,1-2.7,1.6c-1,0.6-1.8,0.8-1.2-0.7
						c0.3-0.3,0.6-0.8,1-1.3s0.8-1.1,1.1-2c0.3,0.3,0.7,0,1.2-0.5s1.1-1.2,1.8-2l0.7,0.9c1.4-1.7,0.9-2,1.6-3.3
						c2.1-1.5,3.1-1,3.9-0.8c1.7-0.9,1-0.9,0.3-0.9s-1.4-0.1,0.6-1.4c0.4-0.2,0.8-0.3,1.1-0.5c0.4-0.1,0.7-0.3,1.1-0.4
						c0.7-0.3,1.4-0.7,2-1.1c1.4-0.6,2.8-1.5,4.8-2.3c2.4-0.2-0.3,0.8,0.7,0.9l0.9-0.7c0.3-0.2,0.7-0.4,1-0.6
						c0.5-0.1,0.4,0.2,0.3,0.4c0.9-0.3,0.9-0.6,1-0.9c0.1-0.1,0.2-0.3,0.4-0.4c0.3-0.1,0.7-0.4,1.4-0.4c0.2-0.3,0.7-0.4,1.3-0.3
						c0.3,0,0.7,0.1,1.1,0.2c0.4,0.1,0.8,0.2,1.4,0.3c2,0.5,4.3,0.9,6.3,0.3c1,0.3-0.5,0.7-0.2,1.1c5.3-0.8,4.6-0.6,8.9-1.7L66,7.1
						c-2.7-0.9,0.8-1.8,3.9-2.5c-1-0.4-1.8-0.8-2.3-1l4.9-0.5c0.6,0.2,0.1,0.6-0.7,1c0.3-0.1,0.7-0.2,0.9-0.3
						c1.7,0.4,0.8,1.1-0.4,1.7c-0.6-0.2-1.2-0.5-1.7-0.7c-1.2,0.7-2.4,1.4-2.1,2c0.3-0.1,0.9-0.2,1.6-0.3c-0.3,0.2-0.5,0.3-0.4,0.4
						c0.2,0.1,0.7-0.1,1.5-0.4l1.1,1.3l0.3-0.5L79,8.2c4.6-1.1,8.6-2.9,15.8-3.3c-1.8,0.9-0.4,1.5-0.6,2.6c-1.9-1.2-5.6,0.4-9.4,0.1
						c2,0.2,1.5,0.7,1,0.8l6.7-0.9C92.4,8.8,94,8.6,95.7,9c-1.3-1.8,5-1.1,7.8-1.5c0.2,0.6-0.5,1.2-3.8,1c3.6,1.4,4.9-2,8.2-0.6
						c-0.8,0-1.2-0.2-1.5,0.1c0.9-0.2,2.5-0.2,3.6,0.2c1.2,0.3,1.9,0.7,1.4,0.8l-0.7-0.1c2.5,0.4,6.1,1.6,9.2,2.8
						c0.8,0.3,1.5,0.6,2.2,0.9c0.7,0.2,1.3,0.6,1.8,0.8c1.1,0.4,1.9,0.6,2.3,0.4c-0.1,0.2-1.6,1.1-2,1.2c0.9,0,1.7,0.2,2.5,0.3
						s1.7,0.3,2.6,0.5c0.8,0.2,1.7,0.5,2.6,0.7l1.3,0.4l1.3,0.5c-0.8,0.1-1.1,1.3-1.8,2c-0.3,0.4-0.7,0.7-1.2,0.7s-1.1-0.2-2-0.8
						c0.2,0.2,0.4,0.5,0.6,0.7c0.2,0.3,0.4,0.6,0.7,0.9s0.6,0.6,0.9,1c0.2,0.2,0.4,0.4,0.6,0.5c0.2,0.2,0.4,0.4,0.6,0.6
						c-0.3-0.8,0.1-2.7,1-1.9c0.4,1.7,0.5,2.2,0.8,2.8c0.1,0.3,0.3,0.6,0.4,1.1c0.1,0.5,0.3,1.1,0.5,2.1c-0.2-0.6,0.3-0.9,1-0.7
						c0.7,0.1,1.6,0.6,1.9,1.6c-0.4-0.1-1.7,1-2.2,0.5c1.2,1.1,2.6,2.3,3.6,3.7c-0.7-1.1-1.6,0.4-1.8,1.5c0.3-0.6,1.1,3.9,1.4,5.1
						c0.1-0.7,0.1-1.4,0.1-2c0.3,1.3,0.5,2.3,0.8,3.1s0.8,1.4,1.2,2.1c0.7,1.3,1.6,2.7,1.4,5.6c-0.4-0.7-2.4-1.8-2.7,1.2
						c1,1.4,4.7,6.1,5.3,11.2l-0.6,1l0.6,3.9c-1.4-2.5-4.5-9.4-5.6-13.2c-0.5,2.2-0.7,0.6-0.7,3.9c-0.6,1.1-0.8-1.8-0.8-2.8
						l-0.5,7.6c1.2-0.3,1.1,5.8,2,5.6l-1-8.3c1.2-0.3,3.2,4.8,2.9,10.2c-0.5,1.4-2.1-1.1-2.4-1c0.4,0.7,0.7,5.1,0.4,5.6l-0.6-2.3
						c-0.5,3,1.4,4.9,0.3,8.5c-0.1,1.2-1.6,3.7-0.9,3.9c1.4-2,5.5-2.3,6.4-0.9c-0.1,0.4-1.4,6.5-2.1,7.9c-1.1,2-2.4-3.1-3.4-1.4
						c0.3,0.1,0.7,1.2,0.8,1.7c-0.3,1.3-1-0.6-0.9,2.3c1.2,0.5-0.2,5.8,1,1.4c0.3,2.8-0.3,2.9-0.3,6.2c0.8-1,2.5,3,2.8,5.8
						c-0.3-0.2-0.7,0.4-0.9,0.8c-0.2,5.7-0.8,8.7-0.9,14c-0.3,0.5-0.7,3-1.2,1.9c0.2,0.8,0.6,1.5,0.6,3.1c-1.1,3.1-0.1-3.7-1.4-1.3
						c0.7,0.2,0.9,4.3,1.2,6.6c1.1-0.7,0.3-5.4-0.1-7.7c1.5,0,2.9,4.1,3.5,9.7c0.3,4.4-1,1.9-0.8,2.7c-0.4,8.3,2.4,7.1,1.2,14
						c-1,2.7-1.9,0.1-2.5,0.7c-0.3-3.6,0.7-5.5,0.7-7.9l-0.5,3c-0.3-1.1-0.5-3.6-0.2-4.9c-0.9,2.3-0.4,14-1.3,20.4
						c0.3,1.1,0.6,3.1,1,2.2l-0.1-2c0.8-1.8,1,3.8,1.4,1.3c0.5,2.7,1.2,5.8,0.7,9.6l-1.1,0.7c0.3-0.1,0.7-2.5,0.4-3.6
						c0.4,1.6-1.6,5.8-0.2,7.6l0.8-2.7c0.5,2.7,1.5,6.1,1.1,9.5c1.1-1.5-0.1-0.8,1.2-3.2c-1.6,2.1,0.2-8.6-1.4-5.3
						c1.5-2.4,0.7-4.3,2-7.5c-0.4,0.1-0.7,1.1-0.5-1.7c-0.1-0.1-0.2-0.4-0.3-0.6c0-0.1,0-0.1,0-0.2c0,0.1,0,0.1,0,0.2
						c-0.1-0.1-0.1-0.1,0,0.1c-0.2,0.7-0.4,1.2-0.6,1.4c-0.8-1.4-0.7-5.9-1-7.5c0.2-1.7,0.4,0.7,0.8-0.2l-0.6-2.3
						c0.8-0.2,1.4-4.4,1.8-0.5l0.1-3.6c0.5-2.1,0.7-5,0.4-6.8c0.2-1.7-0.8-4.3-0.2-2.8l-0.4-5.6l0.2-0.1c0.2-5.5-1.1-11.4,0.5-17.7
						c-0.2-1.9-0.4-3.8-0.1-6.9l0.7-0.6c-0.2-2.4,0.8-7.2,0.1-8.2c1.9-2.5,0.6-11.6,1-15.8l-0.9-0.2c0.1-2.9-0.1-5.7-0.4-9.3
						l-0.8,0.2c-0.6-3.1,0.7-7.9,0.7-12.8c0.3,0.3,0.2,1.6,0,2.5c1.9-5.8-1-12.4,0.4-17.7c-0.3-1.3-0.1-2.3,0.1-3.2
						c0,0.1,0,0.2,0,0.3c0-0.1,0-0.3,0-0.5c0.1-0.6,0.3-1.2,0.4-1.8c-0.2,0.6-0.4,1.1-0.4,1.5c0-0.5,0-1.1-0.1-1.9
						c-0.1-0.8-0.2-1.6-0.3-2.4l0.8-0.8c0-0.1,0-0.3,0-0.4c0.2-1.7-0.5-1.3-1-0.4c-0.2-0.8-0.5-1.5-0.8-2.1c0.3-0.4,0.4-0.8,0.4-1.3
						c0-0.3-0.1-0.5-0.1-0.8c-0.1-0.3-0.2-0.5-0.3-0.8c-0.4-1.1-0.7-2.2-0.3-3.3c-0.5-0.4-1.3-2.4-2.2-4.2c-1.1-1.8-2.1-3.4-3.1-3.4
						c0.1-0.1,0-0.6,0.4,0.1c-0.8-1.6-1.5-3.3-2.8-4.3l0.4-1.2c-0.6-0.4-1.1-0.8-1.8-1.1l-1.8-1c-0.3-0.5-0.5-1-0.6-1.4
						c-0.2-0.4-0.3-0.6-0.3-0.8c0-0.4,0.5-0.4,1.6,0.3c-1.2-0.9-2.1-1.4-2.8-1.9c-0.7-0.4-1.1-0.8-1.6-1.1c-0.4-0.3-0.9-0.6-1.5-0.9
						c-0.3-0.2-0.6-0.3-1.1-0.5c-0.4-0.2-0.9-0.4-1.5-0.6l0.6-0.4c-0.7-0.5-1.8-0.9-2.8-1.3c-1-0.4-1.9-0.7-2.2-1.2
						c-0.4-0.4-0.9-0.8-1.6-1.2c-0.7-0.4-1.6-0.8-2.6-1.2c-1-0.5-2.1-0.8-3.3-1.2c-0.6-0.2-1.2-0.4-1.9-0.5c-0.7-0.1-1.3-0.3-2-0.4
						c-0.7-0.1-1.4-0.3-2.1-0.3c-0.7-0.1-1.4-0.1-2.2-0.2c-0.7-0.1-1.5-0.1-2.2-0.2c-0.7,0-1.4-0.1-2.1-0.1
						c-2.7-0.1-5.4-0.3-7.7-0.7c1.8,2-4.3-1-4.8,0.6c-0.5-0.5-1.8-0.8-0.3-1.2c-4.8,0.4-7.2-0.9-10.5,0.3c-0.5-0.5,1-0.7,0.6-1
						c-0.4,0.1-1.5,0.4-2,0.1s0.7-0.4,1.5-0.6c-4.9,0-5.4,1.4-5.8,2.8c-2.5-0.7-3.7-0.6-5.5,0.2c-0.8-0.5-2.3-1,0.8-1.1
						C67,1.8,58.3,1,58.1,2.1c-0.5-0.3-2.4-0.1-2.8,0c-3.8-0.1-4.2-0.3-7.9-0.2l1,0.2c-1.5,1.3-3.2,0.3-6.4,0.6l0.1-0.2
						c-1.8,0-3,0.1-3.7,0.1c-0.7,0.2-1.1,0.3-1.5,0.4c-0.4,0.1-0.7,0.3-1.5,0.4c-0.7,0.1-1.8,0.3-3.6,0.7L32.6,5
						c0,0.5-0.4,0.8-1.1,1C30.9,6.2,30,6.4,29,6.7c-0.5,0.1-1,0.3-1.6,0.4c-0.5,0.2-1.1,0.4-1.6,0.6c-1,0.5-2.1,0.9-2.8,1.7
						c0.5-0.2,1-0.3,1.5-0.4c-0.8,0.8-2.4,1.3-4.1,1.7c-1.7,0.5-3.5,1-4.5,1.7c-0.2,0.1-0.1-0.1,0.1-0.4c0.2-0.3,0.6-0.7,0.8-1
						c-1.4,0.8-2,1.5-2.3,1.8c-0.3,0.4-0.2,0.5,0,0.7c0.3,0.3,0.9,0.6-0.6,2.3c-1,0.3-0.4-1.9-2.5,0.6c-0.3,0.3-0.8,0.9-1.3,1.8
						c-0.4,0.9-0.9,2.1-1.5,3.3c-0.5,1.2-0.9,2.6-1.5,3.8c-0.5,1.2-1,2.4-1.7,3.3c0.8-0.7,1.5-1.4,1.1,0.7C6.3,30.1,6,31,5.6,32
						s-0.9,2-1.2,3s-0.6,2.1-0.7,3.1c-0.1,1,0,1.9,0.3,2.7c-0.2,0.4-0.3,0.6-0.4,0.6c0,0.3,0,0.7,0.1,1.1c0,0.4,0.1,0.8,0.1,1.2
						C3.9,44.5,4,45.5,4,46.3c0.2,1.8,0.4,3.4,0.8,4.1c-2.9,2.1,1.1,14.5-1.5,14.4V72L3,71.8c-0.3,4.6,0.3,6.2,0.9,7.8
						c-0.2,1.1-0.4,0.3-0.6,0.2C2.7,86.4,2.8,87.1,4,92.7l-0.9,0.6c0.5,1.5-1.5,9.6-0.7,16.2c-0.1-0.1-0.3-0.2-0.4-0.7
						c0.9,7.4-2.7,17.6,0.3,20.3L3,134c0.4-6.3,1.3,1,1.9-1.6c0.1,2.5-1.1,6.4-1.2,3.3l0.2-0.5c-1.6-1.1-0.7,7.8-1.8,7.6
						c-0.2,12.4-1.3,24.4-1.6,36l1.3-1.3l-0.2,4c-0.3,1.1-1,1.4-0.9-1.5c-0.8,1.5,0.5,4.9,0.8,4.9c-0.6,5.6-1.4-2.2-1.5-0.5v2.4
						l0.2-0.5c0.5,1.9,1,2.1,0.9,5.6c-0.3,2.2-0.8,1.1-0.9,2c-0.1,0-0.1,0.3-0.1,1.3l-0.1,5l1-2c0.4,2.3-0.2,4.8,1,2.5
						c-1.8,3.4-1,19-1.6,21.1c0.3,1.6,0.5,3.2,0.5,4.8c0,0.8,0,1.7,0,2.6c0,0.9-0.1,1.8-0.1,2.8c0.2-1,1.3-1.6,1.3,1.8
						c-1.2-0.6-1.5,1-1.3,3.2c0,2.2,0.6,4.8,0.2,6.4c0.1-0.7,0.3-0.4,0.6,0.3s0.8,1.9,1.2,2.9c0.4,1.1,1.1,2.1,1.4,2.5
						c0.4,0.5,0.6,0.4,0.6-0.7c1.1,2.7-0.7,0.5-0.2,2.8c2.1,2.9,4.2,6.2,6.9,9.4c2.7,3.1,6.1,6.1,10,8.2c0.3-0.2-0.8-1.3,1.1-0.8
						c1.1,1.1,2.3,2.4,3.6,3.4c1.8,0.5,2-1,4.8,0.9c-0.4-0.4-0.9-0.9,0.2-0.7l1.5,0.5c0.5,0.2,1,0.3,1.6,0.4
						c1.1,0.2,2.1,0.5,3.2,0.6s2.2,0.2,3.3,0.3c1.1,0.1,2.1,0.1,3.1,0.1c4.1,0.1,8.2,0,12.3,0.1c8.2,0,16.5,0.2,24.6,1.8
						c-2.2-0.6-0.7-0.7,1-0.6c-1.1-0.2,0-0.8-0.2-1.2l6.8,1.3c1.3-1.1,7.3,0.1,8-1l-2.2,0.1c2.9-1.2-4-3-3.5-4.6
						c-3.2,1.4-8.4-2.3-13.8-0.4c-1.2-0.4,1-0.5,0.4-0.9c-1.3,0.7-3,0.8-5.9,0.4l0.3-0.2c-8.4,0-12-0.8-21.4-1.4L51,268
						c-2-0.1-2.4-0.4-3.4-0.6c-2.3,1.2,5.7,0.2,3.6,1.5c-1.3-0.9-4.9-0.9-8.4-1c-0.4,0-0.9,0-1.3,0c-0.4,0-0.8-0.1-1.2-0.1
						c-0.8-0.1-1.5-0.2-2.1-0.3c-1.3-0.3-2.2-0.8-2.5-1.3c-1.4-0.2-1.2,0-1.1,0.3c0.1,0.1,0.2,0.3,0,0.3c-0.1,0.1-0.4,0.1-1.1-0.1
						l-0.6-0.7l-0.9,0.4c-0.9-0.3-1.5-0.7-1.9-1.1s-0.5-0.7-0.5-1c0.4,0.2,1.2,0.4,1.7,0.5c-0.5-0.3-1.1-0.7-1.8-0.9
						c-0.7-0.3-1.5-0.5-2.1-0.8c-1.3-0.6-2.6-1-2.9-1.3c0.7,0.6,1.5,1,2.2,1.5c-3.6-1.4-7.1-4-10.1-7c-3-3.1-5.4-6.6-7.4-9.8
						l-0.1,0.7c-0.4-0.6-0.7-1.2-1-1.6s-0.4-0.9-0.5-1.3c-0.3-0.8-0.4-1.4-0.5-2S7,241,6.8,240.2c-0.1-0.4-0.2-0.9-0.3-1.5
						c-0.1-0.6-0.2-1.3-0.4-2l0.1,0.2c-0.3-0.6-0.5-1.3-0.7-2.1c-0.1-0.8-0.2-1.7-0.2-2.6c0.3,0.8,0.4,0,0.6-0.6
						c0.2-0.7,0.5-1.4,0.7-0.3c-0.6-6.8-0.5-3.4-1.9-7.9l0.7-1c-0.6-1.6-0.9-1.7-0.9-5.1c0.5,2.8,1-2.2,1.7,1
						c1.6-7.2-1.2-10.8,0.9-14c-1.7-3.4-1.1,6.2-1.4,4.4c-0.6,1.6-1.3-2.8-1.1-5c0.1-2.3,2.4-3.9,2.4-9.7c0,0.6,0.1,0.6,0.1,1.2
						c0.5-2.2-0.5-4.3,0.3-6.9c-1-1.5,0.1-3.5-1.2-3.9l0.2,5.3c-0.3-3-1.8-5.9-1-10.9c0.3,0.4,0.6,1.9,0.8,2.9
						c0.4-1.4-0.2-2.8,0.2-4.3c1.4,0.5,0.2,6.5,1.1,9.7c0.6-1.6-0.9-6.1,0.6-4.5c-1.8-2.4,0.4-5.7-1-9.7l0.8,0.3
						c-0.1-0.6-0.5-1.9-0.4-3.1l1,2.1C7.7,169,9.4,166.1,9,163c-0.1,6.4-1,1.4-1.7,4.1c-0.9-7.9,2.2-4.5,2-13.3
						c0.1,1.2-0.6,4.5-0.9,2.6c0.2-1.7,0.6-3.9,1-4.9c-0.1-5.9-0.9,0.9-1.3-1.6c1-2-0.4-2.9-0.6-5.4h0.8c0.7-6.7-1.7-1.8-0.9-7.8
						l1.1,2.6l-0.2-3.1l0.9,0.7C8.8,133,9,132,9.3,128.7c-0.6,0.8-1.5-0.5-1.5-3.4c0.5-2,0.8,1.1,0.7-3.1c0.5,1,1.1,2,0.3,3.8
						c0.3,0.2,0.5,0.9,0.8,1.1c0.6-2.2,0.2-5.4,0.3-7c0,0.6-0.1,1.3-0.2,1.6l-1-6.1c0.3-0.9,0.6-0.2,0.8,0.6
						c-0.1-1.2-0.4-2.1-0.5-3.9c0.7,0.5,1.4,0.4,1.6,2.9l-0.6-5.8c0.3-0.4,0.9-2.9,1.1-2.2c0.5-3.2-1.2-7.9-0.6-12.1
						c-0.1-0.2-0.2-0.7-0.3-1.6c0.2-4,1.1-7.5,0.3-12.3l1.3-2.7c-0.2-3.7-1.6,3.6-1.9-2.6c-0.3-4.4,1.1-1.6,1.4-3.1
						c-0.6-2.2-1.7-6-0.7-10C11,64.3,10.8,65.4,10.8,66.6z M16.5,24.1c-0.3,0.8-0.7,2.4-1.3,2.7C14.7,25.5,15.6,25.1,16.5,24.1z
						 M76.7,6.6C76,6.9,75,6.7,73.9,6.4C74.8,6.3,75.7,6.4,76.7,6.6z M145.3,149.4v-0.1C145.6,147.3,145.5,148,145.3,149.4z
						 M144.9,153.5c0.1,0.4,0.2,0.4,0.3,0.2c-0.2-0.3-0.2-1.2-0.1-2.3C144.9,151.7,144.7,152.3,144.9,153.5z M0.6,194.3l0.2-0.8
						C1.1,195.3,0.8,194.8,0.6,194.3z"/>
					<path class="st0" d="M68.8,7.6c-0.3-0.1-0.3-0.3-0.4-0.5C68.1,7.3,68.1,7.4,68.8,7.6z"/>
					<path class="st0" d="M10.7,95.1L10.7,95.1c0.1,0.2,0.1,0.2,0.1,0.2L10.7,95.1z"/>
					<path class="st0" d="M139.1,89.8c0.1-0.8,0.3-1.3,0.5-1.6C139.3,88.1,139.1,88.5,139.1,89.8z"/>
					<path class="st0" d="M145.9,175.3l-0.2-2.6c0,1.3-0.2,1.7-0.3,2.4C145.6,175,145.9,174.5,145.9,175.3z"/>
					<path class="st0" d="M140.2,198c0.1,0.4,0,0.8,0.1,1.2l0.4-0.1C140.7,197.5,140.4,196.3,140.2,198z"/>
					<path class="st0" d="M143,177.7c-0.7,0.2-0.5,1.9-0.4,3.7c0-0.1,0-0.2,0-0.3C143.6,181.6,143.3,179.6,143,177.7z"/>
					<path class="st0" d="M142.6,181.8c0,0.6,0,1.1,0,1.7C143,183.7,142.7,182.8,142.6,181.8z"/>
					<path class="st0" d="M145.2,158.7c-0.2,0.9,0.9,0.6,0.6,1.1C146.7,160.8,144.9,153.9,145.2,158.7z"/>
					<polygon class="st0" points="140.7,179.1 141.6,178.5 140.9,177.4 					"/>
					<path class="st0" d="M141.6,164.6l-0.3,2.9c0.1,0,0.2,0.3,0.3,0.8C141.7,166.5,141.9,164.5,141.6,164.6z"/>
					<path class="st0" d="M141.6,168.3c0,0.9,0,1.8,0.1,2.4C141.7,170.2,141.7,169.1,141.6,168.3z"/>
					<polygon class="st0" points="140.5,175.1 140.7,174.2 140.8,172.1 					"/>
					<path class="st0" d="M142.4,132.9l-0.2-3.2c-0.3-0.3-0.5,0.5-0.4,1.7C142,132.2,142.1,133.4,142.4,132.9z"/>
					<path class="st0" d="M139.8,142.6c0.2-0.9,0.4-0.9,0.7-1.4l-1.1-0.1L139.8,142.6z"/>
					<path class="st0" d="M139.8,133.2c-0.3-0.3-0.8-4.7-0.8-0.6C139.3,133,139.5,136.2,139.8,133.2z"/>
					<polygon class="st0" points="142.1,84.9 142.1,85.7 143.9,85.6 					"/>
					<path class="st0" d="M138.6,42.5c-0.2,1.7,0.1,1.9,0.4,2c0.3,0.2,0.6,0.2,0.2,2c0.2,0.5,0.3-0.3,0.4-1c0.1-0.7,0.2-1.3,0.4-0.9
						C139.5,42.5,139.7,41.5,138.6,42.5z"/>
					<path class="st0" d="M140,44.6c0.1,0.3,0.2,0.7,0.3,1.1C140.2,45.1,140.1,44.8,140,44.6z"/>
					<polygon class="st0" points="93,276 95.4,276.4 93.9,275.8 					"/>
					<path class="st0" d="M97.7,274.8l0.6,1.1l1.5-1C99.2,275,98.1,275.1,97.7,274.8z"/>
					<path class="st0" d="M22,20.8l-0.1-0.3c-0.4,0-0.8,0.4-1.5,1.1C20.9,21.3,21.4,21.1,22,20.8z"/>
					<polygon class="st0" points="12.1,47.3 12.1,46.7 11.1,47.8 					"/>
					<path class="st0" d="M12.8,75.2c0.1-1.1-0.1-2.5-0.1-3.6C12.9,74.1,11.6,75.5,12.8,75.2z"/>
				</g>
			</g>
		</g>
	</g>
</g>
</svg>
