<?xml version="1.0" encoding="utf-8"?>
<!-- Generator: Adobe Illustrator 23.1.0, SVG Export Plug-In . SVG Version: 6.00 Build 0)  -->
<svg version="1.1" id="图层_1" xmlns="http://www.w3.org/2000/svg" xmlns:xlink="http://www.w3.org/1999/xlink" x="0px" y="0px"
	 viewBox="0 0 243.8 252" style="enable-background:new 0 0 243.8 252;" xml:space="preserve">
<style type="text/css">
	.st0{fill-rule:evenodd;clip-rule:evenodd;fill:#75AFDE;}
</style>
<path class="st0" d="M116.5,57.2c8.6-20.3,16.3-38.3,24.4-57.2c6.7,3.8,10.9,6.1,13.6,7.7c-9,15-17.8,29.6-26.6,44.1
	c1.1,1.2,2.1,2.3,3.2,3.5c4-0.8,8.1-1.5,12.1-2.5c64.6-17.4,111.7,26.5,98.6,92.1c-6.8,34.2-22.6,63.8-45.9,89.5
	c-14,15.4-30.9,20-51.4,16.6c-11.8-1.9-24.4-2.3-36.2-0.2c-24,4.2-44.2-1.8-59.8-19.8C22.7,201.3,5.9,167,0.7,128
	c-6.9-51.6,38.4-90.9,88.9-78C98.8,52.3,108.1,54.9,116.5,57.2z"/>
</svg>
