<?xml version="1.0" encoding="utf-8"?>
<!-- Generator: Adobe Illustrator 23.1.0, SVG Export Plug-In . SVG Version: 6.00 Build 0)  -->
<svg version="1.1" id="图层_1" xmlns="http://www.w3.org/2000/svg" xmlns:xlink="http://www.w3.org/1999/xlink" x="0px" y="0px"
	 viewBox="0 0 104.6 124.2" style="enable-background:new 0 0 104.6 124.2;" xml:space="preserve">
<style type="text/css">
	.st0{fill:#75AFDE;}
</style>
<g>
	<path class="st0" d="M101.8,77.2L104,72l-2.6,0.2l3.2-3.7l-2.2-0.5l1.6-3.5h-1.8l1.5-6l-1.9,0.4l1.7-5.4h-2.3l0.8-4.1h-1.6l1.3-3
		h-1.8v-4l-2.1,0.4l0.3-3.2l-1.9,0.5L96,36.3l-2.2,1.1l-0.3-5.2l-2.1,1.1v-3.6l-1.9,0.7L88.6,25l-3.3,1.6L83.7,23l-2.2,0.6L80,19.7
		l-1.3,1L77,17l-2.2,1.5l-2.1-3.9l-1.5,2.1L69.4,14l-1.9,2.1l-1.7-3.2l-2.2,2.3l-1.7-3.4L59.8,13L59,9.5l-1,1
		C56.4,9.8,52.3,0,52.3,0s-4.1,9.8-5.8,10.5l-1-1L44.8,13l-2.1-1.2L41,15.2l-2.2-2.3l-1.7,3.2l-2-2.1l-1.8,2.7l-1.5-2.1l-2.1,3.9
		L27.6,17l-1.7,3.9l-1.3-1l-1.5,3.9l-2.2-0.6l-1.6,3.6L16,25.1l-0.8,5.5l-1.9-0.7v3.6l-2.1-1.1l-0.3,5.2l-2.2-1.1l-0.2,3.8l-2-0.5
		L6.8,43l-2.1-0.4v4H3l1.3,3H2.7l0.8,4.1H1.2l1.7,5.4l-2-0.4l1.5,6H0.6L2.2,68L0,68.5l3.2,3.7L0.5,72l2.2,5.2H0.3l2.9,4.6H0.7
		l2.7,3.9l-1.3,0.9l3,2.4L3,90l4.3,2.7l-2.7,0.7L9,97.6l-2.2,1.5l4.2,1.7l-1.9,1.4l6.2,2.7l-1.6,1.2l10.2,3.5l-1.7,1.8
		c0,0,25.4,3,30-5.8c4.6,8.8,30,5.8,30,5.8l-1.7-1.8l10.2-3.5l-1.6-1.2l6.2-2.7l-1.8-1.4l4.2-1.7l-2.2-1.5l4.4-4.3l-2.7-0.7l4.3-2.7
		l-2.1-1.1l3-2.4l-1.3-0.9l2.7-3.9h-2.6l2.9-4.6L101.8,77.2L101.8,77.2z"/>
	<path class="st0" d="M55,104.4c-1.1,6.2-2.9,11.3-4.7,14.6c-0.9,1.7-1.7,3-2.3,3.8s-1,1.3-1,1.3l-3.8-3.2c0,0,0.3-0.3,0.8-1
		s1.3-1.7,2.1-3.2c1.6-2.9,3.4-7.4,4.6-13.2"/>
</g>
</svg>
