<?xml version="1.0" encoding="utf-8"?>
<!-- Generator: Adobe Illustrator 23.1.0, SVG Export Plug-In . SVG Version: 6.00 Build 0)  -->
<svg version="1.1" xmlns="http://www.w3.org/2000/svg" xmlns:xlink="http://www.w3.org/1999/xlink" x="0px" y="0px"
	 viewBox="0 0 299.5 200.8" style="enable-background:new 0 0 299.5 200.8;" xml:space="preserve">
<g id="objects">
	<path class="st0" d="M233.3,57c-4.9-23.9-26.1-41.9-51.5-41.9c-19.3,0-36.2,10.4-45.3,25.9c-4.7-2.1-10-3.3-15.5-3.3
		c-14.1,0-26.4,7.6-33.1,18.9H83c-19.6,0-35.6,16-35.6,35.6v0c0,19.6,16,35.6,35.6,35.6h9.9c4.1,6.8,11.6,11.4,20.1,11.4
		c7.5,0,14.1-3.5,18.4-8.9c9,9.8,21.9,16,36.2,16c0.2,0,0.4,0,0.6,0c0.3,14.8-14.5,26.5-14.5,26.5s39.1-9,41.2-34.9
		c4.2-2.8,7.9-6.2,11-10.1h22.5c19.6,0,35.6-16,35.6-35.6v0C264.1,74.4,250.6,59.4,233.3,57z"/>
</g>
</svg>
