<?xml version="1.0" encoding="utf-8"?>
<!-- Generator: Adobe Illustrator 23.1.0, SVG Export Plug-In . SVG Version: 6.00 Build 0)  -->
<svg version="1.1" id="图层_1" xmlns="http://www.w3.org/2000/svg" xmlns:xlink="http://www.w3.org/1999/xlink" x="0px" y="0px"
	 viewBox="0 0 426.4 354.5" style="enable-background:new 0 0 426.4 354.5;" xml:space="preserve">
<style type="text/css">
	.st0{fill:#75AFDE;}
</style>
<g>
	<circle class="st0" cx="53.3" cy="161.5" r="53.3"/>
	<circle class="st0" cx="138.9" cy="54.3" r="53.3"/>
	<circle class="st0" cx="286.1" cy="53.3" r="53.3"/>
	<circle class="st0" cx="373.1" cy="159.3" r="53.3"/>
	<g>
		<path class="st0" d="M125.8,240.1c-0.5-3.7-0.8-7.5-0.9-11.4c-0.3-47.1,37.6-85.5,84.6-85.8c47.1-0.3,85.4,29,85.9,95.3
			c32-0.2,65.7,25.5,65.9,57.4s-25.5,58.1-57.5,58.3c-17.5,0.1-33.1-7.5-43.8-19.7c-10.5,12.3-26.1,20.2-43.6,20.3
			c-20.9,0.1-39.3-10.9-49.6-27.5c-10.1,16.7-28.3,28-49.2,28.1c-32,0.2-58.1-25.5-58.3-57.5s25.5-58.1,57.5-58.3
			C120,239.3,122.9,239.6,125.8,240.1z"/>
	</g>
</g>
</svg>
