<?xml version="1.0" encoding="utf-8"?>
<!-- Generator: Adobe Illustrator 23.1.0, SVG Export Plug-In . SVG Version: 6.00 Build 0)  -->
<svg version="1.1" id="图层_1" xmlns="http://www.w3.org/2000/svg" xmlns:xlink="http://www.w3.org/1999/xlink" x="0px" y="0px"
	 viewBox="0 0 66.3 137.1" style="enable-background:new 0 0 66.3 137.1;" xml:space="preserve">
<style type="text/css">
	.st0{fill:#75AFDE;}
</style>
<g id="XMLID_3_">
	<path class="st0" d="M33.4,4.1c0,0-37.3-15.9-26.3,81.4s52.6,18.4,53.8,1.2C62.1,69.6,55.4-8.1,33.4,4.1z"/>
	<g>
		<g>
			<g>
				<path class="st0" d="M56.9,83.9c0.1,1.1,0,2.7-0.3,3.4c-0.3,0.9-0.7,1.6-1,1.3l-0.5,0.3c0.1-0.4,0.3-1.2,0.4-1.9
					c0.1-0.6,0.2-1.6,0.3-2.4C56,82.9,56.3,81.9,56.9,83.9z"/>
				<path class="st0" d="M59.8,83.4c-0.3,2-0.4,0.5-0.7,0.1c0-0.9,0.1-1.8,0.1-2.8C59.6,79.9,59.8,82.2,59.8,83.4z"/>
				<path class="st0" d="M66.2,84.7l0.2-0.9C66.2,84.7,66,86,66,86.9c-0.3,0-0.6-1.7-0.4-3.3C65.8,83.9,65.8,85.6,66.2,84.7z"/>
				<path class="st0" d="M43.4,120.3c0.4,1.1,3.2-0.1,6-2.4l0.7,2c-2.2,1.7-4.9,6.3-8,9.3c-0.9,1.4,3.2-2.4,0.5,0.8
					c-0.5,0.2-0.6-0.4-1.3,0.1c-1.3,1.4-1.4,2.1-2,3c-0.3,0.4-0.8,1-1.8,1.7c-0.9,0.7-2.4,1.5-4.8,2.2c-1.2,0.1-2.4,0-3.6-0.1
					c-2.3,0.2-4.7-0.3-6.7-1.3c-2.1-1-3.8-2.3-5.2-3.8c-2.8-2.9-4.7-6.2-6.2-9.4c-3-6.5-4.7-13.2-5.6-19.5
					c-1.3-2.1-2.1-8.7-3.1-12.5l0.5-0.2C2.1,89.1,2,87.6,1.9,86c0-1.6,0.1-3.3-0.2-4.7L2,78.7c0.7-1,1.1,7.1,2.1,4.7
					c0.1-2.7-0.4-4.9-0.9-7c-0.4-2.1-0.8-4.2-0.6-6.5c-0.1-4.5-0.6-3.9-1-6.7c-0.5-0.7-0.4,0.9-1,0.7c-0.7-10.1,1.9-10.6,2-19.5
					c-0.2-0.2-0.5-2-0.8-3.1c-0.3-1-0.8-1.2-1.2,2.1L1,46.7c-0.2,0.7-0.4,1.4-0.6,2.1c0-2.5,0.3-7-0.3-6.5c0.5-0.8,0.8-2.2,0.9-3.9
					c0-0.7,0-1.6,0-2.4s0.1-1.7,0.1-2.5c0.1-1.5,0.1-2.7,0.2-3.1c0.2-0.4,0.3,0.1,0.8,2c-1.1,4.1-1,5.4-0.5,8.2
					c0.3-2.4,0.5-4.6,0.9-6.8c0.5-2.3,1-4.4,1.5-6.5c1.1-4.2,2.4-8.1,4.1-11.8L8.4,13c0.8,0.2,3.1-3.1,6-5.9
					c0.5-0.7,1.3-1.4,1.7-1.9c0.5-0.5,0.8-0.8,0.5-0.8c0.1-0.2-0.7,0.2-1.7,1s-2.2,2-3.1,3.1C11.3,9,10.9,9.6,10.5,10
					s-0.6,0.7-0.8,0.9C9.5,11,9.4,11,9.4,10.7S9.5,9.8,10,8.9l1.1-1.5C11.6,6.9,12,6.5,12.4,6c0.2-0.2,0.4-0.5,0.7-0.7l0.7-0.6
					c0.5-0.4,1-0.8,1.5-1.2c2.1-1.5,4.5-2.6,6.9-3.1C24.7-0.1,27-0.1,29,0.3c1,0.2,1.9,0.4,2.8,0.8c0.4,0.2,0.8,0.3,1.2,0.5
					s0.7,0.4,1.2,0.6c-0.7-0.2-1.1-0.3-1.7-0.5c-0.5-0.1-1-0.2-1.5-0.3c-1-0.2-1.9-0.2-2.9-0.2c-1.9,0.1-3.9,0.6-5.8,1.8
					c-3.5,1.5-6.4,4.1-8.5,7.1S10.1,16.5,9,20c-2.2,7-3.2,14.3-3,21.1c-0.6,0.5-1,4.1-1.6,3c-0.2,0.6-0.3,1.8-0.4,3
					c0,1.3-0.1,2.4-0.5,2.9c0.6,10.7,1,23.1,2,32.7c0.6-1.4,1,0,1.3,2.1c0.4,2.1,0.7,4.8,1.2,6.1c-0.3,2.6,0.6,6.8,1.2,9.9
					c0.3,0.3,0.8,2.2,1.1,1.7c-0.6-2.3-0.5-3.2-0.7-5.6c1.2,0.8,0.8,5.1,1.5,8.6c-0.3-0.6-0.6-1.1-1-1.7c0.6,2.9,0.9,6.2,1.5,9.4
					c0.6,3.2,1.5,6.3,3.1,8.6c-0.3-1.6-0.6-3.1-0.7-4.6c1.3,3,2.6,6.5,4.4,9.5c0.9,1.5,2,2.8,3.2,3.7s2.5,1.5,3.7,1.6
					c-0.9-0.4-2-1-2.9-1.8c-1-0.8-1.8-1.7-2.6-2.6c-0.7-0.9-1.2-1.8-1.5-2.5s-0.3-1.2,0-1.3c0.2,0,0.5,0.2,0.8,0.6s0.8,0.9,1.2,1.5
					c0.9,1.2,1.9,2.5,2.7,3.2c0.8,0.8,1.6,1.5,2.6,1.8c1,0.4,2,0.5,2.9,0.4c2-0.2,3.8-1.2,5.4-2.4C37.3,126.4,39.9,123.2,43.4,120.3
					z"/>
				<path class="st0" d="M32.3,127.6c-1.5,0.9-2.3,1.2-2.9,1.5c-0.3,0.2-0.5,0.3-0.7,0.4c-0.2,0.1-0.4,0.3-0.5,0.4
					c-0.2,0.1-0.4,0.3-0.6,0.3c-0.2,0.1-0.5,0.2-0.8,0.2c-0.7,0-1.7-0.1-3-1.1c0.6-0.1,0.2-0.7-0.3-1.5s-1.3-1.9-2-3
					c-1.7-1.6-2.8-4.5-3.6-6.5c-0.4-1.5,0.5-1.6,1.6,1.1c0.4,1.8,1.1,3.5,2.1,5s2.3,2.7,3.5,3.3c1.2,0.7,2.2,0.8,3.3,0.7
					C29.6,128.3,30.9,128,32.3,127.6z"/>
				<path class="st0" d="M40.3,126.5c-1.5,1.6-2.3,1.7-3,1.8c-0.8,0.1-1.4,0.3-3,1.6c0.5-0.8,0.9-1.1,1.6-1.6
					c0.7-0.4,1.7-0.9,3.1-2.3c-0.4,0.6-0.8,1.3-1.3,1.9C38.6,127.6,39.4,127.1,40.3,126.5z"/>
				<path class="st0" d="M16.3,118c-0.5-1.2-1.2-3.4-1.5-5.3s-0.4-3.6,0.1-3.8c0-0.4,0.6,0.1,0.1-1.3c0.1,0.6,0.2,1.4,0.4,2.4
					s0.4,2.1,0.6,3.1C16.4,115.3,16.8,117.2,16.3,118z"/>
				<path class="st0" d="M19.1,130.5c-1.3-1.1-2.4-2.5-3.7-4.7C16.5,127.2,17.8,128.6,19.1,130.5z"/>
				<path class="st0" d="M13.4,115.2c-0.3,0.4-0.5-0.2-0.7-0.9c-0.2-0.7-0.3-1.7-0.4-2c0-0.6-0.1-1.1-0.1-1.7
					C12.8,112.1,13.4,113.9,13.4,115.2z"/>
				<path class="st0" d="M10.6,91.7c-0.3-4,1.5,4,1-0.7l0.5,2.7l-1,1.2C10.9,93.7,10.8,92.7,10.6,91.7z"/>
				<path class="st0" d="M10.9,85.5c-0.4-1.1-0.6-2.3-0.6-4.3l0.5,1.1C11.1,83,10.7,83.9,10.9,85.5z"/>
				<path class="st0" d="M8.9,91c-0.5-1.9,0.1-1.7,0.2-2.9C9.5,88.8,9.3,92.9,8.9,91z"/>
				<path class="st0" d="M0,72.3c1.1,1.8,0.8,5.6,1.5,9.1c-0.3-1.8-0.7-3-0.9-4.3C0.3,75.7,0.1,74.3,0,72.3z"/>
				<path class="st0" d="M54.3,55.7c0.1-1.7-0.4-3.5-0.8-4.6L53.3,52L54.3,55.7z"/>
				<path class="st0" d="M55.5,79.1c1.1,1.7,0.6-1.3,1.2-4.6c0-4.3-1.2-8.8-1.6-13.1l-0.9-2.5C54.5,64,54.9,73.1,55.5,79.1z"/>
				<path class="st0" d="M61,82.4c0.5-3.3-0.5-7.5-0.6-9.9c0.1,4,0.2,9.2,0,11.9C60.7,84.8,60.9,83.2,61,82.4z"/>
				<path class="st0" d="M44.5,16.2c1.1,2.2,2,5.2,2.9,8.3s1.9,6.2,3.2,9c-0.4-2.7-0.1-2.9-1-7c2.3,2.7,1.5,6.4,2.3,10.2
					c-0.3-3.2,1.1,0.8,1.7,3.4c0.6,5.1,1.9,13.2,2.7,20.3c0.4,1.5,0.7,4.7,0.9,7.4s0.5,4.8,1.1,4.1c0.3,4.3-0.7,4.9-1,8.1
					c0.5,2.3,0.5,4.6,0.1,6.6c-0.2,0.8-0.5,1.8-0.8,2.7c-0.4,0.9-0.8,1.8-1.3,2.8c-1.9,3.7-4.2,7.3-5.5,12.2
					c-0.5-0.9-2.6,3.5-3.6,5.1c-1,1.8-2.9,4.7-4.3,7c-1.4,2.3-2.3,3.9-1,3.6c1.3-0.8,2.5-2.6,3.6-4.6c1.2-2,2.3-4.3,3.9-6
					c2.6-2.9,1.8-1.1,0.4,1.6c-1.4,2.7-3.5,6-3,6.4c0.4-1.1,1.8-0.9,3.3-4.1c-1.7,3.3-1,2.9,0.1,2.1c1-0.8,2.3-2,1.6-0.2
					c2.6-3.5,3.7-5.2,4.6-6.3c1-1.1,1.8-1.7,3.5-3.4c1-2.5,1-3.5,0.8-4.1s-0.7-0.8-0.7-1.6c0.7-2.7,1.7-4.9,2.7-7.2
					c0.5-1.1,0.9-2.3,1.2-3.5c0.2-0.6,0.3-1.3,0.3-1.9c0.1-0.6,0.1-1.2,0.1-1.8c1,1.9,1.6-0.2,1.7-3.4c0.2-3.2-0.2-7.6-0.4-10.4
					c-0.2-3.7-0.7-4.2-1.2-4.8c-0.5-0.6-1-1.3-1.3-5.1c0.3-2,0.9,0,1.4,1.7c0.5,1.8,1,3.4,1.4,0.8l-0.8-3.5
					c-1.1-2.2-2.3-3.8-3.3-6.4c-0.2-1.6-0.6-4-0.2-4.1c0.8,3.1,1.5,2,1.5-1.3c-0.6-1.5-0.7-1.8-1.2-2.5c-0.7,3.4-1,1.7-1.3-1.3
					c-0.4-3-1-7.5-2.1-9.6c-2.3-6.3-2.2-8.1-1.8-10c0.2-0.9,0.3-1.9,0.2-3.4c-0.2-1.5-0.7-3.5-2.2-6.6c-0.2,2.3-1.2,0.3-2.7-2.6
					c-0.8-1.5-1.7-3.1-2.7-4.6S46,5.6,45.1,4.9c-1.4-1.3-2.6-2.2-3.7-2.9c-1.2-0.7-2.3-1.2-4-1.4c-0.3,0.1-0.8,0.2-1.3,0.3
					c-0.5,0.2-1,0.3-1.5,0.6c-1,0.5-1.7,1-1.8,1.3c0.4,0.2,0.9,0.3,1.5,0.4c0.6,0.1,1.2,0.2,1.9,0.4c1.3,0.3,2.8,0.9,3.8,2
					c0.5,0.5,1,1.1,1.4,1.9c0.4,0.7,0.8,1.5,1.2,2.4C43.3,11.7,43.9,13.9,44.5,16.2C44.3,16.1,44.4,16.3,44.5,16.2z"/>
			</g>
		</g>
	</g>
</g>
</svg>
