<?xml version="1.0" encoding="utf-8"?>
<!-- Generator: Adobe Illustrator 23.1.0, SVG Export Plug-In . SVG Version: 6.00 Build 0)  -->
<svg version="1.1" id="图层_1" xmlns="http://www.w3.org/2000/svg" xmlns:xlink="http://www.w3.org/1999/xlink" x="0px" y="0px"
	 viewBox="0 0 390.8 462.6" style="enable-background:new 0 0 390.8 462.6;" xml:space="preserve">
<style type="text/css">
	.st0{fill:#75AFDE;}
</style>
<path class="st0" d="M155.7,246.2c0,0-75.9,115.8-144.2,7.6c0,0-33.2-118.6,13.3-177.4c0,0,65.5-94.9,195.5-73.1
	c0,0,145.2-1.9,164.1,161.3c0,0,29.4,183.1-38,256.2c0,0-39.9,64.5-126.2,33.2c0,0-81.6-60.7,5.7-118.6c0,0,55-14.2,45.6,26.6
	c0,0-57.9,9.5-41.8,43.6c0,0,40.8,22.8,68.3-24.7c0,0,38.9-87.3-16.1-137.6C281.9,243.3,203.2,186.4,155.7,246.2z M255.5,128.2
	c-11.8,0-21.4,9.6-21.4,21.4c0,11.8,9.6,21.4,21.4,21.4s21.4-9.6,21.4-21.4S267.3,128.2,255.5,128.2z"/>
<path class="st0" d="M271.2,296.3c0,9.3-7.6,16.9-16.9,16.9c-9.4,0-16.9-7.6-16.9-16.9c0-9.4,7.6-16.9,16.9-16.9
	S271.2,287,271.2,296.3z"/>
</svg>
