<?xml version="1.0" encoding="utf-8"?>
<!-- Generator: Adobe Illustrator 23.1.0, SVG Export Plug-In . SVG Version: 6.00 Build 0)  -->
<svg version="1.1" id="图层_1" xmlns="http://www.w3.org/2000/svg" xmlns:xlink="http://www.w3.org/1999/xlink" x="0px" y="0px"
	 viewBox="0 0 95.2 104.4" style="enable-background:new 0 0 95.2 104.4;" xml:space="preserve">
<style type="text/css">
	.st0{fill:#75AFDE;}
</style>
<g>
	<path class="st0" d="M85.4,22.9C90.1,8.3,95.2,0,95.2,0s-124.5,12.5-85,85C66.5,110.5,75.1,55.5,85.4,22.9z"/>
	<path class="st0" d="M12.1,85.4c-0.7,1.4-1.4,2.7-1.9,4C9.6,90.6,9,91.8,8.6,93s-0.8,2.3-1.2,3.3c-0.3,1-0.6,2-0.8,2.8
		c-0.6,1.7-0.7,3.1-0.9,4c-0.2,0.9-0.3,1.4-0.3,1.4l-5.3-1c0,0,0.1-0.5,0.4-1.5s0.5-2.5,1.2-4.3c0.3-0.9,0.6-1.9,1-3
		s0.9-2.2,1.4-3.4c0.5-1.2,1.1-2.5,1.8-3.8C6.5,86,7.2,84.6,8,83.2s1.6-2.9,2.6-4.3"/>
</g>
</svg>
