<?xml version="1.0" encoding="utf-8"?>
<!-- Generator: Adobe Illustrator 23.1.0, SVG Export Plug-In . SVG Version: 6.00 Build 0)  -->
<svg version="1.1" id="图层_1" xmlns="http://www.w3.org/2000/svg" xmlns:xlink="http://www.w3.org/1999/xlink" x="0px" y="0px"
	 viewBox="0 0 250 215" style="enable-background:new 0 0 254 231;" xml:space="preserve">
<path class="st0" d="M226.4,82.9c-6.1-19.1-28.2-29-49.5-22.3c-5.8,1.9-12.9,5.4-19.9,9.9c2.2-8.1,3.4-15.9,3.4-22
	c0-22.3-16.2-40.4-36.2-40.4S87.9,26.2,87.9,48.6c0,5.5,1,12.5,2.8,19.7C84.4,64.2,78.2,61,73,59.1C51.9,51.7,29.5,61,22.9,79.9
	c-6.6,18.9,5.1,40.2,26.1,47.6c5.8,2,13.5,3.5,21.9,4.1c-6.6,5.1-12.3,10.6-15.9,15.5c-13.4,17.8-11.4,42.1,4.6,54.1
	c16,12,39.8,7.4,53.3-10.5c3.7-4.9,7.4-11.8,10.5-19.6c2.9,7.8,6.4,14.9,9.9,19.9c12.9,18.2,36.6,23.6,52.9,12s19.1-35.7,6.2-53.9
	c-3.5-5-9-10.6-15.5-16c8.4-0.4,16.1-1.6,22-3.4C220.1,122.9,232.5,102,226.4,82.9z"/>
</svg>
