<?xml version="1.0" encoding="utf-8"?>
<!-- Generator: Adobe Illustrator 21.0.0, SVG Export Plug-In . SVG Version: 6.00 Build 0)  -->
<svg version="1.1" id="图层_1" xmlns="http://www.w3.org/2000/svg" xmlns:xlink="http://www.w3.org/1999/xlink" x="0px" y="0px"
	 viewBox="0 0 766 871" xml:space="preserve">
<path class="st0" d="M459.7,121l-9.5,16.8c-41.8,73.7-86.6,111.7-133,113.1c-1,0-1.8,0.1-2.7,0.1c-63,0-108.4-68.6-108.9-69.3
	l-18-27.7l7.4,32.2c14.6,63.1,9.7,117.8-14.4,162.6c-21.5,40.1-55,64.8-79.2,78.6c-28.5,16.1-49.5,20.9-49.8,20.9L8,457.7l44.6,2.2
	c0.2,0,24.8,1.3,50.8,12.4c25,10.6,58.4,32,75.8,73.6c19.7,47.2,15.1,109.9-13.7,186.6l-8.8,23.3l18.2-16.9
	c46.6-43.5,90.6-65.5,130.8-65.5c7.5,0,14.9,0.8,22.2,2.3c68.3,14.4,102.6,93.2,103,94l9.8,23.2l1.4-25.3c0-0.4,2.6-41.5,39.7-69.1
	c22.6-16.7,52.6-25.1,89.8-25.1c24.8,0,52.7,3.8,83.8,11.2l17.9,4.3L661,675c-42.6-48.6-58.9-92.4-48.4-130.5
	c16.8-60.6,96.9-87,97.6-87.4l19.1-6.2l-19.4-5c-0.9-0.2-91.8-24.6-112.6-83.3c-10.1-28.6-1.7-61.4,24.9-97.2l8.5-11.4l-14.1,2.2
	c-17.2,2.6-34.5,4.7-51,4.7c-24.5,0-47.1-4.6-64.7-18.6c-23.3-18.6-36.4-52-40-102.1L459.7,121z"/>
<path d="M459.7,121"/>
<path class="st0" d="M335.2,98.7c-1.2,21-2.6,42.2-3.5,63.2c-0.5,8.2-12.1,11.3-17.6,6.5c-3.3-2.9-6.3-6-9.2-9.3
	c0.1,3.8,0,7.7-0.5,11.7c-1.6,14-23,10-21.4-3.8c2.6-24-10.5-46.3-19-67.8c-4.7-12.2,11.3-19.2,19-10.2
	c11.2,13.4,18.9,29.7,28.8,44.1c0.8-12.7,1.5-25.5,2-38.1C314.4,81,335.6,84.8,335.2,98.7z"/>
<path class="st0" d="M99.3,355.5c-19.2-14.7-45-15.2-67.8-19c-12.9-2.2-12.2-21.4,4-21.4c27.4,4.5,55.4,6.3,78.2,24.1
	C124.8,347.7,110.2,364,99.3,355.5z"/>
<path class="st0" d="M344,756.7c-4.4-15.6-23-11-21.7,2c2.5,23,9,48,0,70.5c-5.3,12.8,14.3,22.5,19.7,9.4
	C353,811.8,347.1,784.2,344,756.7"/>
<path class="st0" d="M311.4,742c-5.4-10.3-23.5-8.6-21.4-0.2c3.9,15,12,31.5,4.6,45.4c-4.4,7.9,15.6,15.4,20,7.4
	C323.8,778,316.2,760,311.4,742"/>
<path class="st0" d="M153.1,280.9c-4.2,1.2-8.5,2.1-12.7,2.8c3.3,2,6.5,4.2,9.5,6.7c11,8.8-4,24.8-14.7,16.1
	c-18.9-15-44.6-16-67.4-20.2c-12.9-2.5-10.2-19.8,1.4-21.5c17.4-2.2,35.3-0.1,52.8-0.8c-10.3-7.5-20.7-14.9-31.1-22.1
	c-11.4-8,3.2-23.8,14.7-16c17,12.2,34.2,24.8,51.4,36.8C163.8,267.4,160.2,278.8,153.1,280.9z"/>
<path class="st0" d="M669.5,369.5c-13.5,8.9-3.7,25.3,8.3,20.2c21.3-9.2,43.2-22.9,67.3-21c13.8,1.2,17.2-20.4,3.2-21.6
	C719.5,344.5,695,358.3,669.5,369.5"/>
<path class="st0" d="M748.6,307.8c-24-2.3-46.2,11-67.6,19.8c-12.1,5-19.4-11-10.5-18.8c13.3-11.3,29.5-19.2,43.8-29.4
	c-12.7-0.6-25.4-1.2-38-1.6c-13.9-0.5-10.3-21.8,3.4-21.5c21,1,42.2,2.1,63.2,2.8c8.3,0.3,11.4,11.9,6.7,17.5
	c-2.9,3.4-6,6.4-9.2,9.3c3.8-0.2,7.7,0,11.7,0.4C766.2,287.7,762.3,309.3,748.6,307.8z"/>
<path class="st0" d="M658,820.8c-3.9-2.1-7.5-4.5-11-7.1c0.9,3.7,1.6,7.6,2,11.5c1.4,14-20.4,14.6-21.8,0.9
	c-2.6-24-20.2-43-33.1-62.2c-7.3-10.8,7-21.2,16.3-14.1c13.8,10.8,24.8,25,37.6,36.9c-2-12.6-4-25.1-6.2-37.6
	c-2.4-13.8,19.1-14.6,21.7-1c3.4,20.8,6.6,41.8,10.2,62.5C675.1,818.9,664.5,824.4,658,820.8z"/>
<path class="st0" d="M123.4,590c-22,10.1-34.4,32.7-48.5,51.1c-8,10.4-22.3,0.2-18.6-11c5.8-16.5,15.8-31.4,23-47.3
	c-11.3,5.9-22.5,11.8-33.6,17.7c-12.3,6.6-19.9-13.6-7.8-20.4c18.6-9.8,37.5-19.5,56-29.4c7.4-3.8,15.9,4.6,14.6,11.8
	c-0.8,4.4-1.9,8.6-3.3,12.7c3.2-2.1,6.7-4,10.3-5.6C128.4,563.8,136,584.3,123.4,590z"/>
<path class="st0" d="M631.8,146.3c-20.3,21-41,41.9-61.1,63c-8,8.3-22.9,1-24.3-9.1c-0.8-6.1-1.2-12.2-1.2-18.2
	c-3.4,4.1-7.1,8.1-11.2,11.8c-14.4,13.3-33.1-10.5-19-23.4c24.6-22.8,31.2-58.1,41.9-88.3c6.1-17.1,29.3-9.9,29.1,6.4
	c-0.6,24.2-7.3,48.3-10,72.4c12.3-12.6,24.6-25.3,36.7-38C626.1,108.8,644.8,132.1,631.8,146.3z"/>
<path class="st0" d="M612.8,122.8"/>
<path class="st0" d="M738.7,631.1c-3.9-2.2-7.5-4.6-11-7.1c0.9,3.7,1.6,7.6,2,11.5c1.4,14-20.4,14.6-21.8,0.9
	c-2.6-24-20.2-43-33.1-62.2c-7.3-10.8,7-21.2,16.3-14.1c13.8,10.8,24.8,25,37.6,36.9c-2-12.6-4-25.1-6.2-37.6
	c-2.4-13.7,19.1-14.6,21.7-1c3.4,20.8,6.6,41.8,10.2,62.5C755.8,629.2,745.2,634.6,738.7,631.1z"/>
</svg>
