<?xml version="1.0" encoding="utf-8"?>
<!-- Generator: Adobe Illustrator 23.1.0, SVG Export Plug-In . SVG Version: 6.00 Build 0)  -->
<svg version="1.1" id="图层_1" xmlns="http://www.w3.org/2000/svg" xmlns:xlink="http://www.w3.org/1999/xlink" x="0px" y="0px"
	 viewBox="0 0 230.8 146.9" style="enable-background:new 0 0 230.8 146.9;" xml:space="preserve">
<style type="text/css">
	.st0{fill:#75AFDE;}
</style>
<g id="XMLID_11_">
	<g>
		<g>
			<g>
				<g>
					<path class="st0" d="M230.3,73.2c0,0.9,0.4,0.6,0.5,0.7C230.6,72.4,230.2,73.2,230.3,73.2z"/>
					<polygon class="st0" points="226.9,58.7 227.1,58.9 226,57 					"/>
					<path class="st0" d="M220.8,46.4c0,0.8,0.8,1.8,1.5,2.9c0.7,1.2,1.6,2.4,2,3.6v0.4l1,0.8c-0.3-0.7-0.7-1.4-1.1-2.1
						c-0.4-0.7-0.9-1.4-1.3-2.1C222.2,48.6,221.3,47.4,220.8,46.4z"/>
					<path class="st0" d="M217.7,39.6c0.1,0.5-1.2-1.1,1,1.4c-0.1-0.2-0.1-0.2-0.1-0.3C218.4,40.5,218.1,40.1,217.7,39.6z"/>
					<path class="st0" d="M218.6,40.7C219.5,41.8,218.2,39.8,218.6,40.7L218.6,40.7z"/>
					<path class="st0" d="M214,35.7l1.5,1.3c-0.1-0.4-1.3-1.7-0.8-1.3c-0.7-0.7-1.1-0.9-1.1-0.9C213.6,34.8,213.8,35.2,214,35.7z"/>
					<path class="st0" d="M212.4,34.7l0.8,0.6C213.1,35.2,212.9,35,212.4,34.7z"/>
					<path class="st0" d="M214.8,36.8l-1.6-1.4c0.1,0.3,0,0.5,0.7,0.7C213.6,36,214,36.2,214.8,36.8z"/>
					<path class="st0" d="M215.5,37.7c0.6,0.9,1.4,2,0,0.7c1.2,1.3,1.8,1.9,1.8,1.7C217.3,40,216.8,39,215.5,37.7z"/>
					<path class="st0" d="M219.8,46.2l0.6,1.3l0.9,0.9C220.8,48,220,46.1,219.8,46.2z"/>
					<path class="st0" d="M205.4,27.4c-0.2,0,0.3,0.7,0.2,1l1.2,0.7C206.4,28.5,205.4,27.6,205.4,27.4z"/>
					<path class="st0" d="M205.7,28.3l-1.8-1.1C205.3,28.4,205.6,28.5,205.7,28.3z"/>
					<path class="st0" d="M211.6,35.1c1,0.7,1.9,1.4,2.8,2.1l-1.6-1.3l-1.7-1.2L211.6,35.1z"/>
					<polygon class="st0" points="198.9,22.6 200.1,23 198,22.3 					"/>
					<path class="st0" d="M194.3,19.8c0.9,0.2-0.8-1,0.1-0.7c-0.6-0.4-1.3-0.6-1.9-0.9c-0.6-0.2-1.2-0.4-1.7-0.6
						c0.6,0.2,1.1,0.5,1.7,0.8C193.1,18.9,193.7,19.3,194.3,19.8z"/>
					<path class="st0" d="M189,17.1c0.6,0.2,1.1,0.4,1.8,0.6C190.3,17.4,189.7,17.2,189,17.1z"/>
					<path class="st0" d="M201,25.1c-0.1-0.2-0.2-0.6-1.1-1.3c0.1,0.3,0.3,0.5,0.4,0.8C200.5,24.7,200.8,24.9,201,25.1z"/>
					<path class="st0" d="M200.4,24.6L200.4,24.6c-0.7-0.6-1.3-0.9-1.5-1.1C199.1,23.7,199.5,24,200.4,24.6z"/>
					<path class="st0" d="M201.2,25.2c-0.1,0-0.1-0.1-0.2-0.1C201,25.1,201.1,25.2,201.2,25.2z"/>
					<path class="st0" d="M207.8,31.1c-1.1-0.7-3.2-2-1.5-0.2C207.1,31.2,206.2,30.1,207.8,31.1z"/>
					<path class="st0" d="M201.7,26.2c0.6,0.5,1.2,0.9,1.7,1.4c0-0.1-0.2-0.5,0.4-0.2C203.1,27,202.4,26.6,201.7,26.2z"/>
					<polygon class="st0" points="200.7,25.7 201.7,26.2 201,25.7 					"/>
					<path class="st0" d="M192.2,19.2c-0.9-0.3-1.9-0.8-2.9-1.3c1.1,0.7,2.2,1.3,3.3,2C192.8,19.9,193.4,19.9,192.2,19.2z"/>
					<path class="st0" d="M196.2,21.8c-0.1,0-0.1-0.1-0.2-0.1C196.1,21.8,196.2,21.9,196.2,21.8z"/>
					<path class="st0" d="M178.8,12.9c0.1,0,0.1,0.1,0.1,0.1s0,0,0.1,0L178.8,12.9z"/>
					<path class="st0" d="M192.7,20.1c0.8,0.6,1.3,0.8,1.9,0.9c-0.6-0.3-1.3-0.7-2-1.1C192.5,19.9,192.4,19.9,192.7,20.1z"/>
					<path class="st0" d="M186,15.8c0.4,0.3,0.9,0.6,1.4,0.9C187.1,16.4,186.3,15.7,186,15.8z"/>
					<path class="st0" d="M195.8,21.4c0,0,0.1,0,0.1,0.1C195.7,21.2,195.7,21.3,195.8,21.4z"/>
					<path class="st0" d="M195.8,21.4c-0.5-0.2-0.8-0.3-1.2-0.4c0.5,0.3,1,0.5,1.4,0.7C195.9,21.6,195.9,21.5,195.8,21.4z"/>
					<path class="st0" d="M174.5,14.1c0.3-0.3,2.7,0.2,4.5,1.5c2,0.6,1.3-1.2-0.1-2.6c-0.1,0.1-0.2,0.3-2.3-0.3
						c0.3,0.3,1.4,0.8,2.1,1.3c0.8,0.5,1.2,0.9,0.3,0.7c-2.7-0.9-2.1-1-3.3-1.8c0.9,0.9-3.6-0.7-3.3,0.3c0.8,0.2,1.6,0.4,2.4,0.7
						C174.8,13.9,173.9,13.8,174.5,14.1z"/>
					<path class="st0" d="M182.7,14.8c0.3,0.1,0.6,0.2,0.8,0.3c-0.9-0.5-1.5-0.9-2.6-1.8c-1.4-0.4-1.8-0.4-1.9-0.4l4,1.9H182.7z"/>
					<path class="st0" d="M187.2,16.9c-0.8,0.1-2.8-0.7-1.9,0.3c2.4,1.1,1.8,0.5,3.3,1.1C184.8,16.3,189.8,18.6,187.2,16.9
						c0.8,0.4,1.5,0.7,2.1,1c-0.6-0.4-1.3-0.8-1.9-1.2c0,0,0.1,0,0.1,0.1l0,0l0,0c0.1,0.1,0.2,0.2,0,0.1h-0.1
						C187.4,16.9,187.3,16.9,187.2,16.9c-1.1-0.6-0.1-0.2,0.3-0.1h0.1l0,0l-3.9-1.7C184.3,15.5,185.4,16,187.2,16.9z"/>
					<path class="st0" d="M203.9,30.1c-0.1-0.1-0.1-0.1,0-0.2C203.7,29.9,203.6,29.8,203.9,30.1z"/>
					<path class="st0" d="M202.8,28.9c0.3,0.1,0.6,0.2,1.3,0.8c0.6,0.6-0.1,0.2-0.2,0.3c0.5,0.3,1.8,1.1,0.5-0.3l-0.3-0.1
						c-1.2-1.2-2.7-2.9-2.4-2.8C201.9,27.4,202.1,27.9,202.8,28.9z"/>
					<path class="st0" d="M195.1,22.6L192,21l1.4,1.2V22C195,23,194.8,22.6,195.1,22.6z"/>
					<polygon class="st0" points="178.5,12.5 179.1,12.3 176.9,12.1 					"/>
					<polygon class="st0" points="174.2,10.9 174.5,10.6 173.2,10.4 					"/>
					<path class="st0" d="M25.6,114.7l0.8,0.5C26,115,25.8,114.8,25.6,114.7z"/>
					<path class="st0" d="M20.2,109.8h-0.3C20.3,110,20.4,110,20.2,109.8z"/>
					<path class="st0" d="M62.9,8.2c-1.6,0.1-3.4,0.1-3,0.5L60.5,9C61.4,8.5,62.2,8.3,62.9,8.2z"/>
					<path class="st0" d="M5.1,56c0.1-0.1,0.2-0.2,0.3-0.3c0-0.4,0-0.8,0-1.1C5.3,55,5.2,55.5,5.1,56z"/>
					<path class="st0" d="M6.4,57.6l-0.9,1.7C5.7,58.9,6,58.4,6.4,57.6z"/>
					<path class="st0" d="M60.4,133.2h1.3C60,132.6,60.6,133,60.4,133.2z"/>
					<path class="st0" d="M128.1,1.1c-1.3-0.3-2.3-0.4-3.2-0.5C126.4,1,127.7,1.5,128.1,1.1z"/>
					<path class="st0" d="M20.3,116.3c0.5,0.4,0.8,0.5,0.9,0.4C20.6,116.3,20.3,116.1,20.3,116.3z"/>
					<path class="st0" d="M121.1,0.5c0.2,0.1,0.4,0.1,0.7,0.1c1,0,1.9,0,3.1,0C123.7,0.4,122.4,0.2,121.1,0.5z"/>
					<path class="st0" d="M199.4,117.9c0.1-0.1,0.2-0.1,0.3-0.2C199.7,117.7,199.5,117.8,199.4,117.9z"/>
					<path class="st0" d="M228,86.7c-0.1,0.4-0.3,1.1-0.5,1.8C227.6,88.2,227.8,87.7,228,86.7z"/>
					<path class="st0" d="M156.5,5.2C157.4,5.4,156.6,5.2,156.5,5.2L156.5,5.2z"/>
					<path class="st0" d="M160.6,8.1c-0.2,0-0.4,0-0.4,0.1C160.3,8.1,160.4,8.1,160.6,8.1z"/>
					<path class="st0" d="M111.4,3.1C111.4,3.1,111.3,3.1,111.4,3.1C111.6,3.2,111.5,3.2,111.4,3.1z"/>
					<path class="st0" d="M157.8,5.8c-0.3-0.1-0.7-0.3-1.2-0.4C156.8,5.4,157.2,5.5,157.8,5.8z"/>
					<path class="st0" d="M157.7,5.5c0.3,0.1,0.6,0.2,0.8,0.3C158.7,5.7,158.6,5.6,157.7,5.5z"/>
					<path class="st0" d="M155.1,4.9c0.6,0.1,1.1,0.3,1.5,0.4c-0.2-0.1-0.3-0.1-0.2-0.1C156.2,5.1,155.8,5.1,155.1,4.9z"/>
					<path class="st0" d="M126.8,143.1c0.1,0,0.1,0,0.2,0C128,142.9,127.5,142.9,126.8,143.1z"/>
					<path class="st0" d="M41.5,22C41.6,22,41.6,22,41.5,22C41.6,22,41.5,22,41.5,22L41.5,22z"/>
					<path class="st0" d="M38.7,24c1-1.2,1.8-1.5,2.8-2l-1.6-0.6C39.5,22.3,39.1,23.1,38.7,24z"/>
					<path class="st0" d="M39.9,124.4c-0.6-0.5-1.2-1-1.8-1.5c1.4,0.5,2.5,1,3.1,1.2s0.6,0.1-0.3-0.7c-0.5,0.5-2.5-0.6-4.5-1.8
						c-2-1.2-3.9-2.4-4.4-2l-1.1-1.2c0.3,0.3,0.5,0.3,0.8,0.5c-2-2.3-2.5-0.5-5.4-3.1c-1-0.9-1.6-1.7-0.8-1.2
						c-0.8-0.6-1.7-1.2-2.5-1.7c-0.7-0.6-0.3-0.6,0.3,0c-1.2-1-2.3-2.1-3.4-3.1l0,0c-0.6-0.3-1.9-1.2-2.5-1.6c-0.7-1,0.5,0.3,0.4,0
						c-0.7-0.6-1.3-1.1-2-1.7c-0.2-0.5,0.1-0.4,0.6,0s1.2,1,1.8,1.7c-0.3-1.3-0.7-1.7-1.4-2.2c-0.6-0.6-1.7-1.3-2.9-3.6
						c0.5,0.6,1.1,1.2,1.6,1.8c-0.2-0.8-0.6-1.6-1.1-2.4c-0.5-0.9-1.2-1.8-1.6-3c0,0.2,0.1,0.6,0.3,1.1s0.4,1,0.5,1.5
						c0.3,0.9,0.3,1.5-0.6,0.5c-0.4-0.7-1-1.5-1.9-2.7c0.2-0.1,0.1-0.5-0.2-1s-0.8-1.2-1.2-2l0.6-0.2c-1.1-1.6-1.3-1.3-2.1-2.2
						c-0.8-2-0.6-2.6-0.4-3.2c-1.1-3.2,0.1,2.5-1.4-1.3c-0.1-0.7-0.4-1.3-0.6-2c-0.2-0.6-0.4-1.2-0.6-1.8c-0.5-1.2-0.9-2.5-1.4-4.2
						c-0.1-2,0.4,0.3,0.5-0.5l-0.7-1.7c0-0.4,0.1-0.3,0.2-0.3c-0.2-0.7-0.3-0.8-0.5-0.9s-0.4-0.3-0.5-1.6c-0.3-0.3-0.2-1.6,0.1-3.1
						C3,72.7,3.2,71.8,3.3,71s0.2-1.6,0-2.4c0.3-0.7,0.3,0.4,0.6,0.2c-0.1-2,0.1-2.9,0.1-3.7c0.1-0.8,0-1.5,0.1-3.2
						c0.4-0.9,0.8-1.8,1.3-2.6C4.2,61.1,4.6,58.4,5,56c-0.5,0.6-0.9,1.2-1.2,1.5c0.2-0.6,0.3-1.3,0.5-1.9l0.6-1.9
						c0.3-0.4,0.3,0.1,0.3,0.8c0.1-0.3,0.1-0.5,0.2-0.7c0.8-1.2,0.8-0.3,0.7,0.7c-0.3,0.4-0.6,0.7-0.9,1.1c-0.1,1,0.1,2,0.5,2
						c0-0.3,0.1-0.7,0.3-1.2c0,0.3,0,0.4,0.1,0.4c0.1-0.1,0.1-0.5,0.3-1.1l1-0.5l-0.2-0.3L8,53.8c0.2-0.3,0.4-0.7,0.7-1l1.4-2
						c0.3-0.8,0.6-1.7,0.9-2.5c0.3-0.9,0.6-1.7,1-2.6c0.8-1.8,1.9-3.8,3.7-6C15,41,16,40.4,16.4,40.8c-1.5,0.7-2.6,3.5-4.4,5.8
						c0.9-1.2,1-0.7,0.9-0.4c0.4-0.7,0.8-1.5,1.3-2.3l1.4-2.2c0.3,0.4,1-0.6,2.1-1.5c-0.7,0-0.2-0.8,0.7-1.8c0.9-1,2.2-2.3,2.8-3.1
						c0.3,0.2,0.2,0.8-1.7,2.5c1.3-0.7,1.7-1.6,2.2-2.4c0.5-0.8,1-1.7,2.2-2.4c-0.5,0.4-0.8,0.6-0.8,0.9c0.9-1.3,3.9-3.3,3.4-2.5
						L26,31.8c1.7-1.3,4.2-3.2,6.4-4.8c1.1-0.8,2.1-1.6,2.9-2.2c0.8-0.6,1.2-1.1,1.3-1.4c0.1,0.1,0,1.2-0.1,1.4
						c0.8-1,1.7-2.1,2.5-3.1l2.7-3.1c-0.2,1,2.8,1.3-0.1,3.3c0.9-0.4,2.1-0.9,3.8-2c-0.7,0.2-2-0.2-1.2-0.7c1.3-0.2,1.8-0.3,2.3-0.5
						c0.5-0.1,1.1-0.3,2.7-0.7c-1,0.3-0.4-1.2,1.1-1.9c-0.2,0.3,0.6,1,0.1,1.3c1.1-0.9,2.2-1.8,3.3-2.6c-0.9,0.6,0.2,1,1.2,0.9
						c-0.2,0,0.6-0.3,1.6-0.7s2.2-0.7,2.7-1l-1.7,0.3c4.3-1.4,3.7-3,8.1-4.4c-0.5,0.4-0.9,1.8,1.4,1.2c0.4-0.4,1.4-1.4,2.7-2.5
						c1.3-1.1,3.1-2.1,5-2.9l0.8,0.1l3-1C76.7,6,71.9,9,69.3,10.5c1.7-0.2,0.6,0.2,3-0.4c0.9,0.1-1.2,0.8-1.9,1
						c1.9-0.5,3.9-0.8,5.8-1.3c-0.4-0.6,4.3-1.6,4-2.1C78.1,8.4,76.1,9,74,9.8c-0.2-0.3,0.6-1,2-1.7s3.4-1.4,5.5-1.8
						c1.1,0.1-0.6,1.3-0.4,1.5C81.3,8,84.6,7.2,85,7.3L83.3,8c1.2-0.1,2.1-0.5,3.1-0.8s2-0.6,3.5-0.5c1-0.1,3,0.4,3.1,0.1
						c-1.7-0.6-2.3-2.9-1.3-3.6c0.4,0,5.3,0.1,6.4,0.4c1.7,0.5-2.3,1.6-0.9,2c0-0.2,0.9-0.5,1.3-0.6c1,0.1-0.4,0.6,1.8,0.3
						c0.3-0.7,4.5-0.3,1-0.7c2.2-0.4,2.3,0,4.9-0.2c-0.8-0.4,2.3-1.6,4.5-1.8c-0.1,0.2,0.4,0.4,0.6,0.5c1.1,0,2.1,0,3.1,0
						c0.9,0.1,1.8,0.1,2.6,0.2c1.7,0.1,3.3,0.2,5.4,0.3c0.4,0.2,2.4,0.5,1.5,0.7c0.6-0.1,1.2-0.3,2.5-0.2c1.2,0.4,0.5,0.4-0.3,0.3
						c-0.8,0-1.7,0-0.7,0.4c0.2-0.4,3.4-0.3,5.2-0.4c-0.5-0.6-4.2-0.5-6.1-0.3c0-0.9,3.3-1.5,7.8-1.5c3.5,0.2,1.5,0.7,2.1,0.7
						c3.3,0.4,4.7,0.3,6,0.2s2.5-0.2,5.1,0.6c2.1,0.9-0.1,1.1,0.3,1.5c-2.8-0.3-4.3-1.1-6.2-1.3l2.3,0.6c-0.9,0.1-2.8-0.1-3.8-0.4
						c0.4,0.2,1.3,0.4,2.5,0.6s2.7,0.4,4.2,0.7c3.1,0.5,6.6,1.3,9.1,2.1c0.9,0,2.5,0.2,1.8-0.1l-1.6-0.3c-1.3-0.8,3.1,0.1,1.1-0.5
						c1.1,0.1,2.3,0.2,3.5,0.4c1.3,0.2,2.6,0.5,4,1.1l0.4,0.7c0-0.2-1.8-0.9-2.7-0.9c0.6,0,1.7,0.6,2.8,1s2.2,0.9,3,0.8L164.3,9
						c2.2,0.4,5,0.6,7.5,1.7c-1-1-0.6-0.1-2.2-1.5c1.3,1.3-6.6-2.2-4.4-0.5c-1.6-1.4-3.2-1.3-5.5-2.7c0,0.2,0.8,0.6-1.4-0.1
						c-0.1,0-0.4,0.1-0.5,0.1s-0.1,0-0.1-0.1c0,0,0.1,0,0.1,0.1c-0.1,0-0.1,0,0,0c0.5,0.2,0.9,0.4,1.1,0.6c-1.2,0.2-4.7-0.7-6-0.7
						c-1.3-0.4,0.6-0.1-0.1-0.5h-1.9c-0.1-0.5-3.4-1.5-0.2-1.1C150,4,149,3.7,148.1,3.6c-1.6-0.5-3.9-1.1-5.4-1.1
						c-1.3-0.3-3.5,0-2.3-0.2C139,2.2,137.5,2,136,2V1.9c-2.2-0.3-4.5-0.3-6.9-0.4c-2.4-0.1-4.8-0.2-7.3-0.8c-1.5,0-3.1,0.2-5.6,0
						l-0.5-0.4c-1.9,0.1-5.8-0.3-6.6,0.1c-1.1-0.5-3.4-0.4-5.9-0.3c-2.5,0.2-5.2,0.6-6.8,0.7l-0.1,0.5C94,1.5,91.8,1.8,89,2.4
						l0.2,0.4C86.8,3.5,82.8,3.5,79,4.3c0.2-0.2,1.2-0.4,1.9-0.4C76,3.9,71.3,6.7,67,7.2c-1,0.4-1.7,0.6-2.5,0.7
						c0.1,0,0.2-0.1,0.3-0.1c-0.1,0-0.3,0.1-0.4,0.1c-0.5,0.1-1,0.1-1.5,0.2c0.5,0,0.9-0.1,1.3-0.1c-0.8,0.3-1.9,0.7-3.1,1.2
						l-0.7-0.3C60.4,9,60.3,9,60.2,9C59,9.2,59.3,9.6,60,9.7c-0.5,0.3-1,0.6-1.4,0.8c-1.2-0.4-2.9,1.3-4.5,1c-0.3,0.3-1.7,1-3.1,1.7
						c-1.3,0.7-2.6,1.5-2.8,2c-0.1-0.1-0.4,0,0.2-0.3c-1.3,0.5-2.6,0.9-3.5,1.7l-0.8-0.3l-2.3,2c-1.8,0.5-2.5,0.7-1.2-0.6
						c-1.7,1.4-2.5,1.8-3.1,2.3c-0.5,0.6-1.1,1-2.5,2.2v-0.4c-1.1,0.7-2.6,2.3-3.4,2.4c-0.7,0.2-1.8,0.9-3.2,1.8
						c-0.7,0.5-1.4,1-2.2,1.5c-0.8,0.6-1.6,1.2-2.4,1.9c-3.3,2.7-6.9,5.9-9.6,8.6c0.9-0.2,0.2,0.4-0.6,1.1c-0.8,0.8-1.8,1.7-1.6,2.1
						c-0.5,0.2-1.3,0.9-0.7-0.2c-1.1,1.6-2,2.8-2.9,3.8c-0.8,1.1-1.4,2.1-1.8,3.5c-0.5,0.2,0.1-0.9-0.3-0.7
						c-0.1,0.3-0.4,1.2-0.8,1.5c-0.3,0.3,0.1-0.6,0.3-1.2c-1.9,3.6-1.3,4.4-0.7,5C4,54.5,3.5,55.5,3.6,57c-0.5,0.6-1.2,1.6-0.4-0.8
						C3,56.9,2,58.8,1.5,60.8c-0.6,1.9-0.8,3.7-0.6,3.9c-0.2,0.4-0.5,1.9-0.4,2.3c-0.2,1.6-0.3,2.4-0.4,3.2C0.1,71,0,71.8,0,73.4
						l0.1-0.8c0.7,1.2,0.2,2.5,0.4,5l-0.1-0.1c0.1,5.7,0.4,2.4,0.9,8L1.8,85c0.6,0.1,0.8,1.3,1,2.9c0.1,0.8,0.3,1.6,0.5,2.5
						c0.2,0.8,0.5,1.7,0.9,2.4C4.1,92.5,4,92.1,4,91.7c0.5,0.8,0.7,2,0.8,3.3c0.1,1.3,0.4,2.6,0.7,3.4c0.1,0.4-0.4-0.5-0.8-0.9
						c0.9,2.2,1.1,2.3,1.3,2.2c0.2-0.1,0.4-0.4,1.4,1c0.1,0.7-1.2-0.3,0,1.8c0.2,0.6,1.4,1.8,2.8,3.3c0.7,0.7,1.4,1.4,2.1,2.2
						c0.3,0.4,0.6,0.8,0.9,1.1c0.3,0.4,0.5,0.7,0.8,1.1c-0.3-0.7-0.6-1.4,0.7-0.3c0.9,0.9,1.8,2.3,2.9,3.5c0.5,0.6,1.1,1.2,1.6,1.8
						c0.6,0.5,1.1,0.9,1.7,1.1c0.2,0.3,0.2,0.4,0.2,0.4c0.4,0.3,0.9,0.6,1.4,1.1c0.6,0.4,1.2,0.8,1.8,1.2c1.2,0.8,2.3,1.5,2.9,1.7
						c0.2,1.2,2.7,2.8,5.1,4c1.2,0.7,2.3,1.2,3.2,1.7s1.3,0.9,1.1,1.3c1.7,1,3.4,1.8,5.1,2.7l-0.2,0.1c3.3,1.7,4.6,2,5.9,2.2
						c0.7,0.4,0.1,0.3,0,0.4c1.2,0.6,2.1,1.1,2.9,1.5c0.8,0.4,1.5,0.6,2.1,0.8c1.3,0.4,2.5,0.8,4.8,1.1l0.3,0.6
						c1.2,0.2,7.1,3.3,12.3,4.1c-0.1,0-0.2,0.1-0.6,0.1c2.9,0.5,6.3,1.7,9.3,2.4c1.5,0.4,2.9,0.7,4,0.9c1.2,0.1,2.1,0.1,2.7-0.3
						c1.3,0.1,2.6,0.1,3.9,0.1c-4.9-0.9,0.8-0.7-1.1-1.3c1.9,0.2,5,1.3,2.6,1l-0.4-0.1c-0.5,0.4,1,0.7,2.7,0.9
						c1.6,0.2,3.4,0.4,3.3,0.7c9.8,1,19.5,1.6,28.8,1.1l-1.1-0.7c1.1-0.1,2.2-0.1,3.2-0.1c0.9,0.1,1.2,0.5-1.1,0.6
						c1.2,0.3,3.9-0.6,3.9-0.8c4.5-0.1-1.7,1-0.3,0.9l1.9-0.2l-0.4-0.1c1.5-0.4,1.6-0.8,4.4-1c1.8-0.1,0.9,0.4,1.6,0.3
						c0,0.1,0.2,0.1,1.1-0.1l4.1-0.5l-1.7-0.3c1.8-0.5,3.8-0.5,1.8-0.9c0.7,0.2,2,0.1,3.6-0.1c0.8-0.1,1.6-0.2,2.5-0.4
						s1.8-0.4,2.7-0.5c0.9-0.2,1.8-0.4,2.6-0.6c0.8-0.2,1.6-0.4,2.3-0.6c1.4-0.4,2.5-0.6,2.9-0.6c2.3-1.1,4.8-1.7,7.7-2.6
						c-0.8,0.1-1.4-0.4,1.1-1.1c-0.5,1.6,4.8-1,7.2-0.9c-1,0.1,0.7-0.7,2.4-1.4c1.6-0.7,3-1.5,1.5-1.3c2.1-0.8,0.3,0.4,2,0
						c4.6-2.6,10.8-4.8,16.3-8.6c0-0.2-1.1,0.2,0-0.8c1.1-0.4,2.3-0.8,3.4-1.2c1-0.8,0.4-1.5,2.7-2.4c-0.4,0.1-0.9,0.2-0.2-0.4
						c5.4-3.6,10.2-8.3,14.3-13.6c4.2-5.3,7.5-11.1,10.4-17.2c-1,1.6-0.5,0.4-0.1-0.9c-0.3,0.8-0.4-0.2-0.7-0.1
						c0.7-1.7,1.5-3.4,2-5.3c-0.2-0.6,0.1-2,0.2-3.5c0.1-0.7,0.2-1.4,0.2-2s-0.1-1-0.2-1.2c0,0.6,0,1.2,0,1.8
						c-0.2-1.2-0.7-0.4-1.3,0.6s-1.2,2.2-1.6,1.9c0.1,0.6,0,1.4-0.2,2.1s-0.5,1.6-0.9,2.4s-0.7,1.7-1.1,2.7c-0.4,0.9-0.6,1.9-0.7,3
						c-0.5,0.8,0-0.8-0.4-0.5c0,0.6-0.1,1.1-0.4,1.8c-0.3,0.7-0.6,1.5-1.2,2.5v-0.3c-1.5,2.9-2.8,4.8-4.2,6.7
						c-1.5,1.9-3.1,3.8-5.7,6.4l0.7-0.1c-1.1,1.1-1.4,1.3-2,1.7c-0.7,1.8,3-3.2,2.5-1.5c-0.5,0.2-1.3,0.8-2.1,1.7
						c-0.9,0.8-1.9,1.7-2.8,2.7c-1,0.9-2,1.8-2.9,2.4c-0.9,0.7-1.6,1-2.1,1c-1.9,1.5,0.9,0-1,1.5l-0.7,0.2c-0.1,0.2-0.2,0.4-0.3,0.7
						c-1.3,0.9-2.2,1.1-2.4,0.9c0.3-0.2,0.8-0.7,1.2-1c-0.9,0.4-2.1,1.4-3.1,2.1c-1,0.8-1.9,1.4-2.2,1.6l2-1.1
						c-5.3,3.9-12.7,7.4-18.4,10.4h0.5c-2.2,1.2-3.1,1.4-4.1,1.8c-1,0.3-2.1,0.6-4.6,1.6l0.2-0.1c-0.9,0.6-2.3,1.2-3.7,1.6
						c1.2-0.7-2.6,0.3-1-0.5c-2.5,1.1-3.1,1.3-3.5,1.5c-0.4,0.3-0.5,0.5-2.1,1.4l-0.9-0.1c-1.1,0.6-1.1,0.8-3.8,1.6
						c2.1-0.8-1.8-0.1,0.5-1.1c-5.7,0.5-8.1,2.6-10.9,1.9c-2.4,1.5,4.9-0.3,3.5,0.2c1.3,0.1-2,1.1-3.8,1.4c-0.9,0.2-1.7,0-2.9-0.2
						s-2.6-0.2-4.9,0c0.4-0.1,0.5-0.1,0.9-0.2c-1.7-0.1-3.3,0.7-5.4,0.5c-1.1,0.7-2.7,0.2-3,1c1.4-0.2,2.8-0.3,4.2-0.6
						c-1.2,0.3-2.3,0.6-3.6,0.9c-1.3,0.3-2.9,0.6-4.8,0.4c0.3-0.2,1.4-0.4,2.2-0.6c-1.2-0.1-2.2,0.3-3.4,0.1c0.2-0.4,1.4-0.5,3-0.6
						c1.5-0.1,3.4-0.3,4.6-0.7c-1.3-0.2-4.8,0.9-3.5,0c-0.9,0.6-2,0.7-3.3,0.6c-1.3,0-2.7,0-4.3,0.4l0.2-0.5
						c-0.5,0.1-1.5,0.3-2.4,0.3l1.6-0.6c-2.5,0.6-4.8-0.4-7.2-0.1c5,0.1,1.1,0.6,3.2,0.9c-3.1,0.3-4,0-5-0.4s-2-0.8-5.5-0.9
						c0.9,0,3.5,0.4,2,0.6c-1.3-0.2-3-0.4-3.8-0.7c-4.6-0.3,0.7,0.5-1.3,0.7c-1.5-0.7-2.3,0.1-4.3,0.1v-0.5
						c-5.2-0.9-1.5,0.9-6.1-0.1c0.7-0.1,1.4-0.3,2.1-0.4c-0.8,0-1.6-0.1-2.5-0.1l0.6-0.5c-2.7,0-3.5-0.2-6.1-0.8
						c0.5,0.4-0.5,0.8-2.8,0.4c-1.5-0.6,0.9-0.3-2.3-0.8c0.8-0.1,1.7-0.4,3,0.3c0.2-0.1,0.8-0.2,0.9-0.3c-0.8-0.3-1.8-0.5-2.8-0.7
						s-1.9-0.3-2.5-0.4c0.4,0.1,1,0.3,1.2,0.4c-1.6-0.1-3.2-0.2-4.8-0.4c-0.7-0.4-0.1-0.4,0.5-0.4c-0.9-0.2-1.6-0.1-3-0.4
						c0.4-0.3,0.5-0.7,2.4-0.4l-4.5-0.7c-0.3-0.3-2.1-1.1-1.5-1.1c-2.3-0.9-6.1-1-9.1-2.4c-0.2,0-0.5,0-1.2-0.2
						c-0.7-0.3-1.4-0.6-2.1-0.9c-0.7-0.3-1.4-0.6-2.1-1c-1.4-0.6-2.9-1.2-4.7-1.7l-1.6-1.5c-2.7-1.1,2.2,2-2.3,0.2
						c-3.2-1.3-0.9-1.1-1.9-1.8c-0.8-0.2-2-0.5-3.2-1c-0.6-0.3-1.3-0.5-1.9-0.9c-0.6-0.4-1.3-0.8-1.9-1.4
						C38.4,123.4,39.1,124,39.9,124.4z M13.1,101.8c0.5,0.5,1.5,1.4,1.6,1.9C13.8,103.5,13.7,102.8,13.1,101.8z M8.2,51.6
						c-0.1,0.5-0.6,1.2-1.1,1.9C7.3,52.9,7.7,52.3,8.2,51.6z M145.9,3.4C145.9,3.4,145.8,3.4,145.9,3.4
						C144.3,2.9,144.8,3.1,145.9,3.4z M149.1,4.2c0.3,0,0.3-0.1,0.2-0.2c-0.3,0.1-1-0.1-1.8-0.2C147.7,4,148.1,4.1,149.1,4.2z
						 M137.4,145.3l-0.6-0.1C138.1,145,137.8,145.2,137.4,145.3z"/>
					<path class="st0" d="M6.2,57.4c-0.1,0.2-0.2,0.2-0.3,0.2C5.9,57.9,6,57.9,6.2,57.4z"/>
					<path class="st0" d="M60.2,133.2L60.2,133.2c0.2,0,0.2,0,0.2,0H60.2z"/>
					<path class="st0" d="M98.6,5.7c-0.7,0-1.1-0.1-1.3-0.1C97.3,5.7,97.6,5.7,98.6,5.7z"/>
					<path class="st0" d="M166.3,7.7c-0.7-0.2-1.4-0.4-2.1-0.5c1,0.3,1.3,0.5,1.8,0.7C166,7.8,165.7,7.5,166.3,7.7z"/>
					<path class="st0" d="M182.3,17.1c0.3,0.1,0.6,0.3,0.9,0.4v-0.2C182,16.6,181.1,16.5,182.3,17.1z"/>
					<path class="st0" d="M167.7,9.9c0,0.4,1.3,0.7,2.7,1.1c-0.1,0-0.2-0.1-0.3-0.1C170.8,10.5,169.2,10.1,167.7,9.9z"/>
					<path class="st0" d="M170.7,11.1c0.4,0.1,0.9,0.3,1.3,0.4C172.3,11.4,171.5,11.3,170.7,11.1z"/>
					<path class="st0" d="M153.2,4.8c0.7,0.3,0.6-0.4,0.9-0.2C155,4.3,149.4,4.3,153.2,4.8z"/>
					<polygon class="st0" points="168.4,11.5 168,10.8 167.1,11 					"/>
					<path class="st0" d="M157.4,7.9c0.8,0.2,1.5,0.5,2.2,0.7c0-0.1,0.3-0.1,0.6,0C158.9,8.2,157.4,7.7,157.4,7.9z"/>
					<path class="st0" d="M160.3,8.6c0.7,0.2,1.4,0.4,1.8,0.4C161.7,8.9,160.9,8.7,160.3,8.6z"/>
					<path class="st0" d="M165.3,10.7l-0.6-0.3c-0.5-0.2-1-0.4-1.6-0.5C163.8,10.1,164.6,10.4,165.3,10.7z"/>
					<path class="st0" d="M132.6,3.4c-0.9-0.1-1.7-0.1-2.6-0.1c-0.3,0.2,0.4,0.3,1.4,0.3C132.1,3.6,133,3.6,132.6,3.4z"/>
					<path class="st0" d="M140.1,5.7c-0.7-0.2-0.7-0.3-1.1-0.5l-0.2,0.6L140.1,5.7z"/>
					<path class="st0" d="M132.7,5c-0.3,0.1-3.7,0.1-0.5,0.4C132.5,5.2,135,5.4,132.7,5z"/>
					<polygon class="st0" points="94.5,4.4 95.2,4.3 95,3.3 					"/>
					<path class="st0" d="M62.3,13.9c2.9-0.7,0.5-0.8,3.1-1.3c0.6-0.4-2.2,0.4-1.5,0C62.2,13.3,61.3,13.5,62.3,13.9z"/>
					<path class="st0" d="M63.9,12.5c0.3-0.1,0.5-0.3,0.8-0.4C64.2,12.3,64,12.4,63.9,12.5z"/>
					<path class="st0" d="M230,79.5c0.1-0.7,0.3-1.3,0.4-2c-0.1,0.4-0.3,0.9-0.5,1.3L230,79.5z"/>
					<path class="st0" d="M229.5,75.6l0.7-0.5l-0.5-1.2C229.7,74.4,229.7,75.3,229.5,75.6z"/>
					<path class="st0" d="M11.4,96.8h-0.2c0,0.3,0.2,0.7,0.7,1.4L11.4,96.8z"/>
					<polygon class="st0" points="27.8,115.7 27.5,115.4 27.8,116.4 					"/>
					<path class="st0" d="M46.4,126.3c-0.8-0.4-1.8-0.7-2.5-1.2C45.6,125.9,46.3,127.1,46.4,126.3z"/>
				</g>
			</g>
		</g>
	</g>
</g>
</svg>
