<?xml version="1.0" encoding="utf-8"?>
<!-- Generator: Adobe Illustrator 23.1.0, SVG Export Plug-In . SVG Version: 6.00 Build 0)  -->
<svg version="1.1" id="图层_1" xmlns="http://www.w3.org/2000/svg" xmlns:xlink="http://www.w3.org/1999/xlink" x="0px" y="0px"
	 viewBox="0 0 225.4 317.3" style="enable-background:new 0 0 225.4 317.3;" xml:space="preserve">
<style type="text/css">
	.st0{display:none;}
	.st1{display:inline;}
	.st2{fill:url(#SVGID_1_);}
	.st3{display:none;fill:url(#SVGID_2_);}
	.st4{display:none;fill:url(#SVGID_3_);}
	.st5{display:none;fill:url(#SVGID_4_);}
	.st6{display:none;fill:url(#SVGID_5_);}
	.st7{fill:#FFFFFF;}
	.st8{fill:#75AFDE;}
</style>
<g class="st0">
	<g class="st1">
		
			<linearGradient id="SVGID_1_" gradientUnits="userSpaceOnUse" x1="129.8" y1="721.0587" x2="129.8" y2="587.2587" gradientTransform="matrix(1 0 0 1 0 -525.2587)">
			<stop  offset="0.7117" style="stop-color:#FFFFFF"/>
			<stop  offset="1" style="stop-color:#DBDCDC"/>
		</linearGradient>
		<path class="st2" d="M196.7,128.9c0,36.9-30,66.9-66.9,66.9c-37,0-66.9-30-66.9-66.9S92.9,62,129.8,62
			C166.8,62,196.7,92,196.7,128.9z"/>
	</g>
</g>
<linearGradient id="SVGID_2_" gradientUnits="userSpaceOnUse" x1="129.8" y1="713.9587" x2="129.8" y2="594.3587" gradientTransform="matrix(1 0 0 1 0 -525.2587)">
	<stop  offset="0.5276" style="stop-color:#CD91BE"/>
	<stop  offset="1" style="stop-color:#A54A96"/>
</linearGradient>
<circle class="st3" cx="129.8" cy="128.9" r="59.8"/>
<linearGradient id="SVGID_3_" gradientUnits="userSpaceOnUse" x1="129.8" y1="704.1587" x2="129.8" y2="604.1587" gradientTransform="matrix(1 0 0 1 0 -525.2587)">
	<stop  offset="0.5276" style="stop-color:#CD91BE"/>
	<stop  offset="1" style="stop-color:#A54A96"/>
</linearGradient>
<path class="st4" d="M179.8,128.9c0,27.6-22.4,50-50,50s-50-22.4-50-50s22.4-50,50-50C157.4,78.9,179.8,101.3,179.8,128.9z"/>
<linearGradient id="SVGID_4_" gradientUnits="userSpaceOnUse" x1="129.8" y1="688.1587" x2="129.8" y2="620.1587" gradientTransform="matrix(1 0 0 1 0 -525.2587)">
	<stop  offset="0.5276" style="stop-color:#CD91BE"/>
	<stop  offset="1" style="stop-color:#A54A96"/>
</linearGradient>
<path class="st5" d="M163.8,128.9c0,18.8-15.2,34-34,34s-34-15.2-34-34s15.2-34,34-34S163.8,110.1,163.8,128.9z"/>
<linearGradient id="SVGID_5_" gradientUnits="userSpaceOnUse" x1="129.8" y1="667.0893" x2="129.8" y2="641.2293" gradientTransform="matrix(1 0 0 1 0 -525.2587)">
	<stop  offset="0.5276" style="stop-color:#CD91BE"/>
	<stop  offset="1" style="stop-color:#A54A96"/>
</linearGradient>
<path class="st6" d="M142.7,128.9c0,7.1-5.8,12.9-12.9,12.9c-7.1,0-12.9-5.8-12.9-12.9c0-7.1,5.8-12.9,12.9-12.9
	C137,116,142.7,121.8,142.7,128.9z"/>
<g class="st0">
	<g class="st1">
		<g>
			<g>
				<path class="st7" d="M112.9,116.4c0,0.9-0.2,1.8-0.7,2.5c-0.5,0.8-1.2,1.3-2.1,1.8c-0.9,0.4-2,0.6-3.3,0.6
					c-1.5,0-2.8-0.3-3.8-0.9c-0.7-0.4-1.3-1-1.7-1.7c-0.4-0.7-0.7-1.4-0.7-2c0-0.4,0.1-0.7,0.4-1s0.6-0.4,1-0.4
					c0.3,0,0.6,0.1,0.8,0.3c0.2,0.2,0.4,0.5,0.6,0.9c0.2,0.5,0.4,0.9,0.6,1.2c0.2,0.3,0.6,0.6,1,0.8s1,0.3,1.6,0.3
					c0.9,0,1.7-0.2,2.3-0.7c0.6-0.4,0.9-1,0.9-1.6c0-0.5-0.2-0.9-0.5-1.3s-0.7-0.6-1.2-0.7c-0.5-0.2-1.2-0.3-2-0.5
					c-1.1-0.3-2.1-0.6-2.8-0.9s-1.3-0.8-1.8-1.4c-0.4-0.6-0.7-1.3-0.7-2.3c0-0.8,0.2-1.6,0.7-2.3c0.5-0.7,1.1-1.2,2-1.5
					s1.9-0.5,3.1-0.5c0.9,0,1.8,0.1,2.5,0.3c0.7,0.2,1.3,0.6,1.7,0.9c0.5,0.4,0.8,0.8,1,1.2s0.3,0.8,0.3,1.3c0,0.4-0.1,0.7-0.4,1
					s-0.6,0.4-1,0.4s-0.6-0.1-0.8-0.3s-0.4-0.5-0.6-0.9c-0.3-0.6-0.6-1-1-1.4c-0.4-0.3-1-0.5-1.9-0.5c-0.8,0-1.5,0.2-2,0.5
					c-0.5,0.4-0.8,0.8-0.8,1.3c0,0.3,0.1,0.6,0.3,0.8c0.2,0.2,0.4,0.4,0.7,0.6c0.3,0.2,0.6,0.3,0.9,0.4s0.8,0.2,1.5,0.4
					c0.9,0.2,1.7,0.4,2.4,0.7s1.3,0.6,1.8,0.9s0.9,0.8,1.2,1.3C112.7,115,112.9,115.7,112.9,116.4z"/>
				<path class="st7" d="M122.4,105.3c1.6,0,3,0.3,4.1,1c1.2,0.7,2,1.6,2.6,2.8s0.9,2.6,0.9,4.2c0,1.2-0.2,2.3-0.5,3.3
					s-0.8,1.8-1.5,2.6c-0.7,0.7-1.5,1.3-2.4,1.7c-0.9,0.4-2,0.6-3.3,0.6c-1.2,0-2.3-0.2-3.3-0.6s-1.8-0.9-2.4-1.7
					c-0.6-0.7-1.1-1.6-1.5-2.6s-0.5-2.1-0.5-3.3c0-1.2,0.2-2.3,0.5-3.3s0.8-1.8,1.5-2.5s1.4-1.2,2.4-1.6
					C120.1,105.5,121.2,105.3,122.4,105.3z M126.8,113.3c0-1.1-0.2-2.1-0.6-2.9s-0.9-1.5-1.6-1.9s-1.5-0.6-2.4-0.6
					c-0.6,0-1.2,0.1-1.7,0.3c-0.5,0.2-1,0.6-1.4,1s-0.7,1-0.9,1.7c-0.2,0.7-0.3,1.5-0.3,2.4s0.1,1.7,0.3,2.4s0.5,1.3,0.9,1.8
					s0.9,0.8,1.4,1.1s1.1,0.3,1.7,0.3c0.8,0,1.5-0.2,2.2-0.6s1.2-1,1.6-1.9C126.6,115.6,126.8,114.5,126.8,113.3z"/>
				<path class="st7" d="M135.8,107.2v11.3h6.4c0.5,0,0.9,0.1,1.2,0.4s0.4,0.6,0.4,0.9c0,0.4-0.1,0.7-0.4,0.9
					c-0.3,0.2-0.7,0.3-1.2,0.3h-7.6c-0.7,0-1.2-0.2-1.5-0.5s-0.4-0.8-0.4-1.5v-11.9c0-0.6,0.1-1.1,0.4-1.4s0.7-0.5,1.1-0.5
					s0.9,0.2,1.1,0.5C135.6,106.1,135.8,106.6,135.8,107.2z"/>
				<path class="st7" d="M147.7,105.6h4.1c1.1,0,2,0.1,2.7,0.3c0.8,0.2,1.4,0.6,2.1,1.1c1.6,1.4,2.4,3.5,2.4,6.3
					c0,0.9-0.1,1.8-0.2,2.6c-0.2,0.8-0.4,1.5-0.8,2.1s-0.8,1.2-1.3,1.7c-0.4,0.4-0.9,0.7-1.4,0.9c-0.5,0.2-1,0.4-1.6,0.5
					s-1.2,0.1-1.9,0.1h-4.1c-0.6,0-1-0.1-1.3-0.3c-0.3-0.2-0.5-0.4-0.6-0.7c-0.1-0.3-0.1-0.7-0.1-1.2v-11.4c0-0.7,0.1-1.2,0.5-1.5
					C146.6,105.7,147.1,105.6,147.7,105.6z M149,108.1v10.5h2.4c0.5,0,0.9,0,1.2,0s0.6-0.1,0.9-0.2c0.3-0.1,0.6-0.3,0.8-0.5
					c1.1-0.9,1.6-2.4,1.6-4.6c0-1.5-0.2-2.7-0.7-3.4c-0.5-0.8-1-1.3-1.7-1.4c-0.7-0.2-1.5-0.3-2.4-0.3L149,108.1L149,108.1z"/>
			</g>
			<g>
				<path class="st7" d="M104,125.7c2.7,0,5,0.6,6.9,1.6c1.9,1.1,3.4,2.6,4.4,4.6s1.5,4.4,1.5,7.1c0,2-0.3,3.8-0.8,5.4
					c-0.5,1.6-1.3,3.1-2.4,4.3s-2.4,2.1-4,2.8c-1.6,0.6-3.4,0.9-5.4,0.9s-3.8-0.3-5.4-1c-1.6-0.6-2.9-1.6-4-2.8s-1.9-2.6-2.4-4.3
					c-0.6-1.7-0.8-3.5-0.8-5.4c0-2,0.3-3.8,0.8-5.5s1.4-3.1,2.5-4.2c1.1-1.2,2.4-2.1,3.9-2.7C100.3,126,102,125.7,104,125.7z
					 M111.5,139c0-1.9-0.3-3.5-0.9-4.9s-1.5-2.4-2.6-3.1c-1.1-0.7-2.4-1.1-3.9-1.1c-1.1,0-2,0.2-2.9,0.6s-1.7,1-2.3,1.7
					s-1.2,1.7-1.5,2.9c-0.4,1.2-0.6,2.5-0.6,3.9c0,1.5,0.2,2.8,0.6,4s0.9,2.2,1.6,3s1.4,1.4,2.3,1.8c0.9,0.4,1.8,0.6,2.9,0.6
					c1.3,0,2.6-0.3,3.7-1s2-1.7,2.7-3.1C111.1,142.8,111.5,141.1,111.5,139z"/>
				<path class="st7" d="M121.3,141.4V129c0-1.1,0.2-1.8,0.7-2.4s1.1-0.8,1.9-0.8s1.5,0.3,1.9,0.8c0.5,0.5,0.7,1.3,0.7,2.4v12.7
					c0,1.4,0.2,2.7,0.5,3.6s0.9,1.7,1.7,2.3c0.8,0.5,2,0.8,3.5,0.8c2,0,3.5-0.5,4.3-1.6c0.9-1.1,1.3-2.7,1.3-4.9v-12.8
					c0-1.1,0.2-1.9,0.7-2.4s1.1-0.8,1.9-0.8s1.4,0.3,1.9,0.8s0.7,1.3,0.7,2.4v12.4c0,2-0.2,3.7-0.6,5.1c-0.4,1.4-1.1,2.5-2.2,3.6
					c-0.9,0.9-2,1.5-3.3,1.9s-2.7,0.6-4.4,0.6c-2,0-3.7-0.2-5.1-0.6c-1.4-0.4-2.6-1.1-3.5-2s-1.6-2.1-2-3.5
					C121.5,145,121.3,143.3,121.3,141.4z"/>
				<path class="st7" d="M165.5,130.5h-5.7v18.8c0,1.1-0.2,1.9-0.7,2.4s-1.1,0.8-1.9,0.8c-0.8,0-1.4-0.3-1.9-0.8s-0.7-1.3-0.7-2.4
					v-18.8h-5.7c-0.9,0-1.6-0.2-2-0.6c-0.4-0.4-0.6-0.9-0.6-1.6c0-0.7,0.2-1.2,0.7-1.6s1.1-0.6,2-0.6h16.7c0.9,0,1.6,0.2,2,0.6
					s0.7,0.9,0.7,1.6c0,0.6-0.2,1.2-0.7,1.6C167.1,130.3,166.4,130.5,165.5,130.5z"/>
			</g>
		</g>
	</g>
</g>
<g>
	<path class="st8" d="M50.9,3.9c15.8,7.9,21.2,117.3,21.5,124.6c-7.4,3.5-15,8-22.5,13.7c-4.8,3.6-9.6,8.4-14.2,13.9l-0.1-0.1
		c0,0-34.8-110.1-31.8-127.5C6.9,11,34.5-4.3,50.9,3.9z"/>
	<path class="st8" d="M225.4,29.1c1.9,16.8-35.7,115.4-39.3,124.6c-8.5-10.6-18.1-19.3-28.1-24.9c-2.3-1.3-4.8-2.5-7.4-3.6l0.1-0.2
		c0,0,12.3-116.2,29.1-123.4C196.7-5.5,223.3,11.5,225.4,29.1z"/>
	<path class="st8" d="M186.1,153.8c21.2,26.4,35.8,64.4,34.4,95.5c-2.3,49.1-41.5,68.1-104,68.1S9.6,303.2,1.4,263.2
		c-6.8-33.1,11.7-80,34.3-107.1c4.6-5.6,9.4-10.3,14.2-13.9c7.5-5.7,15.1-10.2,22.5-13.7c30-14.2,58.3-11.6,78.2-3.2
		c2.6,1.1,5.1,2.3,7.4,3.6C168,134.5,177.6,143.2,186.1,153.8z"/>
	<path class="st8" d="M87.6,237.1c-0.3,0-0.3,0.4,0,0.4S87.9,237.1,87.6,237.1z"/>
</g>
</svg>
