<?xml version="1.0" encoding="utf-8"?>
<!-- Generator: Adobe Illustrator 23.1.0, SVG Export Plug-In . SVG Version: 6.00 Build 0)  -->
<svg version="1.1" id="图层_1" xmlns="http://www.w3.org/2000/svg" xmlns:xlink="http://www.w3.org/1999/xlink" x="0px" y="0px"
	 viewBox="0 0 148.5 265.9" style="enable-background:new 0 0 148.5 265.9;" xml:space="preserve">
<style type="text/css">
	.st0{fill:#75AFDE;}
	.st1{fill-rule:evenodd;clip-rule:evenodd;fill:#75AFDE;}
</style>
<g id="XMLID_1_">
	<path class="st0" d="M74.8,255.9L74.8,255.9c-33.7,0-61.2-27.6-61.2-61.2V71.8c0-33.7,27.5-61.2,61.2-61.2l0,0
		c33.7,0,61.2,27.5,61.2,61.2v122.8C136.1,228.3,108.5,255.9,74.8,255.9z"/>
	<g>
		<g>
			<path class="st1" d="M106.6,28.9c-0.2,0.3-0.7-0.2-0.8,0.3l-0.6-0.4c0.1-0.3,1,0.2,0.5-0.3C105.9,28.3,106.3,28.7,106.6,28.9z
				 M109.9,30c-0.2,0.1-0.4-0.2-0.6-0.1c-0.5-0.2-0.1-0.5-0.2-0.6c-0.2-0.4-1.3-0.7-0.8-1.1C109.2,28.9,109.6,29.4,109.9,30z
				 M106.4,29.2c0.3,0.2,0.6,0.5,0.9,0.8C107,30.3,105.8,29.6,106.4,29.2z M118.1,37.1c-0.6-0.3-0.6-0.2-0.9-0.9
				c-0.3-0.3-0.6,0.3-0.9,0c-0.5-0.6-1.1-1.3-1.7-1.9c-0.4-0.7,0.5,0.2,0.7,0.4c0.3-0.3-0.3-0.9,0.1-1.1c-0.3-0.3-0.6,0.3-0.9,0.1
				c-1.1-1-0.7-1.6-0.8-2.4c-0.7-0.4-1.3-1-1.4-1.6c1.1,0.5,1.9,2.3,2.6,3.3c0-0.2-0.3-0.5,0-0.7c0.6,0.7,1.4,1.5,0.9,2
				c0.6,1.4,2,1.4,2.7,2.4c0,0-0.3,0.5,0,0.6c0.4-0.3-0.3-0.9,0.5-1c0.2,0.9,0.8,0.8,1.3,1.3c0.3,0.4,0.2,0.9,0.8,1.4
				c-0.2,0.1-0.3-0.2-0.4-0.3c-0.9-0.5-1.7,0.4-2.6-0.6c0.6,0.4,1.1-0.2,1.6,0.1c0.1-0.2-0.2-0.5-0.3-0.7c-0.4,0.1-0.6,0.1-1.3,0.3
				C117.6,37.5,117.9,37.3,118.1,37.1z M110.2,32.2c-0.3,0.5-1.1-0.1-1.2-0.5C109.4,31.4,109.8,31.7,110.2,32.2z M114,36l-0.3-0.4
				c-0.6-0.5-0.3-0.7-0.6-1.1c-1.4-1.7,0.3,0.2,0.8,0.3C113.8,35.2,114.4,35.7,114,36z M111.2,33.6c-0.4-0.3-0.4-0.5-0.6-0.8
				c0.4,0,1,0.8,1.3,0.1C112.3,33.3,111.4,33.6,111.2,33.6z M110.2,30.3c-0.5-0.5,0.4-0.4,0.6,0.1c0.1-0.5-1.3-1.1-1.3-1.6
				c0.7,0.1,0.6,0.6,1.5,1c-0.2,0.4,0.4,0.8,0,1.2C110.5,30.8,110.7,30,110.2,30.3z M105.9,27.3c0.2-0.8,2.1,0.6,1.4,1
				C106.9,27.8,106.6,27.6,105.9,27.3z M15.5,115.9c-0.6-0.3-0.3,0.9-0.4,1.4c-0.3-0.2-0.5-1.3,0-1.4c0-0.5-0.6-0.2-0.7-0.6
				c0.3-0.7,0-1.6,0.2-2.2c0-0.1,0.5,0.1,0.5,0c0.1-0.2-0.1-2,0.4-1.1c0.2,1.1-0.3,1.2-0.5,1.7c0,0.7,0.1,1.3,0.3,1.7
				c0.7-0.3,0-0.9,0-1.7c0.9-0.9,0.1-5.1,0.6-7c0.2,4.1,0,9.3-0.1,13.2C15.3,119.1,16,116.6,15.5,115.9z M17.7,124.9
				c0.8,0.4,0.2,1.5,0.5,2.3c0.2,0.4,0.1,0.3,0,1.1C16.9,128.8,17.7,125.2,17.7,124.9z M18.3,122.4c-0.1-0.2-0.5-0.4-0.5,0
				c-0.1,0.6,0.3,0.7,0.4,0.3c0.5,0.5-0.2,1.3,0,2.2h-0.4c-0.1-2.1-0.7-4.2-0.6-5.9c0-0.9,0.5-1.1,0.2-2.2c0.2-0.3,0.3-0.1,0.5,0
				c0.5-0.3,0.4-1.4,0.5-2.2c0.7-0.3-0.2,2.3,0.3,1.7c0.5,0.6-0.5,0.8-0.7,1.1c0.3,0.7-0.3,0.7-0.4,0.8c-0.1,0.3,0.1,0.9,0,1.1
				c0,0.1-0.5,0-0.4,0.6c0,0.3,0.2,0.1,0.4,0c0.4-0.4,0-0.6,0.4-1.4c0-0.1,0.3,0.4,0.4,0.3c0.2-0.5-0.3-1.6,0.4-1.4
				C18.6,119.6,18.4,120.8,18.3,122.4z M17.7,121.8c0.1-0.5,0.5-0.5,0.4-1.4C17.6,120.1,17.3,121.6,17.7,121.8z M109.2,28.5
				c-0.8-0.6-0.3-1.2-1.5-1.8c0.9,0,1.4,0.5,1.6,1.3c0.7,0,1.8,0.5,1.9,1.4c0.2,0.7-0.4-0.6-1-0.8C109.8,28.1,109.5,28.5,109.2,28.5
				z M18.7,130.6c0.1,1.1-0.8,2.5-0.9,0.8C18.4,132.4,18.1,130.4,18.7,130.6z M17.5,128.3v1.4C16.9,130.1,17,127.8,17.5,128.3z
				 M104.7,27.7l0.6,0.4l-0.4,0.6l-0.6-0.4C104.8,28.2,104.4,28.1,104.7,27.7z M18.9,113.7c0.5,0.2,0.4,1.3,0.9,1.4
				c-0.1,1.9,0.1,4.4-0.2,5.9c-0.4-1.7,0.1-3.7-0.1-5.3C19.3,114.8,18.9,114.6,18.9,113.7z M38.7,35.3c0,0.6-0.2,1.1-0.6,1.5
				s-1,0.9-1.6,1.6c-0.3-0.5,0.7-1,1.2-1.5C38.1,36.3,38.2,35.7,38.7,35.3z M119.1,39.9c-0.6-0.9-0.4,0.8-1-0.2
				c-0.1,0.2,0.2,0.6-0.2,0.7c-0.4-0.3-0.4-0.7-0.6-1.1c-0.2-0.4-1.1-1-0.5-1.2c0.4,0.4,0.6,0.8,0.6,1.1c0.3,0.4,0.5-0.3,0.4-0.3
				c0.4-0.1,0.7,0.9,1,0.2c0.3,1.2,1.1,1,1.3,1.9c-0.2,0-0.4-0.1-0.6,0.1C119.5,40.6,118.7,40,119.1,39.9z M19.6,108.4
				c0.5,0.4,0.3,1.2,0,1.7c0,0.3,0.2,0.2,0.4,0.3c-0.4,0.7,0.1,1.3,0.1,2c0,0.3,0.2,1.3-0.4,1.1c0.3-1.2-0.5-1.8-0.5-2.5
				C19.2,110,19.7,109.6,19.6,108.4z M29.2,234.5c-0.3,0.8-2.5-1.2-1.6-1.6c0.3,0.4-0.2,0.6,0.4,1.1c0.5,0.5,0.2-0.5,0-0.8
				c-0.7-1-1.2,0.1-1.9-1c0.6-0.2,1.7,0.2,2.4,1C29,233.7,28.7,233.9,29.2,234.5z M18.3,214.4c-0.3-0.6-1-1.5-0.2-1.7
				c0.1,0.5-0.3,0.6,0.1,1.4c0.6,0-0.1-1.1,0.6-1c0.1,0.7,0.2,2.7,0.7,2.1c0.6,0.2,0.5,1.4,0,1.4c-0.2-0.3-0.2-0.8-0.4-1
				c-0.1-0.1-0.4-0.1-0.4-0.1C18.5,215.2,18.5,214.7,18.3,214.4z M17.7,219.1c-0.7-0.6-1.2-2.7-1.7-3.9c0.4,0.3,0.8,0.5,1.3,0.2
				c0.5,0.8-0.4,0.6-0.6,0.8c0.1,0.8,0.5,0.2,0.7,0.4c0.2,0.1,0.4,0.6,0.2,0.5c0.3,0,0.5-0.1,0.6-0.5c0-0.2-0.3-0.3-0.3-0.2
				c0-0.3,0.3-1.3-0.1-1.7c0.5,0.2,0.9,1.2,0.6,1.6c0.5,1.4,1,1.1,1.2,2.5c-0.4,0.1-0.7-0.7-1-1.4l-0.5,0.2c0.4,1,1,0.8,1,2
				c0.2,0.3,0.4,0.1,0.6,0.1c0.4,0.6-0.1,0.6,0.1,1.2c0.3,0.7,0.8,0.3,1,1.4c-0.5,0.2-1-0.4-1.4-1.2c-0.7-0.8-1-0.5-1.6-0.6
				c-0.7-0.9,0.7-0.4,0-1.2C17.8,218.7,17.6,218.8,17.7,219.1z M28.5,230.5c0.5,0.1,0.2,0.5,0.5,1c0.3,0.4,0.7,0.5,0.8,0.7
				c0.4,0.6,0.3,1.2,0.8,1.8c-1.2,0.1-0.9-1.7-2-2.2C28.7,231.4,28.6,231,28.5,230.5z M25.8,227.7c0.2-0.3,1.2,0.7,0.9,1
				c0.6,0.4,1.1,0.5,1.7,1.4c-1-0.9-0.9,0.1-0.4,0.9c-1.5-0.4-1.1-2-2.4-3C25.9,228.1,25.9,227.9,25.8,227.7z M16.1,205.7l0.1,0.8
				c-0.4-0.1-0.9-0.1-1-0.9C15.6,205.2,15.7,205.8,16.1,205.7z M13.9,206.3c0,0.6-0.4,0.6-0.1,1.5c0.2,0.3,0.5,0.2,0.5,0.8
				c-0.3,0-0.5,0.1-0.5,0.4C13.5,208.3,13,206.5,13.9,206.3z M14.1,209.2c0.8,0.1,0.2,1.3,0.8,2.5c0.6-0.7,0.4,1.9,1.1,2.6
				c-0.6,0.4-0.9-1.3-1.2-2C14.5,211.1,13.9,209.9,14.1,209.2z M14.9,208.4c0.2,0,0.2,0.3,0.3,0.5c0.3-0.1,0.4-0.3,0.4-0.6
				c0.2-0.1,0.6,1.5,0.6,0.4c0.6,0,0.1,1,0.1,1.1c0,0.3,0.3,0.8,0.3,1.1c0,0.1-0.3,0.2-0.3,0.4c0,0.4,0.4,0.9-0.1,0.9
				c0.1,0.5,0.6,1.3,0,1.2c0-0.8-0.3-1.7-0.4-2.5c0-0.5,0.8-1.2-0.1-1.7c-0.2,0.6,0.3,1.8-0.4,1.8C14.8,209.6,15.5,209.5,14.9,208.4
				z M30.4,233.5c0-0.2,0-0.4,0.3-0.2c0.2,0.2,0.5,0.5,0.7,0.8c0.3,0.3,0.6,0.7,1,1.1c0.7,0.8,1.5,1.6,2.2,2.3
				c0.8,0.6,0.5,0.9-0.1,0.1c-0.7-0.6-1.5-1.2-2.2-1.9C31.5,234.9,30.9,234.2,30.4,233.5z M17.4,209.6c0.4,0.4,1,0.1,1.2,1.1
				c-0.5-0.7-0.7,0.9-1-0.3c-0.3,0.3,0.3,1.3-0.4,1.2c0.2-1.1-0.6-2.3-0.6-3.8c0.6,0.6,0-0.5,0.6-0.4
				C17.8,208.5,17.1,208.5,17.4,209.6z M19.3,209.7c0.2-0.9,0.4,1.8,0.8,1.7c-0.1,0.8,0.5,1,0.4,1.8c-0.2-0.4-0.6-0.9-0.9-1.4
				s-0.5-0.9-0.5-1.2C19.7,211.3,19.6,210.6,19.3,209.7z M24.4,228c0.2,0.5,0.6,0.3,0.8,0.5c0.4,0.6-0.2,0.5,0.2,1.2
				c-0.8-0.2-0.7,0.6-1.5-0.4c0.3-0.5,0.7,0.1,1-0.3c-0.4-0.6-1.4-1-1.2-0.2c-0.2,0.1-0.2-0.2-0.1-0.2l-0.3-0.5c0.4-0.5,0.7,0.5,1,0
				c-0.8-0.9-1.2-1-1.5-2c0.5-0.2,0.9,0.2,1.3,0.5C24.6,227.3,24.1,227.4,24.4,228z M49.7,248.2c-0.3-0.5,2,0.9,2.8,1.1
				C51.7,249.8,50.8,248.5,49.7,248.2z M38.5,245.5c0.2,0.5,0.7,1.1,1.7,1.6c-0.4,0.4-2-0.7-1.8-1c-0.3,0.3-1.1-0.5-1.5-0.4
				c0.4,1,2.3,1.6,2.7,1.7l-0.2,0.3c0.6,0.2,1,0.1,1.4,0.1c0.4,0.3,0.5,0.5,0.5,0.8c0.7,0.4,1.5,0.6,1.8,0.9c1.1,0.3-0.4,0.7,0.7,1
				c0.4,0.1,0.2-0.3-0.1-0.5c0.4-0.2,1.5,0.8,2.1,1c-0.4,0-1.1-0.3-1.5-0.2c0,0.1,0.2,0.3,0.1,0.4c0.6,0.2,1,0.1,1.6,0.2
				c-0.3,0.2,0.2,0.6,0.8,0.9c0.6,0.4,1.3,0.7,1.6,0.9c-0.6-0.1-1.1,0-1.8-0.3c0,0.3,0.6,0.5,1,0.7c-1.1,0.1-4.3-1.4-5.9-2.4
				c-0.4-0.3-0.5-0.4-0.3-0.6c-0.3-0.1-0.4,0.1-0.7,0c-0.6-0.3-0.2-0.6-0.3-0.6c-0.3-0.2-0.6,0-1-0.2c-0.6-0.3-1.1-1.1-1.8-1.6
				c-1.1-0.8-2.2-1.3-3.2-2.2c-0.9-0.8-1.5-1.8-2.4-2.7c-0.3-0.4-0.7-0.4-0.8-0.5c-0.7-0.7-1.3-1.5-1.9-2.2s-1.2-1.4-2-1.8
				c0-0.3-0.2-0.6-0.3-0.9c0.4-0.1,1.2,1.4,1.5,0.6c-0.8-0.4-1.5-0.9-2.2-1.2c-0.5-1.4-2.5-3.1-3.4-4.9c-0.3-0.6-0.1-0.7-0.2-1.3
				c-0.2-0.7-1-1.5-0.7-2c0.8-0.2,1.1,1.3,1.4,1.8c0.5,0.7,1.2,1.6,1.5,2.1c0.2,0.3,0.5,0.4,0.5,0.4c0.1,0.2,0.2,0.8,0.3,0.9
				c0.2,0.3,0.8,0.7,1,1c0.6,0.8,0.7,1.1,1.6,1.6c-0.3,0.4-1.3-0.5-0.7,0.6c0.3,0.3,0.1-0.2,0.4-0.3c0.6,0.3,1.2,1,1.7,0.8
				c0.7,0.9,1.3,1.6,1.9,2.2c0.6,0.6,1.1,1.2,1.7,2c0.9,0.6,1.8,0.9,2.4,0.7c0.5,0.6,1,1.1,1.9,1.7l-0.4,0.6
				C37.8,245.7,38.3,245.9,38.5,245.5z M30.3,239.1c-0.1,0.2,0,0.4,0.2,0.6c0.6-0.6-0.3-0.8-1-1.5c0,0.4-0.6,0.7-0.4,1.1
				C29.9,239.6,29.5,238.6,30.3,239.1z M31.5,240.8c-0.6-0.7-0.9-0.2-1.4-0.6c0.1-0.1-0.2-0.5-0.4-0.4c0.9,0.6-0.1,0.8,0.7,1.4
				C30.6,240.4,31.3,241.3,31.5,240.8z M32.8,242.4c0.2-0.5-0.5-1.1-0.8-1.7c-0.5,0.2,0,0.6-0.4,0.8C32,242.1,32.3,241.8,32.8,242.4
				z M42.3,250.8c0.2,0.1,0.2,0.3,0.1,0.5c0.7,0.3,1.4,0.6,1.6,0.2C43.3,250.9,42.7,250.6,42.3,250.8z M35.3,245.3
				c-0.4-0.2-0.9-0.8-1.3-1.1c-0.3-0.4-0.6-0.7-0.5-0.4C33.7,244.2,35.7,246,35.3,245.3z M36.8,244.9c0.5-0.9-2.3-1.9-2.8-1.6
				C35.1,244.5,35.6,243.5,36.8,244.9z M18.3,132.5c-0.1,0.9,0.7,0.4,0.5,1.4c-0.5-0.1-0.4-1.2-1.2-0.9
				C17.6,132.6,17.9,132.4,18.3,132.5z M74.8,255.9c-0.4,0.7-1.4-0.1-2.5,0.1C71.6,255.6,74.1,255.9,74.8,255.9z M29.4,235
				c0.9,0.6,0,0.7,0.7,1.3c-0.7,0.1-0.8-1.2-1.3-1.1C28.4,234.3,29.4,235.7,29.4,235z M29.5,237.5c-0.2,0.4-0.6-0.2-0.8-0.1
				c-0.4-0.7-0.7-1-1.3-1.5C28.3,235.7,28.5,236.7,29.5,237.5z M36.5,239.2l0.8,0.7c-0.2,0-0.4,0-0.5,0.2c0.1,0.1,0.3,0.3,0.4,0.4
				c0.3,0.2,0.4-0.1,0.2-0.3c0.6-0.2,0.7,0.7,0.9,1c0.2-0.2,0-0.5,0.2-0.7c0.1,0.9,0.8,1.3,1.9,1.9c-0.3,0.3-1.1-0.7-1.3-0.1
				c-0.2-0.1-0.4-0.8-0.4-0.8c-0.2-0.1-0.4,0.1-0.4,0.1c-0.5-0.4-0.8-0.8-1.9-1.6C36.7,239.8,36.1,239.4,36.5,239.2z M121.1,43.9
				c-0.4,0.3-1-0.4-0.9-0.9C120.5,42.9,120.8,43.4,121.1,43.9z M34,239.1c0.8,0.8,1,1.9,2,1.5c0.9,0.6,0.3,0.8,1,1.3
				c0.8,0.8,1.5,0.4,1.8,1.3c-0.4,0.1-1.2-0.4-2.1-1C35.7,241.4,33.6,239.8,34,239.1z M33.5,238.8c-1.1,0.8-1.8-1.6-3-2.1
				c0.8-0.3,0.3,0,0-0.8c0.7,0.1,1,0.6,1.4,1.3C32.3,237.8,32.8,238.5,33.5,238.8z M34.1,241.5c0.4,0.4,0.6,0.3,1,0.6
				c-0.1,0.8-1-0.8-1.2-0.4c-0.9-1-1.6-2.1-2.9-3.2C31,237.8,33.4,241,34.1,241.5z M73.8,242.9c-0.6,0.7-0.9,1.8-2,2.2
				c-0.2,0.1-0.8,0-1.2,0.1c-0.4,0.1-1.3,0.6-2.1,0.1c-0.5,0-0.8,0.3-1.3,0.3c-3.3-0.7-5.5-0.8-7.5-1.8c0.2-0.1,0.5-0.1,0.8-0.1
				c0-0.6-0.5-0.4-1.1-0.5c0-0.6-1-1.3-1.5-1.3c0.4,0.7,0.9,1.4,1.6,1.7c-1,0.1-1.6-0.7-2.7-0.8c0.6-0.4-0.4-0.8,0.7-0.5
				c-0.2-0.3-0.9-0.8-1.2-0.7c-0.2,0.5,0.7,0.8,0.2,1.4l-1.1-0.4c1.5,0.4,0.2-1.1-0.6-1c-0.1,0.2,0.4,0.3,0.6,0.4
				c0.2,0.3-0.1,0.1-0.5,0c-0.4-0.2-1-0.4-1.3-0.4c-0.1-0.2-0.4-0.4-0.2-0.7c-0.8,0.1-1.5-1.1-2-1.6c0.6,0.2,1.2,0.4,1.8,0.5
				c0.5,0.1,1,0,1.3-0.5c0.2,0.1,0,0.4,0.3,0.5c0.7,0.2,0-0.4,0.3-0.6c0.7,0.5,1,0.3,1.7,0.6c0,0.6-0.6,0.1-1,0
				c-0.5,0.7,1.3,1,1.7,0.7c0.7,0.2,0.3,0.7,1.1,0.8c0.3-0.1,0.6-0.2,0.8-0.3c0.1-0.4-0.7-0.3-0.6-0.2c-0.3-0.1-0.2-0.4-0.5-0.6
				c-0.3-0.1-1-0.1-1.6-0.7c0.9,0.3,1.9,0.6,2.9,0.8c1,0.3,1.9,0.5,2.9,0.7c-0.5,0.6-0.6,1.1-0.5,1.7c0.6,0.3,0.7-0.1,1.4,0.2
				c0.6,0-0.5-0.5,0-0.9l1.1,0.3c0.1-0.8-0.5-0.8-1.4-0.9c0.7-0.6,2.3,0.2,3.4,0.1c-0.1,0.1-0.3,0.2-0.3,0.5
				c0.5,0.1,0.7-0.1,1.1-0.1c-0.1-0.2-0.1-0.3-0.4-0.4c0.5-0.2,1.1-0.2,1.8-0.2c0.7,0,1.4,0.1,2.1,0c-0.3,0.2-0.3,0.4,0.2,0.5
				c0.5,0.2,0.9-0.6,0.5-0.7c0.1-0.4,0.9,0,1.3-0.1C73.1,241.5,73.2,242.4,73.8,242.9z M57.8,241.6c0.2-0.5-1.3-1.4-1.6-0.9
				C56.7,241.3,57.1,241.1,57.8,241.6z M61.8,242.8c-0.5-0.6-0.8-0.7-0.2-1.5c-1-0.5-0.6,0.9-1,0.8c-0.2-0.5-1.8-1.2-2.1-0.3
				c0.6,0.4,0.6-0.1,1,0C60.3,242.2,60.8,243.1,61.8,242.8z M66.6,242.8c-0.8-0.5-1.1-0.1-1.6-0.1c-0.3,0-1.3-0.5-1.2,0.1
				c0,0.4,0.9,0.3,1,0.6C65.4,242.6,66,243.2,66.6,242.8z M66,243.8c-0.2,0.4,0.4,0.5,0.8,0.7C67.1,243.9,66.6,243.8,66,243.8z
				 M67.8,242.7c-0.6-0.1-0.7,0.1-1,0.4c0.3,0.1,0.4,0.3,0.8,0.3L67.8,242.7z M68.5,242.3c-0.2,0.1-0.8,1.1,0.1,1.1
				C68.9,243.4,69.3,242.1,68.5,242.3z M71.7,241.9c0.2,0,0.2-0.2-0.2-0.2c-0.1,0.6,0.2,0.9,0.8,0.9
				C72.5,242.1,71.6,242.4,71.7,241.9z M18.1,153.6c0.2-0.7-0.1-2.2,0.5-2.2c0.1,1.2-0.3,1.6-0.2,2.8
				C18.2,154.1,18.3,153.6,18.1,153.6z M18.8,152.8c0.4-0.9,0.8,1.3,0.3,1.7C18.7,154.1,19.4,153.1,18.8,152.8z M19,162
				c-0.4-0.1-1.2-2.5-0.3-3.4c-0.1-0.5-0.3-1-0.3-1.7c0.1-0.1,0.2,0.1,0.2,0.3c0.1,0.1,0.2-0.1,0.2-0.3c0.8,0.9-0.8,3.7,0.5,3.7
				C19.4,161.4,19,161.3,19,162z M18.5,150.5c0.2-1.4-0.5-1.5-0.3-2.8c0.8,0,0.4,1.8,0.9,2.3c-0.1,0.4-0.7,1.6-1.1,0.8
				c-0.5,0,0.5,1.1,0,1.1c-0.7-0.1-0.5-1.3-0.3-2C18.1,149.7,18.1,150.4,18.5,150.5z M17.3,158c0.2-1.8,0-2.6,0.2-4.5
				c0.8,0.3,1,1.4,1,2.8c-0.7,0.4,0-1.2-0.5-1.1C17.5,156.1,18.2,157.6,17.3,158z M21.2,216.3c0.3-0.2,0.6,0.3,0.5-0.2
				c0.6,0.2,0.3,1.1-0.1,1.2C21.5,216.9,21.4,216.6,21.2,216.3z M17.8,145.7c0.1,0.8-0.3,1.4,0,2.8c-0.4-0.1-0.1-1.3-0.7-1.1
				C17.3,146.7,17.2,145.6,17.8,145.7z M19.9,134.8c0.4,0.2,0.5,2.9,0,3.6c-0.7,0.2,0-0.5,0-0.8C19.9,136.8,19.6,135.5,19.9,134.8z
				 M17.5,161.1c0,1.8,1.1,0.2,1,2c-0.5-0.2-0.6-0.9-1.2-0.9c0-1.2-0.4-2.5,0.4-2.8C17.5,160.3,18.2,161.8,17.5,161.1z M20.1,139.9
				c0.4,0.7,0,2.5,0.1,3.6C20,142.2,19.9,141,20.1,139.9z M18.6,142.9c-0.3,0.7,0.1,0.9-0.2,1.7c-0.4-0.1-0.1-1.1-0.5-1.1
				C18,143.1,18.2,142.9,18.6,142.9z M18.1,135.6c0.5,0.1,0.6-0.4,0.5-1.1c0.8,0.7-0.1,2.2,0.3,3.4c-0.2,0.3-0.6,0.3-0.7,0.8
				c0.1,0.8,0.4-0.3,0.7,0c-0.1,0.3-0.2,0.6-0.2,1.1c-0.3,0.3-0.6-0.9-0.7,0c-0.3-0.1-0.6-1.4-0.2-1.7c0-0.6-0.5-0.4-0.3-1.1
				c0.4-0.1,0.3,0.4,0.3,0.9c0.3,0.1,0.3-0.3,0.5-0.3c-0.3-1-1-1.4-1-2.8c0.8,0.7,0.3-0.4,0.2-1.1c0.3,0,0.4,0.4,0.7,0.3
				C18.4,134.8,18,134.7,18.1,135.6z M20.6,146.3c-0.4,0.6,0,1.7,0,2.8c0,0.5-0.2,0.6-0.2,1.1s0.2,0.6,0.2,1.1
				c-0.1,2.2-0.1,5.1-0.1,7.9c-1-0.1-0.3-1.9-0.3-2.5c0-0.8-0.5-1.3-0.1-2c0-0.4-0.3-0.3-0.4,0c-0.4-0.3,0.1-1.2,0.5-1.1
				c-0.2-2.4,0.1-4.1-0.3-5.9C20.1,147.2,20.1,146.4,20.6,146.3z M22.5,218.3c0.1-0.8,1.2,1.2,1.2,1.8
				C23.1,220.2,23,218.2,22.5,218.3z M19.9,223.1c-0.2-0.5-0.1-1.2-0.4-1.7c0.6-0.4,0.7,1.8,0.6,1.6c0.1,0.2,0.8,1.1,1.2,1.9
				c0.4,0.7,0.6,1.5,1.1,2c-0.2,0.2-0.1,0.6,0.3,1.1c-0.5-0.3-0.7-0.7-0.9-1.2c-0.2-0.6-0.4-1.2-0.7-1.8
				C20.7,224.3,20.2,223.8,19.9,223.1z M21.9,219.5c-0.4,0.4-0.6-0.8-1-0.1c-0.2-0.4-0.2-0.7,0-0.9
				C21.2,218.8,21.6,218.5,21.9,219.5z M20.8,218.4c-0.3-0.7-0.9,0.7-1.1-0.4c0.3-0.5,1,0.5,0.8-0.3
				C20.9,217.6,21.2,218.2,20.8,218.4z M18.7,220.5c0.4,0.8-0.1,1.2,0.6,1.6c0.1,0.4-0.3,0-0.7-0.5
				C18.3,221.1,18.1,220.5,18.7,220.5z M21.7,175.6c0,1.2-0.2,1.1,0,2c-1,0,0.2-1.7-0.9-1.4C20.6,175.2,21.3,175.7,21.7,175.6z
				 M22.7,204.8c0.8,1.2,0.5,3,1,4.3c0.2,0.5,0.4,0.9,0.6,1.2s0.4,0.6,0.4,1c-0.4,0.2-0.6-0.8-0.8-1.3c-0.2-0.4-0.5-0.7-0.7-1.1
				c-0.1-0.3,0.1-0.4,0-0.5c-0.1-0.3-0.6-0.8-0.1-1.2C22.6,206.1,22.6,206.1,22.7,204.8z M21.5,223.9c-0.4-0.1-0.6-0.7-1-1.1
				C21,222.3,21.5,223.4,21.5,223.9z M25,225.1c0,0.5,0.2,1.1,0.4,1.6c-0.8,0-1.4-0.6-1.9-1.5s-0.9-1.9-1.3-2.7
				c-0.2-0.3-0.4-0.1-0.6,0c0.3-1-0.7-1.3-1.3-2.2c-0.4-0.8,0.1-0.9-0.1-1.5c0.8,0.6,0.6,1.9,1.4,2.7c0.5,0.3,1,0.1,1.4,0.8
				c-0.2,0.2-0.4-0.1-0.6,0C23.5,223.7,23.7,225.8,25,225.1z M26.2,219.2c0.8-0.1,1.2,0.8,1.5,1.8c0.5,0.1,1.6,1.5,0.8,1.8
				C27.8,221.5,26.4,220.1,26.2,219.2z M130.3,174.5c-0.3-1.4-0.1-3.6-0.3-5.1C130.5,170.8,130.5,172.9,130.3,174.5z M7.1,115.1
				c0.6,0.2,0.2,1.1,0.2,1.7C6.7,116.6,7.1,115.7,7.1,115.1z M8,117.1v-2.5C8.5,114.5,8.6,117.2,8,117.1z M6.2,116.7
				c-0.6-0.2-0.2-0.8-0.2-1.4C6.5,115.4,6.5,116.4,6.2,116.7z M8.4,99.7c-0.4-0.1-0.1-1.4-0.1-2C8.9,98,8.3,98.8,8.4,99.7z
				 M4.7,117.2c0.2,2-0.1,3-0.1,4.5c-0.7-0.4-0.1,1.3-0.7,0.8c0.2-0.9,0.1-1.8,0.2-2.5c0-0.1,0.3,0.1,0.4,0c0.1-0.2-0.1-1.1,0-1.4
				c-0.1-0.4-0.3,0.1-0.7-0.3c0.6-0.7,0-1.5,0.4-2.5c0-0.3-0.2-0.2-0.2,0c-0.5-0.3,0.2-0.7,0.2-1.1c0.4-0.1,0.4,1.7,0.7,0.9
				c0.4,0.5-0.3,1.4-0.7,0.8C4.3,116.7,4.2,117.4,4.7,117.2z M8.3,123c-0.6-0.2-0.2-2.1-0.3-3.1C8.7,120.5,7.9,121.8,8.3,123z
				 M6,95.1c0.4,0.1,0.6-0.4,0.7-0.8c-0.1-0.3-0.3-0.4-0.5-0.6c0.1-0.7,0.3-1.1,0.2-2c0.4,0.7,0.6,0.1,0.9,0.9
				c-0.3,1.1-0.2-0.1-0.7,0c0.1,1,0.8,1,0.5,2.5c-1-0.1-0.5,0.5-0.5,1.7c-0.8,0-0.9-1.1-0.9-2.3C5.9,94.4,6,94.8,6,95.1z M5.7,122
				c0.4,0.3-0.2,1.5,0,2.5C5.1,124.5,5.5,122.7,5.7,122z M3.2,119.2c-0.4,0-0.1-1-0.2-1.4C3.8,117.9,3.5,118.7,3.2,119.2z M5.7,89.8
				c-0.2-0.5-0.6-0.8-0.5-1.7C5.7,88.1,5.6,89.1,5.7,89.8z M5.9,81.9c-0.1,0.2-0.2,0.4-0.2,0.8C5.5,82.3,5.2,82,5.2,81
				C5.6,81.1,5.6,81.8,5.9,81.9z M8.3,124.1c-0.1,3.8-0.1,4.9-0.3,8.7c-0.3,0.9-0.1-1-0.2-1.7c0-2.1,0.1-5.3,0.1-7.6
				C8.2,123.4,8.3,123.7,8.3,124.1z M5.6,70.2c0-1.4,0.5-1.2,0.9-0.9C6.5,70.3,5.9,69.9,5.6,70.2z M5.5,55.5
				c0.2-0.8,0.4-1.3,0.8-1.1C6.2,55.2,5.9,55.7,5.5,55.5z M3.7,68.1c-0.1-1,0-2.1,0.1-3.2s0.5-2.3,0.8-3.3c0.2-1-0.4-0.8,0-2
				C4.7,59.7,4.7,60,4.9,60c0.5-1.7,0.2-2.4,0.4-3.6c0.7,0.6,1-0.6,1.4-1.3c0.6,1-0.7,2.8-1.1,3.4c0.6,0.4,1,1.9,0.6,2.7
				c-0.5,0,0.1-1.2-0.3-1.4c-0.6,0.2-0.1,1.1-0.1,1.3c-0.2,0.3,0,1.5-0.3,1.9c0,0-0.3-0.1-0.4-0.1c-0.1,0.4,0.2,0.8,0.2,1.3
				c0,0.5-0.2,0.4-0.2,0.6C5,65.2,5.4,65.7,5,66.4c-0.1,0.1-0.1,0.5-0.2,0.6C4.4,67.6,3.8,66.5,3.7,68.1z M4.4,66.9
				c0-1.5,1.1-2.4-0.1-2.6C4.2,65.2,3.8,66.8,4.4,66.9z M8.3,91c0.6,0.2,0.3,1.4,0.1,2C8,92.8,8.4,91.5,8.3,91z M7.4,90.4
				c0.4,0.6,0,2.3,0.1,3.4C7.2,93.2,7.5,91.4,7.4,90.4z M12.1,51c-0.4-0.7,0.3-1.2,0.7-2.3c0.3-0.3,0.1,0.1-0.1,0.7
				C12.5,50,12.2,50.7,12.1,51z M9.5,61c-0.1-1.1,0.3-2.6,0.7-4.2c0.2-1.4,1.8-6,1.1-3.5C10.8,55.3,9.8,58.8,9.5,61z M80.7,12.8
				c0.6,0.9-2.1-0.2-3,0.1c0.6-0.4,1.6-0.6,2.2,0C80.2,13,80.6,13,80.7,12.8z M84.6,14c-0.9-0.3-1.9-0.5-3.2-0.7
				C82.2,13,84.6,13.2,84.6,14z M86.1,15.7c0.6,0.2-0.1,0.6-0.2,0.7c-0.6-0.1-0.7-0.4-1.2-0.6C85.1,15.4,85.9,16.4,86.1,15.7z
				 M7.8,135c0.3,0.8,0.2,3.4-0.1,4.2C7.3,137.9,7.8,135.9,7.8,135z M7.2,55c-1.5-0.6-0.7-3.2,0.6-4.9c0.1-0.5-0.3-0.1-0.4,0.2
				c-0.2-1.1,0.9-1.9,1.3-2.6c0.1-0.4-0.1-0.2-0.2-0.1c0.1-0.8,0.9-2.8,1.5-3.2c0-0.5,0.7-1.7,0-1.8c1-1,1.4-2.4,2.2-4
				c0.5-0.6,1.1-0.2,1.7-1.2c0.1-0.9-1.2,1.4-1.2,0c0.3-0.6,0.5-0.9,0.8-0.7c0.3-0.5,0.6-1,0.9-1.5c0.3-0.5,0.7-1,1-1.5
				c0.7-1,1.3-2,1.7-2.7c0.4-0.6,0.7-0.8,1-0.5c-0.3-0.8,0.9-2.2,2.1-3.3c-0.1-0.6,0.9-1.5,1.3-2.3c0.4,0.1-0.1,0.6-0.4,1
				c0.9-0.3,1.1-1.7,2.1-2c0.2-0.3,0-0.3-0.1-0.1c-0.2-0.7,0.5-0.3,0.8-0.6c0,0,1-1,1.1-1.2c0.4-0.3,0.8-0.8,1.2-1.1
				c0.3-0.2,0.9-0.4,0.9-0.4c0.3-0.3,0.3-0.9,0.6-1.3c0.3-0.4,0.5-0.2,0.8-0.5c0.2-0.2,0.1-0.4,0.4-0.5c1-0.8,1.9-1,2.4-1.7
				c0.1-0.1-0.5,0.1-0.8,0.3c1-1.1,2.5-1.7,3.6-2.4c0.4-0.3,0.8-0.8,1.2-1.1c0.2-0.1,0.7-0.2,1.2-0.5c0.4-0.3-0.1-0.3,0.1-0.5
				c0.4-0.5,1.5-0.8,1.9-1.2c0.1,0.3-0.3,0.6-0.9,1c1.2-0.5,0,0.8,0.8,0.7c0.2-0.2,0.2-0.3,0.5-0.5c0.8-0.6-0.5-0.2-0.3-0.6
				c0.1-0.4,0.6-0.3,1.1-0.6c0.1-0.1,0.6-0.8,0.7-0.8c0.1-0.1,1.5-0.2,1-0.8c0.6-0.4,0.6,0.1,1-0.1C43,9.2,43,9,42.9,8.8
				c1.4-0.3,2.4-0.6,3.5-1.6C47.2,7,47.9,7,49,6.7c0-0.3-0.3-0.2-0.7-0.1c0.4-0.5,1.1-0.4,2-1c0.5-0.2,0-0.6,0.4-0.9
				c1-0.1,1.2-0.9,1.7-1.1c0.3-0.1,1-0.3,1.6-0.5c2.2-1,6.7-1.8,10.3-2.2c0.7-0.1,1.8-0.7,2.3-0.1c0.7,0,0.4-0.4,0.9-0.5
				C69.4,0.2,71,0,72.5,0c0.8,0,1.5,0,2.2,0c0.7,0.1,1.4,0.2,2,0.3c-0.6,0.2-1.3,0.1-1.9,0.1c-0.7-0.1-1.3-0.1-2,0.1
				c-0.4,0.6,1.2,0.3,1.9,0.3c0.4,0,1,0.2,1,0.2c0.8,0,1.1-0.4,1.6-0.3C79,1.3,81.2,1.6,82.2,1c1.4,0.3,2.7,0.4,3.9,0.6
				c1.2,0.2,2.2,0.4,3.1,0.9c1-0.1,2.3,0.2,3.7,0.6c1.3,0.5,2.7,1,3.8,1.5c0.5-0.2,1.3,0,2.2,0.4c0.9,0.4,2,1,3,1.4
				c1.6,0.7,3.3,1.1,4.6,1.8c1.8,0.9,3.6,2,5.1,2.9c1.5,1,2.8,2.3,4.1,2.6c0.3,1,1.3,0.9,2.1,1.6c0.4,0.3,0.3,0.5,0.7,0.7
				c1.4,1.1,3.3,2.4,4.9,3.8c0.8,0.8,1.4,1.7,2.2,2.4c0.5,0.5,1.1,0.7,1.6,1.2c0.6,0.5,0.8,1.3,1.4,1.8c0.8,0.8,1.8,1.4,2.2,2.4
				c0.2,0.3,0.3,0.1,0.5,0c0.4,0.7,0.7,1.3,1.4,2.2c0.2,1.1,0.1,1.8,1.3,3.4c-0.1,0.8-1.4-0.7-2,0.1c-0.2,0.6,0.9,1.4,1.2,1.9
				c0.4,0.3,0.2-0.2,0.8-0.1c0.8,1-0.2,0.9,0.2,1.7c0.4,1.1,0.8,0.6,1.2,1.5c-0.3,0.1-0.1,0.5-0.5,0.6c0.4,1,0.8,1,1.1,1.9
				c-0.2,0.2-0.4-0.1-0.6-0.1c0.6,1,1.2,1.8,1,2.6c0.2,0.3,0.3,0,0.2-0.1c0.3,0.4,0.6,1,0.9,1.7c0.3,0.7,0.4,1.4,0.4,1.8
				c0.3,0.5,0.6,0,0.5,0.8c0.4,0.8,0.8,1.3,1.3,1.5c0,0.5-0.4,0.6-0.4,1.1c0.2,0.2,0.3,0.4,0.5,0.8c0.4-0.1,0.3-0.7,0.9-0.6
				c0.3,0.8,0,0.4-0.2,0.4c0.1,0.9,0.5,0.7,0.6,1.5s-1,1.9,0.2,2.2c0.2-0.1,0-1-0.3-0.9c0-0.5,0.6-0.5,0.9-0.9
				c0.3,0.7,0.6,1.3,0.8,2.4c-0.4-0.1-0.4-1.7-0.9-1.4c-0.1,1.2,0.8,3.5,1.4,3.9c0,1.1,0.7,3-0.2,2.9c0,1.2,0.6,0.8,0.6,1.8
				c-0.1,0.6-0.2-0.2-0.3-0.6c-0.5,0.2-0.5,2.1-1.3,1.1c-0.2,0.4,0,1.8,0.2,2.2c0.3-0.3,0.2-1,0.2-1.6c0.3,0.5,0.9-0.6,1.1,0.9
				c0.1,1.5-0.3-0.3-0.7,0.1c0.1,1.1,0.7,1.3,0.1,1.9c0.2,0.9,0.4-0.3,0.7,0c-0.3,0.6,0,2.1,0,3.2c-0.3,0.6-0.7-0.6-0.9,0.6
				c0,0.5,0.1,0.8,0.4,0.9c0.3-0.1,0.1-0.9,0.3-0.9c0.6-0.3,0.3,1,0.4,1.6c0.7-0.3,0.1-1.3,0.1-2.2c0.9,0.5,0.3,2.3,0.4,3.6
				c-0.2-0.1-0.3-0.5-0.5-0.6c0.3,1.8-0.5,1.8-0.9,2.5c0,0.2,0.2,0.3,0.2,0.6c0.6-0.4,0.9-1.2,1.6-1.4c-0.1,0.6-0.4,1.1-0.9,1.1
				c-0.1,0.9,0.2,1.2,0.5,1.4c-0.1,0.4-0.4,0.5-0.7,0.5c0.1,0.9,0.4,0.3,0.2,1.7c-0.1,0.4-0.1,1.1-0.4,1.1c0.1,1,0.5-0.1,0.9,0.6
				v-0.8c0.3,0.3,0.1,2-0.5,1.7c0.1,1.3-0.3,1.7-0.2,2.8c0.4-0.7,0.4-3,1.1-2.2c0,0.8-0.5,0.6-0.5,1.4c0,0.2,0.2,0.3,0.2,0.6
				c0.3,0,0.4-0.3,0.7-0.3c0.1-0.6-0.1-0.8-0.2-1.1c0.5-0.5,0.3,1.7,0,2.2c-0.3,0-0.4-0.3-0.7-0.3c0.3,1.1,0.2,3-0.4,3.4
				c0.3,0.6,0.6-0.2,0.9-0.5c0.5,1.6-1,2.9-0.4,4.8c0.1,0.9-0.6,0.3-0.4,1.4c-0.2,0.9,0.4,0.6,0.5,1.1c-0.4,1.3-0.1,2.2-0.6,3.1
				c0.1,0.3,0.4,0.3,0.3,0.8c0.2,0.4,0.6,0.4,0.7,0.9c0.2-0.3,0.4-0.2,0.4,0.3c-0.5,0.1-1.1-0.8-1.2,0.2c0,0.7,0.3-0.4,0.7,0
				c-0.1,1.1,0.3,1.8,0.3,2.5c0,1.1-0.6,1.8-0.6,3.1c-0.1,0.7,0.8-0.1,0.5,0.9c0.1,0.9-0.2,0.1-0.4,0.3c-0.2,0.2-0.1,0.9-0.5,0.8
				c0.2,1.1,0.6,0.4,1,0.9c-0.2,0.8-0.3,2.2,0,3.1c-0.4,0.6-0.6-0.1-0.9-0.3c-0.4,0.5,0,1.7,0.1,2.8c-0.6-0.3-0.8,0.2-1-0.9
				c-0.2,0.1-0.1,0.7-0.2,1.1c0,0.6,0.7,0.1,1.1,0.3c0,0.9,0.6,0.7,0.5,1.7c0,0.3,0.3,0.3,0.5,0.3c-0.3,1.8,0,3.5-0.2,5.1
				c0,0.3,0.2,0.2,0.4,0.3c-0.1,1.2,0.1,2,0,2.8c0,0.1-0.3-0.1-0.4,0c-0.1,0.2,0.1,1.1,0,1.4c0,0.3,0.4,0.2,0.3,0.6
				c0.6,0.4,0.1-0.9,0.7-0.5c0.5,1.3-1,0.7-0.4,2.2c-0.3,0.1-0.3-0.3-0.5-0.3c-0.2,0.9,0.5,1.6,0,2c0,0.3,0.3,0.3,0.5,0.3
				c-0.3,1.7-0.1,2.7,0.1,4.2c-0.3-0.1-0.1-0.8-0.3-0.9c-0.6,0.3,0.7,3.1,0.5,1.1c0.4,0.1,0.1,1.4,0.1,2c-0.4-0.1-0.5,0.2-0.7,0.3
				c0,0.3,0.2,0.2,0.2,0c0.6,0.7-0.6,2.7,0.3,3.1c0.1,0.9-0.5,0.6-0.4,1.7c0.4,0.1,0.3-0.4,0.4-0.8c0.4,0.3,0,1.6-0.2,2
				c0.1,0.5,0.6-0.4,0.5,0.9c0.1,0.6-0.3,0.5-0.5,0.6c-0.1,0.9,0.4,1.8,0.5,2.8c0,0.2-0.2,0.3-0.2,0.6c0,0.4,0.2,0.5,0.2,0.6
				c0,0.7-0.1,1.9,0,3.1c0,0.5,0,1.4,0,2c0,0.7,0.4,1.4,0,2c-0.1,0.1-0.3,0.7-0.2,1.1l0.4,0.3c0,0.1-0.8,1.9,0.1,2.3
				c0,1.1,0.1,1.7,0.1,3.4c0,0.3,0.2,1.2,0.2,1.1c0,0.4-0.4,0.4-0.4,0.8c0,0.9,0.6,0.8,0,1.4c0.2,0.3,0.3,0.6,0.5,0.9
				c0.1,4.1,0.2,8.2,0.6,11.8c-0.1,0.3-0.3,0.4-0.5,0.6c0.9,2.7,0.7,5.5,1,8.2c-0.1,0.7,0.7,0.2,0.5,1.1c-0.6-0.1-0.7,0.3-0.9,0.8
				c0.5,0.2,0.4-0.8,0.9-0.5c0,0.7,0,1.4-0.4,1.4c0.1,0.4,0.4,0.5,0.7,0.6c0.1,1,0.1,1.6,0,2.3c0,0.7-0.1,1.5-0.1,2.6
				c-0.8-0.9-0.9-0.9-1.9-1.1c-0.1,0.7,0.2,0.6,0.5,0.7c-0.1,0.9-0.7,0.9-1.1,1.3c0.3,1.6-0.5,3,0.1,3.9c0,0.7-0.4,0.4-0.4,0.9
				c0,0.4,0.3,0.3,0.3,0.7c0,1.1-0.4,1.2-0.5,2.2c-0.4,0.1-0.7,0.4-0.8,1.5c0.2,0.4,0.4-0.2,0.5-0.7s0.1-0.9,0.1,0.2
				c0,0.5-0.2,1.2-0.2,1.3c-0.1,0.8,0.1,1,0.1,1.4c-0.1,0.6-0.3,0.6-0.4,1.3c-0.3,1.2-0.5,2.7-0.8,3.9c-0.3,1.3-0.6,2.4-0.9,3.1
				c-0.1,0.4,0.2,0.4,0.4,0.5c-0.4,0.7-0.8,1.7-1.1,2.8s-0.5,2.1-0.6,3c-0.2,0.7-0.6,0.9-0.8,1.4c-0.3,0.6,0,0.9-0.1,1.1
				c-0.2,0.4-0.5,0.3-0.6,0.4c-0.1,0.1-0.6,1.4-0.6,1.6c-0.3,0.6-0.3,1-0.8,1.9c0.3,0,0.5-0.7,0.8-1.1c0.7-0.6-0.9,2-1.3,2.7
				c0-0.9-1,0.6-0.6-0.7c-0.6,0,0.1,0.8-0.7,1.5c0.1,0.6,1-0.4,0.6,0.4c-0.6,1.1-0.2-0.2-0.8,0.3c-0.4,0.5,0.1,0.6,0.1,0.9
				c-0.1,0.3-1.1,1.4-0.4,1.3c-0.9,1.6-1.9,2.5-2.8,3.7c-0.3-0.5-1,0.2-0.8-0.6c-1,0.9-3,3.4-3.8,4.6c-0.1,0.3-0.1,0.3,0,0.5
				c-1.7,2.2-4.3,3.8-5,5.3c-1.1,0.9-3,2-2.5,2.7c-0.8,0.5-1.3,1.2-2,1.8c-0.5,0.4-1.3,0.7-1.7,1.1c-0.3,0.2-0.4,0.7-0.6,0.9
				c-0.5,0.5-1.1,0.9-1.7,1.4c-0.6,0.4-1.3,0.8-1.8,1.2c-0.9,0.7-2.8,1.6-4.3,2.7c-1,0.6-1.5,1.3-2.5,1.8c-1.1,0.6-2.3,0.9-3.3,1.7
				c0-0.6-0.6-0.5-0.7-0.9c1.2-0.4,0.4-0.9,1.3-1.3c-0.5-0.3-0.8,0.7-1.8,0.8c0.6-0.8,0.4-1.8-1-1.7c-0.2,0-0.6,0.6-0.8,0.7
				c-0.3,0.1-0.8,0.3-1.4,0.5s-1.3,0.4-1.9,0.6c-1.1,0.5-1.5,1.1-2.7,1c-0.3,0.4-1.2,0.8-2.4,1.1c-1.2,0.3-2.5,0.7-3.5,1
				c-0.6,0.2-0.9,0.6-1.5,0.8c-0.9,0.3-1.9,0.4-2.8,0.5c-0.9,0-1.9,0-2.8,0.1c0.1-0.7-0.9-0.7-1-1.2c-1.8-0.1-2-1.3-3.5-1.6
				c0.6-0.6,0-0.7-0.9-0.9c1.1-0.9-0.8-1.2-0.9-1.9c0.5,0,0.5-0.2,0.9-0.2c-0.1-0.2-0.8-0.1-1.2-0.2c0.7-0.5,0.2-0.6,0.9-0.9
				c0.1-0.3-0.2-0.3-0.6-0.3c0.4-0.1,0.2-0.5,0.6-0.7c0.1,0,0.5,0,0.6,0c0.3-0.3-0.2-0.8,0.3-0.9c0.2,0,0.3,0.2,0.6,0.2
				c0.6-0.2,0.8-0.4,1.1-0.9c1,0.1,1.1-0.3,2-0.3c0.3,0,0.2-0.3,0.3-0.5c1.4,0.6,4.1,0.1,5.2,0.7c0.8-0.1,1.5-0.2,2.3-0.4
				c-0.1-1.1-1.1-1.2-1.5-2c1.8-0.5-0.4-1,0.3-1.6l1.1-0.2c-0.1-0.4-0.6-0.4-0.5-1c1.4-0.2,1.7-0.3,2.9-0.5c0.2,0.3,0.6,0.4,1.2,0.4
				c0.9-0.3-0.2-0.5,0.4-0.6c0.3-0.1,0.7-0.2,1-0.3l0.2,0.7c0.9-0.5,1.9-0.1,2-0.8c-0.1-0.2-1.4,0.8-1.4-0.1
				c1.3-0.4,2.6-0.9,3.9-1.4c1.3-0.6,2.5-1.1,3.8-1.7c0.3-0.2,0.2-0.5,0.6-0.7c-0.2-0.4-0.6-0.3-0.7-0.8c1.1-0.7,0.7-1.1,2.1-1.6
				c0-0.6-0.7,0-1.1,0.2c-0.8,0.3,0.3-0.4,0.6-0.5c1.7-0.7,3.8-2.9,4.9-2.4c0.2-0.6,0.3-1,1.4-1.6c0.1,0.2-0.6,0.5-0.4,0.8
				c0.1,0.1,0.3,0,0.4,0.1c0.4-0.5,0.8-0.9,0.6-1.4c0.7-0.6,1.3-1,2-1.5c0.6-0.4,1.2-0.9,1.6-1.5c-0.6,1.3,1.1-0.4,0.9-0.9
				c1.2-1.1,2.6-2.4,3.4-3.6c1.2-1.5,2.6-3.1,3.8-4.8c0.6-0.8,1.1-1.6,1.6-2.4c0.4-0.8,0.8-1.6,0.9-2.3c0.3-0.3,0.3,0.1,0.4,0.3
				c0.1-0.3,0.3-0.4,0.4-0.4c0.3-0.7,0-0.7,0.3-1.3c0.2-0.4,0.8-0.8,1-1.2c0.2-0.5-0.1-0.8,0.2-1.3c0.2-0.5,0.5-0.7,0.8-0.5
				c0.1-0.6-0.4-0.9,0.2-1.9c0.1,0.1-0.1,0.5,0.1,0.6c0.4-0.2,0.4-1,0.9-1.6c0.1-0.1,0.5-0.3,0.5-0.4c0.4-0.9,0.7-1.9,0.9-2.8
				c0.2-0.9,0.3-1.7,0.6-2.3c-0.1-0.3-0.2-0.5-0.4-0.6c0.9-0.8,0.8-2.7,0.9-4.1l0.5,0.1c0-0.6,0.2-1.4-0.2-1.6
				c0.3-0.8,0.4,0.4,0.6,0.4c0.1-0.9-0.2-1.3-0.3-1.9c0.4-1.1,0.4-2.7,0-3.7c0.1-0.4,0.3-0.6,0.4-1c-0.3-1.8-0.6-4-0.7-6.2
				c-0.1-2.2-0.1-4.5,0.2-6.8c-0.1-0.7-0.3-1.4-0.5-2c0.1-1.1,0.4-2,0.4-3.4h0.7c-0.3-1-1-2.8-0.3-3.7c0.5,0.4,0,1.5,0,2
				c0.1,0.7,0.8,0.6,0.7,1.7c0.2-0.2,0.3-0.6,0.4-1.1c0.3,0.9,1.1,0.4,1.4,0.9c0.7,1,0.2,2.5,0.7,3.9c-0.1,0.5-0.1,1.2-0.5,1.1
				c0.1,0.4,0.3,0.7,0.3,1.1c0.3-0.1,0.4-0.5,0.4-1.1c0.4,0.7,0.1,2.6,0,3.4c-0.6-0.3-0.5-0.1-0.9,0.3c0,0.7,0.6,1,0.2,1.7
				c0.2,0,0.3,0.1,0.4,0.3c0.5-0.1-0.3-2.3,0.6-1.9c0,1.2,0,2.5-0.2,3.4c0.1,1.1,0.6,0,0.9,0.6c0-0.9-0.4-1.6,0-2.3
				c0.3,0.1,0.6,0.2,0.7,0.6c0.3-0.1,0.4-0.4,0.5-0.8c-0.3-1-0.5,0.5-0.9,0.3c0.1-0.6-0.2-0.5-0.5-0.6c-0.1-0.9,0.2-1,0.2-1.7
				c0.2,0.1,0.1,0.7,0.2,1.1c0.8-0.4-0.1-1.5-0.3-2c0-1.1,0.4-1.4,0.7-1.9c-0.1-0.6-0.9-0.1-0.7-1.1c0.2-0.5,0.6-0.6,0.9-0.8
				c-0.2-0.4-0.6-0.4-0.7-0.9c-0.1-2.6,0.1-6.2,0.1-9.5c0.1-0.6-0.5-0.3-0.5-0.9c-0.2,0.2-0.3,0.6-0.4,1.1c-0.6-0.8-1.1,0.3-1.6,0.5
				v-0.6v-0.6c0.5,0.4,1,0.3,1.1-0.8c-0.5-0.2-0.2,1-0.9,0.5c0.5-1.1,0.2-1.9-0.1-2.8c-0.4,0.5,0,1.1,0,1.7
				c-0.1,1.1-0.5,1.6-0.7,2.5c-0.2-0.4-0.9-1-1.1,0c-0.2-0.9-0.5-1.8-0.9-2.6c-0.1-0.8,0.4-0.6,0.4-1.1c0.2-0.8-0.1-1.4-0.1-2.3
				c0-0.5,0.2-0.5,0.2-0.8c0-1-0.2-1.7-0.1-2.5c0.2-1.7,0.1-5.2,0.1-7c0-0.5,0.5-1.4-0.2-1.7c-0.1-0.8,0.4-0.6,0.4-1.1
				c0.1-0.5-0.1-0.5-0.3-0.6c-0.1-0.9,0.6-0.4,0.5-1.1c0.1-1-0.4-1.6,0-2.3c0-0.3-0.3-0.3-0.5-0.3c0.4-0.8,0.4-2.1,0.4-3.6
				c-0.1-0.3-0.3-0.4-0.5-0.6c0.1-3.1,0.2-10.8,0-16c0-0.8-0.3-1.4-0.3-2.3c-0.1-1.8,0.2-3.6-0.1-5.1c-0.2,1.4-0.5,1-0.5-0.6
				c0,0.9,0.2-5.8,0.1-8.1c0-0.5,0.2-0.5,0.2-0.8c0-0.5-0.2-1.3-0.1-2c0-0.6,0.2-1.1,0.2-1.4c0-0.7-0.5-1.1-0.3-2.5
				c0-0.3,0.4-0.9,0.4-0.8c0-0.4-0.4-0.9-0.5-1.4c0-0.2,0.2-0.5,0.2-0.8c0-0.7-0.3-1.5-0.3-2.3c0-0.7,0.2-3.8,0.1-4.8
				c0-0.3-0.4-0.3-0.3-0.8c0.3-0.1,0.3,0.3,0.5,0.3c0-0.5-0.2-0.6-0.2-1.1c-0.2-0.1-0.3,0.1-0.4,0.3c-0.5-0.1,0-0.9,0.4-0.6
				c-0.2-0.7-0.2-1-0.2-1.7c0-0.2-0.3-1.6-0.3-2c0-0.5,0.2-1.1,0.2-1.7c0-1.7-0.2-3.8-0.1-5.3c0-0.7-0.3-1.6-0.3-2.3
				c0-0.4,0.1-0.5,0.2-0.8c0.1-0.8-0.2-1.6-0.1-2.3c0-0.6,0.3-1,0.4-1.4c0.1-0.5,0.2-1.3,0.2-1.7c0-0.3-0.3-0.7-0.3-0.8
				c0-0.5,0.2-0.5,0.2-0.8c0-0.5-0.2-0.6-0.2-1.1s0.2-1,0.1-1.5c0-0.7-0.9-2.6-0.4-4c-0.4-0.2-0.7-2-1-3.4c-0.1-0.3,0.1-0.9,0-1.3
				c-0.6-2.6-1.8-5.1-2.3-7.3c-0.1-0.5,0.2-1-0.3-1.5c-0.2,0.1,0,0.5,0.1,0.8c-0.5-0.4-1.4-2.5-0.6-2.7c-0.5,0-0.4-0.5-0.9-1.2
				c-0.2-0.4-0.9-0.7-1.3-1.9c0.3-0.3,0.5,0.2,0.6,0.5c0.1-0.2,0.3-0.8,0.6,0c0.4-0.4-0.4-0.4-0.4-0.9c0.2,0.1,0.5,0.1,0.7-0.1
				c-0.2-0.7-0.5-0.5-0.7-1.1c0.8-0.1,0.4-1.1-0.1-1.4c-0.4,0.5,0.1,1.5-0.5,2c-0.4-0.2-0.8-0.8-1.2-0.8c0-0.4,0.4-0.6,0.4-1.1
				c-0.4-0.6-1-0.1-0.5,0.5c-1-0.5-0.4-1.6-0.1-1.9c-0.6-0.2-1.1-1.1-1.7-0.4c-0.2-0.3-0.3-0.6-0.5-0.5c0-0.6-0.7-1.5-0.2-1.9
				c0.4,0.5,0.8,1,0.1,1.1c0.2,0.3,0.4,0.7,0.7,1c0.7-0.2-0.5-1.1,0.2-1.3c0.6,0.6,0.4,0.5,0.5,1.2c0.5-0.4-0.2-1.2,0.2-1.6
				c-0.4-0.7-1.2-0.6-1.2-1.4c0.7-0.5,2.1,0.8,2.3,0.3c0.6,0.3,0.6,1.3,1.4,1.9c-0.5-0.2-0.2,0.1-0.6,0.3c0.6,1.1,1.3-0.2,1.8,1.1
				c0.3,0.6,0,0.3-0.2,0.4c0.2,0.5,0.5,0.2,0.7,0.5c0.8,1,0,1.1,0.6,2c0.6,0.7,0.1-0.7,0.7-0.6c-0.2,0.3,0.6,1.1,0.3,1.3
				c0.3,0.5,0.3-0.5,0.2-0.7c0.6,0.5,0.6,1.8,1.4,2.3c0.3-0.7-0.7-0.8-0.8-1.4c0.3-0.3-0.1-1.3,0.6-0.8c-0.4-1.2-0.9-0.8-1.3-1.8
				c-0.4-0.9,0.3-0.4-0.5-1.3c-0.4-0.4-0.7-0.6-1-1c0-0.6-0.2-1.2-0.5-1.9c-0.6-0.7,0.4,0.7-0.3,0.5c-0.5-0.3-0.9-1-1.3-1.7
				s-0.7-1.3-1.1-1.2c-0.1-0.5-0.1-1-0.8-1.7c1.1-0.2,0.6,1.4,1.4,1.7c0-1.2-0.4-2.5-0.5-3.7c-1.1-0.4-0.3,1.1,0,1.7
				c-0.6,0.3-1.3-1.7-1.8-0.7c-0.3-0.4-0.3-0.6-0.2-0.8c-0.7-0.1-1.4-1.2-2.2-2c0.3-0.2,0.8,0.9,1.1,0.5c-0.2-0.6-0.5-1.2-0.9-1.8
				c-0.5-0.5-0.8,0-1.2,0.3c-0.3-0.6-1.5-1.3-1.4-1.7c0.5-0.6,0.7,1,1.4,0.9c0.1-1.1-1.3-1-1.6-1.8c-0.3,0.2,0,0.5-0.3,0.7
				c-0.6-0.6-1.2-1.1-1.8-1.7c-0.4-0.8,1.4,1.4,1.6,0.7c-0.2-0.8-1.6-1.1-2.3-1.9c0.4,0.7,0,0.5-0.5,0.1s-1.3-1.1-1.6-1.3
				c-0.4-0.7,1.2,0.8,1.6,1c0.2-0.8-1.5-1.5-2.1-1.7c-0.3-0.8-1.7-2.2-2.8-2.2c0.1,0.5,1.5,1.1,2.1,1.7c-0.2,0.3-0.8-0.5-1.2-0.7
				c-0.8-0.6-1.7-1.3-2.2-1.1c-0.5-0.6-1-1-1.7-1.4c-0.6-0.4-1.3-0.8-2.1-1.3c-0.3-0.1-0.3,0.2-0.7,0c-0.7-0.3-0.7-0.6-0.4-1
				c-0.9-0.2-1.6-0.6-2.2-1s-1.2-0.8-2-1c-0.4-0.5,0.3-0.3,0.5-0.5c-0.4-0.1-0.4-0.3-0.7-0.5c-0.3-0.1-0.5,0.3-0.2,0.5
				c-0.5,0.2-1,0.1-1.4-0.1c-0.5-0.2-1-0.4-1.6-0.5c-0.1,0.2-0.2,0.5,0.1,0.6c-0.7,0.1-1.3-0.6-2.3-0.6c0.7-0.2,0.4-0.9-0.2-1.1
				c0.3-0.5,0.5,0.3,1.1,0.3c0.2-0.4,0-0.6-0.6-0.7c-1.2-0.2-0.1,0.9-0.9,1c-1.1-0.7-1.2-0.7-2.8-1.1l0.1-0.5
				c-1.3-0.3-1.9,0.2-3.3-0.2c0.5-0.4-0.4-0.5-0.4-0.6c-0.2-0.3,0.3-0.7-0.4-0.8c-1,0.3,0.9,0.7,0.3,1.3c-1.1-0.1-0.7-0.8-1.8-0.8
				c-0.4,0-0.1,0.3,0.2,0.4c-0.7,0.4-1.1-0.3-1.9-0.4c-0.7-0.1-1.5,0.2-2.2,0.2s-1.3-0.3-1.9-0.1c-0.1-0.3,0.3-0.3,0.3-0.5
				c-0.8-0.1-1.1,0.5-1.7,0.1c-0.1-0.4,0.8-0.2,0.8-0.5c-1-0.2-0.8,0.4-1.7,0.3c0.2,0.5,1.1,0.5,1.1,1.1c-0.2-0.1-0.9,0.1-1.1,0
				c-0.1-0.1,0.4-0.3,0.3-0.4c-0.6-0.4-1.3-0.7-2.7-0.8c-0.8,0.2,0.8,0.4,0,0.7c-0.8-0.1-1.4-0.2-2.2-0.2v-0.5
				c-0.6-0.2-0.6,0.1-1.1,0.1c-1,0-1.1-0.5-1.6,0.4c0.6,0.1,1.8,0.4,0.3,0.7c0.3,0.2,0.8,0.1,1.3,0c0.6-0.1,1.2-0.2,1.7-0.1
				c0.1,0.6-1.2,0.4-1.9,0.5c-0.8,0.1-1.8,0.2-2.4,0.3l-0.1-0.9c-1.1,0.1-1.4,0.6-1,1c-0.5,0.1-1.1,0.2-1.6,0.3
				c0.1-0.2,0.4-0.4,0.4-0.6c-1.2,0.3-1.7,0-3,0.4c0-0.1,0.2-0.2,0.2-0.4c-1.1,0.1-1.9,0.3-2.6,0.6C58.7,14.8,58,15,57,15.2
				c0,0.7-0.8,1.1-2.1,1.5c0.3,0.6,1.4-0.7,2.2-0.4c-0.3,0.5-2,0.7-2.8,1.2c-0.2-0.2,0.1-0.4,0.4-0.5c-1,0.2-0.2-0.6-0.8-0.6
				c-1.3,0.3,0.5,0.3-0.3,0.7c-1.1,0.6-0.9-0.5-2,0.2c-0.5,0.2,0.6,0.4,0.1,0.9c-0.8-0.1-2,1.3-1.6,0.3c-1,0.9-2.2,1.4-3.3,1.9
				c0,0.9,1.2-0.2,1.9-0.4c0.1,0.7-1,0.6-1.6,1c-0.5,0.4-0.6,0.9-1.3,1.1c-0.5-0.4,0-0.7,0.7-1c-0.2-0.3-0.8,0-1.4,0.4
				c-0.1-0.5,0-0.7-0.7-0.6c-0.3,0.3,0.7,0.5,0,1c0,0.5,1.3-0.1,0.7,0.6c-0.6,0.4-0.3,0.1-0.4-0.2c-1.1,0.9-1.5,1-2.7,1.8
				c-0.5-0.7,1.3-0.6,0.8-1.2c-0.8-0.1-0.7,0.3-1.5,0.6c-0.5,0.3,0.3,0.5,0.3,0.4c0.1,0.6-0.9,0.5-0.3,1c-0.9,0.5-1.1,1.4-1.9,1.5
				c-0.1,0.4-0.7,0.9-1.4,1.5s-1.6,1.3-2.3,2c-0.8,0.8-0.8,1-1.7,1.4c-0.2,0.2,0.1,0.4-0.1,0.6c-2.5,2.4-3.3,4.3-5.4,6.3
				c-0.1,0.3,0.2,0.4,0,0.6c-0.3,0.6-0.6,0.3-0.9,1c-0.7-0.2-0.1-0.8-0.2-1.2c0.5-0.2,1.6-0.8,1.7-1.8c-0.5-0.2-0.6,0.8-1.3,1.1
				c-0.1,0.1-0.5-0.2-0.6-0.1c-0.4,0.3-0.7,0.8-1.1,1.2c0.3,0.6,0.6-0.7,0.9,0c0,0.5-0.6,2,0.3,1.2c0.1,0.3-1,2.2-1.3,1.7
				c-0.1,0.7-0.5,1.5-1,2.3s-1.1,1.7-1.6,2.7c-1.1,2.2-2.1,5.1-2.6,7c-0.1,0.7-0.5,0.4-0.7,0.9c0,0.6-0.4,1.2-0.4,1.3
				c0,0.4,0.5,0.6,0,1.4c-0.7,0.3-0.2-0.5-0.3-0.9c0-0.2-0.4-0.5-0.4-0.7c0-0.4,0.9-1.3,0.2-1.4c-0.3,0,0,0.4-0.2,0.8
				c-0.1,0.1-0.9-0.1-0.8,0.9c0.4,0.2,0.3-1.2,0.7-0.6c-0.1,0.7-0.4,1.3-0.7,2c-0.3,0.7-0.6,1.3-0.7,1.9c0.6,0.1,0.6-1.7,1-2
				c0.8-0.2,0.4,0.7,0.9,0.8c-0.2,1.3-0.5,2.5-0.8,3.6c-0.1,0.6-0.3,1.1-0.5,1.6c-0.1,0.5-0.3,1-0.4,1.5c0.1,0.4,0.1,0.8,0.1,1.3
				c0,0.4,0.1,0.9,0,1.3c0,0.9-0.2,1.7-0.3,2.6c0.6,0.2,0.9-0.3,0.9-1c0.4,0.1,0.1,1.2,0.5,1.3c0.7,0,0-0.7,0-1.1
				c0-0.9,0.4-1.8,0.4-2.8c0-0.3-0.3-0.2-0.3-0.6c0-0.9,0.4-1.2,0.6-1.8c0-0.6-0.3,0.3-0.5-0.3c0.6-1.7,0.4-3.8,1.3-5.3
				c0.2,0.4,0.4,0.1,0.6-0.3c0.2-0.4,0.5-0.9,0.8-0.9c0.3-0.6-1-0.1-0.4-0.9c-0.2,0-0.3,0.4-0.4,0.7c-0.4,0.8-0.1-0.5,0.1-0.8
				c0.4-0.5,0.8-0.7,1-1.6c-0.4-0.4-0.5,0.4-0.7,0.9c-0.6-0.2,0.1-0.8,0.3-1.3c0.1-0.5,0.3-1.2,0.5-1.9s0.5-1.4,0.8-2.1
				c0.4,0,0.2,0.5,0,0.9c0.9-0.1,0.5-1.4,0.4-1.8c0.9-1.9,1.7-1.7,2.5-3.4c-0.5-0.5-0.8,1-1.2,1.4c0.2-2.2,2.2-4,3-5.5
				c0.1-0.2,0-0.6,0-0.6c0.2-0.3,0.3,0.2,0.3,0.2c0.3-0.4,0.3-1.1,0.6-1.5c0.6-0.8,1.2-0.7,1.7-1.4c0.2-0.3-0.1-0.4-0.3-0.5
				c1.7-1.8,2.6-3.9,4.2-4.6c0.2-0.2-0.1-0.2-0.1-0.1c0.2-0.4,0.7-1.1,1.3-1.6c0.6-0.5,1.2-1,1.6-1c0.3-0.5,0.7-1,0.8-1.4
				c1.7-1.4,4.3-2.8,6.4-3.8c0.7,0.5,1.5,0.3,1.8,0.9c1.7-1.3,2.7-1.6,4.6-2.6c0.2-0.2,0.2-0.5,0.2-0.7c0.5-0.3,0.9-0.4,1.2-0.4
				c0.5-0.3-0.5-0.3-0.7-0.3c-1.1,0.3-0.9,1.3-2,1.2c0.3-0.5,0.9-1,1.8-1.5c-0.2-0.1-0.3-0.2-0.6-0.1c0-0.4,0.3-0.2,0.5-0.2
				s0.7-0.1,0.8,0.4c0.3-0.1,0.6-0.3,0.9-0.4c0.3-0.1,0.8,0,0.8,0c0.4-0.2,0.2-0.7,1-0.8c0.3,0.6,1.5-0.1,1.8,0.5
				c0.6-0.5-0.6-0.5-0.1-0.9c0.7-0.4,1.2-0.2,0.9,0.2c0.4-0.7,1.9-0.1,1.5-1c-0.4-0.5-1,0.9-1.2,0.4c-0.4-0.5,1-0.6,1.3-0.8
				c0.2-0.1,0.5-0.5,0.6-0.6c0.6-0.3,1.4-0.5,2.2-0.7c0.8-0.1,1.5-0.1,1.8,0c0.3-0.2,0.8-0.3,1.2-0.3c0.5,0,1,0,1.5-0.2
				c0.6-0.2,1.1-0.6,1.4-0.8c-1.2-0.3-2,0.6-3,0.5c0.3-0.7,1.4-0.8,2.2-0.9c0.8-0.1,1.9,0.1,3.1-0.2c0.3,0.5-0.6,0.4-0.7,0.8
				c0.8-0.3,1.2-0.7,2-0.9c0.6,0.5,1.1,0,2.3,0.2c0-0.2-0.3-0.2-0.6-0.2c-0.3,0-0.6,0-0.4-0.3c0.8-0.1,2,0.2,2.1-0.4
				c0.6,0.3,1.5,0.3,1.8,0.9c0.4-0.1,1-0.1,0.8-0.7c0.7-0.2,1.1,0.6,1.1-0.1c1,0,0.9,0.7,1.5,1c0.7-0.1-0.7-0.4-0.2-0.9
				c1.7,0.7,3.3,0.2,4.9,0.8c0.3-0.1,0.3-0.3,0.8-0.2c-0.8,0.6,0.5,0.4,0.6,1c0.4-0.3,2.2-0.1,1.7-0.5c0.4-0.5,0.4,0.3,0.7,0.4
				c0.8,0-0.3-0.5,0.4-0.6c2.4,0.7,4.6,1.2,6.6,1.8c0.4,0.1,0.3,0.3,0.7,0.5c0.6,0.2,1.3,0.1,2.1,0.5c0.2,0.1,0.7,0.4,0.8,0.8
				c0.9,0.3,2,0.8,2.9,1.2c2.7,1.1,4.5,2.5,4.9,4.4c-0.5,0.5-0.7,1-0.2,1.6c-0.2,0.2-0.6,0.1-1-0.3c0.3,0.6-1.2,0.8-0.2,1.5
				c-0.8-0.4-1.2,0.3-1.7,0.3c-0.2,0-0.7-0.6-0.8-0.1c-1.8-1.7-4.3-2.8-6.4-4.1c-0.3-0.2-0.6-0.6-0.9-0.8c-0.6-0.3-1.2-0.3-1.8-0.6
				c-0.4-0.2-0.4-0.3-0.8-0.5c-0.8-0.3-1.4,0.1-1.8-0.6c-0.3,0-0.3,0.3-0.6,0.2c-0.6-0.3-1.3-0.3-1.8-0.5c-0.3-0.1-0.6-0.5-0.6-0.5
				c-0.3-0.1-0.5,0.2-0.8,0.2c-0.6,0-1.1-0.5-1.6-0.5c-0.4,0-0.6,0.2-1,0.2c-0.8,0-1.5-0.2-2.3-0.5c-0.4-0.1-0.5,0.1-0.5,0.3
				c-1.4-0.5-3.3-0.4-5.4-0.4c-0.4-0.3,0.4-0.7-0.4-0.9c-0.7,0.2,0.3,0.7-0.3,0.9c-0.9,0-1.6,0-2.2,0s-1.2,0.1-2.1,0.2
				c0.1-0.2,0.3-0.4,0.7-0.4c-0.8-0.6-1.2,0.5-1.2,0.6c-1.1,0.3,0.3-0.5-0.5-0.5c-0.5,0-0.4,0.3-0.4,0.6l-1.7,0.2
				c-0.4-0.3,0-0.2-0.1-0.7c-0.2,0-0.5,0.1-0.7,0.1c-0.5,0.2,1,0.6-0.4,0.8c-0.9,0.2,0-0.3-0.3-0.6c-0.6,0.1-0.5-0.2-0.9,0.2
				c-0.5,0.1,0,0.8-0.1,1.1c-0.5,0.1-1.1,0.2-1.6,0.3c0.2-0.2,0.2-0.4,0.1-0.7c-0.2,0.3-1.2,0.3-0.8,0.9c-1.2,0.5-1.9,0.3-2.5-0.1
				c-0.5,0-0.8,1.2-1.1,0.3c-0.6,0.3,0.7,0.5-0.5,0.7c0.2,0.1,0.3,0.2,0.6,0.2c-0.1,0.1-1.8,1.2-1.7,0.2c-0.7,0.3-0.3,0.8-1.1,1
				l-0.2-0.5c0,0.3-0.6,0.5-0.7,0.8c-0.6,0.3-1,0-1.3-0.2c0.3,0.8-1.5,1.1-1.7,1.4c0,0,0.6,0,0.7-0.2c-0.9,1-2.7,1.1-4,2.1
				c-0.7-0.3-1.1-0.6-2.2-0.5c-0.7,0.3-0.1,0.7-0.8,0.9c0.9,0.2-0.2,1,0.8,0.8c-0.1,0.4-1.4,0.9-0.5,1.4c-2,1.9-5.1,3.7-6.8,5.7
				c-0.3-0.6,0.8-1.2,1.5-1.8c0.6-0.6,1.4-1.1,1.7-1.7c-0.5,0.1-1.1,0.5-1.5,0.4c-0.8,0.5,0,0.9-0.6,1.5L40.1,34
				c-0.8,0.8-1.4,1-2.1,1.2c-0.2,0.2,0.1,0.4-0.1,0.6L36.7,37c-0.6,0.3-0.3-0.1-0.7,0c-0.7,0.7,0.3,0.1,0.1,0.7
				c-0.4,0.5-1.1,1-0.4,1.2c-1.2,0.8-2.3,2.7-3,3.6c0.1-0.4,0.5-1,0.9-1.5c0.5-0.5,1-1.1,1.3-1.6c0-0.4,0.1-0.8-0.2-1.1
				c-0.5,0.4-0.6,0.8-0.2,1.1c-0.8,0.5-0.9,1.3-1.8,2.3c0-0.4-0.2-0.2-0.4-0.3c-1.1,1.8-2.1,3.5-3.3,5.8c-0.5,0.4-0.3-0.7-0.7-0.1
				c-0.5,0.9,1,0.1,0,1.4c-0.6,0.3-0.7-0.7-0.5-1.4c-0.6-0.2-1,1.3-0.1,1.3c-0.3,0.4-0.3,0.8-0.1,0.5c-1,2.1-2.2,4.8-3.1,7.5
				S23,62,22.8,64.2c0,0.3,0.2,0.2,0.2,0c0.1,0.6-0.2,1.5-0.2,2.6c-0.6,0.1-0.2-0.9-0.7-0.3s-0.2,1-0.3,1.2
				c-0.3,0.6,0.1-0.9-0.2-1.3c-0.3,0.9-0.7,1.6-0.9,2.6c0.8,0.3,1.1,1.2,1.5,2c-0.1,0.5-0.2,1.4-0.7,1.3c0.6,1.3,0,2.9,0.1,5.6
				c-0.2,0.2-0.4,0.3-0.7,0.3C20.8,79,21.1,79,21.4,79c-0.2,1.3,0,2.8,0,4.5c0,2.5-0.5,4.9-0.6,7c-0.1,1,0.3,2-0.2,2.5
				c0.1,0.4,0.3,0.4,0.3,0.8c0,0.7-0.3,1-0.5,1.4c0.6,2.2-0.1,5.1,0.1,8.7c-0.4,0.7-0.3-0.4-0.9-0.3c0,1.3,1.1,1.1,0.8,2.8
				c-0.3-0.3-0.4-0.8-1-0.6c-0.1,1,0.7,1.1,0.1,2c-0.4-0.2-0.1-1.3-0.5-1.4c-0.4,0.7,0.6,1.5,0.3,2.8c-0.5,0.1-0.6-0.4-0.5-1.1
				c-0.6,0.5,0.3,1,0.2,1.7c-0.4,0.1-0.1,1.2-0.4,1.4c0.3,0.8,1.1,1.8,0.9,2.6c-0.2-0.3-0.6-0.3-0.9-0.6c0-0.5,0.2-0.6,0.2-1.1
				c-0.8-0.2-0.5,1.6-0.4,2.2c-0.5,0.1-0.5-0.7-1-0.6c0.2,0.4,0.5,0.7,0.7,1.1c0.1,1-0.5,1-0.7,1.4c0-1.3-0.7-4.5,0.2-5.6
				c-0.1-0.6-0.3,0.3-0.5-0.3c0.1-1.2-0.1-2.9,0.2-3.6c0-0.3-0.2-0.2-0.4-0.3c0-1.7,0.6-2.7-0.1-3.9c0.5-0.8,0.2-3.7-0.1-4.8
				c0.5-0.4,0.4-1.6,0.5-2.5c-0.7-0.1-0.6,1.1-0.9,1.7c-0.7-0.4,0.1-0.6,0-1.4c0-0.6-0.6-0.1-0.9-0.3c-0.2,1.7,0.4,2.3,0.8,3.1
				c-0.2,3.5,0,5.6-0.3,8.1c-0.2-0.7-0.9-0.6-1-1.4c-0.4,0.1,0,1.5-0.4,1.7c0.4,0.1,0.5,0,0.5-0.6c0.5,0.1,0.3,1.4,0.3,2.3
				c-0.3,0-0.7-0.2-0.7,0.3c-0.2,1,0.9,0.2,0.5,1.4c-0.6-0.5-0.4-0.5-0.9,0.3c0.1,0.5,0.4,0.2,0.4-0.3c0.3,0.1,0,0.8,0.3,0.8
				c-0.3,0.7-0.5,1.3-1.1,0.8c-0.1,1.2,0.6,1.2,0.3,2.5c0,1.1-0.8,0.8-0.7,1.9c0.2,0.8,0.4,1.7,1,1.2c0,1.6,0.3,2.3,0.9,2.3
				c0.1,0.8-0.3,0.7-0.2,1.4c-0.4,0.1-0.3-0.4-0.3-0.9c-0.5,0-0.7,0.6-0.9,1.1c0.3,1.1,0.3,0.9,0,2c-0.6,0.3-0.1-0.9-0.7-0.6
				c-0.4,0,0,0.8,0.3,0.6c0,0.9,0.3,1.4,0.1,2.5c0.4,0.1,0.7,0,0.9-0.3c-0.2-0.4-0.2-1.2-0.1-2c0.9,0.2,0.6-1.5,1.4-1.4
				c-0.2,3.2,0.1,8.9-0.3,11.8c-0.8-0.1-0.2-0.7-0.2-1.1c0-2.4,0-6,0.1-8.4c-0.4,0.8-0.3,2.2-0.9,2.5c-0.1,1,0.7,0.4,0.5,1.4
				c0.1,0.6-0.3,0.4-0.4,0.8c-0.3,0.6,0.3,0.8,0.3,0.9c0,0.1-0.2,0.4-0.2,0.6c0,0.4,0.2,0.5,0.2,0.6c0,1.3-0.4,2.2,0,3.6
				c0.1,0.5-0.1,0.5-0.4,0.6c0.1,0.8,0.4-0.3,0.7,0c0,0.7-0.4,0.7-0.5,1.1c0,0.6,0.6,0.1,0.9,0.3c0.1,2.2,0.3,4.3,0.3,6.2
				c0,0.3-0.3,0.4-0.4,0.6c0,0.3,0.1,1.2,0.2,1.7c0,0.6-0.2,1.4,0.2,1.7c-0.1,0.2-0.1,0.8-0.4,0.8c0.5,1.4-0.1,4.6,0.3,6.8
				c-0.6,0.2-0.4-0.7-0.7-0.9c0.2-1.1,0.2-1.7,0-2.8c-0.1-0.5-0.7-0.2-0.5-1.1c-0.6,0.9,0.3,1.7,0.3,2.5c-0.4,0.3,0,1.9-0.7,1.7
				c0.3,0.5,0.8-0.3,1,0.6c0.1,0.8-0.3,0.7-0.2,1.4c0.5,0.3,0.3-0.6,0.4-1.1c0.4,0.4,0.5,1.9,0.5,2.8c0,0.8,0,1.6,0,2.2
				c0,0.4-0.4,0.8-0.4,0.8c0,0.3,0.3,0.4,0.3,0.6c0.1,0.6-0.4,1.1,0.2,1.7c0.1,0.5-0.1,0.5-0.4,0.6c-0.1,0.8,0.4,0.9,0.3,1.7
				c-0.3-0.1-0.4-0.5-0.3-1.1c-0.4,0.2-0.4,0.8-0.7,1.1c0,0.6,0.1,1.3,0.7,1.1c-0.1,0.2-0.5,1.7,0.2,1.4c0.4-0.3-0.2-1.1,0-2
				c0.3,0.3,0.2,0.9,0.3,1.4c0.5-0.2,0.4-1.5,0.9-1.7c-0.2-1.3,0-1.5,0.4-2.2c0.4,0.1-0.7,1.2,0.2,1.4c0.2-0.1,0.2-0.6,0-0.6
				c0.4-0.9,1.1,1.3,1.1-0.8c0.8,0.1-0.4,2.2,0.5,2.5c0.2-1,0.6-1.7,0.6-3.1c-0.1-0.8-0.4,0.4-0.9,0c0.1-0.7,0.7-0.7,1.1-1.1
				c0-0.7-0.3-1.2,0-1.7c0.9,1.1,0.1,2.9,0.5,4.8c-0.3-0.1-0.1-0.9-0.7-0.6c-0.2,1.1,0.8,0.5,0.5,1.7c0.2,0.1,0.3-0.1,0.4-0.3
				c0.3,0.9,0.5,2.1,1.4,2.3c0.1,0.9-0.3,0.9-0.4,1.4c-0.1,1.3,0.2,1.7,0.1,2.8c-0.4,0-0.5-0.3-0.5-0.9c-0.9,0.8,0,3-1.1,3.1
				c0.2,1.2,1,0,1.2-0.5c0.4,0,0.1,1,0.2,1.4c-0.5-0.9-0.8,0.4-1.2,0.5c0.3,1.4,1.1,2,1,4c0.1,0.8-0.4,0.5-0.5,0.8
				c0,0.2,0.2,0.3,0.2,0.6c0.2,0.6,0.5-0.8,0.7,0.3c0.1,0.6-0.3,0.5-0.5,0.6c0.2,0.9,0.5,1.5,0.5,2.8c-0.1,0.7-0.6,0.8-0.4,2
				c0.2,0,0.1-0.5,0.2-0.8c0.5,0.9-0.1,3.9,0.3,5.6c-0.2,0.6-0.9,0.2-0.9,1.1c0.1,0.4,0.2-0.1,0.5,0c0,0.8,0,1.6,0,2.4
				c0,0.7,0.1,1.3,0.2,1.8c-0.5,0-0.9,0.3-0.7,1.2c0.2-0.2,0.1-0.6,0.5-0.5c0.2,0.5-0.3,0.4-0.3,0.5c-0.1,0.5,0.6,1.1,0.1,1.7
				c-0.6-0.8-0.3-1.6-0.5-2.9c-0.1-0.6-0.6-0.5-0.5-1.3c0.3,0.4,0.4-0.1,0.4-0.7c0-0.6,0-1.5,0.2-1.8c-0.2-0.3-0.3-0.6-0.5-0.9
				c0.1-0.7,0.7-0.7,1.1-1.1c-0.5-0.9,0.4-1,0.2-2.2c-1-0.4-0.7,1.7-1.6,0.8c0.3-0.7,0.6-1.4,1.4-1.4c0.2-1.2-0.5-1.3-0.7-0.6
				c-0.3-0.2-0.1-0.6,0.2-0.6c-0.1-1,0.2-1.4,0.4-1.9c0.1-0.5-0.8-0.4-0.5,0.3c-0.5-0.4,0.3-1.2-0.2-1.7c-0.3-0.1-0.3,0.3-0.5,0.3
				c0.2,0.5-0.1,1.8,0.5,1.7c0.2,1.1-0.5,0.8-0.4,2c-0.4,0.1-0.2-0.5-0.5-0.6c-0.4,0.1,0.2,0.5,0.2,0.6c0,0.4-0.4,0.4-0.4,0.8
				c0,0.5,0.4,0.8,0.3,1.4c0,0.4,0.4,0.3,0.7,0.3c0,1.1-0.5,1.3-0.7,1.9c-0.1,0.9,0.4,0.8,0.7,1.1c-0.3,0.6-0.7,0.9-1.1,1.4
				c0.7,0.5,0.7,2,0.9,3.3c-0.6-0.2-0.2,1-0.3,1.5c0.1,0.8,0.9,0.4,0.9,1.7c-0.2-0.2-0.3-0.4-0.4-0.7c-0.4,0.1,0,1.1,0.1,1.2
				c0.1-0.2,0.3-0.3,0.5-0.6c0.4-0.7,0-1.2,0.6-0.8c-0.1-0.7-0.1-1.5-0.1-2.2c0.6,0.4,0.1,1.5,0.4,2.7c0.1,0.4,0.2,1,0.3,1.7
				c0.1,0.7,0.2,1.4,0.3,2.2c-0.6-0.1-0.6,0.4-1,0.4c0,1.3,0.5,1.8,0.4,3c-0.4,0-0.7-0.3-0.9-0.8c-0.4,0.8,0.8,1,1.1,1.6
				c0.3,0.8-0.4,0.7-0.1,1.6c0.1,0.5,0.7-0.3,0.3-0.9c1,0.3,0,0.9,0.1,1.5c0.5,0.9,0.7,0.1,1.2,0.4c0.2,0.9-0.8-0.1-0.6,1
				c0.5,0,0.5,1.2,1.1,0.7c0,0.8,0.9,1.9,0.2,1.5c0.2,0.3,0.3,0.8,0.4,1.2c0.2,0.4,0.3,0.8,0.6,0.8c0.1,0.4-0.3,0.2-0.5,0.2
				c0.2,0.8,0.7,0.1,0.9,0.4c-0.4,0.6,0.5,0.5,0.9,1.8c-0.4,0-0.7-0.2-1.1-0.3c-0.5-1.1-0.9-2-1.3-2.8s-0.7-1.6-1.1-2.3
				c-0.3-0.7-0.7-1.4-1-2.2s-0.6-1.6-0.9-2.7c-0.1-0.3-0.3,0.1-0.3,0.3c-0.4-0.8-0.8-1.7-0.9-2.4c0-0.2,0.2-0.5,0.2-0.8
				c0-0.2-0.3-0.6-0.3-0.5c0-0.4,0.5,0.3,0.2-1.1c1.1,0.3,0.5,1.7,1,2.4c0.2-0.6,0.3-1.3,0.3-2.1s0-1.6,0-2.5
				c0.2,0.1,0.3,0.2,0.5,0.2c-0.3-1-0.9-0.5-1.4-0.1c-0.1,1.1,0.7,0.8,0.8,1.7c-0.8,0-1.8-0.9-1.6,0.8c-0.4-2-1.5-4.9-0.9-7.4
				c-0.5-0.8-0.4-2.6-0.4-4.3c-0.1-0.5-0.7-0.2-0.5-1.1c0.5-0.7,0.8-0.6,1.2-0.8c-0.1-1.4,0-1.1-0.1-2.8c-0.4-0.1-0.5,0.2-0.7,0.3
				c0.4,0.4,0.3,1.6,0.7,2c-1.1,1.7-1.5-1.2-1.2-2.6c0,0,0.3,0.3,0.4,0.3c0-0.1,0-1.7-0.3-1.4c0.1-1.6,0-5.1-0.3-7.6
				c-0.1-1.7,0.2-3.6,0.1-5.1c0-0.7-0.4-1.6-0.5-2.5c-0.1-1.1,0-2.2-0.5-2.8c-0.6,0.1-0.4,1.6-1.1,1.6c0.3,1.3,0.2,3.3-0.6,3.6
				c0.6,0.3,0.9,1.2,1,2.3c0.5,0.3,0.5-0.4,0.9-0.3c0.2,1.7-1,0.9-1.4,0.5c-0.1,0.3,0,1.4-0.2,2.2c0,0.5,0.7-0.4,0.9,0.3
				c0.3-0.1-0.6-1.4,0-2c0.2,0.3,0.3,0.8,0.7,0.9c-0.3,2.1,0,4.4-0.1,7.6c-0.4,0.9,0.1-1.7-0.5-1.4c-0.5,0-0.4,0.9-0.4,1.7
				c-0.1,0.7,0.7,0.2,0.5,1.1c-0.5-0.7-0.7,0.4-0.5,0.8c0.2,0.6,0.8,0,0.2,0.6c-0.5,0.4-0.7,1.3-0.4,1.9c0.4-0.3,0.3-1.2,0.9-1.1
				c0.1,0.9-0.5,0.7-0.5,1.4c0,0.2,0.2,0.3,0.2,0.6c0.5,0.2,0.3-0.6,0.5-0.8c0.4-0.3,0.2,0.8,0.2,0.9c0.1,0.6,0.3,0.7,0.3,1.1
				c0,0.6,0,1.4,0,2.1c0,0.8,0,1.5,0,2.2c-0.5-0.7-0.2-1-0.2-2.1c-0.5,0-0.3,0.9-0.3,1.6c-0.5,0-0.6,0.6-0.9,1.1
				c0.3,0.9,0.5-0.7,1-0.3c0.2,1.5-1,1.1-1.3,1.9c0.1,1-0.1,1.7-0.2,2.5c0.1,0.5,0.6,0.1,0.8,0.5c0.3,1.4-0.7,1.2-0.2,2.8
				c-0.8-0.1-0.6,1.1-1.4,1.1c0.3-1-0.5-1.9-0.9-2.4c-0.2,0.1-0.1,0.7,0,1.1c-0.2-0.2-0.4-0.3-0.7-0.2c-0.1-0.6,0-0.9,0.4-0.9
				c0-0.4-0.8-0.6-0.3-0.8c0.3-0.4,0.4-0.3,0.4,0.5c0.3-0.6,0.9-0.4,1.1,0.2c0.5-0.4-0.4-0.9-0.4-1.6c0.4-0.1,0.6-0.5,1.2-0.4
				c-0.1-0.8-0.9-0.2-1-1c-0.5-0.1-0.1,1.1-0.6,0.9c0.1-0.4-0.3-1.4,0.1-1.4c-0.3-0.4-0.7-0.7-0.6-1.7c0.6,0.5,1.1,0.3,0.9-1.1
				c0.4-0.7,0.5,0.7,0.9,0c-0.2-0.3-0.5-0.5-0.4-1.4c0.3,0.1,0.3-0.2,0.3-0.5c0.4,0.2,1.1,0.6,1.4,0c-0.2-0.5-0.7-0.4-0.5-1.4
				c0.7-0.3,0.4,0.9,1,0.6c0.2-1.1-0.5-0.7-0.7-1.1c0.1-0.5,0.8,0,0.5-1.1c-0.2-0.2-0.6-0.1-0.9-0.9c-0.4,0.2,0.5,0.7,0.2,1.7
				c-0.5-0.4-0.3,0.6-0.5,0.8c-0.1,0.1-0.4-0.1-0.5,0c-0.2,0.1-0.2,0.7-0.5,0.6c-0.1-0.3-0.2-0.8-0.2-1.4c0.2,0.1,0.3,0.5,0.5,0.6
				c0-0.7-0.1-1.2-0.3-1.4c-0.9,0.1-0.7,1.4-0.5,2.5c-0.5,0.3-0.3-0.6-0.3-1.1c-0.5,0.5-0.8,0.8-1.2,0c-0.2,0.1-0.1,0.6-0.4,0.6
				c0,0.7,0.6,0.9,0.2,1.7c-0.8-0.3-0.4-2.6-0.5-4.2c0-0.9-0.3-1.7-0.1-2.5c0.1,0,0.3,0.9,0.2,1.1c0.4-0.9-0.1-1-0.2-1.7
				c0-0.4,0.4-0.8,0.4-0.8c0-0.5-0.4-0.9-0.5-1.4c-0.1-0.4,0.2-0.6,0.2-1.1c0-0.9-0.4-2.1,0-2.8c0.9,0.2,1.2,1.4,0.8,2.8
				c0.6-0.1,0.5-1.3,0.5-2.2c-0.1-0.8-0.3-0.3-0.7-0.3c0.1-0.6,0-0.9-0.3-0.9c0-0.5,0.2-1.4-0.3-1.1c-0.3,0,0.3,1.1-0.2,1.4
				c-0.4-1.3,0-2.9-0.1-4.5c0-0.4-0.3-0.7-0.3-1.1c-0.1-1.2-0.1-2.9-0.1-4.2c0-2.1-0.1-4.5,0.1-5.9c0-0.1,0.3,0.1,0.4,0
				c0.2-0.3-0.3-0.8-0.2-1.1c1.1,0.6-0.3-0.6,0-2c0-0.3-0.3-0.3-0.5-0.3c0.1-1.1-0.1-2.7,0.4-3.1c0.1-0.9-0.5-0.6-0.3-1.7
				c0.6-0.2,0.8,0.2,0.7,1.1c0.5,0,0.5-0.8,0.5-1.7c-0.5-0.2-0.6,0.3-1,0.3c-0.6-13.4,0-26.9,0.1-39.9c0-2.2,0-4,0.1-6.2
				c0-0.4-0.2-0.5-0.2-0.8c0-1,0.2-2.8,0.2-4.5c0-0.9-0.2-1.8-0.1-2.8c0.1-1.3,0.3-5.3,0.1-7.6c-0.1-1.3-0.6-3,0-4.8
				c-0.2-1.4-0.4-2.5,0-3.7c-0.2,0.2-0.2,0.6-0.5,0.6c0.3-2.1-0.1-3.7,0.1-6.2c0.2,0.1,0.3,0.5,0.5,0.6c0.2-1.1-0.6-0.7-0.7-1.4
				c0-0.7,0.8-0.1,0.9,0c-0.1-0.8-0.4-1.2-0.5-2c0.3-0.9,0-1.4,0-2.5c0-0.5,0.2-0.9,0.2-1.4c0-0.7-0.5-1.8-0.3-3.4
				c0.1-0.4,0.4-0.8,0.4-0.9c0.1-0.5-0.6-0.8,0-1.5c0-0.5-0.1-1.3-0.2-2.2c-0.1-0.9-0.1-1.8-0.1-2.5c0-0.6,0.3-1,0.3-1.1
				c0.1-0.5-0.1-0.7,0-1.2c0.1-0.6,0.4-0.5,0.5-0.8c0-0.1-0.1-0.6,0-0.9c0.2-1.3,1-3.1,1.1-4.3c0.1-0.5-0.1-0.9,0.1-1.5
				c0.2-0.2,0.4-0.4,0.6-0.7c-0.2-0.7,0.4-1.8,0.7-2.6c0.2-0.6,0.1-1.4,0.4-2.1c0.2-0.5,0.4-0.5,0.6-1c0.7-1.9,1.6-4.3,2.6-6.3
				c0.2-0.4,0.4-0.4,0.6-0.7c0.5-0.9,0.9-1.8,1.2-2.5c0.4-0.8,0.8-1.4,1.1-1.9c0.4-0.5,0.4-0.2,0.8-0.5c0.9-1.3,1.4-2.6,2.5-4
				c0.3,0,0.6-0.4,0.8-0.1c0.2-0.3-0.1-0.4-0.2-0.6c0.6-0.7,1-1.5,1.5-2.1c0.4-0.7,0.9-1.2,1.7-1.4c0.6-0.8,0.7-0.8,1.5-1.8
				c0.4-0.1,0.8-0.3,1,0.2c1-0.9,0-0.5,0.2-1.1c0.9-1,1.3-0.7,2.2-1.5c0.4-0.4-0.2-0.6,0-0.9c0.7-0.4,1.3-1,2-1.6s1.5-1.3,2.4-1.9
				c0.5-0.3,1.3-0.5,1.9-0.9c0.8-0.5,1.8-1.3,2.8-2c1-0.6,2-1.2,2.7-1c0.2-0.2,0.3-0.5,0.3-0.7c1-0.2,1.6-0.7,2.3-1.1
				c0.7-0.4,1.4-0.9,2.5-1.1c0.2-0.9,1-0.7,2-1.4c0-0.2-0.6-0.3-0.7-0.3c-0.3,0.1-0.4,0.5-0.7,0.6c-0.4,0.2-0.6,0-0.9,0.2
				c-0.4,0.2-0.6,0.6-1,0.8c-0.6,0.3-1.1,0.3-1.7,0.6c-0.7,0.3-1.4,0.9-2.7,1.3c-0.4,0.1-0.9,0.1-1,0.1c-0.3,0.1-1,0.8-1.8,1.2
				c-0.9,0.5-1,0.6-2,1.3c-0.9,0.5-2.2,1.4-3.5,2.4c-0.2-0.2,0.1-0.4,0-0.6c-0.7,0.5-1.5,1.3-1.8,0.7c-0.3,0.2,0,0.4,0.1,0.6
				c0.2,0.3,0.9-0.6,1.3-0.8c-0.3,1.1-2.1,2.1-3.4,3c-0.7,0.3-0.3,1.1-0.8,0.9c-0.7,0.1-0.1-0.3,0.1-0.8c0.2-0.3-0.3-0.2,0.2-0.7
				c0.2-0.1,0.3,0,0.6-0.3c0.1,0.2-0.3,0.5-0.6,0.7c1-0.3,1.4-1.4,2.5-1.8c-0.1-0.5-0.6-0.2-1,0.2c-0.5,0.4-0.9,0.7-1,0.1
				c-1.1,1.3-1,2.2-2.8,3.4c0.2,0.8,1.2-0.8,1.5-0.2c-1,1-1.9,1.8-2.6,2c0.2-0.6,1.4-1.7,0.3-1.5c-0.4,0.5,0.3,0.7-0.5,1.2
				c-0.5-0.9-1.9,1-1.8,1.6c0.4,0,0.9-0.4,1.5-1.1c0.3,0.7-1,1.2-1.5,1.9c0-1-0.9-0.1-1.6,0.2c0.3,0.7,1.2-0.4,1,0.5
				c-0.6,0.5-1,0.1-1.7,0.9c-0.5,0.7,0.5-0.2,0.7-0.2c-1.6,2.5-4.3,5.9-6.3,9.3c-0.2,0.3-1.3,1.2-0.9,1.9c-0.5,0.7-1.2,1.8-1.7,2.8
				c-0.5,1.1-1,2.2-1.3,2.8c-0.4-0.7,0.6-2,1.1-3.2c0.8-1.7,1.7-3.1,2.2-4.4c-0.6-0.2-0.8,0.5-1-0.3c-0.4,1-1.1,1.3-1.1,1.9
				c0.3-0.3,0.5-0.5,1.1-1.2c0.4,1-1,1.6-1.5,2.7c0.3,0.3,0.6-1.3,0.9-0.6c-1.7,3.1-3.5,7-4.8,11.1s-2.2,8.4-2.6,12.2
				c-0.1,0.5-0.3,1-0.3,1.5c0,0.7,0.1,1.2,0,1.9c-0.9,1-1.6,2.2-1,3c-0.4,0.1-0.3,1.2-0.6,1.5c0,0.4,0.3,0.3,0.4,0
				c0.8,5-0.4,10.4,0.3,14.3c-0.1,0.4-0.1,0-0.4,0c0.2,1,0.4,2,0.3,3.4c-0.4,0-0.2-1.1-0.7-1.1c0,0.9,0.6,2.1,0.1,2.8
				c-0.8,0,0.2-1.2-0.5-1.4c-0.1-0.9,0.3-1,0.2-2c0-0.2-0.2-0.3-0.2-0.6C6.3,87.8,6,88,5.9,88.5c-0.2-0.9-1-1.1-1.2-1.2
				c-0.7,0.4,0,1.7-0.4,2.2c-0.6,0.1-0.1-0.9-0.2-1.1c0-0.3-0.3-0.2-0.4-0.3c-0.1-0.8,0-1.9-0.1-3.1C4,84.6,5,84.7,5.1,85.4
				c0.4,0.2,0.7-1,0.4-1.1c0.3-0.9,0.6,0.6,0.9,0.6c0-0.6-0.1-0.9-0.5-0.9c-0.1-0.9,0.5-0.6,0.4-1.7c0.7,0.5-0.2,1.8,0.5,2.3
				c0,1-0.8,2.1-0.2,3.1c0.7,0.4,0-2.2,0.7-1.1c-0.4-1.2,0-1.9-0.5-2.8c0.1-0.5,0.1-1.2,0.5-1.1c-0.5-1.2-0.1-3.5,0.1-5.6
				C6.9,76,6.7,74.5,7,73.6c-0.1-0.4-0.2-0.8-0.3-1.2c-0.1-0.2-0.1-0.4-0.1-0.7c0-0.3,0-0.5,0-0.8c0.3,0,0.4,0.4,0.7,0.3
				c0.1-0.8-0.4-0.8-0.5-1.3c0-0.5,0.1-1.2,0.1-1.7C7,67.6,7,67.1,6.8,66.8C6.5,67,6.4,67.4,6.4,68c-0.3-0.6,0-2-0.3-2.6
				c0.1-1.4,0.8-1.8,1.1-3c0-0.5-0.2,0.1-0.5-0.1c0.1-1.3,0.7-1.6,0.9-3c-0.1-0.3-0.3-0.4-0.2-1c-0.3-0.2-0.4,0.2-0.5,0.5
				c-0.1-1.1,0.3-1.8,0.7-2.4c0.1-0.7-0.4,0.3-0.4-0.4c0.4-1,1.2-0.1,1.4-1.9c-0.2,0.2-0.4,0.7-0.7,0.5c0.6-0.9-0.1-1.3,0.4-1.9
				c-0.1,0.1,0.3,0.5,0.5,0.2c0.1-0.3-0.1-0.9-0.2-0.4c-0.5,0,0.6-1.6,0.1-1.6C8,51,8,53.7,7.2,53.1c-0.1,0.4,0.3,0.4,0.6,0.5
				C7.5,54,7.4,54.5,7.2,55z M3.8,86.3c0.6,0,1.1-0.2,1.1-1.1H3.8L3.8,86.3z M6.1,86.1v-0.8C5.6,85.6,4.9,85.6,5,87
				C5.8,87.4,5.2,85.6,6.1,86.1z M7.1,64c-0.2,0.9-1.1,0.1-0.9,1.8c0.5,0.4,0.5-0.4,0.8-0.5C7.2,65.5,7.4,63.8,7.1,64z M14,198.4
				c0.3,0.6,0.3,1.8,1,1.6c0.1-0.9-0.5-0.5-0.6-1.1c0.4,0,0.9,0,0.8-0.6L14,198.4z M14.4,185.2v-0.8c-0.5,0.2-0.6-0.3-1-0.3
				C13.3,185.1,14,184.9,14.4,185.2z M12.8,185.7c-0.5-0.6-0.8-0.3-1.2-1.4C11.6,185.3,12.4,187,12.8,185.7z M13.6,190.8
				c-0.5,0-1-1.2-1,0.3c0.7-0.3,0.6,0.6,0.9,0.9C13.4,191.4,13.6,191.3,13.6,190.8z M14.7,190.5c0.3,0.1,0.3,0.5,0.5,0.6
				c0.1-0.4,0.3-0.5,0.2-1.1C15,189.9,14.7,190,14.7,190.5z M12.8,189.1c-0.2-0.1-0.3-0.4-0.7-0.3c0,0.5,0,0.9-0.2,1.1
				C12.4,190,12.9,190,12.8,189.1z M15.1,183.8c-0.5,0.9,0.2,1.8,0,3.1c-0.3,0.1-0.3,0.4-0.5,0.6c-0.2,0-0.1-0.5-0.3-0.6
				c-0.2,0.7-0.8,0.6-0.7,1.7c0,0.6,0.3,0.8,0.5,1.1c0.9-0.1,1.5-0.6,1.6-1.9c-0.4-0.2-0.2,0.4-0.4,0.6c-0.2,0.3-0.8,0.8-0.9,0.3
				c0.2-0.7,0.4-1.2,1.1-1.1C15.5,186.1,15.4,184.8,15.1,183.8z M18.4,183.3c0,0.8,0,1.4,0.3,1.7c-0.3-1,0-0.8,0.2-1.7H18.4z
				 M20.6,177.5c-0.1,0.2-0.5,2.2,0.1,2C21.1,179.3,21,177.4,20.6,177.5z M18.7,174.7c0.1,1.4-0.7,2.4-0.2,3.6
				c0.9,0.3,0.8-1.2,0.4-1.7C18.8,175.5,19.3,175.2,18.7,174.7z M18.8,170.7c-0.6,0.9,0.5,2.2,0,3.1C19.7,173.3,19,171.6,18.8,170.7
				z M20.7,169.7c0,1.3-0.8,2.7,0,3.6C20.4,171.9,21.2,170.6,20.7,169.7z M12.9,180.1c-0.1,0-0.2-0.1-0.2-0.3
				c-0.5-0.1-0.6,0.4-0.5,1.1C12.6,181,12.9,180.8,12.9,180.1z M16,179.9c-0.7-0.2-0.2,1.5-0.4,2.2c-0.6-0.5-0.7,0.1-0.7,1.1
				C16.1,183.5,16.1,180.8,16,179.9z M14.8,179.9c0.1,0.9-0.3,0.9-0.5,1.1c0,0.5,0.1,0.9,0.3,1.1c0.1-1.1,0.3-1.2,0.7-0.5
				C15.4,180.9,14.9,179.5,14.8,179.9z M12.2,179.5c0.2-0.8,1.1-0.5,0.9-1.9c-0.4-0.3-0.4,0.5-0.7,0.5c-0.1,0-0.2-0.7-0.5-0.6
				c-0.2,0-0.4,0.1-0.4,1.1C12.5,178.4,11.9,179.1,12.2,179.5z M13.3,173.1c1.1-0.3-0.3,2.3,0.9,1.4c-0.1,1,0.2,1.2,0.3,1.7
				c-0.4,0.9-0.7,1.8-0.9,3.1h0.7c0-1.3,0.1-2,0.7-1.4c0-1.5-0.4-2.5-0.5-3.9C13.7,174.3,14,171.3,13.3,173.1z M10.9,169.9
				c0.1,1.1,0.4,1.9,0.7,2.8c-0.3,1-0.4,2.4-0.4,3.9c0.4,0.1,0.7,0,0.9-0.3c-0.2-0.5,0-1.6-0.3-2c-0.3,0.7,0.2,1-0.2,1.4
				c-0.4-0.8,0-1.8,0.4-2.2c0.3,1.5,0.7,0.5,1,1.4c0,0.5-0.2,0.6-0.2,1.1c0.5,0.1,0.4-0.8,0.9-0.8c0.1,0.1,0.2,1.4,0.3,0.6
				c-0.2-0.9-1-0.9-0.9-2.3c-0.8,0.7-0.8-0.4-0.9-0.9c0,0.5-0.7-0.2-0.7-0.6c0.9,0.1,0.4-2,1.1-2.2h-0.9c0,0.8,0.1,1.7-0.4,1.7
				C11.4,170.9,11.7,169.6,10.9,169.9z M14.1,168.6c-0.1-0.8,0.3-0.7,0.2-1.4C13.5,166.7,13.6,168.7,14.1,168.6z M12.3,166.9
				c-0.1,1.2,0.5,0.4,0.5,0.9c0,0.7-0.1,1.6,0.3,1.7c0.2-1.1-0.3-1.8,0-2.3C12.7,167.4,12.8,166.8,12.3,166.9z M11.5,165.2
				c0,0.5-0.5,1.4,0,1.7c0-0.2,0.1-0.3,0.4-0.3C11.8,165.9,11.9,165.2,11.5,165.2z M11.9,163.2c-0.2-0.9,0.6-0.2,0.4-1.1
				c-0.1-0.4-0.5-0.3-0.3-1.1c-0.6-0.4-0.1,0.9-0.7,0.5c0-0.8,0.7-1.4,0-1.7c0,0.8-0.4,0.9-0.4,1.7c0.3,1.1,0.8,1.7,0.8,3.1
				c0.2,0.1,0.5,0,0.5,0.3c0.2,1.4,0.2-0.8-0.2-0.9c0-0.4,0.7-0.8,0.2-1.1C12.2,163.3,11.9,163.6,11.9,163.2z M13.1,159.9
				c-0.2,0.3-0.2,1-0.2,1.7c0.6,0.4,0.1-0.9,0.7-0.5c0.1,0.9-0.2,1-0.2,1.7c0.3,0.5,0.2,0,0.7,0c-0.2-0.8,0-2.2-0.5-2.5
				C13.6,161.5,13.3,160,13.1,159.9z M12.1,158.7c0.4-0.2,1.6-0.5,1.1-1.4c0,0.5-0.3,0.6-0.7,0.5c0-0.5,0.2-1.4-0.3-1.1
				c0.1,1-0.1,1.6-0.2,2.2c0,0.4,0,2,0.2,1.1L12.1,158.7z M14.3,159.6c0.1-0.4,0.5-2.7,0.2-2C14.2,157.7,13.9,159.3,14.3,159.6z
				 M15.1,157.4c-0.2,0.9,0.6,0.2,0.3,1.1c0,0.4-0.5,0.2-0.4,0.8h0.7c-0.1-1.1,0.2-1.3,0.2-2.2C15.4,157,15.5,158.1,15.1,157.4z
				 M13.3,155.1c-0.6-0.4-0.7,2.4-0.4,1.7C12.8,155.7,13.6,156.2,13.3,155.1z M14.9,154c-0.2,0.8-0.6,1.1-0.5,2.2
				C15,156.4,15.3,154.7,14.9,154z M14.4,150.9c-0.1,0.7-0.7,2.2,0,2.5C14.5,152.8,15,151,14.4,150.9z M12.7,149.8
				c0.1,0.7-0.8,1.3-0.4,1.7C12.6,151.1,13.4,150.1,12.7,149.8z M11.1,149.7c-0.3,0.7-0.1,2.3-0.2,3.4c0.7,0.3,0.1-1.6,0.7-1.4
				c0,0.4,0.4,0.3,0.4-0.3c-0.3-0.2-0.9,0.3-0.9-0.3C11.5,150.9,11.5,150.1,11.1,149.7z M11.4,139.3c0-0.7,0.3-0.8,0.2-1.7
				C11.1,137.3,11.1,139.3,11.4,139.3z M14.8,149c0-0.2,0-0.6-0.2-0.6c-0.2,1.1,0.5,0.9,0.9,1.1v-1.1C15,148.2,15.1,149,14.8,149z
				 M11.5,148c-0.4-0.1-0.5,0.4-0.7,0.8c0.2,0.1,0.3,0.4,0.7,0.3V148z M14.9,144.2c-0.2,1.5,0.3,1.8,0.3,2.8c-0.5,0-0.4-0.8-0.7-1.1
				c-0.5,0.9,0.3,1.5,0.7,2c0.3-1.5-0.1-2.4,0.6-3.4C15.2,144.7,15.3,144.1,14.9,144.2z M12.2,145c-0.1-2.8-0.5,1.1,0.2,1.1
				C12.4,145.6,12.3,145.5,12.2,145z M12.4,141.3h-0.9c-0.2,0-0.1-2-0.3-1.1c0,1.1,0,2.1-0.2,2.8c0.9,0.5,0.3-1.4,1.1-1.1
				c0,0.5,0.2,0.6,0.2,1.1c-0.9-0.2-1.6,2.6-0.6,3.1c0-1.1,0.1-2.2,0.2-2.5c0.9-0.5,0.5,0.9,1,0.9C13,143.1,12.3,142.9,12.4,141.3z
				 M14.9,137.2c0.1,0.8-0.4,0.6-0.4,1.1c0.2,0.6,0.4-0.3,0.5,0.3c-0.3,0.1,0,0.4,0,0.8c-0.6,0.1-0.5-0.5-0.9,0c0,0.4-0.1,1,0.2,1.1
				c0-0.2,0.1-0.3,0.2,0c0.2,1.4-0.5,1.2-0.7,1.9c0.7-0.1,1,0.5,1.7,0.3c-0.2-1.2,0-1.4,0.2-2.5c-0.2,0-0.4-0.1-0.3-0.6
				c0-0.9,0.6-0.8,0.4-2C15.5,137.7,15.5,137,14.9,137.2z M13.9,137.4c-0.4,1.1-0.6,0.5-0.2,1.4c-0.6-0.3-0.5,0.7-1,0.5
				c-0.2,0.6,0.6,1.1,0.5,0.6c-0.2,0-0.2-0.5,0-0.6h0.4c0.1,0.6-0.2,1.8,0.1,2c0.4-0.5,0.1-1.3,0-2c0.7-0.7,0.4-1.7,0.6-2.8
				C13.8,136.4,14,137.1,13.9,137.4z M12.5,134.3c-0.1,0.5-0.1,1.2-0.4,1.4v-2c-0.2-0.2-0.5-0.4-0.9-0.3c-0.3,1.7,0.5,1.8,0.5,3.1
				c0.4,0.2,0.3-0.5,0.5-0.6c0,0,0.2,0.6,0.3,0.6c-0.1,0,0.2-0.5,0.2-0.6c0.2-0.1,0.4,0.6,0.4-0.3C12.3,136.3,13,134.5,12.5,134.3z
				 M14,131.8c-0.3,0.5-0.1,1.9-0.2,2.8C14.8,134.5,14.3,132.6,14,131.8z M13.1,130.9c0-0.1,0-0.3,0.1-0.5c0.1-0.3,0.4-0.2,0.4-0.8
				c0-0.2,0.1-1.1-0.3-1.1c-0.1,0.5,0.2,1.7-0.2,1.7c0.2-1.3-0.4-0.8-0.5-1.1c0.2-0.3,0.2-1,0.2-1.7c-0.8,0.2-0.4,2.2-0.7,3.1
				c-0.2,0-0.2-0.2-0.3-0.3c-0.1,0.9-0.1,0.5,0,1.4c0.7,0.4,0-1.3,0.7-0.8v1.4c0.7,0.3,0.1-1.3,0.5-1.4
				C13.1,130.6,13.1,130.8,13.1,130.9C13.1,131.2,13.2,131.1,13.1,130.9z M13.8,126.5c-0.2,1.5,0.3,0.7,0.3,1.1
				c0.1,1.2-0.4,2.4-0.2,3.4c0-0.4,0.4-0.2,0.7-0.3c-0.5-1.3-0.1-2.3-0.1-4.2H13.8z M14.3,118.9c-0.2,0-0.4,0.1-0.5,0.3
				c0,0.7,0.3,0.9,0.5,1.1C14.5,120,14.5,119.3,14.3,118.9z M12.7,115.8c0.1,0.5-0.2,1.6,0.2,1.7C13.1,117.1,13.2,115.8,12.7,115.8z
				 M11.6,109.6c-0.3,0.6,0,0.4,0,1.1C12.2,110.9,12.3,109.4,11.6,109.6z M13.3,109.4c-0.1,0.6-0.7,2-0.2,2.8
				C13.2,111.5,13.6,109.8,13.3,109.4z M15.7,104.1c-0.1,0.4-0.5,0.2-0.4,1.1h0.5C15.8,104.8,15.9,104.2,15.7,104.1z M15,101.8
				c-0.3,0.9-0.2,2.1,0.7,2c0-0.2,0.5-1.1,0-1.1c0,0.2,0,0.3-0.2,0.3C15.7,102.1,15.2,102.1,15,101.8z M15.7,97.9
				c-0.8-0.1,0,1.1,0,1.7c0,0.7-0.5,1.9,0.1,2.3C15.8,100.6,16.1,98.8,15.7,97.9z M13.8,95.6c-0.2,0.3-0.3,1.7,0.2,1.7
				C13.9,96.8,14.2,95.7,13.8,95.6z M17.7,111.2c0,0.9-0.5,1.1-0.4,2.2C18.2,113.5,18,112,17.7,111.2z M17.9,108.1
				c0.2,0.9-0.7,1.5-0.2,2c0.2-1.1,0.4-0.7,0.7,0C18.3,109.2,18.3,108.4,17.9,108.1z M19.5,104.8c-0.4,0.3-1.1,0.1-1.1,1.1
				C19.1,106,19.2,105.3,19.5,104.8z M18.6,103.9c-0.2,1.5-1-1.1-1.1,0.8C18.1,105.1,19,104.6,18.6,103.9z M18,96.3
				c0-0.3,0.3-0.3,0.5-0.3c0-0.5,0-0.9-0.2-1.1C18,94.7,17.6,96.1,18,96.3z M20.3,94.1c-0.3,0-0.6-0.1-0.7,0.3
				c0.4-0.1,0,0.8-0.2,0.8c-0.3,0-0.1-0.7-0.5-0.6c-0.1,1.3,0.3,2.9,0.1,4.2c-0.1,0.7-0.7,1-0.7,1.7c0-0.9-0.5-2.5-0.9-2
				c0.6,0.6,0.5,2.5,1,2.8c-0.1,0,0.1-0.9,0.4-0.6c-0.1,0.5,0.5,1.2,0,1.4c0-0.3,0-0.8-0.2-0.8c-0.2,0.4-0.2,1.1-0.5,1.4
				c-0.3-0.3-0.4-0.3-0.5,0.3c0.5-0.2,0.2,1,0.9,0.6c0-0.7-0.3-0.9,0.2-1.1c0.5,0.3,1,0.6,1.6,0.9v-1.1c-0.4-0.4-0.6,1.1-0.7,0.3
				c0-0.3,0-1.2,0.2-1.1c0,0,0.1,0.8,0.2,0.6c0.2-0.8,0-1.6,0-2.5c0-0.6,0.5-1.6-0.2-1.7c0,1.3-0.6,1.7-0.7,2.8
				c-0.5-0.8,0.4-1.6,0.5-2.2c-0.1-0.6-0.4-2.1,0-2.5c0.5,0-0.2,1.8,0.5,1.4C19.8,95.9,20.2,95.5,20.3,94.1z M16.4,88.7
				c-0.5,0.1-1.5,1-0.9,1.9c0-0.3,0.2-0.4,0.4-0.6c0.2,0.4,0.2,1.2,0.1,2c-0.5-0.3-0.4,0.4-0.7,0.5c-0.1,1,0.3,1.1,0.1,2
				c0.5-0.2,0.3-0.2,0.9,0L16.4,88.7z M15.8,80.8c-0.1,1,0,1.8,0.1,2.5c-0.4,0.1-0.2-0.8-0.5-0.9c0,0.2,0,0.6-0.2,0.6v0.6
				c0.3,0.1,0.6-0.1,0.7,0.3c-0.8,0.4,0,1.4,0,2.2h-0.5c0.5,1.2-0.6,2.9,0.1,3.1c-0.1-1.2,0.4-2.1,0.9-1.4c0-1.1-0.1-2.1-0.5-2.5
				C15.7,83.8,16.9,81.3,15.8,80.8z M20.9,75c0.3,0.8-0.2,1,0.3,1.4c0.2-0.7,0-0.5,0.2-1.4H20.9z M17.6,73.3c-0.2,0.3-0.2,1-0.2,1.7
				C17.9,75.3,17.9,73.3,17.6,73.3z M16,72.9c0,1.9-0.6-0.3-0.9,0.5c-0.1,1.3,0.1,2.1,0.1,3.1c0.2,0.7,0.5-0.5,0.7,0.3
				C15.5,77.5,15.1,78,15,79c0.2,0.5,0.6,0.8,1,0.9c0-1,0.1-2.3-0.3-1.1c0.1-1,0.5-1.5,0.5-2.5C15.5,75.6,16.5,73.8,16,72.9z
				 M15.1,72.6c0-0.3,0.2-0.2,0.4,0c0-0.7,0.5-0.6,0.5-1.4C15.8,70.7,14.6,72,15.1,72.6z M98.1,25.1c0.3,0.1,0.6,0.3,0.7,0.2
				c-0.7-0.5,1-0.5-0.1-0.8C98.4,24.5,98.5,24.7,98.1,25.1z M88,16.7c1.1,0.3,1.6,0.7,2.6,0.5C90.3,17,88.6,16.5,88,16.7z
				 M75.8,19.5c0.7-0.1,0.9,0.2,1.4,0.2C77.3,19.2,75.8,19,75.8,19.5z M72.2,19.7c0.6-0.4,1.4,0.3,1.9-0.2
				C73.8,19.3,72,19,72.2,19.7z M50.1,25.5c0.1-0.3-0.1-0.7,0-1c-0.3,0.2-0.6,0.3-0.9,0.4C49.5,25.4,49.6,25.8,50.1,25.5z
				 M38.6,28.8c0.7-0.7,0.9,0.3,1.7-0.7c-0.2-0.5-1,0.2-0.7-0.5C39,28,38.6,28.4,38.6,28.8z M38.5,34.8c0.4-0.7,0.6-0.2,0.9-0.4
				c-0.3-0.4-0.7-0.1-1.1-0.2c-0.2-0.3,0.3-0.6-0.1-0.8C37.1,34.3,38.1,34.1,38.5,34.8z M29.5,45.1c0.4-0.6,0.6-1.1,0.5-1.4
				C29.6,44.4,28.8,44.6,29.5,45.1z M23.4,49.1l0.5-1.2C23.4,47.4,22.7,49,23.4,49.1z M25,52c0.2-0.6,0.6-1.3,0.3-1.5
				C25.1,51,24.3,52,25,52z M23.1,55.5c0.4-0.8,0.3-2.1-0.2-1.7C23.1,54,22,55.6,23.1,55.5z M19.1,60.5c0.5-0.1,0.9-0.6,1.1-1.6
				C19.4,58.2,19.3,59.6,19.1,60.5z M21.7,65.8c0.6-0.7,0.2-1.6,0.9-2.3c-0.4-0.2-0.3,0.4-0.5,0.7C21.8,64.7,21,65.5,21.7,65.8z
				 M16.3,69.4c-0.1-1.2-0.4-1.9-0.9-2.5c0,0.8-0.7,1.9-0.2,2.4C15.3,68.7,16.2,69.2,16.3,69.4z M16.3,62.6
				c-0.7-0.3-0.4,1.5-0.7,2.1c0,0.4,0.2,0.6,0,1.1c-0.4-0.2-0.6,0-0.6,0.8c0.5,0.3,0.4-0.7,0.9-0.4c-0.2,1,0.2,1.2,0.4,1.7
				C16.3,66.2,15.9,64,16.3,62.6z M20.6,48.9c-0.1,0.2-0.3,0.2-0.4,0.1c-0.2,0.8-0.1,0.5-0.5,1.3C20,50.7,20.7,48.8,20.6,48.9z
				 M22.6,44.2c-0.3,0.5-0.4,0.9-0.2,1.1c0.2-0.3,0.5-0.3,0.7-0.9L22.6,44.2z M23.6,42.6c-0.6,0-1.2-0.2-1.7,0.9
				c0.4,0.6,0.4-0.1,0.9-0.1c0,0,0,0.5,0.3,0.2L23.6,42.6z M34.3,27.9c-0.6,0.5-1,1-1,1.4c0.6-0.6,0.9-0.3,1.4-0.8L34.3,27.9z
				 M122.1,40.6c-0.2,0.3-0.7-0.2-1.3-0.7c0.3,0.4-0.2,0.5,0.3,1C121.4,41,122.7,41.5,122.1,40.6z M125.3,45.4
				c-0.1-0.2,0-0.3,0.2-0.4c-0.3-0.8-0.7-0.6-1.1-0.9C124.7,44.5,124.9,45.6,125.3,45.4z M133.9,181.3c-0.1-0.7,0.8-1.1,0.2-1.7
				C134,180,133.4,180.9,133.9,181.3z M132.7,185.5c0-0.5,0.2-0.6,0.5-0.6c0.1-0.9-0.3-1-0.1-2c-0.3-0.1-0.8,1.4-0.7,1.7
				c0,0.1,0.4,0,0.4,0.3C132.4,184.9,132.1,185.7,132.7,185.5z M133.6,190.3c0.4,0.1,0.7-1.4,0.4-1.7
				C133.9,189.2,133.7,189.7,133.6,190.3z M91.7,251.6c-1,0.1-0.8,1.1,0.2,0.7L91.7,251.6z M98.5,248.8c-0.2-0.5-0.9-0.1-1.7,0.1
				C96.8,249.6,97.7,249.2,98.5,248.8z M107,259.5c-0.5-0.1-0.3-1.1-1.3-0.5c-0.2,0.3-0.2,0.6,0.1,0.9
				C106.3,259.7,106.5,259.8,107,259.5z M114.7,255.6c-0.1-0.4-0.6-0.1-0.8-0.1c0-0.5,0.1-1.1-1-0.4c0.1,0.2,0.3,0.3,0.5,0.3
				c-0.6,0.4-0.8,0.7-0.6,1C113.8,255.6,114.1,255.8,114.7,255.6z M106.8,241.3c-0.5,0.6-2.3,1-1.8,1.6c0.5,0.3,0.1-0.6,0.8-0.7
				c0.1,0.2,0.3,0.3,0.6,0C105.8,241.9,107.1,241.7,106.8,241.3z M116.4,252.8c-0.6,0.5-1.5,1.5-0.9,1.7c1-0.8,1-2,2.4-2.3
				C117.9,251.5,116.9,252.4,116.4,252.8z M119.1,249.7c-0.2,0.6-1,1.3-0.7,1.8C119.7,250.8,120.4,249.1,119.1,249.7z M121.4,227.3
				c0.4-0.5,0.8,0,1.2-0.8C122.3,226.2,121.2,226.9,121.4,227.3z M134.4,211.2l0.7,0.2l0.2-0.8C134.9,210.3,134.6,210.4,134.4,211.2
				z M136.3,175.8c-0.1,0.8,0.1,2.7,0.3,2.3C136.4,177.5,136.5,175.3,136.3,175.8z M137.5,172.2c-0.1,0.7-0.7,0.6-0.5,1.7
				C137.4,173.8,137.9,172.6,137.5,172.2z M135.1,169.6c0.7,0.1,0.1-1.6,0-2C135,168.3,134.8,169,135.1,169.6z M137,159.2
				c0.1,0.8-0.4,0.5-0.5,0.8c-0.1,1.1,0,2.1,0.3,2.5c-0.3,0.1-0.2,0.6-0.4,0.8c0.6,1.5,0.3,3.7,0.1,5.3c0.3-0.3,0.1,1.6,0.3,0.6
				c0-0.5-0.2-0.6-0.2-1.1c0.4-0.1,0.6-1.1,0.7-1.7c0.1-0.5-0.2-0.7-0.2-1.4s0.4-1.6,0.4-2.2c0-0.4-0.2-0.4-0.2-0.9
				C137.5,161.3,137.7,159.3,137,159.2z M136.7,125.3c-0.1,0.7-0.5,1.3-0.6,1.9c-0.1,0.8,0.3,0.9,0.3,1.4c0,0.3-0.2,0.2-0.2,0.3
				c0,0.3,0.2,0.3,0.2,0.3c0.1,1.4,0.1,2.2,0.7,2.6c0.2-1-0.3-2.7-0.3-4.2C136.8,126.7,137.4,125.6,136.7,125.3z M129.9,86
				c-0.1,0.7-0.4,1.2,0,1.7C130.5,88,130.3,85.9,129.9,86z M131.1,91.1c0.4-1.1-0.8-1.1-0.9-0.6C130.8,90.3,130.4,91.5,131.1,91.1z
				 M132,89.7c-0.1,0.7-0.6,0.5-0.5,1.4C131.9,92.6,132.8,90.3,132,89.7z M135.9,124.7c0.5,0.1,0.5-0.6,1.1-0.5c0,0.2,0,0.6,0.2,0.6
				C137.1,123.2,136,122.9,135.9,124.7z M144.4,108.9c-0.3,0.5-0.1,1.7,0.1,2.3C144.4,110.1,144.9,109.5,144.4,108.9z M144.1,101.3
				c0.4,1.1-0.2,1-0.4,1.9c0.4,0,0.5,0.5,0.9,0C144.3,102.8,144.7,101.3,144.1,101.3z M143.7,85.3c-0.2,0.3-0.3,1.4,0.2,1.4
				C144.1,86.4,144.2,85.4,143.7,85.3z M134.5,86.5c-0.4,1,0.1,1.3,0.1,2.3c-0.7-0.3-0.2,1.1-0.2,1.1c-0.1,0.6-0.5,0.7-0.5,1.4
				c0.8-0.2,0.3,1.5,0.9,1.7c-0.1,0.5,0.2,1.4-0.4,1.1c-0.1-0.9,0.4-1.1-0.2-1.4c-0.2,0.5-0.3,0.9-0.2,1.4s1.2,2.4,0.3,2.5
				c0-0.2-0.1-0.3-0.2,0c0.5,0.4-0.8,1.6,0.1,2c0.2-0.2,0-1.1,0.4-1.1c0,1.3-0.5,2.3,0.1,3.1c0,0.2-0.5,0.4-0.5,0.6
				c-0.1,0.2,0.1,1.8,0,2c0,0-0.4-0.1-0.4,0c-0.1,0.6,0.3,1.2,0.2,1.7c-0.2,0-0.5-0.1-0.5,0.3c0.4,0.6,0.6,0,0.9-0.3
				c0.2,1.2,0.7,0.3,0.9,1.7c0,0.6-0.5,0.3-0.4,1.1c0.3,0.2,0.3,0.8,0.3,1.1c0.2,1.7,0.2,3.7-0.1,5.6c0.3,0.3,0.6,0.4,0.5,1.1
				c0.1,3,0.2,4.4,0.3,7.6c1.3,0.3,0.4-2.1,0.4-3.1c0-1.7,0.3-3.3,0.4-4.8c-0.3,0-0.4-0.2-0.5-0.6c0.3-2.4-0.1-3.7-0.3-5.9
				c0.4-0.2,0.6,0.8,0.5-0.3c-0.3-0.3-0.4-1.1-0.7-1.4c0.2-2.1-0.3-4.1,0.2-5.1c-0.3-1.1-0.3-2.3,0-3.1c-0.9,0.3-0.4-1.4-0.7-2
				c0.4,0.1,0.3,0.8,0.7,0.9c-0.3-1,0-1.3,0-2.5c-0.7-0.5-0.1,1.2-0.5,1.1c-0.6-0.2,0.1-1.3-0.1-2.5c-0.2,0-0.4-0.1-0.3-0.6
				c0.6,0.6,0.1-0.1,0.2-0.8c0.1-1.2,0.1-2.1-0.3-2.5c0.3,0,0.5,0.1,0.7,0.3c0.2-1-0.4-0.9-0.5-1.4c0.1-1.8,0.1-3.5,0.6-3.9
				c0.2,0.1,0.4,0.5,0.5,0c-0.2-0.4-0.7-0.5-0.9-0.9c0-0.8,0.8-1.3,0-1.7c-0.3,1.2,0.1,2.2-0.4,2.5c-0.2-0.5-0.2-1.3-0.3-2
				c-0.2-1.2,0.1-0.4,0.2-1.4C133.7,80,134,86.6,134.5,86.5z M133.7,73.2c0.6,0.2,0.6-1,0.4-1.4C133.5,71.6,133.5,72.8,133.7,73.2z
				 M129.8,65.4c0.1,0.7,0.2,1.7,0,2c0.3-0.2,1-1,0.6-1.3c0,0.2,0,0.3-0.2,0.3C130.2,65.9,130,65.6,129.8,65.4z M131.3,63.4
				c-0.3,0.4,0,1.4,0.4,1.5C131.9,64.5,131.7,63.6,131.3,63.4z M132.1,62.5c-0.7,0.1-0.4,0.7-0.2,1.4
				C132.5,64.1,132.1,63,132.1,62.5z M141.8,60.3c-0.3,0.9,0.6,1.4,0.8,2.1C142.6,61.3,142.3,60.6,141.8,60.3z M142.7,59.6
				c0.6,0.1,0.4-0.8,0.3-1.7C142.4,57.9,142.5,58.7,142.7,59.6z M140.8,55.4c0.1,0.8,0.3,1.5,0.7,1.5
				C141.7,56.4,141.4,55.1,140.8,55.4z M131.7,54.4c0,1.1,0.6,0.4,0.7,1.2c0,0.3,0,1,0.1,1.6s0.2,1.2,0.6,1.3c-0.1-1-0.7-2-0.4-2.4
				c-0.1,0.1,0.4,0.8,0.2,0.2C132.4,56,132.4,53.9,131.7,54.4z M139.8,51.5c0.4,0.8,0,0.8,0.3,1.5c0.3,0,0.5-0.2,0.6-0.5
				C140.4,51.8,140.1,51.7,139.8,51.5z M128.2,46.7c0.9,1.1,0.5,2.2,1.2,2.4c-0.1-0.8,0.5-1.1,0.1-2.1c-0.4-0.2-0.5-0.1-0.6,0.3
				C128.7,46.9,128.5,46.7,128.2,46.7z M128.1,43.7c0.3,0.7,0.6,0.7,1,0.4C128.8,43.5,128.2,43.1,128.1,43.7z M119.7,31.1
				c0.1,0.2,0.1,0.3-0.1,0.4c0.4,0.7,1.4,1.3,1.3,1.5c-0.3,0.2-0.8-0.9-1.1-0.5c0.4,1,0.7,0.7,1.4,1.4c0.2-0.7,0.6-0.3,0.7-0.9
				C120.9,32.3,120.2,31.6,119.7,31.1z M106.3,21.4c0.4,0.2,0.4,0.5,0.8,0.7c0.1-0.5,0.6-0.2,0.7-0.6
				C107.1,21.1,106.7,21.3,106.3,21.4z M103,19.4c0.5,0.4,0.6,1,1.2,1.1c0.1-0.2,0.1-0.4,0-0.6c1.1,0,1.2,1.2,1.9,1.1
				c0.1-0.6-1.3-1.1-1.8-1.7c-0.2,0.2-0.3,0.6-0.6,0.5c0.1-0.3-0.7-0.6-0.8-0.8C101.1,18.6,102.3,18.8,103,19.4z M67.3,1.3
				c1.3-0.2,1.8,0.2,2.6-0.4c-0.4,0-0.2-0.2,0-0.4C68.8,0.9,67.6,0.1,67.3,1.3z M66.7,1.7c0,0.2,0.6,0.1,0.6-0.1
				c-0.7-0.1-0.7-0.6-1.7-0.5C65.4,1.7,66.5,1.4,66.7,1.7z M62.1,2C62.6,2.2,64,1.8,64,1.3C63.2,1.7,62.5,1.3,62.1,2z M57.5,9.2
				c0.7-0.4,1.6-0.6,1.9-1C58.1,8.3,58,8.6,57.5,9.2z M54.6,3.9C55.8,3.7,56,3.7,56.4,3C55.6,2.9,54.6,3.4,54.6,3.9z M37.4,17.5
				c0.6-0.4,1.2-0.8,1.4-1.1c-0.2-0.3-0.5-0.4-0.9-0.3C38.6,16.5,37.5,17,37.4,17.5z M35.7,18.3c0.2,0,1.2,0.1,1.1-0.5
				c-1.1-0.2,0.6-0.5,0.8-1C36.9,15.9,35.7,17.8,35.7,18.3z M24.1,24.7c0.5-0.1,1.8-1.3,1.4-1.7C25.2,23.9,24.2,24,24.1,24.7z
				 M16.7,34.2c-0.1-0.2-0.1-0.5,0.2-1c-0.4-0.5-0.8-0.1-1.2,0.3c0.3,0.2,0.2,0.5-0.2,1C15.8,35,16.3,34.6,16.7,34.2z M14.5,36.2
				c0.5,0.1,0.9-0.1,1.4-0.3C15.4,35.8,15,34.8,14.5,36.2z M17.4,38.1c0.3-1.2,1.9-2.8,1.4-3.5c-0.5,0.3-0.1,0.4-0.4,0.9
				c-0.2,0.4-0.6,1-1,1.5C17.2,37.4,17.1,37.9,17.4,38.1z M11.5,46.8c0,0.6-0.3,1.4,0.1,1.7c0.2-0.9,0.5-0.7,0.7-1.4L11.5,46.8z
				 M11.1,44.9c0.4-0.6,0.5-1.1,0.5-1.5c-0.3-0.4-1.2-0.2-0.9,0.3C11.2,43.1,11.1,44.5,11.1,44.9z M8.8,49.4c0.1-0.4,0.4-1,0.6-1.5
				c0.2-0.5,0.3-0.9,0-1C9.1,47.7,8.1,49.4,8.8,49.4z M8.9,49.5c0.4,0.1,0.6-0.5,0.9-1.3c0.3-0.8,0.5-1.6,0.8-2.1
				c-0.3-0.2,0.3-1-0.1-1.1C9.7,47,9.9,47.5,8.9,49.5z M134.4,103c0.5,0.2,0.7,0.8,0.7,1.7c-0.2-0.1-0.4-0.4-0.3-0.8
				c-0.1-0.1-0.2,0.1-0.2,0.3C134.4,104.1,134.5,103.4,134.4,103z M16.8,188.1c-0.6-0.2-0.2-1.1-0.2-1.7
				C17.1,186.7,16.9,187.5,16.8,188.1z M98.5,18c-0.7,0-2.9-0.6-3.5-1.3c0.2-0.7,0.4,0.2,0.8,0.3C96.6,16.9,97.8,17.6,98.5,18z
				 M61.3,14.1c-0.8,0.4-1.8,0.5-3.4,1C58.8,14.6,60.3,14,61.3,14.1z M7.3,163.1c-0.9-0.4-0.4-2.5-0.3-3.7c0.1-0.8-0.3-2.1,0.4-2.2
				C7,159.2,7.2,161.6,7.3,163.1z M12.8,196.7c0-0.5-0.2-0.6-0.2-1.1c0.4-0.3,0.9-0.5,1.4-0.5C13.8,195.9,13.4,196.6,12.8,196.7z
				 M6.7,168.7c-0.4-0.7,0-2.5-0.1-3.6C7,165.9,6.7,167.6,6.7,168.7z M7.7,143.7c0,1.6,0,3.5-0.1,4.8c-0.8-2.7,0.2-5-0.1-8.7
				C7.9,139.2,7.7,142.6,7.7,143.7z M11.9,198.4c-0.1-1,0-1.9-0.1-2.9C12,196.1,12.6,198.3,11.9,198.4z M13.4,206.4
				c-0.5-0.3-0.5-0.9-0.5-1.7C13.4,205,13.4,205.6,13.4,206.4z M12.4,201.9c-0.5-1.1-0.2-1.8-0.1-2.9c0.3,0.4,0.5,1.3,0.5,2.3
				C12.5,201.3,12.4,201.5,12.4,201.9z M16.1,175.1c0.2-1.2-0.4-1.1-0.3-2c1.1-0.6-0.1-1.8,0.2-2.5c0.1,0.1,0.3,0.3,0.5,0.3
				c-0.1,0.6,0.2,1.9-0.2,2C16.4,173.5,17,175.2,16.1,175.1z M129.9,151.5c-0.2-1.8-0.1-3.7,0.1-5.9c0.3,1.5,0.3,3.4,0.3,5.3
				C130.3,151.4,130.1,151.4,129.9,151.5z M133.5,30.6c0.4,0.6,0.9,1.3,1.3,1.9C134.5,32.5,132.8,30.8,133.5,30.6z M146.4,203.5
				c0.3,0.1,0.3,1.4,0.2,2.1c-0.1,0.5-0.5,1.8-0.8,1.5C146.3,205.8,146.1,205.3,146.4,203.5z M141.2,44.6c0,0.8,0.7,2.2,1.1,3.5
				c0.4,1.3,1.3,2.9,0.7,3.2c-0.1-1.1-0.8-2.5-1.3-3.8S140.8,45.1,141.2,44.6z M145.6,118.2c0.6-0.9,0.2,2.1,0.5,2.5
				c-0.2,0-0.1,0.5-0.2,0.8C145.2,121.2,145.9,118.6,145.6,118.2z M144.3,64.5c0.1,0.8,0.1,1.7-0.4,1.6
				C143.8,65.2,143.7,64.4,144.3,64.5z M138.9,43.1c0.4-0.3,0.6,1.7,1,1.3c-0.3,0.4,1.1,2.3,0.3,2.3
				C139.7,45.5,139.7,44.5,138.9,43.1z M134.1,34c0.9,1.2,0.6,1.7,1,2.7c0,0-0.5-0.7-0.8-1.4C133.9,34.7,133.6,34.1,134.1,34z
				 M138.6,44.3c0.4,1,0.9,2.1,0.3,2.3C139.1,45.9,138,44.4,138.6,44.3z M139.6,48.3c0.7,0-0.2-1.3,0.5-1.2c0.4,1-0.2,1.2,0.2,2.3
				C140.1,49.4,139.8,49,139.6,48.3z M130.3,165.2c-0.6-0.5-0.3-2.1-0.3-3.1c0-2.6,0-4.7,0.1-7c0-1.2-0.6-2.7,0.2-3.1
				c-0.4,2.2,0.1,4.6,0.1,7C130.3,160.9,130.1,163,130.3,165.2z M130,140.8c0-0.5-0.2-2.1,0-2.8C130.5,138.7,130.3,139.9,130,140.8z
				 M130.4,124.5c-0.3-0.4-0.3-1.2-0.3-2C130.7,122.3,130.2,123.9,130.4,124.5z M130.2,137.4c-0.7,0.1-0.3-3.1-0.1-3.6
				C130.5,134.5,130.1,136.3,130.2,137.4z M130.5,186.3c-0.4-0.9-0.2-1.6-0.1-2.8C130.8,183.9,130.4,185.4,130.5,186.3z
				 M129.6,207.5c-0.5-0.4,0.1-0.9,0.2-1.5c0.3-2.2,0.7-5.3,0.8-7.4c0.9,0.5,0.2,1.7,0.1,2.3C130.5,202.7,130.4,204.7,129.6,207.5z
				 M130.2,168.9c-0.6-0.4-0.4-3.4,0-3.1C130,166.6,130.3,167.5,130.2,168.9z M130.6,182.9c-0.5,0-0.4-1.3-0.2-1.7
				C130.8,181.3,130.5,182.4,130.6,182.9z M111.6,10.5c0.8,0,2.3,1.4,3.4,2C114.2,12.5,112.7,11.1,111.6,10.5z M5.3,95.6
				C5,95.3,5,94.4,4.7,93.9c-0.2,0.1-0.3,0.2-0.4,0.6c-0.6-0.5,0.4-0.4,0.2-1.1C4.9,93.9,5.5,95,5.3,95.6z M4.8,102.4
				c-0.9-0.3-0.3-1.4-0.1-2.3C5.1,100.3,4.7,101.7,4.8,102.4z M2.8,93c0-0.8,0-1.7,0.5-1.7C3,91.6,3.5,93.3,2.8,93z M3.3,99.5
				c-0.5-0.4,0-1.7,0.2-2c0-0.7-0.3-0.9,0-1.4C4,97.1,3.5,98.7,3.3,99.5z M4.2,93.4c-0.4-0.3,0-0.9-0.2-1.4c0-0.2-0.3-0.2-0.4-0.3
				c-0.1-0.4,0.2-0.5,0.2-0.8s-0.7-0.8-0.5-1.7c0.5-0.3,0.3,0.6,0.3,1.1C4.2,90.2,4.3,91,4.5,90c0.6,0.4-0.2,0.6-0.2,0.8
				c0,0.4,0.3,0.1,0.4,0.3c0.1,0.4-0.4,1.1-0.2,2C4.4,93,4.3,93.2,4.2,93.4z M4.2,77.6c0.1-1.4-0.6-1.7-0.3-3.4
				c0.4,0.1,0.3-0.4,0.4-0.8C5,74.1,5,75.8,4.4,76.8c0.4,0,0.6-0.5,0.9,0c-0.1-1.2-0.1-4.5,0.9-4.8c0,1.2-0.5,1.7-0.6,2.8
				c-0.1,0.3,0.5,1,0.5,0.3c0.6,1.8-0.3,4.9,0.1,6.5c-0.6-0.5-0.5-2-0.7-2.6c-0.4-0.2-0.7,1-0.4,1.1c-0.4,1-0.4-1.1-0.3-1.7
				c0.3-0.5,0.5,0.1,0.9,0.3c0-1,0.3-1.5,0.3-2.4c-0.7-0.3-0.4,0.9-0.5,1.1c-0.1,0.1-0.3-0.4-0.4-0.3c-0.1,0.2,0,1.1-0.5,0.8
				C4.6,77.7,4.4,77.7,4.2,77.6z M1.6,93.3c-0.1-1.1-0.6-2.1-0.8-3.1c-0.2-0.7,0.3-0.4,0-1.1c-0.6-1.5-0.7-3.9-0.8-7
				c0.2-0.3,0.2-0.9,0.5-1.1c0.8-0.1,0.4,1.6,1.2,0.9C2,82.8,1.6,83,1.9,84c0.8,0,0.5-1.7,0.6-2.8c0.3,0,0.4,0.3,0.7,0.3
				C2.5,83,3,84.8,2.9,86.9C2.6,87,2.6,86.5,2.6,86c-0.1-0.6-0.5-0.9-0.9-1.2c-0.5,1,0.1,0.9,0.3,1.4c0,2.3-0.6,4.3,0,6
				C1.7,92.4,1.7,92.8,1.6,93.3z M1.3,87.9c0.3-0.1,0.2-0.6,0.4-0.8C1,86.9,1.2,88.2,1.1,89C1.2,91,1.4,88.8,1.3,87.9z M3.9,80.2
				c0.1,0,0.1,0.5,0.3,0.5c0.4,0,0.1-1.2,0.2-1.7c-0.2,0-0.1,0.3-0.2,0.6c-0.6,0.1-0.8-0.8-0.7,0.5c-0.5-0.6-0.3-0.8-0.2-1.7
				c0-0.2,0.2,0.6,0.2,0.6c0.2,0.1-0.1-1.6,0-2c0.4-0.1,0.3,0.4,0.3,0.8c0.7,0.8,1.1,2,1,4c-0.1-0.2-0.3-0.3-0.5-0.3
				C4.5,82.1,5.1,82,5,83.2c-0.5-0.1-0.8,0.1-0.7,0.8c-1-0.3-0.6-1.8-0.8-2.8c0.5,0,0.4,0.5,0.7,0C4.1,80.9,3.7,81,3.9,80.2z
				 M6,103.2c-0.3-0.1-0.1-0.8-0.3-0.8c0-0.7,0-1.6,0-2.3c0.1-1,0-2.2,0.6-2.2c0.1,0.7-0.3,0.6-0.2,1.4h0.5c0.6-0.8,0.1-1.6,0.2-3.1
				c0.7-0.3,0.3,0.9,0.3,1.4c0.1,0.4,0.3,1,0.3,1.4c0.1,1.4-0.1,2.9,0.1,3.9c-0.4,0.7-0.3-0.4-0.9-0.3c0.7-0.2,0.6-2.4,0.4-3.4
				c-0.5,0.2-0.8,0.8-0.9,1.7c0.4,0.2,0.6-0.1,0.5-0.8C7.3,101.3,6.2,102.2,6,103.2z M3.9,73.4c-0.8-1.2,0.4-1.3,0.3-3.3
				c-0.3,1.4-0.6,0.6-0.7-0.7c0.8,0.2,0.3-1.3,1-1.9C4.6,67.8,4.9,69,5,67.6c0.6,0.4,0.1,1.6,0.1,2.6C4.7,70,5,68.5,4.3,68.9
				c0,0.3,0.2,0.3,0.3,0.3l-0.1,2.3c0,0.3,0.2,0.1,0.4,0.1s0.4,0.1,0.3,0.8C4.6,72.9,3.9,71.2,3.9,73.4z M4.4,111.6
				c-0.1,1-0.5,0.7-0.2,1.7C3.5,113.4,4,111.4,4.4,111.6z M64,254.8c0.4-0.1,1,0,1.6,0.1c0.7,0.1,1.4,0.3,2,0.3
				C66.9,255.5,65.1,254.9,64,254.8z M4.7,111.9c-0.2-0.6-0.3-1.3-0.9-1.4c0.1-1,0-2.2,0.6-2.2c-0.4,0.6-0.1,1.9,0,2.5
				c0.2,0,0.1-0.3,0.2-0.6C4.9,110.5,5,111.5,4.7,111.9z M67.2,264.1c-0.1,0.3-0.6,0.3-1.3,0.2c-0.1,0.5,0.5,0.4-0.1,0.7
				c-1.3,0.2-2.6-0.1-3.9-0.3c-1.1-0.1-2.1-0.2-3.2-0.4c-0.5-0.1-1.1-0.2-1.7-0.3c-0.5-0.1-1.1-0.3-1.7-0.4
				c-0.5-0.1-0.8-0.4-0.9-0.5c-3.1-1-6.4-1.6-9.5-2.9c-0.5-0.2-1.2-0.8-1.7-1c-0.3-0.1-1-0.1-1.3-0.3c-0.5-0.2-0.9-0.7-1.4-0.9
				c-1-0.5-2.2-1.1-3.3-1.8c-1.1-0.7-2.3-1.4-3.2-2.1c0.5-0.2-0.1-0.6,0.3-0.9c-1.2-0.6-0.1,0.3-0.5,0.7c-2.1-1.3-2.9-2.2-4-2.4
				c-0.8-0.2-0.6-0.7-0.9-1c-0.5-0.5-1.4-0.5-1.7-1.5c-0.5,1.1-1-0.4-1.7-0.6c0.4,0.6,0.3,1,0.4,1.5c0.6,0.2,0.3-0.6,1.2-0.3
				c0.8,0.6,0.7,1,1.7,1.7l-0.5,0.5c0.8,0.8,0.8-0.6,2,0.3c-0.2,0.3-0.6,0-0.7,0.3c0.9,0.9,1.8,0.6,2.2,1.5c1,0.2,1.9,0.5,3.4,1.6
				c-0.5,0-1.2-0.3-2-0.7c0.1,0.4,0.5,0.8,0.8,1.2c0.6,0.4,0-0.5-0.1-0.5c0.3-0.1,0.5,0.3,0.9,0.4c0.5,0.1,1-0.5,1.6,0.6
				c0,0.6-0.7-0.2-1-0.3s-0.3,0.6-1,0.2c0.7,1.3,1.6,1.3,2.7,2.1c0.4-0.7-1.1-0.8-1.2-1.3c0.1-0.9,1.2,0.2,1.6,0
				c0.9,0.7,0,0.4-0.2,0.9c0.4,0.6,0.4,1.1,1.7,1.8c-0.3,0.5-1.7,0.3-1.8-0.4c-0.9-0.3,0.6,0.7-0.2,0.9c-0.8,0-1.4-0.8-2.1-1.3
				c-0.3-0.2-0.7-0.3-1.3-0.6c-1.3-0.9-2.6-2.3-4-3.3c-0.6-0.4-0.8-0.4-1.2-0.7c-1-0.8-2-1.7-3-2.7c-0.5-0.5-1-0.9-1.5-1.4
				s-0.9-0.9-1.4-1.3c-0.8-0.7-1.2-1.3-1.8-2.1c-3.8-4.4-7.4-9.3-9.8-14.4c-0.2-0.5-0.2-0.9-0.4-1.4c-0.4-1.1-1.1-2-1.8-3.3
				c-0.5-1-0.4-1.5-1.2-2.4c-0.5-0.9,0.1-1-0.2-1.7c-0.5-0.7-0.8-1.6-1-2.4c-0.3-0.9-0.6-1.7-1-2.6c-0.2-0.6,0.6-0.2,0.7,0.5
				c0.2-1.4-1.2-2.8-1.4-2.4c-0.2-1.2-0.6-2.8,0-3.1C4.2,213.1,4.1,212,4,211c-0.1-1.1-0.2-2.1-0.8-2.7c-0.3-0.6,0.2-0.8,0.2-1
				s-0.3-0.5-0.3-1c-0.1-0.7,0-1.7-0.1-2.8c0-1.1,0-2.2-0.1-3.2c0-0.5-0.2-1.6-0.5-1.6c0-0.4,0.3-0.3,0.5-0.3
				c-0.1-0.9-0.2-1.7-0.2-2.5c0-0.4,0-0.7,0-1.1c0-0.3,0.1-0.6,0.1-0.9c0-0.3-0.2-0.2-0.4-0.3c0.3-1-0.1-1.6,0.4-2.2
				c0.1-0.6-0.3-0.4-0.3-0.9c0.2-0.6,0.4-1.9,0.4-3.1c0-0.7-0.1-2.1-0.1-2.5c-0.1-0.6-0.3-1.1-0.3-1.7c-0.1-2.1,0-4.1,0.1-5.9
				c0.1-1.6-0.6-3.4,0.1-4.5c-0.1-0.5-0.3-0.6-0.3-1.1c0-0.4,0.2-0.5,0.2-0.8c0-0.6-0.3-1.6-0.3-2.3c0-1.6,0.3-3.1,0.2-4.8
				c0-0.4-0.2-0.5-0.2-0.9c0-0.5,0.2-0.9,0.2-1.4c0-0.4-0.3-0.8-0.3-1.1c0-0.1,0.2-0.5,0.2-0.8c0-0.5-0.2-0.6-0.2-1.1
				c0-2.2,0.3-4.5,0.1-6.5c0-0.5,0.2-0.5,0.2-0.8c-0.1-1-0.7-2.3-0.1-3.9c-0.5-1.1,0-2.7-0.1-4.8c0.3,0,0.1,0.9,0.5,0.9
				c0-0.7-0.3-0.9-0.5-1.1c0.3-0.5,0.2-1.9,0.2-2.8c0.1-0.6-0.5-0.3-0.5-0.9c-0.1-2.9,0.3-5.4,0.1-7.9c-0.1-0.6-0.3-1.1-0.3-1.7
				c-0.1-1.8,0.2-3.6,0.2-5.3c0-0.5-0.2-1.2-0.2-1.7s0.3-0.8,0.4-1.4c0.1-0.5-0.2-0.9-0.2-1.4c0-2.1,0.3-4.5,0.4-6.7
				c0.5-0.2,0.1,1.1,0.1,2c0.1,0.5,0.8,1.8,0,2c-0.1,1,0.6,0.7,0.5,1.7c-0.3,0-0.5,0.2-0.5,0.6c0.4-0.1,0.8,1,0.2,1.7
				c0.6,0.3,0.3-1,0.9-0.8c0.1,1.9,0,2.7,0.1,4.2c0.7,0.3,0.3-1.2,1.1-0.8c-0.4,1.9,0.6,3.3-0.2,4.8c0.1,0.6,0.3,0.6,0.5,0.3
				c0.2,0.6-0.5,1,0,1.1C5,130,4.6,129,4.4,129c0.4,2,0.6,3.2,0.3,5.3c0.2,0,0.1-0.3,0.2-0.6c0,1,0.4,3.6-0.1,5.1
				c-0.1,1,0.6,0.7,0.5,1.7c-0.3,0.3-0.3,0.9-0.4,1.7c-0.1,0.5,0.1,0.5,0.3,0.6c-0.1,0.6-0.4,1.5,0.2,1.7c0.4-0.2,0.1-1.6,0.2-2.2
				c0.5,0.1,0.8-0.1,0.7-0.8c0-0.2-0.2-0.3-0.2-0.6c-0.2,0.2-0.2,0.6-0.5,0.6c0.5-6.9-0.1-10,0.4-16.6c0.2-0.3,0.3-0.1,0.5,0
				c0-1.8-0.1-3.3,0.1-4.8c0-0.3-0.3-0.2-0.3-0.6c0.1-0.8,0.2-1.6,0.9-1.4c-0.2-0.8-0.1-0.9-0.7-0.6c0.1-0.3,0.4-0.3,0.4-0.8
				c0.6,0.1,0.6,1.2,1,1.7c-0.3,1-0.2,1-0.2,2.5c-0.6,0.4-0.1-1-0.5-0.9c-0.4,0.6-0.1,2.2,0.5,1.4c-0.2,1.1,0.4,1.6,0,2.3
				c-0.4,0.1-0.3-0.4-0.3-0.9c-0.5,0.4-0.1,1.8,0.3,1.7c-0.2,1.4-0.2,3-0.1,4.8c-0.1,0.8-0.4,1.2-0.6,1.9c0,0.3,0.3,0.2,0.3,0.6
				c-0.1,2.6,0.2,6-0.3,8.1c-0.6,0.3-0.3-0.9-0.3-1.4c-0.6,1,0.2,2.1,0.5,2.5c-0.4,3.5-0.4,6.1-0.3,9.5c-0.3,0.2-0.1,0.8-0.5,0.3
				c-0.2,0.9,0.3,0.7,0.3,1.1c-0.3,2.2-0.4,4.7-0.3,6.7c0.1,1.1,0.1,2.4,0.1,3.4c0,0.9-0.2,1.5-0.2,2.2c0,0.4,0.2,1,0.2,1.4
				s-0.3,0.6-0.4,1.1c0,0.4,0.2,2.7,0.3,3.4c0.1,0.3,0.3,0.2,0.3,0.6c-0.3,0.7-0.2,0.9-0.2,2c0,0.9-0.4,1.2,0.2,1.7
				c0,0.9-0.5,0.9-0.4,2c0.2,0,0.1-0.5,0.2-0.8c0.7,0.3,0.2,1.1,0.2,1.7c0,3.5,0.2,6.7-0.1,10.9c-0.1,1.3-0.1,3.7-0.1,5.6
				c0,0.5-0.2,0.6-0.2,1.1c0.1,1.3,0.6,2.8-0.1,3.5c0.4,0.3,0.8,3.1,0.6,3.8c-0.1,0.1-0.3-0.7-0.3-0.9c-0.3-0.1-0.1,1.8,0.3,1.2
				c-0.2,0.5-0.3,1.4-0.1,2.5c0.2,0,0.1-0.4,0.1-0.6c0.3,0.6,0.4,1.6,0.6,2.6c0.1,0.5,0.1,1,0.2,1.6c0.1,0.5,0.2,1,0.3,1.4
				c-0.1,0.6-0.2,1.3-0.1,2c0.1,0.8,0.2,1.6,0.6,2.7c0.3-0.3-0.4-1.6,0.3-1.4c0.3,1.8,1,1.9,1.5,3.8c0.3,1.1,0.5,2.4,1,3.6
				c-0.2,0-0.4-0.5-0.5-0.8c-0.2,0.8,0.8,2,1,1c0.3,0.6,0.4,1.1,0.2,1.3c1.2,1.5,2.1,4.4,3.5,6.3c-1-0.7,0,1.5,0.6,1.8
				c0.5-0.5-1.2-1.2-0.3-1.3c0.7,1.3,1.6,2.7,2.5,4s1.7,2.5,2.4,3.3c-0.3,0.1-0.1,0.4-0.2,0.6c0.3,0.1,0.7,0.3,1,0.4
				c0.8,1.1,1.7,2.2,2.6,3.1c0.8,0.8,1.6,1.7,2.4,2.6c0.8,0.9,1.7,1.8,2.6,2.7c0.4,0.4,1.1,0.7,1.5,1.1c2,1.7,5.6,4.8,8.6,6.4
				c0.9,0.5,1.8,0.7,2.6,1.2c1.8,0.9,3.5,2,5.3,2.7c2.3,1,4.7,1.7,6.8,2.4c0.5,0.2,0.6,0.4,1.1,0.6c0.6,0.2,0.9,0.1,1.3,0.2
				c0.8,0.2,1.5,0.9,2.5,0.5c1.8,0.5,2.9,0.7,4,0.9c1.1,0.2,2.1,0.4,4,0.7c0,0.3-0.4,0.3-0.4,0.6c-0.8-0.1-1.7-0.2-2.5-0.4
				c-0.7-0.2-0.3,0.6-0.5,0.8c0.7,0.2,0.5-0.2,1-0.2c0.8,0.1,0.2,0.3,0.6,0.4c0.5,0.2,0.9-0.1,1,0C66.4,263.7,66.5,264.4,67.2,264.1
				z M6.4,137.8c0-0.6,0.8-1.1,0.2-1.7C6.6,136.7,5.8,137.2,6.4,137.8z M3.9,125.9c0.2-0.5,0.2-1.3,0.4-2c-0.6-0.2-1.1,1.5-0.9,1.7
				C3.5,124.8,3.6,126.1,3.9,125.9z M1.9,128.7c0.5,0,0.7-1.9,0.4-2.2C2.1,127.1,1.8,127.6,1.9,128.7z M2.3,138.2
				c0.1-0.6,0.5-2.3-0.2-2.5C2.5,136.7,1.9,137.4,2.3,138.2z M6.1,145.4c0.4-0.4-0.2-2.5-0.3-2C6.2,143.6,5.7,145.2,6.1,145.4z
				 M2.9,164.4c0.2-0.7,0.2-1.4-0.1-2C2.7,163,2.3,164.2,2.9,164.4z M3.2,172.8c0.4-0.1-0.2-0.8-0.3-0.9v2.5
				C3.4,174.8,3.1,173.4,3.2,172.8z M5.8,208.6c-0.1-1-0.4-1.3-0.8-1.5C5.1,207.9,5.3,208.7,5.8,208.6z M7.7,209.8
				c-0.5-1.1,0-3.8-0.9-4c0,1.2,0,0.5,0.3,0.9c0.4,0.4,0.2,1.2,0.1,1.9C7.1,209.3,7.1,209.9,7.7,209.8z M9.8,216.5
				c0.1-0.7-0.6-1.9-1.1-1.7C8.9,216,9.4,216,9.8,216.5z M9.7,217.2c0.3,0.9-0.1,1.1,0.3,1.9c0.4,0.1,0.4-0.3,0.3-0.8
				C10.1,217.8,9.9,217.2,9.7,217.2z M11.7,231.5l-0.7-1.2C10.1,230.2,11.4,232.1,11.7,231.5z M14.5,235.7c-1.2-1.4,0.2-1.3-0.8-2.6
				c-0.5,0.3,0.1,1.3,0.1,1.9c-0.3,0.6-0.7-0.9-1-0.2C13.5,235.7,14,235.5,14.5,235.7z M19.8,245.2l0.9,1
				C21.4,246,20.1,244.6,19.8,245.2z M22.5,245.5c-0.6-0.7-1.2-1.2-1.6-1.2c0.2,0.3,0.2,0.5,0.2,0.7
				C21.6,245.6,22.1,245.8,22.5,245.5z M35.1,257.8c0.4,0.7,0.3,1.3,1.2,2c0.8-0.2-0.6-1-0.8-1.3c-0.1-0.1,0.2-0.2,0.2-0.3
				c0,0-0.5-0.6-0.5-0.5c-0.3-0.4-0.7-0.5-1-0.9C33.5,257,34.6,257.4,35.1,257.8z M32.8,256.9l-1.4-1
				C30.6,256,32.9,257.6,32.8,256.9z M31,254.1c-0.3,0.9,1.3,1.1,1.5,2c0.2-0.4,0.9,0.4,1.1,0.2C32.8,255.3,32.1,255.2,31,254.1z
				 M27.9,253.6c0.5,0.7,1,0.4,1.6,0.8c0.3,0.2,1.1,1.6,1.5,0.9C30.5,254.8,28.3,253.1,27.9,253.6z M24,249.7
				c0.7,0.5,1.4,1.1,1.8,0.6C25,249.9,24.3,249.3,24,249.7z M55.8,262c0-0.4,0.1-0.8-0.7-0.9c-0.7,0.2-0.9,0.3-0.6,0.9
				C55.3,262.3,55.2,261.8,55.8,262z M60.4,262.1c-0.3-0.1-0.4-0.3-0.5-0.5c0.3,0.1,0.8,0.1,0.3-0.1c-0.8,0.2-1-0.4-2.1-0.5
				c-0.3,0.7,1,0.7,1.7,0.8C59.7,262,60.2,262.3,60.4,262.1z M6.2,107.7c0-1.4-0.4-1.6-0.7-2.8c0.3-0.8,0.7-1.3,1.1-1.9
				c0.6,0.6,0.8,1.9,1,3.1c-0.4-0.5-0.7-1-0.7-2c-0.5-0.1-0.6,0.4-0.5,1.1c0.9,0.2,1.9,3.6,0.5,3.9c0-0.7,0.3-0.9,0-1.4
				c-0.8,1.2,0.3,3.4-0.4,4.2h0.7c0.1-1.1-0.2-1.3-0.1-2.3c1-0.5,0.9,2.7,0.3,2.8c0.2,0.8,0.2,1.5,0,2.3c-0.3-0.3-0.3-1-0.7-1.1
				c0-0.5,0.6-0.2,0.5-0.8c0-0.4-0.5-0.1-0.5-0.6c-0.2,0.1-0.1,0.7-0.2,1.1c-0.7-0.3-0.8-1.6-0.9-2.6C5.6,109.9,6.2,108.8,6.2,107.7
				z M3.9,108v-0.8c0.4,0.7,0.3-0.4,0.9-0.3C4.8,107.7,4.3,107.8,3.9,108z M4.9,112.8c-0.1,1.1,0,1-0.2,1.7
				C4.4,114.4,4.3,112.3,4.9,112.8z"/>
		</g>
	</g>
</g>
</svg>
