<?xml version="1.0" encoding="utf-8"?>
<!-- Generator: Adobe Illustrator 23.1.0, SVG Export Plug-In . SVG Version: 6.00 Build 0)  -->
<svg version="1.1" id="图层_1" xmlns="http://www.w3.org/2000/svg" xmlns:xlink="http://www.w3.org/1999/xlink" x="0px" y="0px"
	 viewBox="0 0 484.3 462.7" style="enable-background:new 0 0 484.3 462.7;" xml:space="preserve">
<style type="text/css">
	.st0{fill:#75AFDE;}
</style>
<path class="st0" d="M261.3,11.9L319.6,130c3.1,6.3,9.1,10.7,16.1,11.7L466,160.6c17.5,2.6,24.5,24.1,11.9,36.5L383.5,289
	c-5,4.9-7.3,12-6.1,18.9l22.3,129.8c3,17.5-15.3,30.8-31,22.5l-116.5-61.3c-6.2-3.3-13.7-3.3-19.9,0l-116.5,61.3
	c-15.7,8.3-34-5.1-31-22.5l22.3-129.8c1.2-6.9-1.1-14-6.2-18.9L6.5,197.1c-12.7-12.4-5.7-33.9,11.9-36.5l130.3-18.9
	c7-1,13-5.4,16.1-11.7L223,11.9C230.8-4,253.5-4,261.3,11.9z"/>
</svg>
