<?xml version="1.0" encoding="utf-8"?>
<!-- Generator: Adobe Illustrator 23.1.0, SVG Export Plug-In . SVG Version: 6.00 Build 0)  -->
<svg version="1.1" id="图层_1" xmlns="http://www.w3.org/2000/svg" xmlns:xlink="http://www.w3.org/1999/xlink" x="0px" y="0px"
	 viewBox="0 0 1067.4 902.1" style="enable-background:new 0 0 1067.4 902.1;" xml:space="preserve">
<style type="text/css">
	.st0{fill:#75AFDE;}
</style>
<g>
	<path class="st0" d="M91.5,268.6c0,0-100.3-109.1-52.3-266.1c0,0,178.9-26.2,283.6,91.6C427.4,211.9,91.5,268.6,91.5,268.6z"/>
	<path class="st0" d="M977.3,276.6c0,0,100.3-109.1,52.3-266.1c0,0-178.9-26.2-283.6,91.6C641.4,219.9,977.3,276.6,977.3,276.6z"/>
	<path class="st0" d="M705,53.8c-58-22.5-163.8-24.4-226.1-22c-0.4,0-203.2,7.8-310.4,130.3C49.6,297.9-72.1,592.9,52.1,752.1
		c103.3,132.4,334.6,150,488.5,150c195.4,0,521.1-71.8,526.6-270.6C1074.2,373.3,948.2,148.2,705,53.8z M234.7,580.3
		c-0.6,0-1.3,0-1.9-0.1c-24.7-1.8-44.5-38.4-44.5-83.4c0-46.1,20.8-83.4,46.3-83.4c23.2,0,42.4,30.6,45.8,70.5v0.1
		c0.1,1.2,0.2,2.5,0.3,3.7c0,0.1,0,0.3,0,0.5c0.1,1.1,0.1,2.3,0.1,3.4c0,0.3,0,0.5,0,0.8c0,1.4,0.1,2.9,0.1,4.3
		C281,543,260.3,580.3,234.7,580.3z M521.8,757.8c-109.2,0-197.8-58.6-197.8-130.9S412.5,496,521.8,496
		c109.2,0,197.8,58.6,197.8,130.9S631,757.8,521.8,757.8z M823.8,580.2c-0.6,0-1.3,0.1-1.9,0.1c-25.6,0-46.3-37.3-46.3-83.4
		c0-1.4,0-2.9,0.1-4.3c0-0.2,0-0.4,0-0.6c0-1.2,0.1-2.5,0.2-3.7c0-0.2,0-0.3,0-0.5c0.1-1.2,0.2-2.5,0.3-3.7c0-0.1,0-0.2,0-0.3
		c3.5-39.9,22.7-70.4,45.8-70.4c25.6,0,46.3,37.4,46.3,83.4C868.3,541.8,848.6,578.4,823.8,580.2z"/>
</g>
</svg>
