<?xml version="1.0" encoding="utf-8"?>
<!-- Generator: Adobe Illustrator 23.1.0, SVG Export Plug-In . SVG Version: 6.00 Build 0)  -->
<svg version="1.1" id="图层_1" xmlns="http://www.w3.org/2000/svg" xmlns:xlink="http://www.w3.org/1999/xlink" x="0px" y="0px"
	 viewBox="0 0 142.2 261.9" style="enable-background:new 0 0 142.2 261.9;" xml:space="preserve">
<style type="text/css">
	.st0{fill:#75AFDE;}
</style>
<g id="XMLID_4_">
	<path class="st0" d="M61.9,1.3c0,0-102,5.8-39.3,215.6c0,0,45.2,99.1,100.5-8.7c0,0,33.5-134,1.5-171.9S61.9,1.3,61.9,1.3z"/>
	<g>
		<g>
			<g>
				<g>
					<g>
						<path class="st0" d="M77,5.1c-1.4-0.3-2.5-0.8-2-0.8c-2.8-0.4-2.8-0.7-3.3-0.2C69.9,4,68,3.4,70.1,3.5
							c-1.8-0.2-3.5-0.2-5.2-0.2c1,0.1,2.1,0.2,3.1,0.3c-0.4,0.2-1.7,0-2.9-0.1c-1.2-0.1-2.5-0.1-2.8,0.2c0.7-0.1,1.7-0.1,2.6,0
							s1.8,0.1,2.8,0.2L67.3,4c0.6,0,1.6,0.1,2.4,0.2c0.9,0.2,1.7,0.3,2.1,0.4c-0.1,0-0.1,0.2-1.1,0c0.8,0.2,1.5,0.3,2,0.3
							c0.5,0.1,0.9,0.2,1.2,0.2c0.6,0.1,0.8,0,1-0.1s0.3-0.2,0.8-0.1c0.4,0,1.2,0.1,2.6,0.5C78,5.5,77.5,5.4,77,5.1z"/>
						<path class="st0" d="M82.2,8l2.4,0.3c1.2,0.6,2.4,1.2,3.6,1.8c0.1-0.2,2.9,1,1.1-0.1c-0.3,0-1-0.3-1.6-0.6
							c0.3-0.1,1.6,0.4,2.6,0.9s1.9,0.9,1.5,0.4c-0.7-0.4-1.3-0.6-1.8-0.9c-0.5-0.2-0.9-0.4-1.2-0.5C88,9,87.4,8.8,86.5,8.5
							C85.2,7.9,84,7.4,83,7s-1.8-0.8-2.4-1.1c-0.9-0.2-1.1,0-2.1-0.3c0.2,0.1,0.4,0.1,0.7,0.2l-0.1,0.6c0.5,0.1,0.9,0.2,1.3,0.3
							c0.4,0.2,0.9,0.3,1.3,0.5c-1.5-0.4-3.1-0.5-4.7-0.8c0.6,0.5,2.1,1,3.5,1.5c1.4,0.6,2.9,1.1,3.8,1.5C82.4,8.3,86.2,10,82.2,8z"
							/>
						<path class="st0" d="M78.4,5.6L78.4,5.6L78.4,5.6z"/>
						<path class="st0" d="M26.5,227.7c-0.6-0.9-0.8-1.1-1-1.2c2,3.4,4.2,6.7,6.6,9.9c-0.1-0.4-1.9-3.3-0.5-1.5
							c-0.5-0.9-2.3-3.4-2.8-3.6l0.7,0.6c-1.8-2.1-2.2-4-1.1-2.6l-0.1-0.2c-1.7-1.9-3.3-3.8-4.9-5.9
							C24.7,225.6,24.8,224.9,26.5,227.7z"/>
						<path class="st0" d="M45.2,5.1c-1.4,0.7-1.5,0.9-1.3,0.8C44.4,5.6,44.8,5.3,45.2,5.1z"/>
						<path class="st0" d="M22.3,221.8l-1.4-1.9C21.4,220.6,21.9,221.3,22.3,221.8z"/>
						<path class="st0" d="M35.8,232.3L35.8,232.3l-0.7-0.8l0,0C35.3,231.8,35.5,232.1,35.8,232.3z"/>
						<path class="st0" d="M6.7,170.5c-0.1-0.3-0.1-0.5-0.2-0.8C6.6,170,6.6,170.2,6.7,170.5z"/>
						<path class="st0" d="M58.6,250.2c-1.4-0.5-2.8-1.1-4.1-1.9c0.6,0.2-1.3-1-0.4-0.6c-0.3-0.1-1.7-1.1-1.4-0.7
							c0.3,0.2,0.5,0.4,0.8,0.5c-2.3-1-1.2,0.1-4.7-2.2c1.8,1.9,2.9,2.3,4.2,2.9c0.4,0.2,0.7,0.4,1.1,0.6c1.2,0.5,2.5,0.9,3.7,1.3
							C58,250.2,58.3,250.2,58.6,250.2z"/>
						<path class="st0" d="M7.6,63.7L7.6,63.7L7.6,63.7z"/>
						<path class="st0" d="M7.7,64l-0.1-0.3C7.7,64,7.5,65.1,7.7,64z"/>
						<path class="st0" d="M23,222.4c-0.1,0-0.4-0.2-0.7-0.6l1.1,1.4C23.3,223,23.1,222.7,23,222.4z"/>
						<path class="st0" d="M25.9,225.3c0.8,1.3,1.5,2.5,2.4,3.7l1.1,1.2C28.4,228.9,27.3,227.3,25.9,225.3z"/>
						<path class="st0" d="M7.9,177.3c-2-8.9,1.1,2.1,0.3-2.1c-0.6-2.5-1.1-3.3-1.5-4.8c1.8,7-1.1-0.8,0.6,6.3c-0.7-0.9-1.7-5-2-7.5
							c-0.1-2.8,0.9,2.3,1.5,2.8c-0.7-2.9-0.7-2.3-1.2-3.5c-0.9-4.5-2.4-9.2-2.3-12.1c-0.7-3.3-0.9-3-1.5-4.9
							c-0.6-0.3,0.6,4.9,0.4,6.2c0-0.3,0-0.8,0.1-0.6l0.4,2.9c-0.3-2.7,0.6,0.3,0.9,1.7c0.2,1.1,0.6,3.1,0.4,2.9
							c-0.2-0.5-0.3-1-0.4-1.6c0.2,2.1,1.3,4.4,1.5,6.6c-0.1,0.1-0.3-0.7-0.4-0.8c0.9,2.3,1.4,4.6,2.4,8.1l-1-1.9
							c0.6,1.4,1.2,3.7,1.7,6.2c0.6,2.5,1.2,5.2,1.6,7.5c0-0.5-0.2-1.4,0-0.9c0.8,2.6,0.9,4.6,0.3,3.5c0.5,1.2,1,3.6,1.6,6.2
							c0.5,2.6,1.3,5.2,2,6.8l3.5,7.5l1.8,3.7l0.4,0.9l0.2,0.5l0.1,0.2l0.1,0.3c0.1,0.2,0.2,0.5,0.4,0.7l0.2,0.3l0.1,0.2l0.6,0.9
							c-0.4-0.6-0.7-1-1.1-2c0-0.6,0-0.9,0-1.1c0-0.3,0-0.4,0-0.5s0.1,0,0.3,0.3c0.1,0.1,0.1,0.3,0.3,0.5c0.1,0.2,0.2,0.6,0.5,0.9
							c-0.2-0.4-0.3-0.8-0.4-0.9c-0.1-0.2-0.2-0.4-0.3-0.5c-0.2-0.3-0.3-0.5-0.4-0.8c-0.3-0.5-0.6-1.2-1.1-3
							c0.6,1.4,1.2,1.6,0.3-1.9c-1.5-4.3-2.9-7.9-4.4-11.4c-1.4-3.5-2.8-6.9-4.1-11c0.1-0.2-0.2-1.9-0.7-4c-0.3-1-0.5-2.2-0.8-3.2
							c-0.2-1.1-0.4-2.1-0.6-2.9c0.3,0.6,0.6,1.4,0.9,2.5c0.3,1,0.7,2.2,1,3.4c-0.2-0.8-0.4-1.8-0.7-2.9c-0.3-1.1-0.5-2.3-0.7-3.3
							L7.9,177.3z"/>
						<path class="st0" d="M14.1,197.8c0-0.2-0.1-0.5-0.1-0.7C14,197.2,14,197.4,14.1,197.8z"/>
						<path class="st0" d="M10.3,184.9C10.4,184.9,10.4,184.9,10.3,184.9c0-0.2-0.1-0.5-0.2-0.8C10.2,184.4,10.3,184.7,10.3,184.9z"
							/>
						<path class="st0" d="M22.7,220.1c0.3,0.4,0.6,0.8,0.9,1.2c-0.2-0.3-0.4-0.6-0.6-1C22.7,220,22.6,219.8,22.7,220.1z"/>
						<path class="st0" d="M23,222l-0.3-0.2c0.1,0.2,0.2,0.4,0.3,0.6C23.1,222.4,23.1,222.3,23,222z"/>
						<path class="st0" d="M4.6,142.6l-0.2-0.9C4.5,142.2,4.6,142.5,4.6,142.6z"/>
						<path class="st0" d="M6.3,167.3c0.7,3.1,0.6,0.3,1.6,4.6l-0.2-1.3c0.4,1.6,0.9,3.7,1.4,5.9s0.9,4.6,1.4,6.4
							c-0.3-0.4,0.3,2.3-0.1,1.9c0.7,2.5,1.4,5,2.1,6.2c0.3,1.6,1.2,3.9,1.5,5.9c0-0.9,1.4,2.7-0.1-2.1c0.1,0.4,0.1,0.1,0.2,0.5
							c-0.5-3.2-1.3-4.3-2-7c-0.2-1.6,1,2.6,0.7,1c-1-3.3-2.4-10.6-3-10.2c-0.6-2.4-0.5-2.8-0.5-3.6c-1.6-3.7-2.8-14.5-3.7-14.3
							c0.2,0.7,0.3,1.7,0.5,2.7c0.3,1,0.5,2.1,0.9,3.1L6.3,167.3z"/>
						<path class="st0" d="M20.6,215c0-0.2-0.1-0.4-0.2-0.6C20.5,214.5,20.6,214.8,20.6,215z"/>
						<path class="st0" d="M41.4,250.2c-0.5-0.1-1-0.3-1.5-0.5c-3-2.7-4.8-4.8-6.4-6.7c-1.6-2-3.1-3.9-5.1-6.7
							c-0.2-0.5,0.3,0.2,0.6,0.5c-2.9-3.8-6.5-10-8.5-13c-0.8-1.3-2.4-5.1-1.5-3.8c-0.1-0.2-0.2-0.3-0.3-0.5l-0.2-0.4l-0.2-0.5
							c-0.1-0.3-0.2-0.7-0.3-0.9l-0.2-0.6c0-0.1,0.1,0,0.2,0.2c0,0.1,0.1,0.2,0.1,0.3s0.1,0.3,0.1,0.4c0.1,0.4,0.3,0.8,0.5,1.1
							c0,0.1,0.1,0.1,0.1,0.2c0,0,0,0.1,0.1,0.1c0,0.1,0.1,0.1,0.1,0.1c-0.2-0.5-0.3-0.8-0.4-1c-0.1-0.3-0.1-0.4-0.2-0.5
							c0.4,0.8,0.4,0.3,0.7,0.6c0.4,0.4,0.8,0.9,2,3.3c0.2,1-0.2,0.2-0.7-0.7s-1-1.9-1-1.2c0.8,1.6,0.9,1.3,1,1.4c1,2,0.9,2,0.7,2
							c0.6,0.7,1.7,3.3,2.6,4.1c2.3,3.7-0.5,0,1,2.5l1.4,1.1c0.8,1.3,1.7,2.7,2.5,4c2.1,2.7,2.2,2.4,2.3,2.1
							c0.2-0.3,0.4-0.4,2.9,2.5c-0.9-0.6,0.6,2.2,3,5c-1.5-1.6-4.4-4.4-5.9-6.8c1,1.7,0.2,0.6-0.8-0.6c-1-1.3-2-2.8-1.7-1.8
							c1.3,1.5,3.3,4.1,4.8,6.1l-0.6-0.6c1.7,2.2,3.5,3.3,6,6.2c1.3,1.3,1,1.2,0.6,1.1C40.3,249.2,41.5,250.1,41.4,250.2z
							 M38.3,247.4c-0.6-0.6-1.1-1.3-1.7-1.9C36.9,246,37.6,246.7,38.3,247.4z"/>
						<path class="st0" d="M109.6,24.9c-0.2-0.2-0.4-0.4-0.5-0.5C109.2,24.6,109.4,24.8,109.6,24.9z"/>
						<path class="st0" d="M111.8,222.1l0.7-1.1C112.2,221.4,112,221.7,111.8,222.1z"/>
						<path class="st0" d="M121.1,194.1l0.3-2C121.2,192.9,121.2,193.5,121.1,194.1z"/>
						<path class="st0" d="M120.9,36.5L120.9,36.5c0.1,0.1,0.2,0.2,0.3,0.3L120.9,36.5z"/>
						<path class="st0" d="M132.6,133.2c0.1-0.3,0.2-0.6,0.3-1.1C132.7,132.2,132.7,132.6,132.6,133.2z"/>
						<path class="st0" d="M121.1,194.5c0-0.1,0-0.1,0-0.1c0-0.1,0-0.2,0-0.3V194.5z"/>
						<path class="st0" d="M102.7,232c-0.2,0.2-0.3,0.5-0.5,0.7C102.5,232.4,102.6,232.2,102.7,232z"/>
						<path class="st0" d="M105.3,231.5c-0.2,0.3-0.3,0.5-0.5,0.7L105.3,231.5z"/>
						<path class="st0" d="M69.1,254.1h-1.6C68.3,254.1,68.8,254.1,69.1,254.1z"/>
						<path class="st0" d="M102,235.1c0,0.1-0.1,0.2-0.1,0.3C102,235.2,102.1,235,102,235.1z"/>
						<path class="st0" d="M101.6,16.3C101.7,16.3,101.7,16.3,101.6,16.3h0.2H101.6z"/>
						<path class="st0" d="M97.4,14.6c-0.4-0.3-0.9-0.5-1.4-0.8C96.5,14.1,97,14.4,97.4,14.6z"/>
						<path class="st0" d="M135.6,106.5c0.1-0.5,0.3-1.6,0.3-1.1C135.8,104.5,135.5,104.5,135.6,106.5z"/>
						<path class="st0" d="M111.2,18.8c-0.3-0.1-0.6-0.3-0.9-0.5C110.9,18.7,111.4,19,111.2,18.8z"/>
						<path class="st0" d="M110.3,18.3c-0.3-0.2-0.6-0.4-0.9-0.6C109.7,17.9,110,18.1,110.3,18.3z"/>
						<path class="st0" d="M140,119.3c-0.1,0.1-0.1,0.3-0.1,0.6C139.9,119.8,140,119.6,140,119.3z"/>
						<path class="st0" d="M95,12.9c-0.3,0-6.6-3-1.5-0.2c-0.2,0.1-1.1-0.3-2-0.8c-1-0.5-2.1-1.2-2.8-1.4c1,0.6-0.6,0-0.4,0.3
							c0.4,0.1,0.8,0.3,1.2,0.4c0.4,0.2,0.9,0.4,1.5,0.8c0.2,0.2-0.1,0.1-0.7-0.1c-0.5-0.3-1.3-0.6-2-1c1.6,1-2.3-0.6,0,0.6
							c1.3,0.5,2.4,1.2,3.5,1.7s2.1,1,3.1,1.5c1.9,1.1,3.7,1.9,5.5,2.8c-1.3-0.9-2.8-1.7-4.2-2.6c-0.7-0.4-1.4-0.9-2-1.3
							c-0.7-0.4-1.3-0.7-1.8-1.1l1.2,0.2c1.2,0.8,2.2,1.6,3.2,2.2c1,0.6,2.1,1.2,3.3,2c-1.8-1.3-3.6-2.5-5.4-3.7
							c-1.3-0.9-1.4-1.1-1-0.9c0.4,0.1,1.4,0.6,2.5,1.3C95.5,13.4,95.1,13.1,95,12.9z"/>
						<path class="st0" d="M100.6,12.4L100.6,12.4c-0.2-0.1-0.3-0.2-0.4-0.2L100.6,12.4z"/>
						<path class="st0" d="M69.3,262.1c-0.2,0-0.4,0.1-0.7,0.1C69.2,262.2,69.3,262.2,69.3,262.1z"/>
						<path class="st0" d="M102.9,16.3L102.9,16.3C102.9,16.4,102.9,16.4,102.9,16.3z"/>
						<path class="st0" d="M84.9,258.7C84.9,258.7,84.9,258.8,84.9,258.7C84.9,258.8,84.9,258.7,84.9,258.7z"/>
						<path class="st0" d="M84.3,249.4L84.3,249.4C84,249.6,84.1,249.5,84.3,249.4z"/>
						<path class="st0" d="M84.9,258.7L84.9,258.7L84.9,258.7z"/>
						<path class="st0" d="M127,201.3c0,0-0.1,0.2-0.3,0.5C126.8,202,126.9,201.9,127,201.3z"/>
						<path class="st0" d="M121.6,214.6c-0.1,0.1-0.1,0.1-0.2,0.2L121.6,214.6z"/>
						<path class="st0" d="M133.7,109.6c0,0.7-0.1,1.2-0.1,1.6C133.6,110.8,133.7,110.2,133.7,109.6z"/>
						<path class="st0" d="M84.8,258.8c-0.1,0.1-0.3,0.2-0.6,0.4C84.6,259,84.7,258.9,84.8,258.8z"/>
						<path class="st0" d="M129.4,180.2c0,0.1,0,0.3,0,0.4l0.1-0.3L129.4,180.2z"/>
						<path class="st0" d="M131,173.1c0,0.3,0,0.4,0,0.5c0.3-2.6,1.3-7.2,0.9-7.9c-0.1,0.9-1.1,5.3-1.3,4.5c-0.2,1.8-1,4.4-1.1,5.3
							c0.8-2.9,0.4-0.3,0.2,1.7c-0.4,1.8-0.3-0.4-0.6,1.1l-0.7,4.1l0.7-3.6l0.2,1.2c0-0.1,0-0.2,0-0.4
							C130.4,173.7,130.1,179.4,131,173.1z"/>
						<path class="st0" d="M131,173.6c0,0.4-0.1,0.7-0.1,1C131,174,131,173.8,131,173.6z"/>
						<path class="st0" d="M135.7,148.7c0-0.3,0.1-0.7,0.1-1.1C135.7,147.8,135.7,148.3,135.7,148.7z"/>
						<path class="st0" d="M31.1,232.9c0,0.2,1.9,3.3,2.1,3c-0.6-0.9-1.2-1.8-1.8-2.7L31.1,232.9z"/>
						<path class="st0" d="M137.5,79.9l0.1,1.2c0,0.1,0.1,0.2,0.1,0.2C137.6,81.1,137.5,80.3,137.5,79.9z"/>
						<path class="st0" d="M130.8,169.1c-0.1,0.7-0.1,1-0.1,1.1C130.8,169.8,130.8,169.5,130.8,169.1z"/>
						<path class="st0" d="M138.2,79.6c0.1-0.5,0.1-1.3,0.2-1.4c-0.1-1.1-0.3-1.8-0.5-2.8C138.1,76.6,138.2,78,138.2,79.6z"/>
						<path class="st0" d="M137.9,75.3C138,75.3,138,75.4,137.9,75.3L137.9,75.3z"/>
						<path class="st0" d="M30,231c-0.2-0.3-0.4-0.5-0.6-0.8l0.4,0.4c-0.4-0.7-0.9-1.4-1.3-2.1c-0.2-0.2-0.4-0.5-0.6-0.8
							c0.1,0.1,0.2,0.2,0.3,0.3c-0.1-0.2-0.3-0.5-0.4-0.7c-1.4-1.5-4-5.7-4.8-6.9c-0.3-0.4-0.5-0.8-0.8-1.3l-0.4-0.7
							c-0.1-0.3-0.3-0.5-0.4-0.7c-0.2-0.3-0.2-0.6-0.3-0.8c-0.1-0.2-0.1-0.4-0.2-0.7c-0.1-0.4-0.2-0.8-0.3-1.2
							c0.2,0.6,0.4,1.4,0.6,1.9c0.2,0.6,0.5,0.9,0.4,0.6c-0.2-0.8-0.3-1.3-0.4-1.9c-0.1-0.6-0.2-1.1-0.3-1.8
							c-0.3-1.2-0.6-2.7-1.5-4.9l0.8,2.6l-2.4-5.8c-0.3-2.2,1.2,2.9,1.6,3.6c-1.6-4.5-1.9-8.6-3-10.6c0.3-0.4,0.7-1.1-0.1-4.1
							c0.2,2.3-0.7-1.8-0.7,0.1c-0.5-1-0.7-3.4-1-3.6l0.2,0.3c-0.8-5.4-2-6.9-2.9-9c-0.4-1.6-0.8-2.9-1-4.1
							c-0.3-1.2-0.5-2.4-0.7-3.4c-0.4-2.2-0.8-4.2-1.4-6.8c0.2-0.3,0.5-1.8,0.1-3.8c-0.6-0.9-1.5-5.6-2-6c0.5,3.8,0.9,3,1.4,5.2
							c0,1.9-0.4,0.3-0.1,2.8c-0.4-2-2-9.2-2-11.5l0.2,0.8c-0.2-1.8-0.1-2.9-0.1-4.3c0-0.7-0.1-1.5-0.2-2.4
							c-0.2-0.9-0.4-2.1-0.8-3.6l-0.7-2.8c0.1,0.1,0.1,0.1,0.2,0.2c-0.6-4.7,0-3.5-1-8.6c0.1,0.4,0.1,0.1,0.2,0.5
							c-0.1-1.5-0.3-2.9-0.5-4.3c-0.2-1.4-0.5-2.7-0.7-3.8c0.2-1.4,0.4,0.3,0.7,1.1c-0.2-2.6-0.6-5.3-1-7.7c-0.4-2.4-0.7-4.7-1-6.3
							v-3.4c0.2,2,0.7,4.4,0.9,3.8c-0.2-1.8-0.3-1.5-0.4-4.1c0.2,0.4,0.5,1.5,0.8,2.7c0.1-5.4-0.8-1.2-0.4-5
							c-0.1-1.7-0.4-2.7-0.7-2.8l0.3-3.1c-0.3-0.3-0.4-4.1-0.4-6.6c-0.2-0.3-0.4,2-0.2,2.9c-0.2-0.2-0.5-2.8-0.3-4.6
							c0.7-0.6,0.5-11.2,1.2-9.1c0.1-1.9,0.3-4,0.5-6.2s0.3-4.4,0.7-6.5c0.3-2.1,0.6-4.2,0.9-6c0.1-0.5,0.1-0.9,0.2-1.3
							s0.2-0.8,0.3-1.2c0.2-0.8,0.3-1.5,0.4-2.1c0.6-1.6,1.4-4.9,1.2-2.8c0.2-0.8,0.3-1.5,0.5-2.1c0.2-0.7,0.4-1.3,0.5-1.9
							c0.3-1.2,0.6-2.4,0.9-3.5c0.5-2.3,1.3-4.5,2.5-7.3c0.3-0.4-1,2.6-0.7,2.5c1.2-3.9,3-6.7,5.9-12.2c-0.5,0.9-0.5,1.3-0.5,1.4
							c-0.2,0,1.1-2.3,1.8-3.8c0.5-0.8-0.5,1.1-0.2,0.7c0.4-0.6,0.8-1.3,1.2-1.9c0.4-0.6,0.8-1.2,1.3-1.8c0.8-1.2,1.6-2.3,2.4-3.4
							c1.7-2.1,3.3-4.3,5.1-6.2c3.6-4,7.5-7.7,12.7-10.8c-2.9,1.9-3.7,3-3.6,3.2c0.9-0.6,1.9-1.2,2.8-1.9C39.3,9,39.6,8.7,40,8.4
							s0.8-0.5,1.3-0.8c0.9-0.6,1.9-1.2,2.8-1.7c0.3,0,1.2-0.4,0.3,0.2c0.8-0.3,1.5-0.6,2.2-0.9s1.4-0.6,2-0.9
							c1.3-0.6,2.5-1.2,3.8-1.7c0.6-0.3,1.3-0.5,2-0.8s1.4-0.5,2.2-0.7c1.6-0.5,3.3-0.9,5.5-1c-1.8,0.3-3.3,0.8-4.9,1.3
							c-1.6,0.5-3.1,1.1-4.6,1.8C53.4,3,54.2,2.9,55,2.8c-0.7,0.3-1.3,0.5-2,0.8l-1.9,0.9c2.5-0.6,4.4-1.8,4.8-1.5
							c-0.5,0.2-1.7,0.6-1.7,0.8c2.4-0.6,2.5-0.8,4.3-1.3c-2.3,0.8-5.7,2-8.9,3.4c-1.7,0.7-3.2,1.5-4.7,2.3
							c-1.4,0.8-2.8,1.6-3.8,2.3c-0.6,0.5,0.5-0.5,0.6-0.6c-0.9,0.5-1.6,1-2.3,1.4c-0.8,0.5-1.6,0.9-2.6,1.8
							c-1.1,1.2,1.1-0.6,2.2-1.2c0,0.3-0.6,0.6-1.7,1.5c-0.2,0-1.8,1.1-3.5,2.4C31.9,17,30,18.5,29.3,19c-2.6,2.8-2.2,2.7-1.8,2.6
							c0.2,0,0.4-0.1,0.2,0.2c-0.1,0.1-0.3,0.4-0.6,0.7c-0.3,0.4-0.7,0.9-1.3,1.6L24,25.6c-0.6,0.9-1.2,1.9-1.8,2.9
							c-0.6,1-1.3,2.1-2,3.2C19.6,32.8,19,34,18.4,35c-0.3,0.5-0.6,1.1-0.9,1.6s-0.5,1.1-0.8,1.7l0.4-0.9c0.1-0.7-0.4,0.3-0.7,0.7
							c-0.9,1.6-1.6,3.2-2.2,4.7c-0.5,1.5-1,2.8-1.6,3.8c-0.3,1-0.7,2.2-1,3.5s-0.7,2.7-1,4.1c-0.8,2.8-1.3,5.7-1.7,8.1
							c-0.8,1.2,0.9-6.2,1.4-8.2c-0.4,1.4-0.9,2.8-1.2,4.2c0.3-1.3,0.6-2.2,0.7-3c0.2-0.8,0.2-1.5,0.3-2.3c-0.6,1.8-0.9,3.1-1.2,4.3
							c-0.2,1.3-0.3,2.5-0.7,4.3C8,61,7.8,61.5,7.4,63.1l0.2,0.5c0,0-0.1,0.2-0.3,0.7c-0.4,2.1-0.6,4.3-0.9,6.4c0.4-1.3,0.7-1.3,1-3
							c-0.3,0.6-0.1-0.9,0.2-2.5c0,0.8,0.1,0.3,0.3-0.2c0.2-0.6,0.4-1.3,0.5-1.3c-0.4,1.6-0.7,3.5-1,5.2c-0.3,1.7-0.5,3.3-0.6,4.4
							L6.3,74c-0.5,3.2-0.6,6.6-1,8.7L5.2,82C5,84,5,85.9,4.9,87.7s-0.2,3.7-0.5,5.4c0.1,1.7,0.3,3.7,0.4,5.6
							c0.2,1.9,0.3,3.7,0.6,5.1c0.1,0.4,0.1,1.2,0.1,2.3c0,1.1,0,2.4,0,3.8c0,2.8,0.1,5.9,0.5,7.9c0,0.3-0.4-2.6-0.7-4
							c0.1,2.6,0.7,4.6,0.3,5.4c-0.2-5.8-0.3,0.3-0.6-2.3c0,0.7,0.1,1.4,0.1,2c0.1,0.7,0.2,1.3,0.2,1.9c0.2,1.2,0.3,2.3,0.5,2.9
							c-0.4-4.4,0.8,1.5,0.1-2.9c0.7,3.4,1.3,8.1,1.6,12.2c-0.2,0-0.2,0.5-0.1,2l0.4,1.2c0.2,1.9-0.8-3.6-0.4,0.2
							c1,3.9,1.3,12,2.6,13.5c0.2,3.1-1.4-5.6-1-1.1c-0.2-0.6-0.4-1.4-0.5-2.1c-0.1-0.7-0.2-1.5-0.3-2.1c-0.2-1.4-0.4-2.5-0.6-2.9
							c0.5,2.6-0.2,1,0,2.7c0.2,0.9,0.4,1.9,0.7,2.9c0-0.2-0.1-0.4-0.1-0.6c0.6,2.4,1.2,5.5,1.8,8.8s1.1,6.8,1.9,9.8
							c1.6,5.1,2.9,8.5,4.3,14.8c-0.7-1.8,1,5.2-0.4,1.4c0.5,2.9,1.5,5.7,1.7,5.7c-0.6-2.5-0.2-0.9-0.6-3c0.6,1.4,1.4,4.7,1.6,6.1
							c-0.1-0.6-0.1-0.4-0.2-0.5c0.6,3,0.6,1.4,1.2,3.5c-0.1,0.8,1.1,4.8,1.5,6.8l1.3,2.7c-0.7-1.5,0.7,2.8,0.5,3.3
							c0.8,2,1.6,3.6,2.4,6.7c-0.3-0.6-0.1,0.1,0.1,1s0.4,2,0.2,1.9c0,0.1,0,0.2,0.1,0.2v0.1l0.1,0.2c0.1,0.3,0.3,0.6,0.4,0.9
							c0.3,0.6,0.6,1.1,0.9,1.6c0.6,1,1.2,1.9,1.9,2.8c1.3,1.8,2.5,3.6,3.7,5.8c-0.2-0.1-0.9-0.9-0.1,0.4c0.7,0.9,1.8,2.7,2.6,3.7
							l0,0c0,0,0,0,0,0.1c0.4,0.5,0.6,0.8,0.7,0.8c1.5,1.5,2.4,2.3,5.3,5.3c0-0.4-2.3-3.1-3.3-4.2l-1.1-0.9c-0.3-1.3-2.3-3-2.7-3.9
							c1,0.9,2.5,2.8,4.1,4.9c1.7,2.1,3.6,4.2,5.2,5.6c-0.7-1.1-2-2.8-3.4-4.6c-1.4-1.9-3-4-4.4-6.1l1.1,1.9c-0.5-0.7-1-1.4-1.5-2.1
							c0.4,0.8,0.8,1.5,1.1,2.3c-1.4-2.1-2.7-3.8-3.8-5.7c1.4,2.2,1.6,3.4,0.8,2.1c-1.3-2.7-1.8-2.5-3-4.4c0.6,1.1,1.5,2.5,0.7,1.7
							c-1-2-1.6-3.3-2.3-4.5c-0.3-0.6-0.6-1.2-0.9-1.9c-0.1-0.3-0.3-0.7-0.5-1.1c-0.1-0.2-0.1-0.4-0.2-0.6c0-0.1-0.1-0.2-0.1-0.3
							s-0.1-0.2-0.1-0.2c-0.1,0.1-0.2,0.1-0.3-0.1c0,0-0.1-0.4-0.2-0.7s-0.2-0.6-0.3-1c-0.4-1.4-0.8-2.9-1.1-3.2l0.5,1.9l-1.5-3.9
							c-0.6-3.8,1.4,3.1,0.1-2.6c-1.4-5.1-2-4.8-3.1-8.9c0.7,1.2,1.9,4.4,2.8,7.6l-0.4-2c0.5,1,1.7,5.5,2.3,7.7
							c-1.4-3.6,0.4,1.8,0.5,3.5c0.4,0.2-0.3-2.1,0.8,0.6c-0.8-2.6-0.9-3-1.7-6.4c1,3.6,1.7,5.2,2.4,6.6c0.2,0.3,0.1,0.1,0.3,0.2
							c0.2,0.3,0.4,0.6,0.7,1c0.5,0.8,1,1.8,1.7,3.2c-1.5-2.5,0,1.1,0.1,1.5c0.7,1.2,2.2,3.5,2.9,4.4l-0.1-1.1c2.1,3,2,4.6,4.9,7.7
							c0.5,0.3-2.1-3.1-1.6-2.5c1.8,2.3,2.9,3.9,3.9,5.4c1,1.6,2,3.1,3.5,5.1c0.3,0.1,0.5-0.1,1.9,0.9c-0.6-0.2,0.2,0.9-1.3-0.4
							c1.1,1.3,2.7,2.5,3.8,3.4c-2.5-2.4,1.3,0.6,1.9,0.9c1.3,1.1-0.6-0.1-1.5-0.8c0.5,0.5,1,1.1,1.5,1.6s1,0.9,1.5,0.9
							c-0.1,0.1-1-0.3-2.1-1c-1.2-0.7-2.5-1.7-3.5-2.6c0.4,0.4,0.9,0.9,1.3,1.3c-1-0.7-1.2-0.9-2.5-2.2c1.1,1.4,0.8,1.5,0.3,1.4
							c-0.1-0.2,0.2,0,0-0.1c-1-1.1-1.9-1.8-1.7-1.5c-1.2-0.7,1.3,1.7,1.9,2.5c0.6,0.5,1.2,1,1.7,1.5c2.2,1.4,4.5,2.5,6.8,3.5
							c2.7,1.5,3.8,2.4,5.9,3.4l0.7-0.1c2.4,1,4.8,1.5,3.1,1.6c-0.1-0.1-0.4-0.2-1-0.4c-0.1,0-0.2,0-0.4,0c-0.1,0-0.1,0-0.2,0
							c2.8,0.7,4.5,0.7,4.7,0.8c-1.2,0-1.8,0-2.1,0s-0.2,0.1,0,0.3c0.4,0.3,1.3,0.6,0.9,0.9c1.7,0.2,3.3,0.2,5,0.1
							c-3-0.2-0.1-0.3,1-0.5c0.2,0.2,1.2,0.1,2.3-0.1c0.6-0.1,1.2-0.3,1.8-0.4c0.6-0.1,1.1-0.3,1.5-0.4l-0.1,0.1
							c1.6-0.3,4.3-1.4,6.1-2.4c-0.1,0,0.4-0.5,1-1c0.6-0.6,1.3-1.3,1.7-1.8c-3,1.7-1.3,0.5-1.7,0.4c0.3-0.2,0.9-0.5,0.9-0.6
							c0.4-0.3-0.6,0.2-0.8,0.2c-0.7,0.5-1.6,0.9-2.3,1.4c-0.8,0.4-1.5,0.8-2.2,1.1s-1.3,0.6-1.9,0.9c-0.6,0.2-1,0.5-1.3,0.7
							c0.6-0.1,1-0.2,1.4-0.4s0.9-0.5,1.5-0.6c-1.5,1-3.8,1.6-6.7,2c-0.3,0-0.7-0.1-1-0.2c-1,0.2-1.9,0.2-2.9,0.3
							c0.6-0.1,0.7-0.2,1.1-0.3c0.2-0.1,0.4-0.1,0.8-0.1c0.4-0.1,0.9-0.1,1.6-0.2c-0.2-0.1-0.9,0-1.9,0c-0.5,0-1,0-1.5,0.1
							c-0.5,0-1,0-1.5-0.1c-0.3,0.1-0.7,0.2-1,0.3c0.2-0.1-0.7-0.3-1.3-0.4c-0.6-0.2-0.8-0.3,0.6-0.2c1.5,0.1,3,0.1,4.5,0L69,253
							c1.2,0,2.5-0.1,3.7-0.3c-0.3,0.1-0.6,0.2-0.8,0.3c1.5-0.2,2.3-0.4,2.9-0.5s0.8,0,1,0s0.5,0,1-0.1c0.6-0.1,1.4-0.4,2.8-1.1
							c1.6-1.2,3.5-2.2,6.9-4.4c-2.3,1.8-0.1,0.4-0.8,1.3c1.3-0.8,2.1-1.4,2.7-2s1-1.1,1.6-1.7c0.8-0.3,1.3-0.5-0.8,1.2
							c0.1,0.7,2.7-2.4,3.3-2.2c3.4-3.2,4.3-5,5.4-6.7c1.1-1.8,2.4-3.7,5.9-8l-0.1,0.5c3.9-5.9,6.3-9.3,9.5-15.2
							c1-1.4,2.1-2.9,3-4.3c-0.4,1.1-1.7,4.1-0.7,2.9c-0.9,1-1.6,2.1-2.3,3.2c-0.7,1.1-1.4,2.3-2.3,3.4c0,0.3,0.6-0.6,1-1
							c-0.8,1.4-1.5,2-2.6,3.9c0.2,0,1.6-2,0.7-0.4c-0.6,0.8-1.2,1.6-1.9,2.3c-2.1,3.4-0.3,2.1-3.2,5.8c0.2-0.9,0.9-2.6,1.9-4.1
							c-1.2,1.7,1.4-2.5,0.2-0.9c-0.7,1.4-1.3,2.4-2,3.4s-1.5,2.1-2.7,3.8c0.2-0.4,0.2-0.6,0.8-1.4c-1.2,1.5-2.5,3-3.8,4.4
							c0.6-0.5-0.1,0.5-0.9,1.6c-0.8,1-1.7,2.2-1.3,2.1c2.1-2.2,2.8-3.1,3.6-4.1c0.8-0.9,1.6-2,3.8-4.8c-0.5,0.9-1.2,1.8-1.7,2.8
							s-0.9,1.8-1.2,2.4c-0.1,0-0.1,0.1-0.3,0.3c-0.4,1.1,0.4,0.3,0.9,0.8c1.7-2.9,3.3-4.4,5.4-7.8c0.1-0.8-1.7,1.6-2.8,3.2l1.8-2.9
							l-0.3,0.6c0.9-1.2,1.7-2.4,2.5-3.6c0.8-1.2,1.6-2.4,2.4-3.6c-0.9,1.4-1,2-1.3,2.8c0.6-0.9,1.3-1.9,2-2.8c-0.4,0-0.6-0.3,0-1.2
							c3-4.8,4.8-7.4,6.2-9c0.1-0.2,0.2-0.4,0.3-0.6c-0.4,0.3-0.1-0.6,0.4-1.9c0.2-0.6,0.5-1.3,0.8-2c0.1-0.2,0.1-0.4,0.1-0.5
							s0-0.1,0-0.2c0-0.1,0-0.3,0-0.4c0.4,0.2,0.9-2.8,1.5-4.4c-0.2-0.9-1.1,0.1-1.9,1.9c-0.2,1.9-0.3,2.5-0.2,2.7
							c0.1,0.1,0.3,0.2,0.3,0.7l-1.2,2.7c-0.4,0.9-0.8,1.9-1.3,2.8l0.4-1.4c-1.6,2.6-2.7,5.4-2.9,5c0.5-1.6,2-3.8,2.5-5.4l-1.1,1.7
							c1.3-3.3,1.3-1.4,3-5.4c-0.5,0.6-0.5,0.5-0.3,0.1c0.1-0.1,0.1-0.3,0.2-0.4c0-0.1,0.1-0.1,0.1-0.2c0-0.1,0-0.1,0-0.2
							c0-0.1,0,0,0-0.2v-0.4c-0.2,0.5-0.2,0.5-0.3,0.8c-0.3,0.6-0.8,1.4-1.1,2.1c-0.7,1.4-1.4,2.4-1.3,1.7c0.2-0.5,0.6-1.2,1-1.9
							c0.2-0.4,0.5-0.8,0.7-1.2c0.1-0.2,0.3-0.4,0.4-0.6l0.1-0.1v-0.1l0.1-0.1c0.1-0.1,0.1-0.1,0.1-0.2c0,0,0.1-0.1,0.1-0.3l0.1-0.4
							c0.1-0.5,0.3-0.9,0.4-1.4c0.2-0.9,0.4-1.8,0.4-2.6v0.2c1.1-4.3,1-5.9,1.1-7.6c0.6-1.8,0.8-4.4,1.2-6.4l0.2,0.1l0.5-2.8
							c0.1,1.4-0.7,3.3-1.1,5.7l0.4-0.2c-1,2.7-0.8,4.7-0.9,6.9c0.4-3.2,2-8.9,1.4-9.8l0.8-1.9l0.1-1c0.6-1.4,0.7,0.2,0.2,3
							c-0.2,0.5-0.3,0.7-0.3,0.6c-0.1,1.3-0.1,2.6-0.8,5.8l0.2-1.7c-0.9,3.9-1.5,7.5-1.5,9c1.4-5.6,2.7-11.2,3.7-16.6
							c-0.5-1.7-0.6-3.7-1.1-4.6c0.6-3.6,1.3-8.5,2.2-11.6l0.1,0.3c0.3-1.5,0.5-2.9,0.6-4.1c0.5-1.6,0.2,1.2,0.5,0.1l0.6-5.2
							c0.3,0.4-0.4,4.7-0.8,6.8c0-0.4,0.1-1.2,0-0.9c-0.5,2.4-0.8,7-1.4,7.9c-0.1,1.2,0.1-2.4-0.7,1.5c-0.7,2.6-0.4,3.6-0.3,3.9
							c0.2,0.1,1-4.1,1-2.6c0.4-2.1,0.3-2.9,0.9-5.5c-0.3,2.1-0.5,4.9-1,5.9c-0.4,4.1,0.6,3.7,1,1.8c-0.4,0.4,1-7.4-0.3-2.2
							c0.1-2.4,0.9-6.8,1.2-10l0.1,0.1l0.6-3.9c0,0.6-0.1,1.8,0.1,1.8l0.4-5.5c-0.1,3.1,0.5-1.8,0.9-3.2c-0.2-0.6-0.1-2.8-0.6-0.8
							c-0.6,2.2,0,1.3-0.3,3.4v-3l0.1-0.2l-0.1-1.8c0.6-4,0.6,1.9,1-3.3l-0.6,0.6c0.9-5.9,2.4-13.4,2.6-17.6c0.2,1.2,0.6,1.8,1,0.2
							c-0.3,1.8-0.7,5.4-1,8c-0.1,0.5-0.2-3.3,0.2-6.1c-1,1.3-0.3,7.1-1.2,7.4c-1.2,7.1,0.1,5.4-1.3,11.4c0.4,0.1-0.1,1.8,0.2,2.1
							c0.9-1.7,1.2-8.1,1.9-12c0,0.4-0.1,1.2,0,1.3c0.5-2.8,0.5-4,0.6-6l-0.1,0.2c0-3.5,0.5-2.1,0.9-4.1c0-0.8,0.4-3.6,0.1-3.2
							l0.7-3.6l-0.4,0.1c0.2-2.1,0.5-2.5,0.4-4.4l-0.4-0.1l-0.6,5.1c0.1-2.6-0.3-0.8-0.1-3.6c0.1,3.2,0.4-2.2,0.8-2.5v-2.1l0.1,0.6
							c0.3-1.6,0-2,0.2-3.9c-0.4,2.3-0.8,3.7-0.8,6.7c0-2.1,0.1-6.3,0.1-7.4c0-2.2,0.4-3.8,0.5-5.8c-0.1,4,1.3-1.3,0.5,6.6
							c-0.1-0.2,0-0.8,0.1-1.1c-0.6,1-0.3,4.8-0.3,6.5c0.3-0.4,0.2,1.4,0.6-1.7c-0.3,1-0.4-2.6,0-5.6l0.6,0.6l0.3-4.3v0.4
							c0.5-1.6,0.2-4.6,0.5-7.5c-0.1-2.1,0.2-10.3-0.5-6.8c0.4-2.6-0.1-4.9-0.2-7.8c-0.1,1.2-0.1,2.4-0.2,3.6
							c-0.5-4.2-0.2-3-0.9-6.3c0.1-0.3,0.3-1.1,0.5-0.4c-0.1-5.7-0.7-13.7-1.6-16.8c-0.3-1.9-0.3-3.1-0.3-4.4
							c-0.1-1.3-0.2-2.9-1-5.5c-0.4-1.1-0.3,1-1-2.5c0-0.3,1.3,3.3,0.2-0.6c-1.2-2.6-1.6-6.5-3.5-9.7c-0.6-1.8-2.2-4.7-1.6-4.3
							c0.3,0.7,0.7,1.4,1.1,2.2s0.7,1.5,1.1,2.2c0.6,1.4,1.2,2.5,1.3,2.8c-0.4-0.3,0.5,2.1-0.4,0.1c0.7,2.2,0.9,2.9,1.2,3.6
							c0.3,0.6,0.5,1.2,1,3.3c0.2,0.3-0.2-2.2-0.6-3c0.3-0.1,0.9,1.9,1.4,3.5c0.4,1.6,0.8,2.7,0.7,0.8c-0.2-1.1-0.6-2-0.9-2.8
							c-0.3-0.8-0.6-1.4-0.9-2.1c-0.6-1.3-1.1-2.5-1.6-4.4c0.4,0.7,0.8,1.6,1.2,2.6s0.8,2,1.3,2.9c-0.3-1.1-0.5-2.1-0.8-3.2
							l-1.1-2.1l0.1,0.1c-0.8-2.7-1.5-3.9-2.3-4.9c-0.4-0.5-0.8-1-1.2-1.6c-0.5-0.6-1-1.3-1.7-2.3c1.2,2.6-1.1-0.1-0.2,1.8
							c-1.7-2.7-3.1-4.4-2.8-4.8c2,2.2,2.1,2.3,2.3,2.2c0.1,0,0.1-0.1,0.4,0.2c0.3,0.2,0.8,0.7,1.6,1.9c-0.3-0.9,1.4,0.8-0.4-2.2
							c-1.3-1.5-1.2-1.2-1.1-0.9c0.1,0.1,0.1,0.3,0,0.2s-0.4-0.4-1-1.1c-0.1-0.2-0.2-0.4-0.1-0.4c-0.6-0.6-1-1-1.4-1.5
							s-0.8-0.9-1.7-1.7l0.4,0.3c-1.6-2.3-2.3-2-3.6-4c0.2,0.5-0.1,0.2-0.7-0.2c-0.5-0.5-1.3-1.1-1.9-1.5c0.8,0.9,1.4,1.6,2.1,2.6
							c0.7,1,1.6,2.2,3.2,4c0.6,0.2,0.5-0.1,1.9,1.2l-2.1-2.3c0.5,0.5,0.9,0.8,1.3,1.2c0.6,0.8,1.3,1.5,1.8,2.3
							c-0.6-0.7-1-1.1-1.3-1.3s-0.5-0.3-0.6-0.4c-0.3-0.1-0.4,0-1-0.4c-2.2-2.6-1.9-2-3.3-3.7c0.1,0-0.1-0.4-0.4-1
							c-0.4-0.5-1-1.3-1.8-2.1c-0.7-0.8-1.5-1.7-2.3-2.6c-0.4-0.4-0.8-0.9-1.2-1.3c-0.4-0.4-0.8-0.8-1.1-1.1
							c0.4,0.4,1.1,0.9,1.4,1.2c1.1,0.9,0.8,0.5,0.3-0.2c-0.6-0.6-1.5-1.5-1.5-1.5l-1.7-1.2c0.3,0.2,0.8,0.5,0.2-0.1
							c-2.2-1.8-2.3-1.4-4.6-3c0-0.3,2.1,0.8,0.8-0.3c-0.2-0.3-0.6-0.8-1.3-1.5c-0.4-0.4-0.8-0.8-1.4-1.2c-0.6-0.5-1.2-1-2.1-1.4
							c-0.3-0.1-1.1-0.5-2.1-1.1c0.1,0.1,0.3,0.2,0.4,0.2l-2-1.6c1,0.4,1.9,1,2.8,1.6s1.8,1.2,2.8,1.7l0.4-0.2
							c1.4,1,3.3,2.2,4.3,2.7c-2-1.6-2.5-1.8-4.9-3.5c-0.2-0.4,1.6,0.6,1.8,0.8l-0.5-0.1c1.3,1.1,2.4,1.8,3.6,2.6
							c1.2,0.7,2.4,1.6,4,3c0.5,0.4,0.2,0.2,0,0.2c3,1.9,5,4.8,7.8,6.8l-0.9-0.6c0.4,0.4,1,0.8,1.6,1.4c0.6,0.5,1.3,1.2,2,1.9
							c1.4,1.4,3.1,2.9,4.8,4.5l0.1-0.1c-0.3-0.5,0.8,0.9,1.4,1.7l0,0c1.5,1.8,2.8,3.6,3.8,5.2c-0.2-0.6-0.5-1.3-0.9-2
							c-0.5-0.6-2.8-4.2-2.8-3.5c-1-1.8-3.4-3.8-4.2-5c1.5,2.1-1.5-1.1-1.9-1.3c-0.2-0.4-0.8-1.1-1.4-1.7s-1-1-0.8-1
							c-0.3-0.4,0.8,1,1.6,1.7c1,0.9,0.2-0.1-0.5-1c-0.8-0.9-1.5-1.6-0.2-0.6c-1.6-1.4-3.4-3.1-5.3-4.8s-3.9-3.2-5.7-4.5l1.8,1.7
							c-0.7-0.6-2-1.7-3.1-2.6c-1.2-0.9-2.2-1.6-2.3-1.8c1.2,0.9,2.6,1.8,4.1,3c0.2-0.1-0.7-0.9-1.6-1.6s-1.9-1.4-1.9-1.5l-2.4-1.4
							l-1.2-0.7c-0.4-0.2-0.8-0.4-1.2-0.6l1,0.6l0.9,0.7c-0.7-0.4-2-1.3-3.6-2.3c-0.8-0.5-1.6-1.1-2.4-1.7c-0.8-0.6-1.7-1-2.5-1.5
							c2.2,0.5,4.8,2.8,8.2,4.8c2.4,1.5-1.1-1.4,1.1,0c-0.3-0.3-0.7-0.7-1.3-1s-1.1-0.7-1.5-0.8l-0.8-0.6c1.1,0.5,2.9,1.4,4.6,2.6
							c0.9,0.6,1.8,1.2,2.7,1.8c0.9,0.6,1.7,1.1,2.5,1.6c-0.3-0.2-0.5-0.3-0.6-0.3c1,1,2,1.9,3.1,2.8c0.5,0.4,1.1,0.9,1.6,1.3
							l0.8,0.6l0.8,0.7c-0.9-1.1-1.4-1.4-2.1-1.9c0-0.1,0.5,0.3,1.1,0.7c0.6,0.4,1.2,1,1.6,1.3c-1.7-1.8-0.1-0.5-1.3-1.7
							c1.3,1,2.2,2,3.6,3.4c0.6,0.9-0.8-0.4-0.8-0.1c0.8,0.7,1.3,1.3,1.8,1.9c0.6,0.7,1.2,1.4,2.3,2.4c-2.6-3,1.1,0.4,2.1,1.3
							l-0.4-0.5c1.1,0.8,1.8,1.5,2.2,2.4c-1.2-1.1-2.2-2.4-2.1-1.8c0.7,0.8,1.5,1.6,2.3,2.4l-0.9-0.7l1.8,2c0.6,0.7,1.2,1.4,1.8,2.2
							c0.7,0.6,1.9,1.6,2.6,2.1c0.3,0.7,0.7,1.3,1.1,2c0.4,0.7,0.8,1.4,1.2,1.9l-0.4-0.5c0.3,0.6,0.6,1.3,0.9,2.1
							c0.4,0.8,0.8,1.6,1.1,2.4c0.7,1.6,1.3,2.9,1.5,3.1c0.2,0.8-1.1-1.9-2.1-3.4c-0.5-0.8-0.9-1.2-0.7-0.8c0.1,0.2,0.2,0.7,0.5,1.4
							s0.7,1.8,1.2,3.2c0.8,2.2,1.1,2.8,1.5,3.2c0.3,0.4,0.6,0.5,1.1,1.8c0,0-0.1-0.1-0.1,0.1c0.5,2,0.8,2.1,1.3,3.7
							c-0.2-1.2-0.6-2.9-0.9-3.4c0.5,0.5,1,4.1,1.5,5.6c-0.4-0.9-0.3,0-0.1,1s0.4,2.1,0.1,1.3c0.5,4,1.3,8.1,1.9,10.2
							c-0.3,2.7,0.6,4.7,0.6,9.1c0-0.7-0.2-1.9-0.2-2.8c-0.5-2.4,0.1,4.5-0.5,0.7c0.1,0.8,0.2,0,0.1-0.8c-0.1-1.4-0.4-2.8-0.6-2.4
							c0,1.2,0,2.4-0.1,3.5l-0.2-1.2c0,1.8-0.1,3.6-0.1,5.3c0.1,0.1,0.1-0.4,0.2-0.6c0.1,6.2,0.4,13.2,0.2,18.6
							c0.5,0.5,0.5,3.8,0.4,7.6c-0.1,3.7-0.4,7.9-0.3,10.1c-0.2-1.2-0.7-1.9-0.9-1.2c0-1-0.2-3,0-5.2c0.2-0.3,0.5-3.1,0.6-1.3
							c0.2-6.1-0.5,0.8-0.8-1c-0.3,6.7,0,10.7-0.2,15l-0.1,0.1l-0.1,3.2c0.3-2.6,0.9-2.4,0.4,0.9v-0.4c-0.4,1.9-0.6,5.9-1,8.9
							l0.1,2.1c-0.4,3-1.1,3-1.6,4c-0.7,4.7-0.6,7.4-0.8,10.8c-0.5,1.5-1.7,8.4-1.4,4.7c-0.4,4.2,1.1,3.6-0.9,10.7l0.1-1.9
							c-1.1,6.9-2.5,16.8-3.5,19.9c-0.4-2.7-2.7,8.4-3.9,9.4c0.3-0.3-0.2,2.3-0.2,2.7c-0.2,0.5-0.6,1.4-0.6,2.5
							c0.8-2.6,0.5,2.1,1.3-3.1c0,1.4,0,2.9-0.3,4.8c-0.1,0.5-0.1,1-0.2,1.5c-0.1,0.3-0.1,0.6-0.1,0.9c-0.1,0.2-0.1,0.4-0.1,0.7
							c0,0.2-0.1,0.5-0.2,0.7c-0.3,0.6-0.6,1.3-1,1.9c-0.3,0.6-0.6,1.2-1,1.9l-0.3-0.3l1.1-2l0.6-1.1l0.4-0.8l0.2-0.9
							c-0.4,0.3,0.2-2,0.3-3c-0.3,1-0.5,1.8-0.7,2.3c-0.1,0.4-0.2,0.6-0.3,0.9c-0.1,0.3-0.1,0.5-0.3,0.6c-0.4,0.5-0.4,0.3-0.4,0.1
							s0-0.4-0.3,0.1c-0.2,0.3-0.4,0.6-0.7,1.1c-0.3,0.5-0.7,1.2-1.2,2.2c-0.2,0.9,0,0.3-1,2.4c0.5-0.9,0.4-1.2-0.5,0.3l-0.5,1.6
							c-2,2.4,2.1-4.6,0.4-2.6c0.7-1.6,1.6-3.6,2.3-5.3c0.1-0.2,0.2-0.5,0.3-0.7c0.1-0.2,0.1-0.4,0.1-0.7c0.1-0.4,0.1-0.7,0.1-0.9
							c0-0.4-0.1-0.6-0.2-0.4c-0.1,0.3-0.2,0.6-0.2,0.9c-0.1,0.3-0.1,0.6-0.2,0.9c-0.3,0.5-0.4,0.9-0.6,1.3c-0.3,0.8-0.5,1.4-0.7,2
							c-0.4,1.2-0.8,2.5-2.3,4.9l-0.5,0.4c-0.8,1.8-0.8,2.3-1.1,3.3c-0.2,0-0.5,0.4-1.2,1.5c-1.4,3.2-2.5,5.2-3.8,8.1
							c4.3-7.3,4.3-5.9,8.3-13.6c-0.5,1.3-3.5,6.6-3.3,7.2l-0.3-0.3c-1.3,2.5-2.7,5-4.8,7.9l1-1.9c-2.4,4.1-5,6.1-6.8,9.5
							c0.9-1,1.5-1.9,2-2.6c-1.3,2.1-3.3,4.5-5.2,6.4c-1.1,1.5-2.2,3-3.4,4.5c-0.1-0.1-2.7,2.3-1.7,0.9c-3.1,2.6-4.3,4.2-6.2,5.7
							c-1.9,1-1.1,0.5,0.1-0.4s2.7-2.3,2.7-2.6c-4.4,3.6-9.8,6.8-12.8,8.4c1.1-0.4,1.7-0.6,1.7-0.5c-0.1,0-0.7,0.2-1.4,0.5
							c-0.7,0.3-1.6,0.6-2.3,0.9c-0.3,0.2-0.5,0.4-0.8,0.5c-2.2,0.5-1.9,0.3-0.2-0.5c-2,0.6-4.5,1.6-6.8,1.5
							c1.8-0.4,3.9-0.8,5.7-1.3c1.8-0.5,3.3-1.1,4.2-1.5c-3.5,1.5-5.5,1.8-7.6,2c-1.1,0.1-2.2,0.2-3.7,0.2c-1.5,0.1-3.3,0.1-5.7-0.1
							c-0.1-0.1,1.5-0.1-0.3-0.4c-1.1-0.1-1.7-0.2-2-0.2c-0.3,0-0.4,0-0.4,0.1c0.1,0.2,0.5,0.4-0.2,0.4c0.4,0.1,0.8,0.1,1.2,0.2
							c0.4,0,0.7,0.1,1,0.1c0.6,0.1,1.2,0.2,1.7,0.2c1.1,0.1,1.9,0.3,2.9,0.4l-0.9,0.2c-0.1-0.1-2.3-0.2-2.9-0.4l-0.6,0.3
							c0.3-0.4-3-1.2-5.6-1.8c2.5,1,1.8,0.8,2.4,1.5c-1.9-0.2-2.9-0.6-4-1.1c-0.5-0.2-1-0.5-1.7-0.8s-1.4-0.5-2.4-0.9
							c0.3,0,3.7,1.3,0.9,0c-2.3-1.1-2.2-0.7-3.8-1.4c1.9,0.6,1.6,0.1,3.7,0.6c2.1,0.9,2.5,1,3,1.2c0.2,0.1,0.4,0.1,0.9,0.3
							s1.1,0.3,2.2,0.6c-1.2-0.4-2.3-0.9-3.5-1.5c3.6,1.2,2.8,0.5,3.1,0.4c-1.5-0.6-2.5-0.9-3.3-1.2c-0.8-0.3-1.3-0.4-1.8-0.5
							s-0.8-0.2-1.4-0.4c-0.5-0.2-1.1-0.5-2-1c-0.9-0.4-0.1,0.1,0.6,0.5c0.7,0.4,1.3,0.7-0.1,0.1c-1.7-1-1.9-1.1-2.2-1.1
							c-0.3-0.1-0.7-0.1-2.5-1.3c0.2,0.1,0.5,0.2,0.7,0.3c-1-0.9-2.2-1.5-3.4-2.4c-0.7-0.5-0.5,0.1-0.9,0.2
							c-0.3,0.1-1.2-0.1-3.8-2.5c0.3,0.2,0.5,0.2,0.5,0.1c2.4,0.7,4.8,1.3,7.2,1.7c-5.5-4-10.9-9.7-15.4-16
							c-0.3-0.9,0.6,0.1,1.7,1.3c1,1.2,2.2,2.4,2.1,2.2c0.7,0.9,1.5,1.8,2.2,2.7c-0.2,0-1.4-1.3-2.4-2.4c-0.9-1.1-1.6-1.8-0.8-0.4
							c2.1,2.3,3.6,4,5.2,5.6c1.6,1.6,3.2,3,5.7,4.7c-0.5-0.8-2-2-3.6-3.5s-3.4-3.2-4.4-4.8c1,1.2,2,2.2,3,3
							c-2.5-2.6-4.9-5.6-7.3-8.9l-0.7-0.6c1.6,2.2,2.8,3.7,2.9,3.9c-2.3-2.8-4.3-5.1-4.8-5.1l0.4,0.5l-0.9-1
							C30.9,232.5,30.4,231.7,30,231z M38.9,9.3c-0.2,0.2-0.3,0.3-0.4,0.4C38.6,9.6,38.4,9.6,38.9,9.3z M89.3,250.9
							c-4,2.7-8.4,4.7-12.8,5.6c4.1-0.5,7.5-1.8,8.3-1.9c0.4-0.1,0.2,0.2-0.9,0.8c-1.2,0.6-3.2,1.7-6.7,2.5l-0.9,0.3
							c1.9-0.2,5-1.2,7.7-2.6c0.5-0.3,1.3-0.9,2.2-1.5c0.9-0.7,1.8-1.4,2.6-2.2c0.8-0.8,1.6-1.5,2.1-2.1s0.8-0.9,0.8-0.9
							c-0.4,0.2-0.8,0.5-1.3,0.9s-1,0.8-1.7,1.2L89.3,250.9z M93,250c2.2-1.7,1.6-1.5,1.8-1.9c-0.7,0.7-1.4,1.3-2.2,1.9
							C92.9,249.9,93.1,249.8,93,250z M94.5,248.1c-0.2,0.2-0.4,0.4-0.6,0.4L94.5,248.1z M46,248.4c0.1,0.1,0.1,0.1,0.2,0.2
							c-0.5-0.4-1-0.9-1.5-1.3C45,247.5,45.3,247.8,46,248.4z M50.2,252.2l0.7,0.1c-0.5-0.3-1-0.7-1.5-1.1
							C49.6,251.4,49.7,251.7,50.2,252.2z M66.9,259.7c0.6-0.2,1.9-0.1,3.1-0.3c1.2-0.1,2.2-0.3,2.3-0.5c0.2-0.1-0.6-0.1-1.5-0.1
							c-0.5,0-1,0-1.6,0c-0.5,0-1.1-0.1-1.7-0.1c0,0.1-0.3,0.1-0.7,0.1c1.1,0.1,1.9,0.3,1.4,0.5c-1.5-0.4-2.1-0.4-2.8-0.3
							c-0.7,0.1-1.5,0.1-3-0.3c-0.5,0,0.3,0.4,1.4,0.6C65,259.6,66.4,259.7,66.9,259.7z M132.6,50.4c0-0.1,0-0.4,0-0.9l1,2
							c1.2,3.8,1.3,7,2.5,10.3c0.2,1.7,0,2.6-0.1,3.5c-0.1-0.8-0.2-1.5-0.3-2.2c-0.4-1.2-0.6-2.2-0.8-3s-0.4-1.4-0.5-2
							c-0.2-1-0.3-1.6-0.3-2.2C134.1,54.9,134.2,54,132.6,50.4z M137.9,94.8c0-0.4-0.1-0.6-0.1-0.6c0.9,8.7,0.7,15.9,0.4,20.6
							c0.4-0.9,0.9-5.1,1.1-7.1l0.3,1.8l-0.4,1.1l0.2,3.1c0.3-0.8,0.4-3.3,0.7-5c-0.1-0.2-0.3-5.5-0.5-7c-0.1,1.4-0.3,2.8-0.4,4.3
							c0.2-1.2,0.2-6.8,0.1-9.1c-0.2,0-0.5,3.8-0.1,4.3c-0.3,0.4-0.2-4-0.6-1.2c-0.2-3.3,0-8.7,0-11.1l0.5-0.4
							c0.1-2.7-0.6-1.8-0.5-5c0.3,3.9,0.5-0.7,0.7,2.4c0.1-1,0.5,0,0.3-3.2c-0.8-2.6,0.2-3.4-0.6-5.8c0.1-1.7,0.5,1.8,0.3-1.5
							c-0.7-3.7-0.9-3.5-1.4-3.7c0.3,3.5,1,3.9,1.2,6.7c-0.4-1.9-0.9-3.8-1.3-5.6c0,1.1,0.1,1.8,0.2,2.5c-0.2-1.1-0.4-2.1-0.6-2.9
							c-0.1-0.5-0.3-0.9-0.4-1.3c0.4,3.2,0.6,6,0.5,6.6l-0.3-0.4c-0.1,1.2,0.2,3,0.4,3.8c0.2,2.9,0.6,5.7,0.4,6.4l-0.2-1.1
							C137.8,89.9,137.9,90.3,137.9,94.8z M121.5,209c0.2-0.2,0.4-0.4,0.7-0.6c0.2-0.2,0.5-0.4,0.6-0.7c0.3-0.6,0.7-1.4,1.1-2.3
							c0.7-2,1.6-5,2.6-9.9l-0.1,0.8c1.6-4.8,1.4-9.8,3.1-15.7c-0.3,3-0.3,2.8-0.2,6.2l0.4-3.2c0.3,1,0.6-2.2,1.1-4.5l0.1,2.1
							c-0.4,1.4-1.2,4.9-1,4.9c0.1-0.8-1.6,4.6-2.1,7.6c0.4-0.2,1.6-6.6,1.6-3.6c0.3-2.5,0.7-2.8,1.1-5.4c-0.3,2.6,0.4,0.7,0.2,2.6
							l0.7-4.3c0.1-0.1-1,6.3,0.1,2.9c0.2-1.8,1.3-6.3,0.9-6.4l0.1-0.1c0.7-3.2-0.3-1.5,0.7-5.4c-0.2-0.1-0.4,0.6-0.7,2.1
							c-0.1,1.2,0.1,1.4-0.3,3.9c-0.5,1.1,0.6-3-0.2-1.4c-0.4,0.8-1,6.5-1.2,4.6l0.7-3.2c-0.4-0.1,0.1-2.5-0.2-2.5
							c0.2-2,1-3.8,1-5.8c-0.1-0.9-0.8,0.5,0-2.8c1-2.5,2.2-10.2,2.5-13.1l0.1-2.6c-0.3,0.2-0.7,4.8-0.8,3.1l0.5-3.9l0.1,0.3
							c0.2-1.3,0.3-2.6,0.3-3.8c0.1,1.3-0.4,4.1,0.1,3.6c0.4-1.8,0.5-2.1,0.7-3.8c0,0.4,0,0.7,0,0.7c0.7-3.7,0-3.7,0-4.6
							c0-3.8-1,3.7-1.3,3.2c0.4-3.7,0.8-7.3,1.2-11c0,0.9,0,1.9,0.2,1.6c0.5-2.7,0.3,0,0.7-3.8c-0.6,0.2,0.2-4.8,0.1-7.5
							c0.3-1.2,0.4-1.5,0.2,1.3c0.4-0.3,0.6-4,0.7-5.3c0-0.8,0-2.1,0-2.9c-0.3,1.1-0.4,0.6-0.4-1.8l-0.1-0.1
							c-0.4,3.9-1.3,9.9-1.2,12.3l-0.1-0.7c-0.8,4.4-0.4,9.8-1.4,11.8c-0.2-0.2-0.2,0.9-0.5,0.8l-0.1,3.3l-0.1-0.7l-0.7,5.6
							l-0.1-0.2c0,2.7-0.1,4.8-0.1,6.5c0.2,0,0.2-0.1,0.2,0.8c-0.1,0.9-0.1,1.6-0.3,2.2l0,0l0,0c-0.3,1.4-0.6,2.2-1,3.9l0.8-5.2
							c-0.2-0.5-0.6-0.1-1.2,2.4c0.2-1,0-1.5-0.2-0.2c0.1,0.1-0.4,3.4,0.1,2.2c-0.7,4.9-2.8,12.8-3.8,20.3c0.7-5.4-1.2,4.2-0.2-1.7
							c-1.3,4-0.3,3.6-1.2,7.8c-0.2,0.3,0.5-2.3,0.4-3.3c-1.6,6.9-1.7,11.9-3.4,18.6l-0.4,0.2c-0.1,0.6-0.3,1.3-0.4,2
							C122.2,207.8,121.8,208.3,121.5,209z M115.2,221.1c-0.6,1.2-1.3,2.3-2,3.5c0.1-0.1,0.1-0.2,0.2-0.3c-0.6,1.2-1.3,2.3-1.9,3.5
							c1.5-2,2.7-3.1,0.9-0.1c0-0.3-0.7,0.4-0.1-0.6c-1.4,1.8-4.5,5.8-3.3,5.1c2.2-3.9,1.2-0.4,2.8-3.5c-0.7,1.8-2,3.2-2.9,4.7
							c0.8-1.7-0.8,0-2.6,2.1c-0.6,1-2.8,3.5-4,5.1c0.7-0.3-0.3,1.1,1.9-1.3c-0.7,1-1.9,2.4-3.4,3.9c0.5-0.6,1.4-1.8,1.3-1.8
							c-0.6,0.4-1.1,0.9-1.6,1.4c-0.5,0.4-0.9,0.9-1.3,1.1c-0.5,0.5-0.9,1-1.4,1.5c0.2-0.1,0.3-0.2,0.4-0.3l-1.5,1.8
							c2.1-2.2,1.1-0.9,1.2-0.7c-0.2-0.3-1.5,1.3-2.3,2c0.7-0.4,1.3-0.8,2-1.3c-0.7,0.9-3.1,2.4-2.4,2.3c0.5-0.4,0.9-0.8,1.3-1.1
							c0.4-0.4,0.8-0.7,1.1-1c0.7-0.6,1.3-1.2,1.9-1.8s1.1-1.2,1.7-1.8s1.2-1.4,1.9-2.2l-1.4,1.1c1.6-1.9,2.2-2.4,2.8-3
							c0.6-0.6,1.4-1.1,3.1-3.3c1.3-2,4.9-6.8,4.5-7.2c-0.2,0.7,2.4-2.6,3.1-4.4c0.7-2,3.8-7.5,2.6-6c-0.9,1.5-1.8,3.6-2.8,4.6
							c0.6-0.9,1.1-1.9,1.6-2.9l-1.3,1.7C116.2,220.9,115.9,220.9,115.2,221.1z M59.3,252.4C59.3,252.3,59.2,252.3,59.3,252.4
							L59.3,252.4L59.3,252.4z"/>
						<path class="st0" d="M100.1,15.1c-0.9-0.4-2.8-1.7-2.6-1.2C97.6,13.7,101,16.1,100.1,15.1z"/>
						<path class="st0" d="M97.9,13.4c-0.2,0-0.2,0.1-1-0.4l2.5,1.5L97.9,13.4z"/>
						<path class="st0" d="M96.5,10c-1.4-0.5-2.4-0.9-4.4-2c-0.4-1.1,3.5,1.7,4.8,1.6c-3.8-2.2-5.3-2.3-8.6-3.7
							C89,6.4,91,7.4,92.8,8.4C94.6,9.4,96.3,10.2,96.5,10z"/>
						<path class="st0" d="M98.6,10.2c-0.7-0.4-1.4-0.8-2.2-1.1l0.2,0.1c0.8,0.3,1.4,0.8,2.2,1.1L98.6,10.2z"/>
						<path class="st0" d="M128.2,51.1c-0.2,0.3,0.5,1.5,0.8,2.2C128.9,52.7,128.7,51.9,128.2,51.1z"/>
						<path class="st0" d="M12.9,54c0.4-1.4,0.8-2.8,1.3-4.2l1.5-4.1l0.8-2l0.9-2l1.9-3.9c-0.5,1.1-1.1,2.2-1.6,3.4
							c-0.3,0.6-0.5,1.1-0.8,1.7c-0.1,0.3-0.3,0.6-0.4,0.9c-0.1,0.3-0.2,0.6-0.4,1C15.1,47.4,13.9,50.2,12.9,54z"/>
						<path class="st0" d="M135.5,109.4c0-4.9-0.3-7-0.4-12c-0.6,6.5,0.6,8.6-0.2,14L135.5,109.4z"/>
						<path class="st0" d="M133.7,107.6c0.5-0.8,0.4,3.8,0.7,3.1c0-3.3-0.3-1.5-0.2-4.5L133.7,107.6z"/>
						<polygon class="st0" points="141.2,85.4 141.4,86.9 141.3,85.7 						"/>
						<polygon class="st0" points="132.5,129.6 132.5,129.1 132.1,131.5 						"/>
						<path class="st0" d="M132.4,128.5l0.1,0.5L132.4,128.5z"/>
						<path class="st0" d="M142.2,87.3c0-0.8,0-1.5,0-2.3l-0.3-1.1C142,85.1,142.1,86.2,142.2,87.3z"/>
						<path class="st0" d="M139.7,107l-0.1-2C139.6,105.4,139.4,108.1,139.7,107z"/>
						<polygon class="st0" points="130.6,144.4 130.5,146.8 130.5,146.5 130.7,144.2 						"/>
						<path class="st0" d="M140,122.6c0.5-1.3-0.3,4,0.3,1.2C140.4,121.3,140.1,122.3,140,122.6z"/>
						<path class="st0" d="M134.3,151.3c-0.1,0.3-0.1,0.7-0.1,1C134.3,151.9,134.3,151.5,134.3,151.3z"/>
						<path class="st0" d="M134.3,151.3c0.1-1,0.4-2.1,0.4-2.8C134.4,149.7,134.4,150.2,134.3,151.3z"/>
						<path class="st0" d="M132.6,163.1l0.2-0.9c0,1,0.1,0.5,0.1-0.4c0.1-1,0-1,0-1.1c0-0.2,0-0.4,0-0.6c0,0.3,0,0.6,0,0.8
							C132.5,162.5,132.4,163.4,132.6,163.1z"/>
						<path class="st0" d="M118.3,205.5c0.9-3.3,1.2-4.2,1.4-3.9c0.8-3.2,0.3-2.8,0.6-4.8C119.5,200.4,119.2,201.2,118.3,205.5z"/>
						<path class="st0" d="M120.3,196.8c0.1-0.4,0.2-0.8,0.3-1.3C120.4,196,120.3,196.4,120.3,196.8z"/>
						<polygon class="st0" points="137.6,149.7 137.7,151.9 137.7,151.1 						"/>
						<path class="st0" d="M116.6,208.9c0.3-0.6,0.8-1.5,1.1-1.9C117.5,206.8,116.3,209.5,116.6,208.9z"/>
						<path class="st0" d="M125.1,198.6c0.2-0.3,0.6-2.5,0.9-3.4C125.7,196.5,125,197.4,125.1,198.6z"/>
						<path class="st0" d="M112.7,218c0.3-0.5,1-1.3,1-0.8C114,216.3,114.3,215,112.7,218z"/>
						<polygon class="st0" points="123.6,204.8 123.8,204.4 124.2,202 						"/>
						<path class="st0" d="M129.4,197.3c0.3-2.7-1.7,4-0.9-0.6c-1.6,5.8,0.5-0.4-0.5,4C128.6,198.2,129.3,197,129.4,197.3z"/>
						<path class="st0" d="M128,200.7c-0.1,0.4-0.2,0.8-0.3,1.2C127.8,201.4,127.9,201,128,200.7z"/>
						<path class="st0" d="M108.5,234c0.2-0.3,0.3-0.6,0.4-0.8C108.8,233.5,108.7,233.8,108.5,234z"/>
						<path class="st0" d="M123.3,214.8l1.5-3.8c-0.9,2.6-4.3,8.6-3.7,8.4c1.2-1.9,2.4-4.3,2.7-5.4L123.3,214.8z"/>
						<path class="st0" d="M89,245.6c0.4-0.4,0.8-0.7,1.1-1.1c-0.5,0.4-1.1,0.8-1.6,1.2C89,245.3,88.4,246.2,89,245.6z"/>
						<path class="st0" d="M88.2,245.8l0.3-0.2C88.5,245.7,88.4,245.7,88.2,245.8z"/>
						<path class="st0" d="M112.7,227.6c0.8-1.1,1.3-2,1.9-3c-0.2,0.2-0.7,1-1.2,1.7C113,227,112.6,227.6,112.7,227.6z"/>
						<path class="st0" d="M80,251.7c0.8-0.4,1.5-0.7,2.3-1.1c-0.8,0.4-1.7,0.8-2.5,1.2L80,251.7z"/>
						<path class="st0" d="M68.8,252.9l-0.4-0.1c-0.7,0-1.3,0-2,0l0.4,0.1C67.5,253,68.2,253,68.8,252.9z"/>
						<path class="st0" d="M87.3,257.7c1-0.5,1.7-1,2.2-1.5c0.5-0.4,0.6-0.7,0.4-0.6l-1.7,1.1l-1.8,1c1.1-0.2,1.1-0.5,3.1-1.6
							C88.7,256.6,88,257.2,87.3,257.7z"/>
						<path class="st0" d="M18.1,181.8c0.5,0.8,1.3,4.8,1.1,5c-0.2-0.5-0.9-2.6-0.7-1.3l1.4,3c0.7,4.3-1.6-3-2.3-5
							c1,4.3,1.7,5.5,2.8,10c-0.3-1.4-0.4-2.2-0.4-3c0.4-0.3,1.2,4,2.1,7c-0.4-2,0.1-0.9,0.7,0.4c0.1,0.3,0.1,0.4,0.2,0.5
							c0.1,0.2,0.1,0.3,0.2,0.5l-0.1-0.4c0,0,0.1-0.1,0.1-0.4c-0.9-2.5-0.9-4.5-1.4-6.2c-0.3,1.8-1.5-5.5-2.3-7.5l-0.7-2.4l-0.2-0.9
							c0-0.2,0.2,0,0.7,1.4c-0.4-1.1-1.3-4.9-1.4-4.5l-1.9-8.6c0-0.3,0-0.6,0-0.8c-0.1-0.3-0.1-0.3-0.2-0.3
							c-1.5-6.3-2.5-12.6-3.6-18.9c-0.6-3.1-1-6.3-1.4-9.5l-0.7-4.8c-0.2-1.6-0.5-3.2-0.6-4.8c0.1,1.9,0.2,3.5,0.4,5.5
							c-0.9-2.9,0.4,3.2-0.2,2.4c-0.3-1.3-0.6-3.2-0.6-4.4c-0.3-0.4-0.3,1.3-0.5,1.1c0.4,4.9,1.6,5.4,2,10.2
							c-0.3-0.1-0.7-1.6-0.3,1.5c-0.1-0.3-0.1-0.5-0.2-0.8c1.1,4.9,0.1,3.9,1.3,6.9H11c0.7,2.2,1.5,6.5,1.9,8.9l-0.1-0.1
							c1.9,6.7,0.9,3.8,2.7,11.4l-1.2-3.4c0.4,2.7,1,3.2,1.4,5.1c-0.1-0.1-0.3,0.4-0.7-1.4l1.3,4.6c0.4,1.5,1,3,1.5,4.5
							C18.7,184.8,18,182.2,18.1,181.8z"/>
						<path class="st0" d="M20.5,193.6c0.1,0.5,0.2,1.1,0.4,1.7C20.7,194.7,20.6,194.1,20.5,193.6z"/>
						<path class="st0" d="M9.2,128l0.3,2.7C9.4,129.8,9.3,129,9.2,128z"/>
						<path class="st0" d="M24.9,206.5c-0.3-1.6,0.6,1.1,0.8,1.4l-1.6-5.7c-0.1,0.1-0.5-0.4-0.5-0.3L24.9,206.5z"/>
						<path class="st0" d="M23.9,200.5c-0.1-0.2-0.4-0.7-0.7-1.4l0.9,3.1C24.2,202.1,24.2,201.8,23.9,200.5z"/>
						<polygon class="st0" points="16.5,203.2 16.2,202.2 15.6,200.6 						"/>
						<path class="st0" d="M12.9,187c0.1,1.3,0.8,3.6,1.1,4.3C13.4,188.7,13.7,189.8,12.9,187z"/>
						<polygon class="st0" points="11.4,190.9 10.7,188.4 10.7,188.6 						"/>
						<path class="st0" d="M6.3,108.2c0-0.4-0.1-0.8-0.1-1.3C6.2,107.5,6.3,107.9,6.3,108.2z"/>
						<path class="st0" d="M8.3,130.6c-0.2-6.3,0.7,4,1.1,2c-0.2-1.1-0.4-2.2-0.5-3.4l0.2,0.3l-0.4-4.1c-0.2,0.9-0.1,1.5-0.4,1.4
							c-0.4-5.5,0.1-1.8,0.1-5.8c-0.3-2-0.3-4.1-0.5-6.1l0.1,0.5c0-0.5-0.1-0.7-0.1-0.9l-0.3-5.2l-0.1-2.6c0-0.9,0-1.7,0-2.6
							c0-3.4-0.1-6.9,0-10.3c0-3.8-0.6,2.1-0.8-0.7c0,0.5-0.1,1.1-0.1,1.7s0,1.2,0,1.8c0,1.2,0,2.5,0,3.6c0,2.2,0.1,3.9,0.3,4.1
							c-0.1-0.2-0.2-0.4-0.3,0.5c0.1,0.8,0.3,1.7,0.5,2.5c0-0.8,0.1-1.6,0.1-2.4c0.2,1.3,0.4,3.9,0.6,6.5c0.1,2.6,0.1,5,0.1,5.7
							c-0.4-4.7-0.8-2.3-0.8-8.8c-0.1,0.3-0.3,1.5-0.4,0c0.3,3.8,0.4,7.4,0.6,11.1C7.3,123,7.7,126.6,8.3,130.6z"/>
						<path class="st0" d="M12.1,55L12.1,55C12.2,54.9,12.2,54.9,12.1,55z"/>
						<path class="st0" d="M11.3,57.4L11,61.1c0.4-1.8,0.8-3.7,1.4-5.5l-0.2-0.5c0,0.5-0.5,2.4-0.8,3.2C11.3,58,11.3,57.7,11.3,57.4
							z"/>
						<path class="st0" d="M10.3,65.3c0.5-2.9,0.1-2.8-0.5-1.3c0.4-2.7,0.8-1.3,0.8-3.2c-0.3,0-0.9,3.3-1,4L10.3,65.3z"/>
						<polygon class="st0" points="7.2,86.8 7.1,86 7,88.1 						"/>
						<path class="st0" d="M7.1,86c0.1-0.7,0.1-1.4,0.2-2c-0.1,0.1-0.3,0.3-0.4,0.6L7.1,86z"/>
						<path class="st0" d="M8,78.7c0.1-0.8,0.3-1.8,0.4-2.9L8,78.7z"/>
						<path class="st0" d="M7.6,81L7.6,81L8,78.7C7.9,79.5,7.7,80.2,7.6,81z"/>
						<path class="st0" d="M7.3,84c0.3-0.3,0.7-0.7,0.9-3.6l-0.5,0.5L7.3,84z"/>
						<polygon class="st0" points="7.5,171.9 6.8,169.6 6.8,169.8 7.5,172.2 						"/>
						<path class="st0" d="M5,158.2c-0.2-0.6-0.3-1-0.4-1.4C4.7,157.4,4.9,157.9,5,158.2z"/>
						<path class="st0" d="M1.2,148.4c-0.1-2.9,1,3.8,0.3-1.4c0.1-0.3,0.3,0.2,0.6,1.1c0.3,0.8,0.5,2.1,0.7,3.3
							c-0.3-0.1-0.6-2.4-0.6-0.8c0.6,1.6,0.5,2.2,0.8,1.6c0.7,2.7,1.1,2.9,1.7,4.7c-0.4-1.6-0.8-4.2-1.2-6.9c-0.1-0.7-0.2-1.3-0.4-2
							c-0.1-0.7-0.2-1.3-0.3-2c-0.2-1.3-0.4-2.5-0.7-3.5c-0.8-2.3-1.3-0.8-1.9-0.7C-0.1,142.1,0.7,148.2,1.2,148.4z"/>
						<path class="st0" d="M1.3,152.9c0.2,1.3,0.3,1.7,0.5,2.5C1.9,155.1,1.5,153.9,1.3,152.9z"/>
						<path class="st0" d="M2.6,122.3c-0.1-0.2-0.5-2.6-0.6-2.1l0.5,3.6C2.4,122.9,2.5,122.6,2.6,122.3z"/>
						<path class="st0" d="M2.6,125.3l-0.2-1.6C2.5,124.1,2.5,124.6,2.6,125.3z"/>
						<path class="st0" d="M2.6,122.1c0,0.1,0,0.1-0.1,0.2C2.6,122.3,2.6,122.3,2.6,122.1z"/>
						<path class="st0" d="M9.3,70.3c0.2,0.1,0.3-1.5,0.4-2.2C9.6,68.7,9.4,69.6,9.3,70.3z"/>
						<path class="st0" d="M33,19.4l1.1-0.8C33.7,18.9,33.5,19,33,19.4z"/>
						<path class="st0" d="M48,3.7c0-0.1,0.1-0.1,0.2-0.2C48.1,3.5,48,3.6,48,3.7z"/>
						<path class="st0" d="M48.2,3.5C49,2.9,52,2.1,53,1.6l-0.1,0.1L54.8,1C52.9,1.5,49.1,2.8,48.2,3.5z"/>
					</g>
				</g>
			</g>
		</g>
	</g>
</g>
</svg>
