<?xml version="1.0" encoding="utf-8"?>
<!-- Generator: Adobe Illustrator 23.1.0, SVG Export Plug-In . SVG Version: 6.00 Build 0)  -->
<svg version="1.1" id="图层_1" xmlns="http://www.w3.org/2000/svg" xmlns:xlink="http://www.w3.org/1999/xlink" x="0px" y="0px"
	 viewBox="0 0 154.4 277.7" style="enable-background:new 0 0 154.4 277.7;" xml:space="preserve">
<style type="text/css">
	.st0{fill:#75AFDE;}
	.st1{fill-rule:evenodd;clip-rule:evenodd;fill:#75AFDE;}
</style>
<g id="XMLID_2_">
	<path class="st0" d="M75.5,259.2L75.5,259.2c-33.7,0-61.2-27.5-61.2-61.2V75.2C14.3,41.5,41.8,14,75.5,14l0,0
		c33.7,0,61.2,27.5,61.2,61.2V198C136.8,231.7,109.2,259.2,75.5,259.2z"/>
	<g>
		<g>
			<path class="st1" d="M51.2,232.3c-0.2,0.2-0.5-0.1-0.7-0.3C50.8,231.8,51.1,232,51.2,232.3z"/>
			<path class="st1" d="M49,233.1c0.2,0.1,0.3,0.2,0.5,0.4l-0.3,0.4c-0.2-0.1-0.3-0.2-0.4-0.1C48.5,233.6,48.9,233.3,49,233.1z"/>
			<path class="st1" d="M4.4,204c-0.2-0.1-0.2-0.8-0.3-1.2C4.6,202.9,4.6,203.6,4.4,204z"/>
			<path class="st1" d="M5,213.4c0.1-0.4-0.1-1.9-0.6-1.8c-0.2,0.6,0.3,2.1,0.5,3.1c0.1,0.6-0.4,0.5-0.1,1.3
				c0.3-0.1,0.4,1.1,0.6,1.5c0,0.7,0.2,1.6,0.4,2.6c0.3,0.9,0.6,2,1,2.9c0.6,1.2,1.4,2.7,1.9,3c-0.2-1-0.3-0.7-0.7-1.7
				c0.5-1.9-1.3-5.5-1.8-7.6c-0.3-0.9-0.3-1.8-0.5-2.8c-0.2-0.9-0.4-1.9-0.8-2.7c-0.1,0.3,0,0.8,0.1,1.3
				C5.3,212.9,5.3,213.3,5,213.4z M7.8,223c-0.6,0.1-0.8-1.4-1.2-2.3C7.1,220.8,7.9,222.1,7.8,223z"/>
			<path class="st1" d="M3.9,212.3c0.4,0.3,0.7,2.3,0.1,2.2c-0.1-0.9-0.1-1-0.4-1.9C3.8,212.7,3.9,212.6,3.9,212.3z"/>
			<path class="st1" d="M49.4,231.4c-0.6-0.6-1.2-0.8-1.7-1.1c-0.6-0.3-1.1-0.5-1.7-1.2c-0.2-0.4-0.4,0.1-0.7-0.1
				c-1.7-1.1-3.8-3.4-4.9-5c-0.5-0.3-1-0.9-1.5-1.3c-0.4-0.2-0.3-0.8-0.5-1.1s-0.7-0.5-0.9-0.8s-0.2-0.8-0.4-1.1
				c-0.6-0.7-1.3-1.5-1.8-2.3c-0.3-0.5-0.3-1.2-0.6-1.6c-0.3-0.6-0.7-1-1.1-1.6c-0.3-0.6-0.6-1.3-0.8-1.9l-0.4-0.9
				c-0.1-0.3-0.3-0.6-0.4-0.9c-0.5-1-0.8-1.9-1.3-3.1c-0.2-0.4-0.2-0.9-0.4-1.4s-0.2-1.2-0.4-1.8c-0.1-0.4-0.3-0.7-0.5-1.1
				c-0.3-0.9-0.3-1.9-0.4-2.9c0-0.5-0.1-1-0.1-1.4c0-0.2-0.1-0.4-0.2-0.7s-0.2-0.6-0.3-0.8c-0.3-5-0.5-9.9-0.2-15.1
				c-0.2-0.7-0.4-1.3-0.4-2.4c-0.3-0.9,0.6-0.2,0.5-0.8c0.2-1-0.1-2.6,0.7-2.6c0.4,0.9,0.1,3,0.9,3.4c0.4,4,0.4,7.8,0.5,11.6
				c0.1,1.5,0.4,2.8,0.5,4.2c0.1,0.8,0.1,1.6,0.2,2.4c0.1,0.5,0.3,0.9,0.4,1.4c0,0.4-0.2,0.5-0.2,0.8c0,0.4,0.1,1,0.2,1.6
				s0.3,1.2,0.4,1.4c0.2,0.6,0.4,1.2,0.6,1.7c0.2,0.6,0.4,1.1,0.7,1.8s0.8,1.5,1.1,2.2s0.3,1.5,0.7,2.3c0.7,1.9,1.8,3.9,3.1,6
				c0.2,0.3,0.5,0.6,0.7,0.9c0.2,0.3,0.2,0.8,0.4,1c0.3,0.4,0.8,0.8,1.2,1.2c0.7,1,1.5,2.1,2.3,3c0.2,0.2,0.2,0.6,0.4,0.8
				c0.3,0.4,1.4,1.1,1.9,1.7c0.2,0.2,0.3,0.5,0.5,0.8c0.4,0.4,0.8,0.6,1.3,1.3c0.1,0.1,0.4,0.4,0.4,0.4c0.1,0.1,0.3,0,0.4,0.1
				c0,0.1,0,0.7,0.3,1c0.5,0.5,1,0.8,1.3,1.1C49.5,230.6,49.6,230.9,49.4,231.4z"/>
			<path class="st1" d="M28.5,133.2c0.2-1.2,0.3-2.1,0.2-2.9c0-0.5,0.2-0.9,0.2-1.1c0.2-2.3,0.2-5.6,0-7.4c-0.3-2.9-0.1-5.7-0.2-8.7
				c0-1.5-0.1-3.4-0.2-4.5c0-0.5,0.2-0.8,0.2-1.1c0-1.2-0.1-2.6-0.2-4c-0.1-1.6-0.1-3.1-0.2-4c0-0.2,0.2-0.3,0.2-0.3
				c0-1.6-0.3-2.1-0.4-3.2c0,0,0-0.1,0.1-0.3s0.1-0.4,0.1-0.5c0-0.5-0.2-0.8-0.2-1.1c0-1.7,0.1-3.4,0-5c-0.1-1.3-0.5-2.7-0.5-4
				c0-0.8,0.2-1.1,0.2-1.3c0-0.2-0.2-0.3-0.2-0.3c0-2.4,0-5.3,0-6.9c0-0.4-0.1-0.5-0.2-0.8c0-0.3-0.1-0.7-0.1-1s0-0.5,0-0.7
				c0-0.5,0-1,0-1.6c0-1.2-0.1-2.9,0.1-4.4c0-0.4,0.1-0.8,0.2-1.2c0.2-1.8,0.7-4.1,1.3-6.4c0.7-2.3,1.5-4.6,2.3-6.6
				c1.5-4,3.5-7.8,6-11.2c1.4-1.9,2.7-3.6,4.1-5.1c2-2,4.2-3.6,6.5-5.3c0.7-0.5,1.3-1.2,2.1-1.7c2.6-1.9,4.4-2.9,6.8-3.9
				c3.7-1.5,7.5-2.6,11.6-3.1c7.5-1,15.5-0.6,22.9,2c5.3,1.9,10.3,4.6,14.7,7.7c4.2,2.8,8.9,7.5,12.3,12.4c2.3,3.2,4,6.7,5.6,10.1
				c0.6,1.2,1.2,2.3,1.6,3.5c0.9,2.6,1.5,5.2,1.9,7.9c0.1,0.7,0.2,1.3,0.3,2c0.1,0.7,0.1,1.3,0.2,2s0.1,1.3,0.1,2l0.1,1
				c0,0.3,0,0.7,0.1,1.1c0.1,2,0.3,4.1,0.3,6.1c0.1,2-0.2,4.1-0.2,6.1c0,2.2,0.1,4.2,0.2,6.3c0,2.9,0.2,6.2,0.4,8.2
				c0.1,1.8,0,3.2,0,4.5c0,2.7,0.3,5.5,0.4,8.2c0,0.8-0.2,1.6-0.2,2.4s0.3,1.5,0.4,2.4c0,0-0.2,0.6-0.2,1.1c0.1,2.2,0,4.5,0.2,6.6
				c0.1,1,0.1,1.7,0.2,2.6c0,1,0,2.2,0,2.4c0,1,0.3,1.8,0.4,2.6c0,0.5-0.2,0.8-0.2,1.1c0,0.4,0.2,0.9,0.2,1.3c0.1,2.8,0,6,0.2,9
				c0,0.7,0.3,1.4,0.4,2.1c0.1,0.9-0.1,1.8,0,2.6c0.1,1.6,0.2,3.2,0.4,4.8c0.2,3.2,0.4,6.3,0.5,9.5c0.3,6.2,0.5,12.4,0.9,18.5
				c0.3,2.6,0.5,5.3,0.7,7.9c0.1,1.3,0.2,2.6,0.3,4l0.1,2l0.1,1.9c0,0.7-0.1,1.3-0.1,2c0,0.5,0.2,1,0.2,1.5c0,1.3-0.3,2.7-0.3,4
				c-0.1,1.2-0.1,2.4-0.2,3.6c0,0.6-0.2,1.2-0.2,1.8c0,0.1,0.2,0.4,0.2,0.6c0,0.4-0.3,0.8-0.4,1.2c-0.3,2.3-0.9,4.7-1.6,7.1
				c-0.8,2.4-1.7,4.7-2.9,7c-2.2,4.6-5,8.8-7.9,12.5c-1.3,2-3.2,3.9-4.9,5.7c-0.6,0.6-1.3,1.4-1.9,1.9c-1.1,0.9-2.4,1.7-3.6,2.5
				s-2.2,1.7-3.3,2.4c-3.8,2.3-8,3.9-12.2,5.1c-4.2,1.2-8.2,1.9-11.9,2.7c-1.2,0.2-1.2-0.5-2-0.5c-0.7,0.6-1.9-0.1-2.4,0.3
				c-1,0.3-1.3,1-2.2,1.5c0.5,0.6-0.3,1,0.6,1.2c-0.2,0.8,0.4,1,0.3,1.7c1.8,0.1,2.4,1,4.4,0.8c1-1.1,2-0.3,2.9-0.3
				c0.6,0,1.1-0.1,1.8-0.2c1.2-0.1,2.4-0.5,3.6-0.8c1.2-0.4,2.3-0.7,3.6-1c2.3-0.6,4.8-1.3,7.1-2.1c0.4-0.1,1,0,1.5-0.2
				c0.6-0.2,1-0.6,1.6-0.9c1.2-0.5,2.5-0.8,3.6-1.3c0.4-0.2,0.5-0.4,0.7-0.6c0.4-0.2,0.7-0.1,0.9-0.3c1.4-0.9,2.7-1.6,3.5-2.2
				c2.6-1.8,5.7-4.5,7.7-6.4c0.4-0.4,0.8-0.5,1-0.6c0.4-0.4,0.7-1,1.1-1.4c0.6-0.6,1.3-1.2,1.9-1.8c1.9-2.1,3.7-4.3,5.2-6.6
				c0.8-1.2,1.3-2.4,2-3.6c0.3-0.5,0.7-0.7,0.9-1.1c0.2-0.3,0.5-1,0.6-1.3c0.5-0.9,0.4-1,0.8-1.6c0.3-0.4,0.2-0.7,0.3-0.8
				c0.9-1.8,1.5-3.1,1.7-4.3c0.2-1.4,1-3.2,1.6-4.9c0.1-0.7,0.2-1.5,0.3-2.3c0.1-0.4,0.3-0.9,0.4-1.3c0.1-0.5-0.1-0.7,0-1.2
				c0.1-0.9,0.4-1.8,0.6-2.7c0.1-0.9,0.2-1.9,0.3-2.8c0.2-1.5,0.5-2.8,0.7-3.8c0.1-0.4-0.1-1,0-1.4c0.1-0.9,0.4-1.7,0.5-2.7
				c0.1-0.9,0-1.9,0-2.8c0-0.9,0.2-1.7,0.3-2.6c0.1-0.9,0.1-1.7,0-2.5c0.5-1.1,0.1-2.4,0.2-3.7c0-1.2,0.1-2.6,0.2-3.7
				c0-1,0.1-2.1,0.2-3.2c0-1.3-0.2-3,0.4-4.2c-0.4-0.6,0.1-1.2-0.4-1.9c0.2-1.5,0.2-2.8,0.2-4c0-0.1-0.3-0.3-0.2-0.8
				c0-0.2,0.3-0.2,0.4-0.5c0,0-0.3-0.4-0.4-0.5c-0.1-0.4,0.2-0.7,0.4-0.8c0.2,1.5,0.3,2.9,0.5,4.5c0.1,0.4,0.3,0.6,0.4,0.8
				c0,0.3-0.2,0.5-0.2,1.1c0.1,0.8,0.3,1.6,0.4,2.4c0.4,3.2,0.7,6.4,1,9.7c0.2,1.6,0.3,3.2,0.5,4.8c0.1,0.8,0.2,1.6,0.2,2.3
				c0.1,0.9,0.1,1.7,0.2,2.5c0.1,0.9,0.1,1.8,0.1,2.6c0,0.9,0.1,1.8,0,2.7c0,0.8,0.1,1.7,0,2.4c-0.1,1.1-0.5,2.1-0.6,3.2
				c0,0.5,0.1,1,0,1.5c0,0.6-0.2,1.2-0.2,1.8c-0.4,2.9-1.5,7-2.9,10.7c0,0.5-0.2,0.4-0.4,0.8c-0.3,0.5-0.3,0.6-0.5,1.1
				c-1.4,3.1-2.6,5.6-4.7,8.8c-2.4,3.8-5.4,7.5-8.3,10.7c-2.7,3-5.7,6.1-9,8.6c-0.5,0.4-0.7,0.3-1.1,0.6c-0.5,0.4-0.8,0.7-1.2,1
				c-6.4,4.8-14,7.7-20.3,9c-0.9,0.2-2,0.4-3,0.6c-0.5,0.1-0.7-0.1-1.3-0.1c-0.5,0-1.3,0.3-1.8,0.3c-1.8,0.1-3.6-0.4-5.5-0.1
				c-0.1,0.5-1.1,0.6-1.7,0.8c-0.3,0.1-1,0.7-0.3,0.7c-0.3,0.3-0.7,0.6-0.9,0.9c-0.9,0.7,0.4,1.4,0.1,2.3c-0.9,0.9-0.6,1.5-0.5,2.3
				c0,0.7-0.3,0.7,0.1,1.2c0.1,0.1,0,0.4,0,0.4c0.5,0.6,1.5,0.9,2.4,1.2c0.9,0.4,1.9,0.9,3.2,0.9c0.8-0.2,1.6-0.3,2.5-0.5
				c0.8-0.2,1.6-0.3,2.4-0.4c1.6-0.2,3.1-0.5,4.4-0.6c0.7-0.1,1.7-0.3,2.4-0.4c1.7-0.3,2.7-0.1,4.2-0.7c0.9-0.3,1.2-0.5,1.6-0.7
				c0.1-0.1,0.1-0.4,0.2-0.4c0.8-0.5,1.8-1,2.5-1.3c3.4-1.8,7.2-3.1,10-5.5c1.3-0.1,3.4-1.6,5.1-2.3c1.2-0.7,0.4-1.2,1.6-2
				c0.8-0.7,1.7-1.5,2.2-2.3c3.5-2.4,6.5-6.1,9.5-9.2c0.7-0.7,1.5-1.7,2.3-2.6c0.8-1,1.6-2,2.3-2.8s1.4-1.4,2.1-2.1
				c0.7-0.7,1.4-1.4,1.9-2.2c0.6-1,0.7-2.1,1-2.6c0.6-0.8,0.9-2.2,1.4-3.1c0.2-0.4,0.7-0.9,0.9-1.4c0.8-1.7,1.7-3.7,2.5-5.6
				c1.6-3.9,2.3-7.9,3.8-11.3c0.5-1.2,0.6-2.2,0.7-3.3c0.1-1,0-2.1,0.1-3.2c0.2-1.4,0.3-3.1,0.5-4.7c0.1-1.7,0.2-3.3,0.3-4.9
				c0-0.8,0.1-1.5,0.1-2.3v-1.1V197c0-1.2-0.2-2.3-0.2-3.4c0.1-1.2,0.4-2.5,0.5-3.7c0-0.5,0.2-1.3,0.2-1.9c0-0.5-0.3-1-0.4-1.6
				c0-0.7,0.2-1.2,0.2-1.9s-0.2-1.4-0.2-2.1c0-1.2,0.2-2.5,0.2-3.7c0-0.6-0.3-1.1-0.4-1.6c0-0.7,0.1-1.4,0.2-2.1
				c0.1-1.2,0.3-2.4,0.4-3.7c0.1-0.7,0-1.5,0-2.1c0.1-0.7,0.3-1.3,0.4-1.9c0-0.6-0.1-1.4-0.2-2.1c0-0.7,0-1.7,0-2.4
				c-0.1-1.6-0.3-3.1-0.4-4.5c0-0.6,0.2-1.2,0.2-1.9s-0.2-1.4-0.2-2.1c0-1.6,0.1-3.1,0-4.5c-0.1-1.1-0.6-2.3-0.7-2.9
				c0-0.4,0.2-1.1,0.2-1.1c-0.2-1.7-0.6-3-0.7-4.5c0-0.3,0.2-0.5,0.2-0.5c0-0.3-0.2-0.3-0.2-0.5c0-1.3,0-2.3,0-2.6
				c-0.1-0.6-0.1-1-0.2-1.6c-0.4-6.3-0.7-12.7-0.7-18.8c0-3.9-0.2-9.1-0.2-12.2c0-0.1,0.2-0.4,0.2-0.8c0-0.8-0.3-0.9-0.4-1.1
				c-0.1-0.4,0.2-1.1,0.2-1.6c0-0.6-0.2-1.2-0.2-1.6c0-0.3,0.2-0.4,0.2-0.8s-0.1-0.8-0.2-1.3c-0.1-1.3-0.4-2.7-0.4-4.2
				c0-1.1,0.1-2.1,0.4-3.2c-0.2-0.9-0.6-1.6-0.2-2.6c-0.2-0.8-0.5-1.8-0.2-2.6c0.2-2-0.2-4.3-0.2-6.3c0-1.5,0-3.1,0-4.7
				c0-1.9-0.1-3.8-0.3-5.8c-0.2-2.6-0.8-5.6-1.4-8.5c-0.3-1.4-0.7-2.8-0.9-4c-0.3-1.2-0.6-2.3-0.8-3.1c-0.1-0.3-0.3-0.3-0.4-0.6
				c-1.9-5-3.6-9.8-5.4-13.2c-0.1-0.2-1.6-2.5-1.6-2.5c0-0.1,0-0.3-0.2-0.7c-1.2-2-2.1-3.1-3.3-4.4c0.3-0.5-0.1-0.5-0.6-1.1
				c-5.9-7.5-12.5-13.6-20.2-18.8c-2.8-1.9-5.8-3.5-8.9-5c-3.2-1.5-6.6-2.8-10.3-4c-1.5-0.5-2.8-0.6-3.8-0.8
				c-1.1-0.3-2.3-0.9-3.4-1.1c-2,0.3-3.5,0.4-4.8,0.3c-0.7-0.1-1.3-0.2-2.1-0.3c-0.7-0.1-1.4-0.2-2.1-0.3C79.3,0.2,77.6,0.1,76,0
				c-1.4,0-2.8,0.2-4.2,0.3c-6.4,0.3-12.9,0.9-19.2,3.1c-0.3-0.5-1.3,0.3-1.9,0.5c-2.5,0.8-5.2,1.9-7.6,2.9c-1,1.2-2.8,1.7-4.2,2.6
				C36,11,33.1,13,30.3,15.2s-5.6,4.6-8.1,7.1s-4.9,5.3-7,8c-2,2.8-3.9,5.5-5.3,8.1c-0.6,1-1.3,2.8-1.7,3.5C7.6,43,7,43.4,6.6,44.3
				c-0.7,1.5-0.9,3.2-1.9,4.2c-0.8,3.6-2.6,6.6-2.5,9.5c-1.2,2.9-1.3,6.3-1.6,9.6C0.4,69.2,0,70.9,0,72.5c0,0.5,0,1,0,1.6
				c0,0.5,0,1.2,0,1.6c0,0.9,0.1,1.8,0.1,2.7c0.1,1.8,0.1,3.4,0.1,4.4c0,0.6-0.3,1.4-0.2,2.1c0.1,0.3,0.3,0.5,0.4,0.8
				c0,0-0.2,0.5-0.2,0.8c0,0.4,0.2,0.9,0.2,1.1c0,0.8-0.2,1.4-0.2,2.1c0,1.4,0.3,2.6,0.4,4c0.1,1.5,0.1,3.1,0.2,4.5
				c0.2,3.1,0.4,5.7,0.5,8.2c0.1,1.8,0,4.1,0,5c0,0.2,0.2,0.3,0.2,0.3c0.2,3,0.3,5.3,0.3,7.7c0,0-0.2,0.4-0.2,0.8
				c0,0.5,0.2,0.6,0.2,1.1c0.1,1.6,0,2.8,0,4.2c0,0.7,0.4,1.5-0.2,1.8c0,0.8,0.5,1.3,0.2,1.8c0.3,6-0.1,13.3,0.4,19.3
				c0,0.5,0.1,0.8,0.2,1.3c0.2,1.3,0,2.4,0,3.7c0,1.7,0.1,3.1,0,4.5c0,0.5-0.2,1-0.2,1.6c0,0.9,0.3,2.8,0.3,3.2
				c0,0.3-0.2,0.3-0.2,0.5c0,0.6,0,1.1,0,1.6c0,0.4,0,1.7,0,1.9c0,2.8,0.2,5.7,0.2,8.7c0,4.1,0.1,8.8,0,12.4c0,1.3-0.2,3-0.2,4.2
				c0.1,1,0.4,2,0.5,2.9c0,0.7-0.2,1.5-0.2,2.1c0,0.5,0.2,0.6,0.2,1.1s-0.2,0.8,0,1.2c0.1,0.9,0.2,2,0.3,3.1s0.2,2.1,0.2,2.9
				c0.7,0,0.3-1.5,0.3-2.2c0-0.4,0.3-0.8,0.3-0.9c0-0.6-0.6-0.6-0.4-1.2c0.5,0.1,0.3-1,0.5-1.6c0.2-1.4-0.5-1-0.4-2
				c0.7-3.1,0.7-6.4,0.7-9.8c0,0-0.2,0-0.2-0.3c0.1-3.2,0.2-7.4,0.2-10.8c0-3.3,0-6.6,0-9.8c0-0.8,0-1.5,0-2.4
				c-0.1-2.8,0.1-5.4,0-8.2c0-0.9-0.1-1.8-0.2-2.6s0-1.4,0-2.1c0-0.9,0.2-1.7,0.2-2.6c0-0.4-0.2-0.9-0.2-1.3c0-0.6,0.2-0.8,0.2-1.3
				c-0.1-1.6-0.4-3.1-0.3-4.8c0-1.1,0.3-2.3,0.3-3.4c0-0.5-0.2-0.7-0.2-1.3c0-0.4,0.2-0.9,0.2-1.3c0-1-0.2-2-0.2-2.9
				c-0.1-1.8-0.2-3.8-0.2-5.6c0-1,0.3-2.1,0.3-3.2c0-2.4-0.9-4.8,0-7.1c-0.1-1.9-0.1-3.6-0.2-5.3c-0.2-4-0.7-9-0.9-12.7
				C3,97,2.8,96.1,2.8,95.2c-0.1-1.3,0.1-2.7,0-4c0,0-0.3-0.2-0.3-0.3c-0.3-0.8-0.1-2.3-0.2-2.9c-0.1-1.9,0.2-3.7,0.2-5
				c0-0.5-0.3-1.1-0.3-1.6c-0.1-0.8,0-1.5,0-2.1c0-0.9-0.1-1.8-0.1-2.7c0-0.5,0-0.9-0.1-1.4c0-0.6,0-1.1,0-1.7c0-1.1,0-2.3,0.2-3.4
				c0.1-1.1,0.3-2.3,0.5-3.3c0.1-0.4,0.4-1.9,0.5-2.2c0.2-1.6,0.3-3.7,0.3-4.5c0-0.3,0.3-0.5,0.3-0.6c0.5-2.8,1.4-6.2,2.3-8.6
				c0.3-0.8,0.8-1.8,1.2-2.6c0.3-0.8,0.6-1.5,1-2.3c0.5-1,0.9-2.2,1.5-3.2c0.6-1.1,1.5-2.1,2.1-3.2c0.6-1,0.9-2.2,1.5-3.2
				c0.3-0.4,0.6-0.6,0.7-0.7c0.3-0.4,0.5-1.1,0.5-1.2c0.8-1.1,2.9-3.8,3.7-4.7c0.1-0.1,0.3-0.7,0.6-1.1c1-1,2.2-1.9,3.3-3
				c1.5-1.5,3.3-3.2,4.3-4.1c0.4-0.4,0.9-1,1.3-1.4c0.5-0.4,1-0.8,1.5-1.2c0.5-0.4,1-0.7,1.5-1.1c0.5-0.3,0.9-1,1.4-1.3
				c0.5-0.4,1-0.3,1.5-0.6c2.1-1.4,4.3-2.8,6.5-4.1c2.2-1.2,4.2-2.2,5.8-2.8c0.7-0.2,1.3-0.6,1.4-0.6C54.8,5.7,62.9,4,70.7,3.8
				c2.4,0,4.8,0.3,7.1,0.4c1.3,0,3.3-0.1,4-0.1c0.6,0,1,0.3,1.5,0.3c6.1,0.7,11.6,2,17,3.9c3.8,1.3,7.1,3.2,10.5,5.1
				c3.6,2,7.2,4.6,10.6,7.4s6.4,5.9,9.1,9c1.1,1.3,2.1,2.6,2.6,3.4c0.4,0.6,0.9,1.2,1.3,1.8c5.2,7.2,8.8,15.6,10.8,24.3
				c1,4.6,1.8,9.4,1.9,14c0.1,1.7,0,2.9,0,4.3c0,1.3,0,2.7,0,4c0,2.6,0,5.2,0,7.8c0,5.2,0,10.2,0.2,15.3c0,1,0.2,1.9,0.2,2.9
				c0,0.9-0.4,1.9-0.4,2.9c0,0.3,0.1,0.8,0.2,1.3c0.1,1.6,0.1,2.7,0.2,4.5c0.1,2.2,0,4.3,0,6.6c0,1.3,0.3,3.6,0.4,4.8
				c0,0.3-0.2,0.4-0.2,0.8c0,1.4,0.3,3.8,0.4,5c0,0.3-0.2,0.4-0.2,0.8c0.1,3.5,0.4,7.7,0.5,10.8c0,0.6-0.2,1-0.2,1.6
				c0,1,0.3,1.9,0.4,2.9c0,0.3-0.2,0.4-0.2,0.5c0,0.4,0.2,0.6,0.2,0.8c0.1,3.1,0.5,5.5,0.5,8.2c0,1.1-0.1,2.6-0.2,3.7
				c-0.1,1.3-0.3,2.4-0.4,3.7c-0.2,4.1-0.1,9.4-0.2,12.4c-0.1,2.1,0.2,4.7-0.2,7.1c-0.6-2.2-0.5-4.7-0.7-7.1
				c-0.2-2.6-0.5-5.1-0.9-7.7c-0.1-0.6-0.3-1.1-0.4-1.6c-0.3-2.2-0.5-3.9-0.7-5.8c-0.1-1.3-0.2-2.6-0.4-4c-0.2-1.5-0.4-2.6-0.4-3.4
				c-0.5-4.1-0.8-8.3-1.1-12.7c-0.2-4.4-0.6-8.9-0.9-13.5c0-0.3,0.2-0.3,0.2-0.5c0,0-0.1-0.5-0.2-0.8c-0.1-1.6-0.3-3.4-0.4-5
				c-0.2-4.4,0-9.1-0.4-13.7c0-0.5-0.3-0.8-0.4-1.3c-0.1-0.5,0-1.3,0-1.8c-0.1-2.3-0.1-4.3,0-6.1c0.1-1.5,0.1-4.3,0.2-5.3
				c0-0.3,0.2-1.1,0.2-1.3c0-0.8-0.3-2.7-0.4-3.4c0-0.3,0.2-0.3,0.2-0.5c0-1.6-0.2-3.2-0.2-4.8c0.1-2,0.7-3.7,0-5.6
				c0.3-0.6,0.3-1.2,0.4-1.8c0-0.4-0.2-0.9-0.2-1.1c0-0.5,0.2-0.6,0.2-1.1c0-0.4,0-0.8,0-1.2c0-0.4,0-0.9-0.1-1.4
				c-0.1-0.9,0-1.9-0.1-2.8c0-1.5,0.2-2.9,0.1-4.4c-0.1-1.5-0.5-3.1-0.7-4.6c-0.3-1.9-0.4-3.2-0.6-4.3c-0.1-0.6-0.6-1.4-0.7-1.9
				c-1.1-3.2-1.5-6-2.6-8.4c-0.3-0.7-0.7-1.1-1-1.8c0,0,0.1-0.5,0.1-0.7c-0.3-1-0.8-1-1.1-1.8c-0.2-0.4-0.1-0.6-0.4-1.1
				c-1.1-2.1-2.5-4.2-3.6-6.1c-0.4-0.7-0.4-1.2-0.9-1.9c-0.6-0.8-1.3-1.4-2-2.2c-0.6-0.8-1.3-1.8-2-2.6c-4.1-4.7-9.1-8.7-12.8-11.4
				c-0.4-0.3-1-0.6-1.5-1c-1.3-0.9-3-1.6-4-2c-0.4-0.2-0.6-0.3-1.1-0.6c0.1,0,0-0.2-0.2-0.3c-0.3-0.2-0.4,0-0.6-0.1
				c-0.3-0.1-0.7-0.4-1.1-0.5c-1-0.4-1.7-0.8-2.7-1.2C94.3,8.5,86,7.3,77.9,6.9c-1,0-1.9-0.1-2.9-0.2c-1,0-2,0-2.9,0
				c-2,0.1-3.9,0.6-5.8,0.9c-1,0.1-2.6,0.3-4.2,0.5C60.9,9,59.2,9.3,58,9.6c-1.1,0.3-2,0.7-3,1.1c-3.9,1.2-7.7,2.4-11.2,4.3
				c-3.9,2.1-7,4.3-10.3,6.7c-2.4,1.8-4.5,3.8-6.5,5.9c-0.3,0.3-1,1-1.6,1.6s-1.3,1.3-1.5,1.5c-0.5,0.6-1.5,1.9-2.4,3.2
				s-1.7,2.6-2,3.1c-0.1,0.1-0.4,0.2-0.3,0.1c-0.8,1.3-1.4,2.6-2,3.9c-0.3,0.6-0.7,1.1-1.1,1.7c-0.4,0.6-0.7,1.2-1,1.8
				c-2.5,4.9-4.4,10.5-5.2,16.1c-0.6,3.7-1.7,8.8-1.4,13.6c0.1,1.1,0.2,2.1,0.3,3.1s0.1,2-0.2,3.1c0.6,1.1,0.1,2.7,0.2,4.2
				c0,1.6,0.4,3.6,0.4,5.3c0,1.9-0.3,3.6-0.2,5.3c0.1,1,0.3,1.9,0.4,2.9c0,0.4-0.2,0.7-0.2,0.8c0,0.5,0.2,0.8,0.2,1.1
				c0,0.8-0.2,1.6-0.2,2.4s0.2,1.4,0.2,2.1c0,0.4-0.4,1.2-0.4,1.3c0,0.1,0.2,0.2,0.2,0.5c0,2.1,0.3,4.3,0.4,6.3
				c0,0.8-0.2,1.6-0.2,2.4c0,0.6,0.3,1.1,0.4,1.6c0.4,3.1-0.1,6.3,0.5,9.5c-0.4,1.3-0.2,2.8-0.2,4.2c0,0.2,0,1.4,0,2.1
				c0.1,3,0,4.8,0,6.9c0.1,4.2,0,6.9,0.2,10.3c0.1,1,0,1.7,0,2.1c0.1,2.5,0,5.5,0.2,7.1c0.1,0.7,0.3,1.1,0.2,1.9
				c0.1,1.2,0.2,1.3,0,2.4c0.6,1.5,0.8,3.3,0.7,5.3c-0.1,2.8,0.3,8.6,0,12.4c-0.1,1.3-0.7,2.7-0.7,4c0,0.9,0.3,2,0.4,2.9
				c0.1,1.1,0.2,2.2,0.2,3.2c0,1.6-0.2,3-0.2,4.5c0,1.2,0.3,2.4,0.4,3.8c0.1,0.8,0.1,1.6,0.1,2.4c0.1,0.8,0.1,1.7,0.2,2.6
				c0.3,0.4-0.1,1,0,1.4c0.1,0.6,0.3,1.2,0.4,1.9c0.2,1.4,0.4,2.7,0.7,4.1c0.7,2.8,1.6,5.6,2.6,8.5c0.9,2.4,2,4.9,3.2,7.4
				c0.6,1.3,1.4,2.6,2.1,3.8c0.8,1.2,1.6,2.3,2.4,3.1c0.5,0.7,0,1,0.8,1.8c1.8,1.8,3.7,4,5.6,5.9c1.9,2,3.8,3.7,5.5,4.8
				c0.7,0.5,1.3,0.9,2,1.4c0.4,0.3,0.7,0.8,1,1c0.8,0.5,1.6,0.8,2.4,1.3c0.7,0.4,1.5,1.2,2.2,1.6c0.4,0.3,0.8,0.3,1.3,0.5
				c0.5,0.3,0.9,0.7,1.3,1c0.9,0.5,1.9,0.6,2.8,1.1c0.8,0.4,1.6,1.1,2.6,1.6c0.9,0.4,2.1,0.7,3.1,1.1c1.2,0.4,2.4,0.7,3.4,1
				c1.1,0.3,2,0.5,2.9,0.6c1.1,0.2,2.2,0.2,3.2,0.4c1,0.1,1.8,0.5,2.9,0.7c1.1,0.1,2.5,0,3.5-0.1s3,0.2,3-0.8
				c0.3-0.5-0.7-0.6-1.3-0.8c-0.3-0.1-0.8-0.2-1.3-0.3c-1.8-0.4-4.2-0.8-6.4-1.1c-1.1-0.2-2.1-0.2-3.1-0.4c-4.5-0.9-9-3.2-12.6-4.8
				c-0.8-0.3-1.6-0.5-2.4-0.9c-0.8-0.3-1.4-0.6-1.8-1.3c-0.6-0.1-1.5-0.5-2.4-1.1s-1.8-1.3-2.6-1.9c-0.8-0.8-1.4-1.3-1.8-1.9
				c-5-3.4-9.2-8.6-12.7-13.9c-1.7-2.6-3.2-5.2-4.4-7.9c-0.6-1.3-1.1-2.7-1.7-4c-0.5-1.4-1-2.7-1.3-4c-1.3-4.3-2.1-8.6-2.3-12.8
				c-0.1-2.1-0.1-4.2-0.1-6.4s0-4.3,0.1-6.5c0-1.4-0.2-2.9-0.2-4.5s0-3.2,0-4.8c0.3-0.4-0.2-0.7-0.2-1.3s0.2-1.4,0.2-2.1
				c0-1.4-0.1-2.8,0.2-3.7c-0.4-1.7-0.1-4.4-0.5-6.1c0.1-0.5,0.5,0.4,0.4-0.8c-0.2-0.3-0.2-1.1-0.2-1.9c0.4-0.6,0.3-2,0-2.9
				c0.2-4.2,0-8.5,0-12.7c-0.1-11.1-0.3-25.1,0-36.2c0-1.3,0-2.5,0-3.7c-0.2-7.1-0.4-14.1-0.4-21.1c0-0.8,0-1.4,0-2.1
				c-0.1-2.1-0.1-5.3-0.2-6.6c0-0.5,0.2-0.9,0.2-1.3c0-1.6,0-3.3,0-4.9c0-0.8,0.1-1.7,0.1-2.5s0.1-1.6,0.2-2.4
				c0.1-0.7,0.1-1.4,0.1-2.1c0.1-0.7,0.1-1.4,0.2-2.2c0,0,0.3-0.4,0.3-0.8c0.6-4.1,1.8-8,3.1-11.7c1-2.7,2.3-5.4,3.8-8
				s3.2-5.1,5.1-7.3c3.7-4.5,8-8.4,11.9-11.3c0.7-0.5,1.4-0.8,2.1-1.3c1.3-0.8,2.4-1.8,3.8-2.6c1.1-0.6,2.7-1.3,3.2-1.5
				c0.4-0.2,0.8-0.6,0.9-0.6c2.2-1,4.5-1.9,6.6-2.5c0.5-0.1,1.7-0.9,2.2-0.4c-3.6,0.9-6.8,2.6-9.3,4.1c-2,1.1-5.2,2.9-7.2,4.2
				c-0.5,0.4-1.1,1-1.6,1.4c-2.6,1.9-5.1,4-7.1,6C31.4,32,30.3,33,30,34c-3.2,3.3-6.2,8-8.2,12.6c-0.3,0.7-1,2-1.1,2.7
				c0,0.1,0.1,0.5,0.1,0.6c-0.2,0.5-0.7,1-0.9,1.6c-0.4,1-0.7,1.8-1,2.6s-0.5,1.5-0.8,2.3c-0.4,1.2-0.5,2.5-1.2,3.5
				c-0.1,0.8-0.2,1.7-0.4,2.7c-0.1,1-0.2,2-0.3,3.1c-0.1,0.7-0.1,2-0.1,2.1c0,0.2-0.2,0.3-0.2,0.5c-0.1,1,0.1,1.9,0.1,2.9
				c-0.1,1.1-0.1,2.4-0.1,3.7c0,1.3-0.1,2.7-0.1,4c0,2.5,0.3,4.6,1.5,4.9c1,0.3,1.7-0.4,2.1-1.3c0.1-0.3,0-1.1,0.2-1.8
				c0.1-0.6,0.2-1.3,0.5-1.6c0-1-0.1-2.1-0.2-3.2c-0.1-1-0.1-2-0.2-3.1c-0.1-1,0-2.1,0-3.1c0-1.1,0.1-2.1,0.2-3.2
				c0.1-0.4,0-1,0.1-1.5s0.4-0.9,0.4-1.4c0.2-1,0.1-2.2,0.4-3.2c0.1-0.4,0.5-1,0.6-1.4c0.2-0.6,0.1-1.1,0.4-1.7
				c0.2-0.5,0.5-0.9,0.6-1.3c0.6-1.6,0.7-3,1.8-4c0.3-1.6,1.2-3.3,1.7-4.6c0.4-0.8,0.4-0.7,0.7-1.3c0.5-1.1,1.1-2.1,1.7-3.2
				c0.6-1,1.2-2.1,1.9-3c0.6-0.7,1.3-1.3,1.9-2c0.5-0.5,0.8-1.3,1.2-1.9c1.9-2.5,4.1-4.5,6.5-6.4s4.9-3.5,7.6-5.2
				c1-0.7,2.1-1.4,3.2-2.1c0,0,0.5,0,0.8-0.1c0.8-0.4,2-1.1,2.9-1.5c7.3-3.3,15.3-5.1,23.5-5c3.7,0,8,0.5,11.2,1.4
				c0.6,0.1,1.3,0.3,2,0.5s1.5,0.4,2.3,0.7c1.5,0.5,3.1,1.1,4.1,1.8c0.2,0.1,0.4,0,0.5,0c3.6,1.5,7.3,3.5,9,4.8
				c2.5,1.8,5.6,3.8,8.2,6.4c2.9,2.8,5.1,5.8,7.8,9.4c1,1.3,1.5,2.1,2,2.9c0.5,0.7,1,1.5,1.5,2.3s1,1.6,1.4,2.4
				c0.3,0.6,0.5,1.3,0.7,1.9c2.5,5.2,4.1,10.9,5,16.6c0.5,2.9,0.7,5.7,0.8,8.6s0.1,5.8,0.2,8.7c0,0.7-0.2,1.2-0.2,1.8
				c0,0.6,0.3,1.1,0.4,1.8c0,0.4-0.2,0.6-0.2,0.8c0,1,0.3,4.2,0.4,4.8c0,0.3-0.2,0.3-0.2,0.5c0,0.4,0.2,0.6,0.2,0.8
				c0,0.5-0.2,0.6-0.2,1.1c0,1.3,0.3,2.5,0.4,3.7c0,0.4-0.2,0.6-0.2,0.8c0,0.3,0.2,0.4,0.2,0.8c0.1,1.3,0.2,2.6,0.2,4
				c0,0.6-0.2,1.4-0.2,2.1c0,1.4,0.3,2.8,0.4,4.2c0.1,2.5,0.2,5.4,0.2,8.4c0,1.7-0.2,3.4-0.2,4.5c0,0.6,0.3,1.3,0.4,1.8
				c0,0.7-0.2,1.5-0.2,2.1c0,0.3,0.2,0.4,0.2,0.8c0,0.1-0.3,0.5-0.4,0.8c0,0.7,0.1,1.4,0.2,2.1c0.1,2.7,0.6,5.3,0.7,7.9
				c0.1,1.4,0.1,2.8,0.2,4.2c0,0.3,0.2,0.7,0.2,0.8c0,0.5-0.2,0.8-0.2,1.1c0,0.4,0,1.7,0,1.9c0.1,5.3,0.3,10.4-0.4,15.6
				c-0.4-1.8-0.3-3.6-0.4-5.3c-0.1-3.9-0.4-7.6-0.7-11.1c-0.1-0.8-0.1-1.8-0.2-2.6c-0.1-0.8-0.4-1.6-0.5-2.4c0-0.3-0.1-0.9-0.1-1.4
				s-0.1-0.9-0.1-1s0.2-0.4,0.2-0.8c0-0.4-0.3-0.9-0.4-1.3c0-0.3,0.2-0.3,0.2-0.5c0-0.3-0.2-0.4-0.2-0.8c-0.1-2.1,0.3-4.4-0.2-6.6
				c0.8-3.3,0.4-7.4,0.2-11.6c-0.1-1.2-0.2-2.5-0.2-3.7c0-0.5,0.3-0.8,0.4-1.3c0-0.5-0.2-1.3-0.2-1.8c0-2.2-0.1-4.3-0.2-6.6
				c-0.1-3.9,0-6.9-0.2-10c-0.2-3-0.4-5.9-0.5-8.7c0-0.4,0.2-0.9,0.2-1.3c0-0.6-0.2-0.8-0.2-1.3c0-0.9,0.2-2,0.2-2.9
				c0-0.5-0.3-0.6-0.4-1.1c-0.1-0.5,0.2-0.9,0.2-1.3c0-0.5,0-0.6,0-1.1c0-0.6,0-1.2,0-1.6c-0.1-0.5-0.1-0.9-0.3-1.3
				c-0.2-0.8-0.4-1.5-0.6-2.3c-0.2-1.7-0.3-3.5-0.6-5.3c-0.4-2.4-1.2-5.2-1.4-6.7c-0.1-1.2-0.5-2.4-1-3.5s-1.1-2.2-1.7-3.3
				c-0.4-0.7-0.7-1.5-1-2.2s-0.6-1.4-0.8-1.8c-0.2-0.5-0.6-0.8-0.9-1.2c-0.5-0.8-0.8-1.5-1.4-2.3c-0.5-0.8-1.2-1.6-1.6-2.4
				c-0.6-0.8-1.2-0.9-1.9-1.7c-0.2-0.5-0.6-1-1-1.4c-0.5-0.4-0.9-0.8-1.3-1.1c-0.3-0.3-0.4-0.7-0.7-1c-1-1-2.2-1.9-3-2.5
				c-0.3-0.2-0.5-0.7-0.8-1c-2.7-2.3-5.9-4.5-9.1-6.4c-2.3-1.4-4.5-2.6-6.8-3.5c0,0-0.3-0.3-0.6-0.4c-0.8-0.2-1.8-0.4-2.6-0.6
				c-1.1-0.3-2-0.9-3-0.8c-0.6-0.2-1.2-0.4-1.8-0.6c-0.6-0.2-1.1-0.4-1.6-0.5s-0.7,0-1.2-0.1s-0.8-0.4-1.3-0.6
				c-1.1-0.4-1.9-0.5-2.8-0.4c-0.8,0-1.8,0-2.8-0.1s-2.1-0.2-3.2-0.3c-1.1-0.1-2.2-0.1-3.3-0.1c-1.1,0-2.1,0.1-2.9,0.2
				c-0.5,0-0.8,0.1-1.2,0.1c-1,0.1-2.1,0.4-3.1,0.6c-1.1,0.1-2.1,0.3-3.2,0.5c-1,0.1-2,0.4-3,0.6c-1.2,0.3-2.3,1.1-3.3,1.5
				c-0.8,0.4-1.6,0.6-2.3,0.9c-0.8,0.3-1.5,0.5-2.2,0.8c-0.4,0.4-1.1,0.8-1.3,1.2c-0.5,0.3-0.7,0-1.2,0.2c0,0-0.2,0.5-0.3,0.5
				c-0.2,0.2-0.6,0.3-0.8,0.5c-1.2,0.7-2.6,1.3-3.5,2.1c-1.8,1.9-4,3.7-6,5.7s-3.8,4.1-5,6.3c-1.6,2.2-4.1,6-4.6,8.6
				c-1.5,1.9-2.1,4.4-2.8,6.7c-0.2,0.7-0.4,1.3-0.6,2s-0.4,1.4-0.6,2.1c0,0.3,0,1.1,0,1.2c0,0.1-0.2,0.1-0.3,0.4
				c-0.1,0.7,0,1.3-0.1,2c-0.2,1-0.4,2.1-0.6,3.1c-0.2,1.2-0.6,2.4-0.6,3.5c0,0.6,0,1.2,0.1,1.8c0.1,0.6,0.2,1.2,0.3,1.7
				c0,0.3,0.1,0.6,0.1,0.9s0.1,0.7,0.1,1c0,0.7,0,1.4-0.1,2c0.4,1.1,0.3,2,0,2.9c0.6,2,0.5,4.1,0.7,6.1c0.1,1.1,0.3,2.1,0.4,3.2
				c0,1.1-0.2,1.4,0,2.1c0.2,0.9,0.1,4.2,0.2,5c0,0.5,0.1,0.9,0.2,1.1c0,0.2-0.2,0.3-0.2,0.3c0.1,1.7,0.3,4.5,0.5,5
				c0.3,0.8,0,1.9,0,2.6c-0.1,3.3,0.2,5.2,0.7,7.7c0.1,0.6,0,1-0.2,1.3c-0.2,0.7,0.7,0.8,0.2,1.1c0.3,1.2,0,1.6,0,2.9
				c0.4,0.1,0.4,0.4,0.4,0.8s-0.2,0.8-0.2,0.8c0,0.4,0.2,0.6,0.2,0.8c0,1.1-0.4,2.2-0.4,3.2c0,0.8,0.3,1.4,0.5,2.1
				c0.4,1.9,0.5,4.9,0.7,7.7C28.7,134.9,28.4,133.7,28.5,133.2z M128.3,41.9c-1.3-2.2-2.8-4.3-4.4-6.4c-1.7-2.1-3.5-4.2-5.5-6.1
				c-2-2-4.1-3.8-6.4-5.5c-2.2-1.7-4.6-3.2-7-4.5c4.8,2.3,9.3,5.5,13.2,9.1c3.8,3.7,7.1,7.7,9.5,11.9
				C127.9,40.7,128.9,41.6,128.3,41.9z M59.2,14.9C58.2,14.7,60.4,14.1,59.2,14.9L59.2,14.9z M46.4,14.9l-0.5,0.3l-0.2-0.3l0.5-0.3
				L46.4,14.9z M81.9,275.6h0.7v0.4h-0.7V275.6z"/>
			<path class="st1" d="M75.5,247.7c0.3,0.6-1.1,0.7-1.3,0.3c-0.4,0.4-1.2,0.2-1.8,0.5c-0.3,0.1-1.1,0.1-1.8,0.2
				c-0.4,0.1-0.6,0.3-0.9,0.3c-0.7,0-1.5-0.1-2.3-0.1c-0.8-0.1-1.6-0.2-2.4-0.2c-0.5,0-0.9-0.1-1.3-0.1c-0.1,0-0.7-0.2-1.3-0.3
				c-1.3-0.3-2.5-0.4-3.5-0.7c-2.1-0.6-4-1.7-6-2.6c-0.3-0.2-0.7-0.2-1.1-0.4c-1-0.5-2.4-1.6-3.8-2.4c-0.3-0.2-0.9-0.1-0.9-0.6
				c-1.7-0.3-3.7-1.3-5.6-2.7c-1.9-1.4-3.8-3.1-5.2-4.6c-1-0.5-2.6-2-3.8-3.5c-0.3-0.3-0.8-0.8-1-1c-0.2-0.3,0.5-1-0.3-0.7
				c-0.6-0.6-1.1-1.3-1.6-2.1s-0.9-1.6-1.5-2.4c-0.4-0.5-0.8-1-1.1-1.5c-0.4-0.5-0.8-1-1.1-1.6c-0.3-0.6-0.4-1.4-0.7-2
				c-0.4-0.9-0.9-1.5-1.4-2.5c0,0-0.1-0.2-0.1-0.4c-0.1-0.2-0.2-0.5-0.3-0.7c-0.2-0.4-0.4-0.9-0.6-1.5s-0.4-1.2-0.6-1.9
				c-0.2-0.6-0.1-1.3-0.3-1.9c-0.2-0.6-0.6-1.2-0.8-1.8c-0.2-0.7-0.2-1.4-0.4-2.1c-0.2-1-0.4-1.9-0.6-3c-0.1-1-0.3-2.1-0.4-3.4
				c0-0.7,0-1.4,0-2.1c0-0.7,0-1.6,0-2.4c-0.1-2.1,0-4,0-6.1c0-0.9-0.6-2.1,0-2.9c-0.3-2.8-0.3-5.7-0.4-8.7c0-1-0.1-2.1-0.2-3.2
				c0-0.2,0.2-0.4,0.2-0.8c-0.2-2.1-0.4-5.9-0.7-8.2c-0.3-2-0.5-3.9,0.2-5.8c-0.3-2.1-0.2-5.2-0.4-7.1c0-0.8-0.2-1.3,0-2.1
				c-0.2-0.9-0.3-1.8-0.5-2.6c0.3-3.9,0.1-7.7-0.2-11.6c-0.1-1.7-0.4-3.6-0.4-5.3c0-1.1,0.3-2.3,0.4-3.4c0.1-2.2-0.1-4.5-0.2-6.9
				c-0.1-1.6-0.2-3.1-0.2-4.8c0-0.6,0.5-1.5,0.2-2.4c0-0.1-0.3-0.2-0.4-0.3c-0.2-1.1-0.1-3-0.2-4.2c-0.1-1.8-0.3-3.5-0.4-5.3
				c0-1.5,0.3-3,0-5c-0.1-0.5-0.3-1-0.4-1.6c0-0.8,0.4-1.7,0-2.4c0.6-1.2,0.4-3.5,1.2-4.2c1.2-0.4,1.7,0.5,2.5,0
				c0.4,1.2,0.7,2.7,0.2,4c0.5,2.2,0.1,4.6,0.2,6.9c0,2.7,0.3,5,0.4,8.2c0,0.4,0.2,0.5,0.2,0.8c0,0.2-0.2,0.3-0.2,0.5
				c0.1,2.8,0.5,6.7,0.5,10.3c0,1,0,2.1,0,3.2c0,0.8-0.2,1.8-0.2,2.6c0.1,3.1,0.1,6.7,0.2,9.8c0,0.2-0.2,0.3-0.2,0.5
				c0,0.3,0.2,0.5,0.2,1.3c0,1-0.1,2.2,0,4c0,0.3,0.2,0.6,0.2,1.1c0,0.3-0.2,0.8-0.2,0.8c0,0.8,0.3,1.4,0.4,2.1
				c0,0.7-0.2,1.4-0.2,2.1c0,1,0.3,1.9,0.4,2.9c0,1.1-0.2,2.1-0.2,3.2c0,0.3,0,0.7,0,1.1c0-0.1,0.3,0.1,0.2,0.3
				c-0.3,0.3,0,4.5,0.2,6.3c0,0.4,0.3,0.8,0.4,1.3c0,0.5,0,1.3,0,1.9c0,0.1,0.2,0.3,0.2,0.5c-0.1,0.6,0.1,2.2,0.2,3.4
				c0.1,2.2,0.1,4.4,0.2,6.6c0,1,0,1.9,0,2.9c0,0.7-0.2,1.6-0.2,2.4c0,1.3,0.3,2.6,0.4,4c0,1.4-0.2,2.8-0.2,4.2
				c0,2.4,0.3,4.8,0.4,7.1c0,0.1-0.2,0.7-0.2,1s0.2,0.4,0.2,0.7c0,0.6-0.1,1.2-0.1,1.8s-0.1,1.2,0,1.8c0,0.8,0.2,1.6,0.3,2.4
				c0.1,0.8,0.2,1.6,0.4,2.5c0.1,0.5,0.5,1.1,0.1,1.6c0.8,1.7,1.3,3.5,2.1,5.7c0.3,1.1,2.1,4.3,2.8,5.9c0.2,0.4,0.4,0.8,0.6,1.2
				c0.4,0.7,0.9,1.3,1.3,1.8c0.4,0.6,0.7,1.2,0.9,1.9c0.9,0.7,2.7,2.9,2.8,4c1.8,1.4,3.3,3.8,5.5,4.9c1.5,1.6,4,3.3,6.5,5.2
				c0.8,0.7,1.7,1.3,2.6,1.9c0.9,0.5,1.8,1,2.8,1c1,0.4,1.2,0.4,2.4,1c0.8,0.1,1.7,0,2.3,0.6c1.4,0,3,1,5,1.4
				c0.6,0.1,1.3,0.1,1.9,0.2c0.6,0.1,1.3,0.5,2,0.6c0.6,0.1,1.2,0,1.7,0.1c0.8,0.2,1.5,0.4,2.1,0.6c0.6,0.1,1.2,0.2,1.7-0.2
				c0.5,0.4,1.2,0.5,2.1,0.6C74,247.4,74.8,247.5,75.5,247.7z"/>
			<path class="st1" d="M48.8,266.4c-0.7-0.3-0.3-0.8-1.3-1.1c-0.7-0.3-1.4-0.6-1.8-0.6c-0.7-0.9-2.1-1.1-2.8-1.5s-1.5-0.8-2.2-1.2
				c-0.7-0.5-1.5-0.9-2.1-1.3c-1.1-0.7-1.8-1.1-2.7-1.7s-1.6-1.5-2.4-2c-0.9-0.6-1.8-1.1-2.6-1.7c-2.3-1.7-5.3-4.7-8.2-7.7
				c-0.1-0.1-0.4-0.2-0.1,0.1c0.6,0.7,1.8,1.6,1.5,2.1c-0.8-0.5-1.4-1.7-1.8-2.2c-0.4-0.4-1-0.5-1-0.8c-0.6-0.7-1.1-1.3-1.4-0.8
				c0.9,0.7,1,1.6,1.6,2.4c0.4,0.5,1.3,1,1.9,1.7c0.8,0.9,2,1.8,2.3,2.7c-0.5-0.4-1.4-1.6-1.7-1.4c1.2,1.7,4.4,4.2,6.2,5.6
				c1.3,1.1,2,1.8,2.4,1.6c1.4,2,5.5,3.8,7.3,5.2c0.5,0.2,0.4-0.3,1,0.1c0.7,0.3-0.5,0.6,0.6,0.9c1.5,0.7,3.3,1.5,5,2.4
				c1.8,0.8,3.7,1.5,5.4,1.9c1,0.7,2.8,1.7,4,1.4c-0.6-0.2-1.9-0.3-1.5-0.8c2,0.7,4.5,1.1,6.9,1.5c-0.1-0.5-1.1-0.8-2.3-1.1
				c-1.2-0.2-2.6-0.5-3.5-0.8c-0.6-0.3-0.5-0.7-1-1C52.8,267.9,50.5,266.2,48.8,266.4z M26.7,253l0.5,0.4l-0.2,0.3l-0.5-0.4
				L26.7,253z M47.6,266.9c-0.3,0.2-2.4-0.7-2.4-1C45.7,265.2,47.3,266.6,47.6,266.9z"/>
		</g>
	</g>
</g>
</svg>
