<?xml version="1.0" encoding="utf-8"?>
<!-- Generator: Adobe Illustrator 23.1.0, SVG Export Plug-In . SVG Version: 6.00 Build 0)  -->
<svg version="1.1" id="图层_1" xmlns="http://www.w3.org/2000/svg" xmlns:xlink="http://www.w3.org/1999/xlink" x="0px" y="0px"
	 viewBox="0 0 323.3 167.9" style="enable-background:new 0 0 323.3 167.9;" xml:space="preserve">
<style type="text/css">
	.st0{fill:#75AFDE;}
</style>
<path class="st0" d="M294.5,52c-2-18-17.3-32.1-35.9-32.3c-13.5-0.1-25.4,7.3-31.7,18.2c-6.1-10.5-17.4-17.5-30.3-17.6
	c-10.6-0.1-20.2,4.6-26.7,12c-3.7-15.4-17.5-26.9-34.1-27c-6.4,0-12.3,1.6-17.5,4.6C110.1,3.8,99.9,0.1,88.9,0
	C65.6-0.1,46.1,15.6,40.3,37C17.5,41.5,0.1,61.6,0,85.8c-0.2,27.6,22.1,50.1,49.7,50.3c9.2,0.1,17.8-2.4,25.2-6.7
	c11.8,22.7,35.5,38.3,63,38.5c25.2,0.1,47.5-12.8,60.3-32.5c9.3,10.1,22.5,16.5,37.3,16.6c20.2,0.1,37.7-11.6,46.1-28.6
	c1.7,0.3,3.4,0.4,5.1,0.4c20.1,0.1,36.4-16,36.5-36.1C323.4,70.2,311,55.4,294.5,52z"/>
</svg>
