<?xml version="1.0" encoding="utf-8"?>
<!-- Generator: Adobe Illustrator 23.1.0, SVG Export Plug-In . SVG Version: 6.00 Build 0)  -->
<svg version="1.1" id="图层_1" xmlns="http://www.w3.org/2000/svg" xmlns:xlink="http://www.w3.org/1999/xlink" x="0px" y="0px"
	 viewBox="0 0 172.4 210.4" style="enable-background:new 0 0 172.4 210.4;" xml:space="preserve">
<style type="text/css">
	.st0{fill:#75AFDE;}
</style>
<path class="st0" d="M46.4,45.8c5.9-19.4,21.4-29.9,37.2-40c2.5-1.6,5.6-3,8.4-1.1c2.7,1.9,1.9,5.3,1.3,7.7
	c-3.9,17.3-9.1,33.9-24.4,45c-0.4,0.3-0.7,0.7-1,0.9c-13,6.9-12.1,19.1-8.8,29.8c3.1,10.1,12.7,15.3,23.3,17.3
	c6.9,1.3,13.8,0.3,20.7-0.1c25.9-1.5,47.6,11,58.4,33.8c3.9,8.2,6.4,16.9,3.9,26.1c-0.7,2.6-0.6,4.4,2.4,5.4
	c4.8,1.6,4.8,5.7,4.4,9.7c-1.2,10.3-8.9,17.3-19.4,17.9c-1.8,0.1-3.8-0.5-4.9,1.6c-4,7.3-11.4,8.3-18.4,9.3
	c-10.5,1.5-21.1,1.8-31.7,0.3c-4.5-0.6-10.2-0.1-12.2-4.7c-2.2-4.9,4.5-6.1,6.3-9.8c-10-5.3-20-10.4-29.9-15.8
	c-2.9-1.6-3.9-0.7-4.7,2.3c-1.5,5.8-3.2,11.5-5.3,17.2c-3,8.5-12.1,13.3-20.5,11.2c-2.1-0.5-4.2-1-4.6-3.5c-0.4-2.6,0.7-4.8,3.1-5.5
	c4.8-1.5,5.3-4.9,5-9.1c-0.3-4.1-0.3-8.3-0.1-12.5c0.3-10-0.6-18.9-8-27.3c-9.5-10.9-10.7-25.2-10-39.3c0.2-4.8,0.6-7.8-5.9-8.9
	c-10.7-1.8-13.4-7.6-9.4-17.6c3.9-9.7,9.1-18.8,18.3-24.5c3-1.9,3.9-4,3.9-7.3c0-9.2,0.2-18.5,0.4-27.7C24.6,14,31.6,6,42.5,1.1
	c5.3-2.4,7.8-0.7,8.1,5.1c0.6,11.7-3,22.8-5.6,34c-1.8,3.2-0.4,6.8-1.8,10.5C44.1,48.6,44.8,46.8,46.4,45.8z"/>
</svg>
