<?xml version="1.0" encoding="utf-8"?>
<!-- Generator: Adobe Illustrator 23.1.0, SVG Export Plug-In . SVG Version: 6.00 Build 0)  -->
<svg version="1.1" id="图层_1" xmlns="http://www.w3.org/2000/svg" xmlns:xlink="http://www.w3.org/1999/xlink" x="0px" y="0px"
	 viewBox="0 0 1161.6 1129.4" style="enable-background:new 0 0 1161.6 1129.4;" xml:space="preserve">
<style type="text/css">
	.st0{fill:#75AFDE;}
</style>
<path class="st0" d="M1149.2,717.4c42.7-130.5-28.5-271-159-313.7c-2.2-0.7-4.5-1.3-6.7-2c1.4-1.8,2.9-3.6,4.3-5.5
	c81-111,56.6-266.6-54.3-347.5C822.4-32.3,666.8-8,585.8,103c-1.4,1.9-2.7,3.8-4,5.8c-1.3-1.9-2.6-3.9-4-5.8
	C497.4-8.3,341.9-33.3,230.6,47.2s-136.2,236-55.7,347.3c1.4,1.9,2.8,3.7,4.2,5.6c-2.2,0.6-4.5,1.3-6.7,2
	C41.7,444.2-30.1,584.4,12.1,715.1s182.4,202.5,313.1,160.3c2.2-0.7,4.4-1.5,6.6-2.3c-0.1,2.3-0.2,4.7-0.2,7
	c-0.3,137.4,110.9,248.9,248.2,249.2c137.4,0.3,248.9-110.8,249.2-248.2c0-2.3-0.1-4.7-0.2-7c2.2,0.8,4.4,1.6,6.6,2.3
	C966,919.2,1106.4,848,1149.2,717.4z"/>
</svg>
