<?xml version="1.0" encoding="utf-8"?>
<!-- Generator: Adobe Illustrator 21.0.0, SVG Export Plug-In . SVG Version: 6.00 Build 0)  -->
<svg version="1.1" id="图层_1" xmlns="http://www.w3.org/2000/svg" xmlns:xlink="http://www.w3.org/1999/xlink" x="0px" y="0px"
	 viewBox="0 0 740 650" xml:space="preserve">
<path class="st0" d="M275,223.3"/>
<path class="st0" d="M546,226"/>
<path class="st0" d="M201.6,304.7"/>
<path class="st0" d="M253.9,219.6"/>
<path class="st1" d="M594.3,324.2c-0.5-13-6.1-25.5-15.7-34.4c-3.6-2.6-7.2-5.1-10.8-7.7c-5-2.6-10.2-4.3-15.6-5.1
	c5-10.5,6.3-23.2,2.7-34.3c0-0.1-0.1-0.3-0.1-0.4c0,0,0,0.1,0,0.1c-0.7-2.8-1.9-5.4-4.8-10.7c-2.1-3.8-5.1-7.1-8.3-10.1
	c-9.2-8.6-21.6-13.2-34.2-12.8c-11.6,0.4-23.6,5.2-31.8,13.6c-1.7-17.5-16.9-29.9-34.3-29.9c-6,0-11.6,1.9-16.5,5
	c-0.8-7.3-2.6-11.9-6.6-19.2c-4.5-7.3-10.6-12.9-18.1-16.9c-7.3-3.8-15-5.5-23.2-5.3c-5.8,0.6-10.5,1.6-15.7,2.9
	c-8.1,2.5-15,6.8-20.8,13c-5.2,5.6-9,12.4-10.9,19.7c-6.6-6.9-16-11-26.1-11c-18.6,0-33.6,17.2-33,35.4c0,1,0.1,1.9,0.2,2.8
	c-2.5-1-5.2-1.8-7.9-2.5c-4.4-0.4-8.8-0.8-13.2-1.2c-2.9,0.1-5.8,0.5-8.6,1c-5.2-0.1-10.4,0.7-15.4,2.2c-9,2.7-16.7,7.5-23.1,14.3
	c-2.7,3.8-5.4,7.6-8.1,11.4c-0.6,1.1-1.1,2.3-1.6,3.4c-1.1,2.6-2,5.2-2.7,7.8c-0.2,0.7-0.4,1.4-0.6,2.1c-2.7,9.3-0.8,18.1,1,27.3
	c1.1,5.5,4.2,10.6,6.8,15.6c1.3,1.6,2.6,3.1,3.9,4.7c-3.4-0.6-6.9-0.9-10.4-0.8c-4,0.7-8.1,1.3-12.1,2c-8.3,2.5-15.4,6.9-21.3,13.2
	c-8.6,9.3-13.3,21.7-12.8,34.4c0.4,12.6,6,24.7,15.2,33.4c3.5,2.5,7,5,10.5,7.4c7.5,3.9,15.4,5.7,23.9,5.4l11-1.8
	c-1.2,3.2-1.8,6.6-1.6,10.1c0.5,15.3,13.4,26.4,28.3,26.4c2.6,0,5.2-0.4,7.6-1.2c-0.3,2.3-0.4,4.5-0.3,6.8
	c0.9,24.5,21.5,42.3,45.4,42.3c15.7,0,29.4-9.6,36.7-22.7c1,6,3.1,11.7,6.3,16.9c4.6,7.3,10.6,13,18.2,17c3.8,1.4,7.6,2.8,11.4,4.2
	c8,1.8,15.9,1.5,23.8-0.8c4-0.9,7.8-3,11.4-5.1c8.3-4.7,11.9-10.4,16.9-18.1c3.9-5.9,4.7-12.9,5.1-19.7c0.8,0.9,1.6,1.7,2.5,2.5
	c2.8,2,5.5,3.9,8.3,5.9c5.9,3.1,12.2,4.5,18.9,4.3c3.2-0.5,6.4-1,9.6-1.6c6.5-2,12.2-5.5,16.8-10.5c3.2-3.4,5.7-7.4,7.4-11.7
	c0.5,0.5,1,1,1.5,1.5c3.5,2.5,7,5,10.5,7.4c7.5,3.9,15.5,5.7,23.9,5.4c4-0.7,8.1-1.3,12.1-2c8.3-2.5,15.4-6.9,21.3-13.2
	c8.6-9.3,13.3-21.7,12.9-34.4c-0.4-12.3-5.6-24-14.4-32.6c0.3,0,0.7,0,1,0c4.2-0.7,8.3-1.4,12.5-2c8.5-2.6,15.8-7.1,22-13.6
	C589.9,350.1,594.7,337.2,594.3,324.2z"/>
<g>
	<path class="st2" d="M303.8,439.5c3.1,3.1,6.4,5.4,9.8,7.3c3.4,1.9,6.9,3.1,10.6,3.8c3.7,0.7,7.6,0.8,11.6,0.7 c4-0.1,8.1-0.6,12.5-0.9c-3.4,2.8-7.4,4.7-11.7,5.9c-4.3,1.2-9,1.5-13.5,0.6c-4.6-0.8-9-2.9-12.4-6 C307.2,447.8,304.6,443.9,303.8,439.5z"/>
</g>
<g>
	<path class="st2" d="M300.4,220.8c-4.3-0.2-8.3-0.1-12.2,0.4c-3.9,0.5-7.5,1.6-10.9,3.2c-1.7,0.8-3.3,1.8-4.8,2.9
		c-0.8,0.5-1.5,1.2-2.3,1.7l-1.1,1c-0.4,0.3-0.7,0.6-1.1,1c-2.8,2.7-5.4,5.8-8.2,9.2c0.6-4.3,2.2-8.4,4.8-12.1
		c1.3-1.8,2.8-3.5,4.5-5c0.8-0.8,1.8-1.4,2.7-2.1c1-0.6,2-1.2,3-1.7c4.1-2,8.8-2.8,13.2-2.5C292.5,217.1,296.8,218.4,300.4,220.8z"
		/>
</g>
<g>
	<path class="st2" d="M485.9,262c-2.8-3.3-5.6-6.2-8.6-8.7c-3-2.5-6.3-4.5-9.7-5.9c-1.7-0.7-3.5-1.2-5.4-1.6
		c-0.9-0.2-1.9-0.3-2.8-0.5l-1.4-0.2c-0.5-0.1-1-0.1-1.5-0.1c-3.9-0.3-8,0-12.3,0.2c3.5-2.5,7.7-4,12.1-4.6c2.2-0.3,4.5-0.3,6.7-0.1
		c1.1,0.1,2.2,0.4,3.4,0.6c1.1,0.3,2.2,0.6,3.3,1.1c4.3,1.7,8,4.5,10.8,8C483.2,253.7,485.2,257.7,485.9,262z"/>
</g>
<g>
	<path class="st2" d="M522.4,390c3.4-2.7,6.3-5.4,8.9-8.4c2.6-3,4.6-6.2,6.1-9.6c0.8-1.7,1.3-3.5,1.7-5.3c0.3-0.9,0.4-1.9,0.6-2.8
		l0.2-1.4c0.1-0.5,0.1-1,0.2-1.5c0.4-3.9,0.2-8,0-12.3c2.4,3.6,3.9,7.8,4.4,12.2c0.3,2.2,0.2,4.5-0.1,6.7c-0.1,1.1-0.4,2.2-0.7,3.4
		c-0.3,1.1-0.7,2.2-1.1,3.2c-1.8,4.2-4.7,7.9-8.2,10.6C530.8,387.5,526.7,389.4,522.4,390z"/>
</g>
<g>
	<path class="st2" d="M486.9,217.8c-4.8,2.9-9.2,6.9-12.8,11.5c-3.6,4.6-6.6,10-8.7,15.7c1.1-6,3-11.9,6-17.4
		c2.9-5.5,6.8-10.7,11.7-15L486.9,217.8z"/>
</g>
<g>
	<path class="st2" d="M411,458.5c0.5-3.9,0.7-7.9,0.5-12c-0.2-4-0.7-8.1-2.1-11.9c2.4,3.4,4,7.3,5.3,11.4c1.3,4,2.2,8.2,2.8,12.4
		L411,458.5z"/>
</g>
<g>
	<path class="st2" d="M478.7,448.3c-2.4-3.6-4.5-7.3-6.2-11.1c-1.7-3.8-3.2-7.9-3.7-12c1.5,3.8,3.9,7.2,6.4,10.3
		c2.5,3.1,5.4,5.9,8.4,8.6L478.7,448.3z"/>
</g>
<g>
	<path class="st2" d="M555.7,281c-1.8-0.6-3.9-1-5.9-1.2c-2.1-0.3-4.3-0.4-6.4-0.4c-2.2,0-4.3,0-6.5,0.2c-2.2,0.2-4.3,0.5-6.4,1.2
		c1.9-1.2,4-2,6.1-2.8c2.1-0.7,4.3-1.3,6.5-1.9c2.2-0.5,4.4-0.9,6.7-1.2c2.3-0.3,4.6-0.5,7.2-0.3L555.7,281z"/>
</g>
<g>
	<path class="st2" d="M198.7,295.9c0.8,1.8,2.1,3.6,3.4,5.4c1.3,1.8,2.8,3.6,4.4,5.2c1.5,1.7,3.2,3.3,4.9,4.9c1.7,1.5,3.5,3,5.6,4.1
		c-2.3-0.6-4.4-1.7-6.5-2.8c-2.1-1.1-4.1-2.4-6.1-3.7c-2-1.3-3.9-2.8-5.8-4.3c-1.9-1.6-3.7-3.2-5.4-5.3L198.7,295.9z"/>
</g>
<g>
	<path class="st2" d="M199.7,395.4c2,0,4.2-0.4,6.4-0.8c2.2-0.5,4.4-1.1,6.6-1.8c2.2-0.7,4.4-1.5,6.5-2.4c2.1-0.9,4.2-1.9,6.1-3.3
		c-1.5,1.8-3.4,3.3-5.3,4.7c-1.9,1.4-3.9,2.7-6,3.9c-2,1.2-4.2,2.4-6.4,3.4c-2.2,1-4.5,2-7.1,2.6L199.7,395.4z"/>
</g>
<g>
	<path class="st2" d="M334.1,186.7c-0.8,1.8-1.5,3.9-2,6.1c-0.5,2.2-0.9,4.4-1.2,6.7c-0.3,2.3-0.5,4.6-0.6,6.9
		c-0.1,2.3-0.1,4.6,0.4,6.9c-1-2.1-1.5-4.5-2-6.8c-0.4-2.3-0.8-4.7-1-7.1c-0.2-2.4-0.4-4.8-0.3-7.2c0-2.4,0.1-4.9,0.7-7.6
		L334.1,186.7z"/>
</g>
<g>
	<path class="st2" d="M234.6,431.7c1.4,0.1,3-0.3,4.6-0.9c1.6-0.6,3.1-1.5,4.6-2.6c1.4-1.1,2.8-2.4,4-3.8c1.2-1.4,2.3-3,3-4.8
		c-0.2,1.9-0.8,3.8-1.6,5.7c-0.8,1.8-1.8,3.6-3.1,5.2c-1.2,1.6-2.7,3.2-4.4,4.5c-1.7,1.3-3.7,2.5-6.1,3.1L234.6,431.7z"/>
</g>
<g>
	<path class="st2" d="M426.4,188.1c0.3,2.5,0.3,4.9,0.1,7.3c-0.2,2.4-0.6,4.7-1.1,7c-1.1,4.5-2.7,8.9-4.9,12.8
		c1.2-4.4,1.7-8.8,1.7-13.2c-0.1-4.4-0.7-8.7-2.1-12.5L426.4,188.1z"/>
</g>
<polygon class="st3" points="645.1,68.7 601.7,48 570.4,98.5 584.6,109.2 539.3,156.1 618.8,110.4 605.7,92.4 "/>
<polygon class="st3" points="111.3,599.6 161.1,596.6 187.9,555.1 177,548.5 206.2,511.8 152.5,549.9 163.1,561.9 "/>
<polygon class="st3" points="100.6,68.7 134.5,32.1 185.3,103.5 161.1,109.2 203.3,162.5 126.9,110.4 150.2,91.4 "/>
<g>
	<circle class="st3" cx="505.1" cy="515.3" r="22.6"/>
	<circle class="st3" cx="553.5" cy="566.1" r="13.6"/>

		<ellipse transform="matrix(7.745797e-03 -1 1 7.745797e-03 51.14 1195.0153)" class="st3" cx="627.7" cy="571.7" rx="10.5" ry="10.5"/>
</g>
<g>
	<polygon class="st3" points="286.1,65.3 298.4,80.6 318.1,79.1 307.3,95.6 314.8,113.8 295.8,108.7 280.8,121.4 279.8,101.8
		263,91.4 281.4,84.4 	"/>
	<polygon class="st4" points="116.2,219.3 129,224.3 140.4,216.6 139.6,230.4 150.4,238.9 137.1,242.3 132.4,255.2 125,243.6
		111.3,243.1 120,232.5 	"/>
	<polygon class="st5" points="484.5,81.9 485.2,93 494.7,98.8 484.3,102.8 481.8,113.7 474.7,105.1 463.6,106 469.6,96.6
		465.3,86.3 476.1,89.2 	"/>
	<polygon class="st4" points="385.6,544.6 393.6,555.8 407.3,555.6 399.1,566.7 403.6,579.7 390.5,575.3 379.5,583.5 379.7,569.8
		368.4,561.8 381.6,557.7 	"/>
</g>
<g>
	<g>
		<path class="st2" d="M580.2,210c7-5.2,14.4-9.9,21.8-14.4c7.4-4.5,15-8.7,22.7-12.8c7.7-4.1,15.4-7.9,23.3-11.6
			c7.9-3.6,15.9-7.1,24.2-10c-7,5.3-14.4,9.9-21.8,14.4c-7.4,4.5-15,8.7-22.7,12.8c-7.7,4.1-15.4,7.9-23.3,11.6
			C596.5,203.6,588.5,207.1,580.2,210z"/>
	</g>
	<g>
		<path class="st2" d="M71.3,473.4c7-5.3,14.3-10,21.7-14.6c7.4-4.5,14.9-8.9,22.6-13c7.6-4.1,15.4-8.1,23.2-11.8
			c7.9-3.7,15.8-7.2,24.1-10.2c-7,5.3-14.3,10.1-21.7,14.6c-7.4,4.5-14.9,8.9-22.6,13c-7.6,4.1-15.4,8.1-23.2,11.8
			C87.6,466.9,79.6,470.4,71.3,473.4z"/>
	</g>
	<g>
		<path class="st2" d="M387.4,122.4c-0.9-6.8-1.1-13.6-1.1-20.3c0-6.7,0.2-13.5,0.7-20.2c0.5-6.7,1.1-13.4,2.1-20.1
			c1-6.7,2.1-13.4,3.9-20c0.9,6.8,1.1,13.6,1.2,20.3c0,6.7-0.2,13.5-0.7,20.2c-0.5,6.7-1.1,13.4-2.1,20.1
			C390.4,109.1,389.2,115.8,387.4,122.4z"/>
	</g>
	<g>
		<path class="st2" d="M286.9,596.6c0.7-6.7,1.9-13.2,3.4-19.6c1.5-6.4,3.2-12.8,5.2-19.1c1.9-6.3,4.1-12.5,6.5-18.7
			c2.4-6.1,5-12.2,8.3-18.1c-0.7,6.7-1.9,13.2-3.4,19.6c-1.5,6.4-3.2,12.8-5.2,19.1c-1.9,6.3-4.1,12.5-6.5,18.7
			C292.7,584.6,290.1,590.7,286.9,596.6z"/>
	</g>
</g>
<g>
	<path class="st3" d="M636.5,399.6c-2.3,5.5-8.7,8.1-14.3,5.8l0,0c-5.5-2.3-8.1-8.7-5.8-14.3l28.7-78.3l24.2,14L636.5,399.6z"/>

		<ellipse transform="matrix(0.3891 -0.9212 0.9212 0.3891 -15.274 825.7579)" class="st3" cx="615" cy="424.4" rx="10.5" ry="10.5"/>
</g>
</svg>
