<?xml version="1.0" encoding="utf-8"?>
<!-- Generator: Adobe Illustrator 23.1.0, SVG Export Plug-In . SVG Version: 6.00 Build 0)  -->
<svg version="1.1" id="图层_1" xmlns="http://www.w3.org/2000/svg" xmlns:xlink="http://www.w3.org/1999/xlink" x="0px" y="0px"
	 viewBox="0 0 218.8 220.7" style="enable-background:new 0 0 218.8 220.7;" xml:space="preserve">
<style type="text/css">
	.st0{fill:#75AFDE;}
</style>
<g>
	<path class="st0" d="M134.7,11.2c1,0.3,3.5,0.8,5.5,1.4c2.7,0.9,3.9,1.7,4.9,2c1.9,0.6,3.6,0.9,4.4,0.9c-1.6-0.9-2.8-1.3-4.5-1.9
		l0.1-0.4c-1.5-0.4-4.6-1.5-4.8-1.1c-0.9-0.3,0.2-0.4-0.6-0.7c-2.4-0.6-3.5-1-4.4-0.9c-0.7-0.2-1.6-0.4-1.9-0.6
		C133,10,132.9,10.5,134.7,11.2z"/>
	<path class="st0" d="M132.7,16.3c-0.4-0.1-0.3,0.1-0.8,0c0,0.2,1.3,0.3,1.5,0.3C133.3,16.5,132.6,16.4,132.7,16.3z"/>
	<path class="st0" d="M143.8,12.1l0.1-0.1c-0.5-0.1-0.4,0.1-0.5,0.2c0.6,0.1,1,0.2,1.6,0.4C144.7,12.3,144.2,12.3,143.8,12.1z"/>
	<path class="st0" d="M149.1,20.4c-0.3,0.2,1.2,0.7,0.9,0.9c1.1,0.4,1.3,0.5,2.9,1.1C152.7,21.9,151.2,21,149.1,20.4z"/>
	<path class="st0" d="M155.4,20.7c0.6,0,2.8,0.6,3.6,1.5c1.8,1,2.1,0.7,1.8,0.1h-0.1c0.2,0.1,0.3,0.1,0.4,0.1h0.1l0,0
		c0,0,0.1,0,0.1-0.1l0,0c0,0-0.1-0.2-0.4-0.3s-0.4-0.2-0.4-0.1c0,0,0,0.1-0.1,0.1h-0.1c-1.4-0.7-3.4-1.7-4.8-2.3
		c-1.5-0.5-2.4-0.7-1.6,0.2C154.4,20,155.6,20.5,155.4,20.7z"/>
	<path class="st0" d="M159.6,28.2c-0.2-0.3-0.6-0.4-1-0.5C158.8,27.9,159.2,28,159.6,28.2z"/>
	<path class="st0" d="M169.2,31.7c-0.9-0.7-2.6-1.7-3.8-2.6c0.3,0.6,0.1,0.9-1.7-0.2c0.6,0.6,2.1,1.7,3.4,2.5
		C168.5,32,169.5,32.4,169.2,31.7z"/>
	<path class="st0" d="M167.8,29L167.8,29C167.9,29,167.9,29,167.8,29l0.2,0.3c-0.4-0.1-1.5-0.8-2-1.1c0.6,0.7,2.2,1.9,3.7,2.8
		c-0.4-0.6,0.8,0-0.9-1.3l-0.1-0.1c0-0.3-0.7-0.8-0.3-0.9c-1.4-0.9-2.3-1.2-2.9-1.3C165.6,27.6,167.2,28.5,167.8,29z"/>
	<path class="st0" d="M170.8,27.5c0.3-0.1-0.5-0.6-0.1-0.5c-1.1-0.6-1.1-0.8-2.4-1.6c0.1,0.4-0.5,0-0.6,0.2
		C168.9,26.2,170.2,27.2,170.8,27.5z"/>
	<path class="st0" d="M167.9,27.5c0.4,0.2,0.6,0.4,0.6,0.5c1,0.5,0.4,0,0.9,0C168.8,27.8,168.1,27.3,167.9,27.5z"/>
	<path class="st0" d="M184.7,39l-0.2,0.2c0.3,0.2,0.7,0.6,1.2,1.1C185.5,40,185.5,39.7,184.7,39z"/>
	<path class="st0" d="M200.9,56.1l0.2,0.3c0.2,0.3,0.4,0.5,0.4,0.4l0,0c0.1,0-0.1-0.3-0.3-0.6l-0.3-0.5l0,0c-1-1.5,0.3,0.2-0.3-0.8
		c-1.3-1.7-2.4-2.9-3.2-3.3C198.9,53.8,199.9,55,200.9,56.1z"/>
	<path class="st0" d="M204.7,93.4c0.7,0.4,1.9,1.9,2.1,0c-0.9-4.2-2.1-6.9-3.1-7.3c-0.4-0.3-1.2-2.6-1.7-3.4
		c-0.3-0.5-0.2,0.6-0.5-0.6c0.1,1.7,0.7,3.6,1.3,5.6C203.4,89.7,204.2,91.8,204.7,93.4z"/>
	<path class="st0" d="M209.7,114.4c-0.2,0-0.1,1.6-0.2,2.3c0.3,0.4,0.3,1,0.5,0.4c0-1.5-0.1-0.9,0.1-2.3c-0.2-0.2-0.2,0.3-0.3,0.4
		C209.8,115,209.7,114.8,209.7,114.4z"/>
	<path class="st0" d="M206.5,123.1c-0.1,0.2-0.2,0.3-0.3,0.7c-0.4,3.6-1,6.9-1.6,9.9s-1.2,5.9-1.8,8.7c0.3,0.4,0.7-0.9,1-0.4
		c0.4-0.9,0.1-0.8,0.3-1.5c0.7-2.4,1.7-6,1.9-8c0.2-1.8-0.2-2.4,0.1-4.5c0.1-0.5,0.3-0.1,0.4-0.7c0.4-2-0.2-1.9,0.3-3.7
		C206.6,123.7,206.5,124,206.5,123.1z"/>
	<path class="st0" d="M182.2,176.9c-0.1,0-1.8,1.8-1.8,1.9C180.8,178.9,181.3,177.7,182.2,176.9z"/>
	<path class="st0" d="M169.1,189c-0.6,0.1-2.4,1.5-2.7,1.9C166.9,191,168.4,189.6,169.1,189z"/>
	<path class="st0" d="M136.7,205.7c-0.2,0.4,1.7-0.2,3-0.6C139.1,205,139.4,204.8,136.7,205.7z"/>
	<path class="st0" d="M128.6,207.4c-0.9,0.4-0.2,0.4-0.6,0.8c2.5-0.4,3.7-0.9,5.1-1.4C132.7,206.6,130,207.3,128.6,207.4z"/>
	<path class="st0" d="M117.5,211.1C116.5,210.8,116.5,211.5,117.5,211.1L117.5,211.1z"/>
	<path class="st0" d="M114.3,216.7c0-0.2-1.4-0.1-2.4-0.1C112.2,216.8,113.8,216.8,114.3,216.7z"/>
	<path class="st0" d="M97.4,217.1v0.2c0.8,0.3,1.2,0.1,2.5,0.2C99.7,217.3,98.3,217.2,97.4,217.1z"/>
	<path class="st0" d="M78.9,214.1c-0.8-0.2-0.7,0.2-1.8-0.1c2.3,1.1,5,1.5,4.5,1C80.8,214.7,79.8,214.4,78.9,214.1z"/>
	<path class="st0" d="M80.7,207l-0.7-0.3c0.6,0.4-0.1,0.1-0.1,0.3c0.3,0.1,0.6,0.1,1.1,0.3C81,207.3,81.1,207.2,80.7,207z"/>
	<path class="st0" d="M60.3,204.2c-0.2-0.4-1.5-0.8-1.2-0.4C59.9,204.3,59.6,203.8,60.3,204.2z"/>
	<path class="st0" d="M59.1,195.7l0.2-0.3c-0.9-0.7-1.8-1.4-2.6-1.7c0.2,0.2,0.2,0.4,0.1,0.5C57.6,194.7,58.3,195.2,59.1,195.7z"/>
	<path class="st0" d="M45,179.9c-0.4-0.4-0.8-0.8-1.1-1.2l-0.5-0.6c0-0.1-0.7-0.9-0.9-1.1c0.2,0,0.7,0.4,1.1,0.6
		c0.2,0.1,0.3,0.1,0.2,0s-0.3-0.4-0.5-0.5c-0.8-0.6-1.3-0.9-1.5-0.8l0,0l-0.1-0.1c-0.2,0-0.2,0.2,0,0.5c0.6,0.7,0.7,0.5,1.3,1.3l0,0
		c0.3,0.3,0.5,0.6,0.8,0.8c0.3,0.4,0.6,0.7,0.9,1c0.2,0.2,0.4,0.4,0.5,0.4C45.3,180.3,45.2,180.1,45,179.9z"/>
	<path class="st0" d="M10.4,144.5c-0.2-0.5-0.4-0.8-0.5-0.7C10.1,144.7,10.2,144.5,10.4,144.5z"/>
	<path class="st0" d="M9.7,144.3C9.4,142.6,8.8,142.6,9.7,144.3L9.7,144.3z"/>
	<path class="st0" d="M22,136.3c0.3,1.2,0.6,2,0.9,2.8C22.7,138.3,22.3,136,22,136.3z"/>
	<path class="st0" d="M19.8,138.7c0.1,0-0.4-2.1-0.6-2.1c-0.1-0.2-0.1-0.5-0.2-0.7c-0.1-0.3-0.2-0.6-0.3-0.5l0,0
		c-0.1,0-0.1,0.3,0,0.6c0.1,0.4,0.2,0.8,0.3,1.1l0,0c0,0.6,0.3,0.9,0.2,1.1C19.7,139.4,19.6,138,19.8,138.7z"/>
	<path class="st0" d="M25.9,44.5c0.1-0.1,0.2-0.3,0.3-0.3c0.1-0.1,0.3-0.3,0.4-0.5v-0.1c0,0-0.1,0-0.2,0.1c-0.2,0.2-0.4,0.4-0.6,0.6
		l-0.1,0.1c-0.1,0.1-0.1,0.1-0.2,0.2l0,0c-0.2,0,0.1-0.4,0.4-0.8c-0.8,0.5-2.2,2.7-2.9,3.8C23.5,47.4,25,45.8,25.9,44.5z"/>
	<path class="st0" d="M25.6,46.4L25.6,46.4c0.2-0.6,1.2-1.8,1.3-2.2c-0.3,0.2-1.2,1.3-1.1,0.8c-0.9,1.2-1.2,1.7-2.1,2.7
		c0.2,0.2,0.4,0.6,1.1-0.2l0,0c0.1,0,0.1,0,0.2,0.1c0,0,0,0,0.1,0.1c0,0,0.2-0.1,0.4-0.4s0.3-0.5,0.3-0.5s0,0-0.1-0.1
		c0,0,0,0-0.1-0.1c0,0-0.1,0-0.2,0L25.6,46.4z"/>
	<path class="st0" d="M28.4,43.8c-0.4,0.3-2.1,2.5-2.4,3c0.3,0,1.6-1.8,2.5-2.9c0-0.1-0.2,0.1-0.3,0.3C28.1,44.2,28.3,44,28.4,43.8z
		"/>
	<path class="st0" d="M34.1,38.2c1.1-1.4,0.7-0.4,2.2-2c-0.5,0.7-0.6,1.1-0.8,1.6c1-0.6,1.5-1.8,2.3-2.5c-0.5-0.1,0-0.8,0.6-1.5
		s1.4-1.6,1.4-2c-1.5,1.3-2.5,2.3-3.3,3.2s-1.5,1.8-2.6,2.9L34.1,38.2z"/>
	<path class="st0" d="M39.3,34.8c-0.3,0.2-0.5,0.5-0.8,0.8l0,0c-0.8,0.7-1,0.9-2.1,2c0,0.4,0.9-0.7,0.9-0.3c1.1-1.2,2.8-2.4,1.7-1.9
		c0.1-0.1,0.3-0.3,0.4-0.4c0.3-0.2,0.5-0.5,0.5-0.6l0,0C39.8,34.4,39.6,34.5,39.3,34.8z"/>
	<path class="st0" d="M42.8,35.4c0.6-0.5-0.3,0.1-0.6,0.5C41.6,36.4,42.4,35.8,42.8,35.4z"/>
	<path class="st0" d="M90.6,4.9c1.5-0.3-1-0.2,0.4-0.5c-1.8,0.1-4.5,1.2-4.1,1.3C88,5.7,90,4.8,90.6,4.9z"/>
	<path class="st0" d="M112.4,14.1c0.1-0.2-1.4,0-1.9-0.1C110.9,14.2,111.9,14.3,112.4,14.1z"/>
	<path class="st0" d="M112.3,15.3L112.3,15.3L112.3,15.3L112.3,15.3z"/>
	<polygon class="st0" points="112.3,15.1 112.4,15.1 112.4,15.1 	"/>
	<path class="st0" d="M117.4,12c-2.3-0.1-3.6,0.1-5.1,0.1V0.5h0.4c1.7-0.1,1.7,0.7,1.3,0.2c2.6-0.2,4.5,1.3,7.8,1.3
		c0.6,0.5-1.5,0.3-1.3,0.7c0.8,0.1,0.5,0.4,1.2,0.6c0.8,0,2,0.2,3.6,0.3c0.8,0.3,1.9,0.6,2.3,0.9c-0.6-0.1-1.4-0.2-1.2,0
		c-1.1-0.3-3-0.6-4.5-0.6c-1.5-0.1-2.7,0.1-2.4,0.6h0.2c0.3,0,0.6,0.1,0.6,0.2l0,0c0,0.1-0.3,0.1-0.7,0.1L119,4.7l0,0
		c-1.7-0.1-2.9-0.1-3.2,0.1c0.8,0,1.6,0.1,2.4,0.1c-0.7,0.4,1.7,0.4,1.5,0.7c-0.4,0.3-0.8,0.6,1.1,0.7c0.5-0.3,1.9-0.6,0.9-1.1
		c1,0.1,1.6,0,1.6-0.2c2.2,0.3,3.7,0.4,5.1,0.6c1.4,0.1,2.6,0.2,4.1,0.4c2.7,0.8,4.7,1.7,6.7,2.7c0.4-0.2,1.6,0,2.9,0.3
		c0.5,0.3,1.7,0.7,2.8,1.2s2.1,0.9,2.3,1.3c-1.6-0.4-3.1-0.8-4.3-0.9c0.1,0.2,1.1,0.8,2,1.3h0.1c1.6-0.1,1.9,1.1,0.3,0.3l0,0
		l-0.4-0.1l0,0c0.1,0.2,1.4,0.8,2,1c0.1,0,0.3,0,0.4,0c0.3,0,0.5,0,0.5,0s0.1,0,0.2,0c0.1,0,0.3,0.1,0.3,0.1l0,0
		c0,0.1-0.4,0.1-0.6,0c-0.2,0-0.3,0-0.4,0h0.1c0.9,0.1,0.8,0.4,1.4,0.7c2.7,1.2,3.9,1.7,6.4,2.9c0.1-0.1,0.6,0.2,0.8,0.1l0,0l0,0
		c0.2,0,0.4,0,0.9,0.2l-0.1-0.1c0.3-0.1-1.1-0.8-0.2-0.5c1.1,0.3,1.4,0.6,2.9,1.3c0.5,0.4,0,0.6,0.3,1c-0.9-0.5-1.8-1-2.7-1.4
		c-0.2-0.1-0.4-0.1-0.5-0.1l0,0c0.6,0.3,0.7,0.5,0.6,0.6c-1.6-0.5-4.3-1.8-6.9-2.8c-2.6-1-5.1-1.9-5.9-1.8c1.8,0.5-1.1,0.1-0.6,0.6
		c1.1,0.1,1.8,0.7,2.5,1c0.1,0.2-0.6,0.3,0.1,0.6c2,0.6,1.9,0.9,3.2,1.3c-1,0.1,0.5,1.1-0.1,1.2c-0.8-0.6-2.5-1.4-4.4-2
		c-1.9-0.6-4-1.3-5.4-1.8c-0.4-0.8,0-1.4-0.1-2.2c0.7,0,2.4,0.4,3.1,0.4c-1.5-0.6-2.3-0.9-3.4-1.2c-1-0.3-2.2-0.7-4.4-1.2
		c-1.5-0.3-1.5,0.2-3.2-0.1c-3.8-0.8-6.1-1.1-9.6-1.4L122,8.9c0.8,0.1,2.5,0.2,2.7,0.4c-2.4-0.1-2.7,0.7-1.7,1.3
		c-2.2-0.3-3.4,0.8-5.7,0.6C117.2,11.3,118.5,12.2,117.4,12z M133.4,8.2c0.1,0.2,0.8,0.4,0.7,0.5c1.7,0.4,2.8,0.5,3.2,0.3
		C135.7,8.4,135,8.4,133.4,8.2z M116,8.9c-1.2-0.2-2.7,0-2.3,0.3C115.1,9.2,115.7,9.1,116,8.9z"/>
	<path class="st0" d="M157.6,19.1L157.6,19.1l0.3,0.2c-0.6-0.2-0.1,0.4-0.9,0.1c0.6,0.4,1.7,0.7,2.9,1.4c-1.2-0.3,0.9,0.6,1.1,0.5
		l0,0l0.8,0.4l0.3,0.1c0.2,0.1,0.4,0.2,0.4,0.1l0,0c0-0.1-0.2-0.2-0.5-0.4l-0.3-0.1l-0.6-0.3l0,0l-0.4-0.2c-0.4-0.2-0.2-0.3-0.2-0.4
		c-1.3-0.5-1.7-1.2-2.1-1.2l0,0l-0.4-0.2c-0.3-0.3-2-1-1.9-0.7C156.9,18.7,156.6,18.7,157.6,19.1z"/>
	<path class="st0" d="M111.1,0c-0.2,0.2,0.8,0.1,0.9,0.2c-0.2,0.1-2.4-0.2-1.3,0.2l0,0h-0.1h-0.3c-0.5,0-0.9,0.1-1.3,0.1
		c-0.3,0-0.5,0.1-0.5,0.1c0.1,0.1,0.4,0.1,0.7,0.1c0.6,0,1.1-0.1,1.6-0.1h0.1h0.2c-0.7,0.6-2,0.6-2.6,1.3c1.3-0.1,2.6,0,3.9,0.1V0
		C111.9,0,111.5,0,111.1,0z"/>
	<path class="st0" d="M112.4,9.7v2.8c-1.5,0-2.9,0.1-4.2,0.2l0,0c-0.4,0-0.9,0.1-1.3,0.1c-0.5,0-1,0.1-1.4,0.1c-0.3,0.1-0.6,0-0.8,0
		c-0.1-0.1,0-0.1,0.3-0.2c0.7-0.1,1.3-0.1,1.9-0.2l0.9-0.1c0.2-0.2,1.2-0.3,1.2-0.5c-1.2,0-3.2,0.1-4.3,0.2c0.7-0.5-1.4-0.1-1.6-0.3
		c2.2-0.4,3.1-0.3,4.3-0.7c-0.1,0,0.2-0.4,0.8-0.5c-0.6-0.2-1.2-0.1-2-0.1c1.3,0,0.6-0.3,0.8-0.4c-1,0-2.3,0-3.6,0.1
		c0.5,0.3-1.2,0.3-1.2,0.5c1-0.1,1,0.1,1.6,0.1c-1.7-0.1-2.8,0.5-3.9,0.6c-0.3,0.3,1.4-0.1,0.8,0.3c-0.9,0.2-1.8,0.3-3.1,0.5
		c-0.3,0.2,0.2,0.3-1.1,0.6c0.7,0,2.3-0.3,3.5-0.4h0.1l0.3-0.1c0.2,0,0.3-0.1,0.4-0.1c0.2-0.1,0.5-0.1,0.6,0c0.1,0,0.1,0,0.1,0
		s-0.1,0.1-0.2,0.1l-0.4,0.1l0,0c-0.3,0.3,0.1,0.3-1.1,0.7c0.7,0.1,2.7-0.5,3.1-0.2c-0.4,0.2-1.7,0.4-1.9,0.7c0.6,0.2,1,0.5,2.4,0.5
		c-1,0.1-3,0.3-4.2,0.4c0.4-0.3,0.8-0.2,0.3-0.5c-1.5,0.3-4.2,0.7-4.5,1.1c0.8-0.1,2.5-0.5,2.7-0.4c-1.7,0.5-3.9,1-6.3,1.5
		c-2.3,0.5-4.8,1.1-7.2,1.8c-4.7,1.3-8.8,3-9.9,4.4c-1.8,0.8-3.4,1.8-4.9,2.6s-2.6,1.4-3.4,1.4c1.9-1,1.3-1.2,1.7-1.8
		c-2.3,0.9-5.4,3.1-7.7,4.3c-0.4-0.1,0.7-0.8,1.1-1.2c-1.3,0.7-1.9,0.9-3.1,1.6l0,0l-0.4,0.3c-0.2,0.2-0.5,0.3-0.6,0.3
		s0-0.1,0.2-0.3c0.2-0.1,0.4-0.3,0.6-0.5l0,0c0.3-0.5,1.3-1.2,0-0.7c0.7-0.8,3.2-2.5,2.2-2.4c1.1-0.6,1.3-0.9,1.6-1.2
		c-0.7,0.2-0.8,0-0.6-0.3c-3,1.7-5.8,3.5-6.5,3.1c0.8-0.7,0.6-0.9,1-1.4c1.1-0.8,1.5-0.9,2-1.4c-3.4,1.8-6.1,4.3-7.7,5.9l-0.1,0.1
		l0.2-0.1c1.1-0.9,2-1.5,2.9-2c0,0.2-0.7,0.9-1.3,1.5s-1,1-0.5,0.9c-1.9,1.4-2.7,2.4-4.2,3.7c-0.9,0.8-1.7,1.1-2.6,1.8
		c-0.5,0.3-1,1-1.5,1.3c-0.4,0.3-0.7,0.4-1,0.6c-1,0.8-1.7,1.7-2.4,2.1c0.2-0.2,0.3-0.4,0.2-0.4l0,0l-0.4,0.4l0,0
		c-0.8,1-2.1,2.4-3.3,3.8c-1.2,1.4-2.4,2.8-3.2,3.6c0.3-0.4,0.4-0.7,0.3-0.8c-1.1,1.5-2.5,3.3-3.7,5s-2,3.1-2.1,3.8l0.8-0.9
		c0,0-0.8,1.3-0.3,0.8c1.1-1.5,2-2.8,2.4-3.7c1.4-1.8,3.6-4.8,4.4-5.1c-1,1.3-2.2,2.9-3.4,4.5c-1.2,1.6-2.3,3.2-3,4.6
		c0.5-0.3,1.2-1.3,2.1-2.5c0.8-1.1,1.8-2.3,2.5-3c-0.3,0.9-0.3,1.1-1.5,2.8c-0.7,1-1.9,2.3-2.4,3.1c-0.5,1-1,2.1-0.6,2
		c1.2-2.1,2.8-4.5,4.6-6.8c0.1,0.6,1.6-1.7,1.7-1.1c-0.3,0.4-0.1,0.4-0.4,0.7c-1.4,1.9-2.9,3.3-4.4,5.5c-0.8,1.3-1.6,3-2.4,5
		s-1.8,4.3-3,7c-1.3,2.9-2,3.9-2,5c0,0.7,0.3-0.2,0.6-0.2c-0.4,1.1-1.1,2.7-1.6,4.3l0,0L21,78.3c-0.1,0.3-0.3,0.5-0.3,0.5
		s0-0.2,0-0.5l0.1-0.3c-0.1-0.4,0.7-2,0.5-2.2c-0.9,0.8-1.7,2.6-2.5,4.8c-0.7,2.2-1.4,4.9-2.1,7.8c-0.4,0.7-0.7-1.7-1.4,1.2
		c-0.4,0.3,0.1-1.3,0.1-1.6c-1,2.1-0.3-1.9-1.2,0.5c0.4-1.7,0.5-2.4,0.5-3.1c-0.4,1.1-0.1-0.4-0.3-0.1c0,0.6-0.5,2-0.7,3.1v0.1l0,0
		c0,0.1,0.1,0.2,0.1,0.5c0,0.2-0.1,0.5-0.1,0.7c-0.1,0.2-0.2,0.3-0.2,0.1c0-0.2,0-0.3-0.1-0.3l0,0v0.1c-0.3,1.1,0.1-0.9-0.2-0.5
		c-0.5,1.3-0.9,3.3-1,4.6c-0.1,1.3,0,1.7,0.5-0.2c-0.5,2.7-0.5,5.8,0.4,4.5c0-1.5,0.3-3.2,0.8-5.4c0.3,0.3,0.3,0.7,0.5,0.9
		c0.2-1.1,0.4-0.9,0.6-1.4c-0.3,1.2,0,1.1-0.1,1.9H15c0.2-0.8,0.4,0.1,0.6-0.7c-0.1,0.7-0.3,1.3-0.4,1.5l0,0c0,0.2,0,0.3,0,0.5
		s0,0.5-0.1,0.7S15,96.2,15,96c0-0.1,0-0.3,0-0.5l0,0c-0.1,0,0-0.3-0.1-0.4h-0.1c-0.2,0.7-0.5,0.9-0.7,2.2v-0.1v0.5
		c0,0.6-0.1,1.2-0.3,1.9c0.3,0.2-0.2,3.6,0.3,2.4l0.1-0.6l0.1-0.7l0,0c0.2-1.4,0.4-3.1,0.7-2.6c-0.2,0.9-0.3,2.6-0.5,3l-0.1,0.4
		l-0.1,0.8l0,0c-0.4,3.3-0.5,6.7-0.3,9.8c0.1,3.1,0.5,5.8,1,7.8c0.9,1,1.2,4.7,2,7.1c0.1,0.2,0.1-0.5,0.1-0.4
		c0.4,0.9,0.8,3.3,1.3,4.4c-0.3,0.1,0.4,1.2,0.1,1.1c-0.5-0.6-1.3-3.4-1.6-2.8l0.6,2.6c0.2,1,0.4,1.9,0.5,2.3
		c-0.1-0.4-0.2-0.9-0.3-0.7c0.3,1.3,0.6,2.1,0.9,3c0.3,0.8,0.6,1.7,1,3.2c-0.3,0.1,0.1,1.3-0.4,0.5c0.1,0.1-0.8-1.2-1.2-3.2
		c0-0.6,0.1-1-0.2-2.3c-0.4-1.9-1.1-3.4-1.5-5.1c-0.3-1-0.3-3-0.7-3c0.3,2.2,0.5,4.1,0.8,5.8c0.3,1.7,0.7,3.3,1.3,5.1
		c-0.5,0.3,0.3,2.9-0.5,2.5l0.4,2.5l0,0l0.1,0.6l0,0c0.2,0.6,0.4,1.2,0.6,1.9l0,0l0.7,1.8c0.2,0.5,0.4,1,0.6,1.5l0,0
		c0.2,0.6,0.5,1.2,0.7,1.8l0,0c0.2,0.5,0.4,0.9,0.7,1.4l0.4,0.7h0.1c-0.1-0.7-0.7-2-1.3-3.4c-0.6-1.4-1.2-2.9-1.5-3.8
		c0.5,0.4,0-1.4-0.3-1.9c0.6-0.3,2,3.2,2.2,5c0.7,1.8,1.1,2.7,1.3,3.4c0.3,0.7,0.4,1.2,0.7,2c-0.6-2-0.4,0.8,1,2.9
		c0.3,0,1,1.4,1.2,0.7c1.3,2.2,2.5,3.9,3.8,5.5s2.6,3.1,4.1,4.9c1.3,1.6,2.5,3.6,3.9,4.6c-0.9-1.7-0.3-1.5,0.8-0.5s2.7,2.9,3.8,4.4
		c-0.7-0.5,1.3,1.8,1.2,2c-0.7-0.7-1.2-1.2-1.8-1.4c1,1.2,2.8,2.9,3.3,3.6c-1.4-1.2,0.2,0.5-0.4,0.4c1.6,1.9,3.7,3.8,6,5.7
		s4.8,3.7,7.2,5.6l0,0c1.5,0.9,2.7,1.8,3.9,2.7c0.9,0.6,1.8,1.2,2.8,1.8l0,0c2.2,1.2,4.1,2,6.1,2.8s4.1,1.7,7.1,3
		c0.9,0.4,1.1,0.8,1.9,1.2c1.5,0.7,3.3,1.4,5.2,2.1s3.6,1.1,4.9,1.6c0.1,0,0.2,0,0.2,0.1c0.3,0.1,0.6,0.1,0.6,0.2
		c0.1,0.1-0.1,0.1-0.3,0.1c-0.3-0.1-0.6-0.1-0.8-0.2l0,0c-3.2-0.7-5.7-1.3-6.1-1c1.2,0.4,2.2,0.8,2.9,1.1c-0.6,0.1-1.5-0.1-1.3,0.4
		c-2.6-0.8-3.8-0.8-6.7-2c-0.1,0.2-0.6,0-1.3,0c2,0.8,4.3,1.9,6.5,2.6c2.1,0.8,4.1,1.2,5.1,0.9h0.1c-0.2-0.1-0.3-0.2-0.4-0.2l0,0
		h0.1c0.1,0,0.2,0.1,0.3,0.1c0.1,0,0.2,0.1,0.3,0.2l0,0l0,0c1.6,0.4,4.9,0.9,5.7,1.4c-1.8-0.4-0.7,0-1.2,0.1
		c0.7,0.2,1.7,0.4,1.5,0.5c-0.7,0.2-2.1,0-2.9,0.1c2.6,0.6,3.2,0.4,5.1,0.7l0,0c0.8,0.1,1.6,0.2,2.4,0.4l0,0l1.2,0.2l0,0l1.1,0.1
		h0.2c0.3,0,0.6,0.1,0.6,0.2s-0.3,0.1-0.6,0.1h-0.3l-0.9-0.1c-0.6,0-1,0.1-1.8,0v-0.2H98c-0.5-0.1-1.1-0.2-1.7-0.3h0.1
		c0,0.2-1.1-0.1-0.8,0.2c0,0.2,1.5,0.4,1.5,0.6c-1-0.1-2-0.3-2-0.1c1.4,0.5,3.6,0.4,4.7,0.8c-0.4,0-1.5-0.2-1.2,0.1
		c1.5,0.1,3.6,0.4,5.2,0.4l0,0c1.1,0,2.1,0.1,3.1,0.1c0.4,0,0.8,0,1.2,0c1.1-0.1,0.9-0.3,0.5-0.5c2.4,0.1,0.8-0.5,1.2-0.6
		c1.7,0.2,2.9,0.2,5.9,0.2c0-0.4,0.9-0.8,2.7-1.1c-0.5,0-0.9,0-1.2-0.1c1.3-0.1,1.5-0.3,3.1-0.3l0,0c0.2-0.1,0.5-0.1,0.8-0.1
		c0.2,0,0.3-0.1,0.4-0.1c0.4-0.3,2-0.5,2.3-0.8c-1.8,0.4-3.1-0.1-5,0.4c0.3-0.4-1.3-0.3-1.6-0.6c2.8-0.3,5.4-0.7,8.3-1.3
		c2.8-0.5,5.8-1.1,9.5-1.8c0.6,0.1-0.9,0.6,0.1,0.5c3.2-0.7,4.2-1.3,7.3-2.4c0.4,0.4-2.4,1.1-2.8,1.6c0.9-0.3,0.5,0.1,1.2-0.1
		c1.1-0.3,1.1-0.4,2.2-0.8c0.7-0.7,2.4-1.9,4.9-2.4c0.8-0.2-0.5,0.5,0.8,0c0.5-0.2,0.5-0.1,1.1-0.4c2.3-1.1,3-2,5.3-3.3
		c2.7-0.9,4.9-2.1,7.1-3.5c2.2-1.4,4.3-2.9,6.7-4.5c3.6-2.4,7.2-5.4,10.5-8.6c3.4-3.2,6.5-6.6,9.5-9.5c3.8-4.9,6.8-8.9,8.9-12.9
		c0.6-0.6,0.3,0.3-0.1,1.1c-0.4,0.9-0.8,1.8-0.3,1.3c-0.4,0.7-1.6,2.7-2.3,4.1c1-1.4,1.3-1.4,2.3-3.1c0,0.3-0.5,1.4,0.3,0.6
		c-1,1.6-1.8,3.4-2.6,4.9s-1.6,2.8-2.2,3.2l-0.5,1.1c0.7-0.8,1.6-1.8,2.4-2.9s1.5-2.1,1.8-2.9c1.3-1.6,2-2.9,2.8-4.5
		c0.7-1.6,1.6-3.3,3-5.8c-0.1-0.2,0.2-0.8,0.3-1.2c-0.6,1.2-1.5,2.9-0.9,2.2c-0.6,1.3-0.6,0.2-1.1,1.2c-0.4,1.1-1.9,2.9-2.7,4.3
		c0.2-0.7,1.2-2.4,2.1-4.1c0.9-1.6,1.6-3.2,1.3-3.4c-0.6,1.1-0.4,1.1-0.9,1.7c-0.3-0.1,0.2-1.2,0.8-2.4s1.3-2.6,1.2-3
		c-0.3,0.2-0.5,0.4-0.8,0.5c0.7-1.4,0.5-1.4,1.1-2.4c0.7-3,1.8-6.3,2.9-10.2s2.4-8.6,3.3-14.1l0,0l0.1-0.5c0-0.3,0.1-0.6,0.2-0.6
		c0.1,0,0.1,0.2,0.1,0.5l-0.1,0.4c0,1.3-0.4,3.1-0.2,3.7c0.5-2.6,1.1-3.1,1.5-4.8c0.4,0.1,0.3,1.9,0.4,2.8c0.4-0.8,0.5,0.8,0.7-0.7
		c0.1,0.4,0.2,1.1,0.4,1.3c0.2-1.3,0.6-3.1,0.9-4.9c0.3-1.8,0.6-3.7,0.6-5.2l0,0v-0.4c0-0.6,0-1.5-0.2-1.2c0.1,0.6-0.1,2-0.1,3.1
		c-0.3,0.2-0.2-0.7-0.5-0.5c0.1-1,0.2-1.2,0.3-1.9c-0.1-0.4-0.3-0.5-0.5-0.8c-0.1,2.2-0.4-0.3-0.6,1.5c-0.3-1.7,0.1-4.7,0.2-6.2
		c0.3,0.8,0.5,0.8,0.9,0l0,0c0-0.3,0-0.5,0.1-0.8s0.1-0.4,0.1-0.3c0.1,0.1,0.1,0.4,0.1,0.7v0.4l0,0c0,0.5,0.1,0.9,0.1,1.2
		c0.2-0.8,0.4-1.3,0.4-2.7l0.1,0.1c-0.1-0.6-0.1-1.1,0-1.8l-0.1,0.1c-0.4-1.9-0.7-3.7-1.3-4.7c-0.4-0.6-0.7-0.1-1-1.1
		c-0.3-0.8-0.2-2.4-0.6-2.3c-0.2-2.3-0.6-3.5-0.9-4.3c-0.4-0.8-0.8-1.2-1.2-2l-0.9-3.7c-0.1-0.6-0.4-0.9-0.6-1.4
		c-0.5-1.9-1-4-1.7-6.2c-0.4-1.4-1.1-3.3-1.9-5.1c-0.7-1.8-1.4-3.4-1.9-4.3c-1.3-2.9-2.3-5.3-2.8-7c0.7,1,0.5,0.3,0.7,0.1
		c1,1.7,1.9,3.2,2.4,3.1c-0.7-1.3-0.3-1.1-0.1-1.2c-0.4-1.1-0.7-1.3-0.9-2.1c0.4,0.8,0-0.5-0.1-0.8c-1.4-2.9-2.1-3.7-2.7-5.6
		c0.2,0.3,0.3,0.3,0.3,0.3c-0.2-0.7-1.4-2.5-1.3-2.8c0.6,0.5,0.6,1,1.1,1.2c-0.8-1.2-1.3-1.8-1.6-2.7c0.4,0.6,0-0.2-0.1-0.4
		c0.7,1.1,1.1,1.5,1.3,1.5c0-0.1-0.3-0.6-0.6-1c0.4,0,1.3,1.5,1.6,1.3c-0.3-0.7-1-2-1.8-3.3s-1.8-2.6-2.4-3.4c1.7,1.7,1.5,0,2.8,1
		c0-0.2-0.2-0.5-0.6-1.1c0.1-0.1,0.6,0.4,0.6,0.1c1.4,1.9,2.2,3.6,3.2,4.7v0.1c0.3,0.4,0.6,0.8,0.8,1.1l0.1,0.2v-0.1
		c1,1.3,1.4,1.2,2.6,3.2c-0.1,0.1,0.6,1.7,0.4,2.1c0.9,1.6,1.6,2.7,2.4,4.7c0.6,0.3,1.4,1.9,2.2,3.4c0.8,1.6,1.6,3.2,2.1,3.7
		c0-0.5-0.6-1.8-0.7-2.4c0.9,0.9,1.9,2.7,3,5.6c0.7,3.4,2.4,7.3,3.2,11.2c-0.1,0.2-0.3-0.7-0.5-0.3c0.3,2.1,0.8,4.6,1.2,7.1
		s0.7,4.9,0.6,6.8c0.1,0.6,0.2,1.2,0.2,1.8c0.2,0.7,0.1,2.9-0.1,3.2c0-0.3-0.1-0.5-0.2-0.4c-0.2,0.3,0-1.9-0.2-1.6
		c-0.1,0.5-0.2,1.3-0.3,1.7c0.2,2.3,0.3,2.9,0.4,5.3l-0.3,1.2c0.3,0.2,0.2,3.3-0.1,3.7c0.1,2-0.1,5.9,0.7,4.2
		c-0.2,2.1-0.2,3.6-0.7,5.8c-0.2-0.4,0.1-2.1-0.1-2.5c-0.1,1-0.4,0.2-0.4-0.1c-0.2,0.8-0.4,1.9-0.6,2.8c0.2,0.8,0,2.8,0.2,3.4
		c0.2-1,0.4-1.2,0.5-2.4c0.5,0.2,0.4,1.6,0.4,3.5c-0.8,3.3-1.1,5.3-1.5,7.2s-0.7,3.8-1.7,6.7c-0.5,0-0.9,0.1-1.9,2.4
		c0.1-0.7-0.2-0.7-0.3-1c-0.7,2.3-0.7,1.7-1.2,2.6c-0.4,1.7-0.5,3.1-1.5,5.7c-1.1,3-3.1,6.5-4.6,9.3c-0.3,0.7-0.1,0.8-0.9,1.9
		c-0.2-0.1-0.5-0.2-0.1-1.1c0.3-0.2,1.2-2,1.7-2.8c-0.3-0.1,0.8-2.6,0.4-2.2c-0.4,0.9-0.9,1.7-1.4,2.5l0,0l0,0
		c-0.1,0.3-0.2,0.6-0.6,1.3c-0.2,0.3-0.4,0.7-0.5,0.8h-0.1c0,0,0-0.2,0.1-0.4c0.2-0.4,0.3-0.6,0.3-0.8s0.1-0.6-0.1-0.5
		c-0.4,0.6-0.6,1.1-0.8,1.5l-0.2-0.1l0.1-0.1l-0.2,0.2c-1.1,2.1-2.5,4.4-3.7,6.4s-2.2,3.7-2.5,4.7c1.2-1.6,1.9-2.7,2.5-3.8l2.2-3.6
		l0.1-0.1l0.1-0.3c0.1-0.2,0.2-0.5,0.2-0.5c0-0.1,0.1-0.2,0.2-0.4s0.2-0.2,0.2-0.1c0,0.1-0.1,0.4-0.3,0.7v0.1c-0.2,1-1,2.7-1.8,4.3
		s-1.5,3-1.4,3.6c-1.4,2.4-2.7,4.7-4.4,7.1c-1.7,2.4-3.8,5.1-7.1,8.2c-1.1,1.4-2.8,3.1-4.1,4.4c-0.3,0.2-1.6,1.2-2.8,2.2
		s-2.4,2-2.4,2.3c0.9-0.6,0.3,0.1,0.2,0.3c-2.1,1.5-4.4,3.1-4.4,2.7c-1.7,1-0.3,0.6-0.9,1c-1.1,0.4-3.7,1.9-5.6,3.1
		c0.3-0.4-0.4-0.2-1.1,0.1s-1.4,0.6-1.2,0.2c-2.5,1.4-4.2,2.1-5.9,2.8s-3.5,1.3-6.1,2.5c-0.1-0.3,1-0.7,0.6-0.9
		c-0.4,0.2-0.5,0.1-0.8,0.2c-1.9,0.7-1.8,1-2.2,1.4c0.6-0.2,1.4-0.5,1.3-0.3c-0.9,0.5-2.3,1.1-3.8,1.7s-3,1.1-4.2,1.4
		c0.9-0.3-0.6,0-0.1-0.4c0.9-0.4,2.5-0.9,2.3-1.1c-0.4,0-1.1,0.2-1.7,0.3l0,0c-0.4,0.2-0.9,0.3-1.3,0.4c-0.2,0.1-0.4,0.1-0.4,0l0,0
		c0-0.1,0.2-0.1,0.4-0.2c0.2-0.1,0.5-0.1,0.8-0.2c-0.1-0.1,0-0.3,0.3-0.4c-1.7,0.7-2.7,1.1-4.4,1.6c0,0.1,0.6,0,0.5,0.1l-0.8,0.2
		h-0.1H139l-0.4,0.1c0.9-0.1-0.6,0.5,1.4-0.1l0,0l0.3-0.1l0.6-0.2h0.1h0.1l0.3-0.1c0.2,0,0.3-0.1,0.5-0.1c0.1,0,0.2,0,0.2,0
		s-0.1,0.1-0.3,0.1c-0.2,0.1-0.4,0.1-0.6,0.1H141l-0.5,0.2l-0.2,0.1c-1.8,1-4.2,0.7-6.5,1.6c-0.2-0.3-1.3-0.1-2.5,0
		s-2.4,0.2-2.6-0.1c-2.1,0.4-2.5,0.3-3.3,0.4c0.8-0.2,0.2-0.2-0.4-0.1c-0.6,0-1.3,0-0.9-0.2l0,0c-1.3,0-0.9,0.1-2.5,0.2
		c-1.6-0.3,0.2-0.7,2-1.1c-0.1-0.3-1-0.4-1.7-0.6c1.9-0.1,1.5-0.4,2.4-0.6c-0.8-0.2-1.2-0.2-4.1,0.1c-0.3-0.3-2.2-0.2-2.9-0.5
		c0.6,0,1.4-0.1,1.2-0.2c-0.3,0-0.8,0-0.8,0c1.4,0.1,3.2,0,4.7-0.2s2.8-0.6,2.9-1.1c-1.7,0-2.9,0.4-3.6,0.4c0.5-0.1,0.5-0.3,0-0.2
		c-3.2,0.4-7.3,0.6-8.1,0c1.4,0,1.9-0.2,3.2-0.2c-0.1-0.1-0.6-0.1-0.4-0.3c0.7-0.1,2.2-0.1,3.3-0.2c1.1-0.1,2-0.2,1.4-0.4
		c-1.3,0.3-1.8,0.2-3.2,0.4c-0.2-0.4,2-0.4,1.6-0.6c-2.2,0.3-5.5,0.3-6,0.7c-0.9-0.3-3.7,0.2-6-0.2l0,0c-0.4,0-0.8,0-1.2,0
		c-1,0-1.9-0.1-2.8-0.1c-0.9,0.2,0.8,0.3,0,0.5c-2.7-0.2-5.3-0.5-6.8-0.5c2.3,0.6,3.5,1.3,4.6,1.9c-1,0.2-3.3-0.4-3.2-0.6
		c0.1,0.2-0.9,0.1-1.7,0c-0.7-0.2-1.2-0.4-1.6-0.6c0.3-0.1,1.4,0,1.3-0.3c-2-0.3-3.8-0.5-4.9-0.4l0.3,0.1l0.5,0.1
		c0.3,0,0.6,0.1,0.7,0.2c0.1,0.1-0.1,0.1-0.4,0.1s-0.5-0.1-0.8-0.1l0,0c0.1,0.7-3-0.4-5.6-1l0,0c-0.4-0.1-0.8-0.1-1-0.2
		c-0.3-0.1-0.5-0.2-0.5-0.2l0,0c0,0,0.2,0,0.4,0l0.4,0.1c0.1,0,0.3,0,0.4,0c-2.2-0.5-3.8-0.9-5.2-1.3c-1.4-0.4-2.7-0.8-4.2-1.4
		c-0.3-0.4,0.4-0.2-0.2-0.6l-0.4-0.1v-0.1l0,0c-0.7-0.2-1.3-0.4-1.9-0.7l0,0c-0.6-0.2-1.5-0.5-1.3-0.2c-0.4,0.1,1.8,0.7,1.4,0.8
		c-0.8-0.3-0.9-0.1-0.9,0.1c1.5,0.7,2.6,1.3,4,1.8s2.9,1.2,5.2,1.8c0.7,0,3.1,0.5,4.4,1.1c0,0.3-1,0-0.9,0.3c-3.2-0.8-7-2.1-9.5-2.9
		c0.6,0.4-0.3,0.3-1.3,0.1c-0.9-0.2-1.9-0.4-1.4-0.1l0.4,0.1l0.1,0.1c1.8,0.4,3.2,0.9,4.3,1.4h0.1h0.1l0.2,0.1
		c0.1,0.1,0.2,0.2,0.4,0.2c0.2,0.1,0.2,0.1,0.1,0.1c-0.2,0-0.4-0.1-0.6-0.2c-0.3-0.1-0.4-0.2-0.6-0.4l-0.1-0.1
		c-0.8-0.4-1.9-0.7-3.3-1c-0.3,0.1,1.5,0.6,1.6,0.8c-1.9-0.7-1.6,0-4.1-1.1c0.6-0.2-0.2-0.7-1.7-1.3c-0.3-0.3,1.5,0.3,0.6-0.2
		c-1.8-0.9-3.8-1.6-5.2-2.6c0.9,0.5,1.8,0.9,1.9,0.8c-1.1-0.5-2.3-1.1-3.3-1.6c-0.1-0.2-0.4-0.3,0.1-0.2h0.1l0,0l-1-0.5l-0.4-0.2
		l0,0c-1.1-0.3-2.9-1.3-4.5-2.2l0,0l-0.3-0.2c-0.3-0.1-0.5-0.3-0.6-0.4v-0.1c0,0,0.2,0,0.3,0.1l0.5,0.2l-0.1-0.1
		c1.1,0.4,3.2,1.2,4.8,2.4H63l0.5,0.3l1,0.5l0,0c2.1,1.1,3.5,1.9,4.9,2.4c1.3,0.6,2.5,1.1,4.2,1.6c-1.4-0.5-0.2-0.4-1.4-0.9
		c-3.2-1.4-5.7-2.9-8.2-4.4c-2.5-1.5-5.1-3-8.3-4.7c-0.8-1,1.7,0.6,2.4,0.8l0.3-0.5l-0.3-0.2l0,0l-0.3-0.2c-0.3-0.1-0.5-0.3-0.6-0.4
		v-0.1c0,0,0.2,0,0.3,0.1l0.5,0.3l-0.1-0.1c0.1-0.1,1,0.6,1.1,0.5c-0.8-0.6-2.5-1.4-4.1-2.6c-0.1,0.2,1.5,1.1,1.1,1.2
		c-0.3,0-1.1-0.6-1.5-0.7l0,0c0,0.1,0.1,0.2,0.1,0.3v0.1h-0.1c-0.2-0.1-0.6-0.3-0.9-0.4c-0.2-0.1-0.4-0.3-0.5-0.4l0,0
		c0,0,0.2,0,0.3,0.1l0.3,0.2v-0.1c-1.5-1.1-1.3-1-2.5-1.9l0,0c-0.8-0.4-1.6-1-2.4-1.6l-1.4-1l-0.1-0.1l-0.2-0.2l0,0
		c-2.5-2-4.1-3.1-5.5-4.8c0.3-0.2,0.6,0.1-0.3-0.9c0.3,0.3,1,0.3,0.6,0c-1.8-1.5-2.7-1.9-3.5-2.2s-1.4-0.4-2.8-1.4
		c1.5,1.5,2.6,2.8,3.8,3.9c1.1,1.2,2.3,2.3,4,3.5c0.2,0.4,0.1,0.5,0.7,1c-0.1,0.3-1.3-0.9-1.5-0.8c1.6,1.4,1.8,1.8,1.3,1.7
		c1,0.7,1.6,1.2,1.1,1.2c-0.7-0.7-1.6-1.4-2.5-2.1c-2.1-1.5-4.7-3.2-6.2-4.4c2,2.3,3.6,3.4,5.1,4.4s3.1,2,5.4,3.9l0,0l0.5,0.4
		c0.3,0.2,0.5,0.4,0.5,0.5s-0.3,0-0.5-0.2l-0.3-0.2c-1.3-0.7-2.7-1.7-4.1-2.6c-1.3-0.9-2.6-1.7-3.5-2.1c-1.8-1.7-2.9-2.3-4.6-3.8
		c-1.3-1.2-2.8-2.9-4.2-4.3c-1.2-1.2-2.3-2.2-3.5-3.4s-2.4-2.6-3.7-4.5c-0.6-1.4-2.2-3.3-3.5-5.1s-2.4-3.6-2.3-4.4
		c0.6,1.1,1.3,2.2,2,3.3c0.1-0.4,1,1,1.4,1.1c-0.2-0.4-0.8-1.3-0.5-1.2c0.8,1.3,1.5,2.3,2,2.8c0-0.1-0.3-0.6-0.3-0.8
		c1.7,2.6,3.8,5.1,4.6,5c-0.7-0.9-1.7-2.3-2.5-3.5s-1.5-2.2-1.5-2.4l0,0v-0.1c-0.8-1.1-1.5-2.2-2.2-3.4c-0.1-0.2-0.2-0.4-0.1-0.4
		l0,0c0.1,0,0.2,0.2,0.3,0.4c0.6,1,1.2,2,1.9,2.9c1.1,0.8,0.6-1.2,0-2.9c-0.8-1-2-3.3-2.7-4c0,0.1,0,0.1,0,0.2l0.1,0.1
		c0.4,0.8,1.5,2.3,1.4,2.6c-0.6-0.9,0.2,0.6-0.3,0.1c-0.8-1.4-1.2-1.7-1.9-3.2l0,0c-0.1-0.2-0.2-0.4-0.3-0.5
		c-0.1-0.2-0.2-0.4-0.2-0.5l0,0c0,0,0.2,0.1,0.3,0.3l0.1,0.2l0.2-0.1v0.1c0-0.1,0-0.2,0-0.3c-1.1-2.1-2.1-4.5-2.8-5.9
		c-0.3-1.1,0.7,0.9,0.4-0.2c-0.6-1.4-1.8-4.3-2.5-5.2c0,0.4,0.3,1.1,0.2,1.3c-0.5-1-0.9-2.1-1.2-2.5c0,0.1-0.1,0.1-0.2,0.1l0.1,0.2
		c-0.3,0.5,0.2,2.4,1,4.5c-0.5-0.8-1-2-1.4-2.6l-0.1-0.3v0.2c0,0.1,0,0.1,0,0.2c0.9,1.9,1.3,3.1,1.5,4c0.2,0.8,0.2,1.3,0.1,1.6
		c-1-2.3-1.8-3.8-2.4-4.5c0.5,1.5,0.2,1.2-0.2,1c0.9,2.1,1.5,3.2,1.9,4.8l0,0c0,0.1,0.1,0.1,0.1,0.2l0.6,1.1
		c0.2,0.3,0.3,0.6,0.2,0.6s-0.3-0.2-0.4-0.5l-0.5-1c-1.3-2.2-2.6-4.7-3.7-7.3s-2-5.2-2.6-7.7c0.2,0.5,0.3,0.4,0.4,0.7v-0.1
		c0-0.3,0-0.6,0-0.7l0,0c0.1,0,0.2,0.2,0.3,0.5s0.2,0.7,0.1,0.8c0,0.1,0,0.3,0,0.5c0,0.1,0,0.3,0,0.4l0,0c0.6,2.1,1,3.1,1.5,3.6
		c0.4,0.6,0.8,0.6,1.1,0.9c-1-2.2-1.9-4.9-2.7-7.2s-1.5-4.3-2.1-5.2c0.1,1.2,0,2.3,0.4,3.4c-0.3-0.8-0.5,0.1-1.4-2.3
		c0.3,1.1-0.3-0.6-0.3,0.1c-0.5-1.5-0.9-2.6-1.4-3.3c-0.7-3.2-1.5-5.4-2.1-7.6C0.6,127.6,0,125.3,0,122c0.2,0.1,0.3-1.1,0.3-2.6
		c0-1.6,0-3.6,0.1-5.3c0.4-0.4,0.5-3.2,0.9-3.9c-0.2-1.4,0.1-1.3,0.2-2.6c0.2-3,0.1-6.7,0.5-10c0.3-1.1,0.5-1.9,0.8-3.4
		c0.2-2.6,1.1-5.6,1.4-6.8c0.9-3.6,1.4-6.8,2.1-7.5l0.2-0.6l0.2-0.7l0,0c0.9-3.2,2.2-7.6,3.6-11.2v-0.1v0.1
		c-0.3,0.7-0.5,0.9-0.6,0.7c0.5-1.2,1.4-3.7,1.9-3.9c-0.3,0.8-0.6,1.6-0.9,2.4v0.1c0,0,0,0,0,0.1l0,0c0.5-1.3,0.7-1.2,1-1.9
		c0.8-0.5-0.1,1.4,0.2,1.6c0.9-2,1.3-2.7,2.2-4.2c-0.6,1.5-0.5,1.4-0.4,1.7c1.2-2.3,3.1-5.5,3.4-6.9c-0.8,1.4-1.4,2.4-2,3.3
		c-0.4-0.2,1.3-2.7,1-2.9c-0.4,0.6-1.1,1.9-1.4,2.2c0.5-1.3,1.1-2.7,1.4-3.7c1-1.7,2.6-4,3.2-5.2c-0.1,0.5,0.2,0.5,0,1.1
		c0.3-0.1,1.1-1.7,1.3-1.7c-0.7,1.4-2.2,3.8-2.9,5.3c0.1,0.1,0.8-0.8,1.3-1.6c0.6-0.8,1.1-1.5,0.9-1c-0.6,0.6-0.8,1.7-0.9,2.5
		c-1,1.2-1.3,2.8-0.9,2.5h0.1c0.2-0.5,0.6-1.1,0.9-1.5c0.1-0.2,0.3-0.5,0.4-0.7l0,0c0.1-0.5,0.8-1.6,1.5-2.6s1.5-2,1.8-2.3
		c-0.1,0.6,0.5,0.1,0.2,0.7c-0.8,0.8-1.7,2.6-2.1,2.7c0.2-0.4,0.5-0.8,0.6-1.2c-0.7,1.1-0.9,1.2-1.7,2.5l0,0
		c-0.2,0.4-0.5,0.8-0.7,1.1s-0.4,0.6-0.5,0.8c0.1,0.3-0.6,1.5-1.3,2.7c-0.7,1.2-1.5,2.5-1.6,2.9c1.2-1.5,2.7-4.5,5.1-8.3
		c0.1,0,0.2,0.2,0.7-0.6l0,0c0.2-0.4,0.5-0.7,0.7-1c0.2-0.2,0.3-0.5,0.5-0.7c0.1-0.2,0.3-0.4,0.4-0.4l0,0c0,0,0,0.2-0.1,0.4
		c-0.2,0.3-0.4,0.6-0.5,0.8s-0.3,0.4-0.4,0.6c0.4-0.3,0.1,0.1,0.5-0.1c-0.9,1.3-0.9,1.6-1.7,2.9c0.7-0.8-0.3,1.1,0.4,0.3
		c0.7-1.6,1.3-1.9,2.1-3.1c0.4-1,1.8-3,2.6-3.8c-0.3,0.3-0.2,0.5,0.1,0.1c1.7-2.8,3.4-4.8,5.7-7.1c-0.6,1.1-2.1,3.1-1.7,3.5
		c-0.7,0.8-1,1.4-1.2,1.7c0.2,0,1-0.9,1.8-1.8c0.8-0.9,1.6-1.9,1.8-2.2c-0.3,0.1-1,1.2-1.2,1.2c0.6-0.9,1.6-2,2.6-3.2
		c0.3,0.2-1.2,2.3,0.4,0.9c-1.2,1.3-1.1,1.6-1.3,2.1c0.3-0.3,0.7-0.8,0.8-0.8l0.3-0.3l0,0c0.7-0.7,1.6-1.6,1.8-2.2l-0.3-0.3v-0.1
		c-0.1,0.1-0.3,0.3-0.4,0.3c-0.1,0.1-0.2,0.1-0.1,0s0.2-0.3,0.3-0.4L36,41l0,0l0,0c0.3-0.4,0.6-0.7,0.7-1c-0.6,0.2-1.3,1.5-1.6,1.3
		c1.9-2.2,3.2-3.3,4.9-4.9c-0.4,0.9-1.3,1.8-0.1,1.2c-1.4,1.5-2.3,2.7-2.5,3.3c-0.3,0.5,0.1,0.5,1.3-0.4l0.1-0.1
		c0.2-0.2,0.3-0.4,0.5-0.5l0,0h-0.1c1.1-1.3,2-2.3,2.9-3.4c-0.1-0.1-0.8,0.7-0.8,0.4c2.2-2,3.6-3.3,3.6-3.9
		c-0.9,0.8-1.8,1.6-2.8,2.4c-0.9,0.5,0.7-1,0.2-1h-0.1c-0.2,0.2-0.4,0.4-0.6,0.6c-0.2,0.2-0.4,0.3-0.5,0.3s0-0.2,0.2-0.3l0.2-0.2
		c0-0.1,0.5-0.5,0.5-0.6c-1,0.8-1.5,0.8-2.2,1.2c1.3-1.5,3.2-3.2,4.3-4.5c-1,0.7-1.4,1.3-1.7,1.2c0.2-0.3,1.3-1.3,0.4-0.8
		c0.8-0.7,1.7-1.4,2.6-2.1l0,0c0.4-0.3,0.8-0.6,1.2-1c0.3-0.2,0.5-0.3,0.6-0.3l0,0c0,0.1-0.2,0.3-0.5,0.5s-0.5,0.4-0.8,0.6
		c0.6-0.1,2.1-1.4,3.7-2.5c0.6-0.1-1.7,1.5-0.5,0.8c1.5-1.2,2.8-2.3,4.2-3.4c1.4-1,2.9-2.1,5-3.1c0.7-0.5,1.9-1.3,2-1.6
		c-1.7,1-2.7,1.5-3.7,1.9s-2,0.9-3.7,2c-0.4-0.2,1.4-1.2,1.5-1.6c-2,1.2-3.5,2.4-4.8,3.5s-2.5,2.1-4,3c1.3-1.3,3-2.9,4.8-4.6
		c1.8-1.6,3.7-3.2,5.4-4.6c-0.4,0.2-0.5,0.1-0.5,0c-1.8,1.1-3.1,1.8-5.1,3.2c-0.2,0.5-1.3,1.5-1.6,2.3c-0.8,0.6-1.4,0.8-2.4,1.7
		c0.3-0.8-1.8,0.9-1,0c1.1-0.9,2.4-1.8,2.3-2c0.1-0.4-1.6,1.3-1.5,0.9c0.9-1,2.5-2.1,3.6-2.9l0,0c0.5-0.8,2.2-2.1,3.8-3.3l1.4-1
		c0.3-0.4,1.3-1,1.2-1.2c2.6-1.4,3.4-2.1,4.1-2.8c0.8-0.7,1.5-1.4,4.4-2.7c0.8,0,0.3,0.5-0.2,1s-0.9,1.1,0.2,1
		c1.8-0.8,3.1-1.1,4.4-1.5c1.4-0.4,2.8-0.9,4.9-1.7c0.4,0-1.1,0.7,0.1,0.3c1.8-0.7,3.9-1.4,5.3-1.7l0.1,0.3
		c-1.1,0.6-3.5,1.5-4.2,2.1c2.6-0.9,2.5-1,5.2-1.8c1.1-0.5,2.1-1.1,4-1.6c0-0.4,0.7-0.9,1.1-0.7c-0.8,0.3,1.5-0.2,1.3,0.1
		c-0.9,0.2-1.3,0.4-1.2,0.5c0.4-0.1,0.6-0.1,0.8-0.1L87,7c1.1-0.3,2.1-0.5,3-0.8l0,0c1-0.5,4.1-1.3,6.3-1.4c0.4-0.1,0.8-0.1,1.2-0.2
		c0.3-0.2,1.6-0.4,1.2-0.6c2.8-0.5,4.1-0.7,8-0.8c1.4-0.4,3.5-0.7,5.6-0.9v2c-0.8,0-1.6-0.1-2.2-0.3c-1.4,0.1-2,0.3-2.6,0.4
		s-1.3,0.2-2.8,0.3c-0.3-0.3,1.2,0,0.8-0.3C103,4.5,99.9,4.9,98,4.9l0,0c-0.6,0.1-1.1,0.2-1.7,0.2l0,0c-1.1,0.1-1.8,0.3-1.6,0.5
		c-1.4,0.2-2.8,0.5-4.1,0.8c-1.1,0.3-2.2,0.6-3.2,0.9l-0.9,0.2c-0.9,0.5,2.1,0,2.2,0.3c2.4-0.6,3-0.5,4.9-0.8
		c-1.4,0.4-1.1,0.6-0.8,0.8l0.5-0.1c0.6-0.2,1.3-0.4,2.3-0.6l0,0c0.7-0.2,0.7-0.5,1.6-0.7l0,0c0.2-0.1,0.5-0.1,0.7-0.2
		c0.5-0.1,1-0.3,1.6-0.3h0.1L99.7,6l0,0c0,0-0.1,0.1-0.2,0.1s-0.3,0-0.3,0l0,0c-0.3,0-0.6,0.1-1,0.2c-0.2,0.1-0.4,0.1-0.6,0.1
		c0,0.1,0.5,0.1,0.4-0.1c1.5,0,1.7,0.4,2.2,0.7c-1.3,0.6-3.9,0.5-4.1,0.2l0,0c-0.1,0-0.2,0-0.3,0.1c-0.7,0.1-1.1,0.2-1.8,0.4L93.2,8
		c-0.4,0.2,0.1,0.1-0.3,0.4c4.8-0.7,9.5-1.3,13.9-1.7c0.1-0.2-0.9-0.1-1.3-0.3c0.2-0.2,1.3-0.5,2.6-0.7c1.3-0.2,2.8-0.4,4-0.3h0.1V8
		c-5.6,0-11.2,0.6-14.8,1.5C96.9,9.6,97,9.4,97,9.3c-1.3,0.3-1.5,0.2-3.2,0.5c-0.6,0.1,0,0.3-0.8,0.5c0.7,0.1,3.6-0.5,4.8-0.5
		c0,0.1-0.3,0.3-0.8,0.4c0.3,0.2,1.8-0.5,2-0.3h0.1c0.3-0.1,0.8-0.2,1.3-0.3c0.3-0.1,0.6-0.1,0.9-0.2h-0.2c0.2-0.2,1.5-0.3,2.4-0.5
		c1.3,0.1-0.3,0.5-2,0.6c-0.3,0.1-0.6,0.1-0.8,0.2c-0.4,0.1-0.6,0.1-0.8,0.2h0.1c0.5,0.1,3.4-0.4,5.2-0.6c0.3-0.3,0.3-0.2,0-0.4
		c2.1-0.2,3.8-0.3,4.8-0.6c0.8,0,1.7,0,2.3-0.1V9c-1.8,0.1-3,0.3-2.7,0.8C110.5,9.8,111.4,9.7,112.4,9.7z M110.1,5.9
		c-0.2,0,1.3,0.1,1.7,0.1c-0.1,0-0.1,0-0.1,0l-0.1-0.1C111.3,5.9,110.9,5.9,110.1,5.9z M58,16.2c-0.1-0.2-1.3,0.6-2.3,1.2l0,0
		L54,18.6c-1.5,1-2.9,2.2-3.3,2.8C53.5,19.3,55.1,17.9,58,16.2z M201.4,58.2L201.4,58.2L201.4,58.2c-0.2-0.3-0.3-0.5-0.5-0.7
		c-0.1,0-0.1,0-0.3-0.3c-0.1,0.2,0.4,0.5,0.4,0.7C201.2,58.4,201.3,58.3,201.4,58.2z M209.9,75.8c-0.7-2-1.3-3.2-1.9-4.1
		c-0.2-0.1,0,0.4-0.1,0.5C208.7,73.5,209.5,75.7,209.9,75.8z M218,105L218,105c0-0.4-0.1-0.9-0.2-1.3v0.1c-0.3-0.5-0.3-1.6-0.5-0.8
		c0.1,0.8,0.3,1.5,0.3,2.4C217.9,105.5,217.8,104.6,218,105z M214.8,108.3c0.3,1.5-0.3,1.8,0,3.6c0.1-0.8,0.3-2.8,0.4-0.4
		C215.5,110.9,215.2,107.5,214.8,108.3z M216.3,110.3c0.1-0.4,0.1-1.1,0.3-1.2c-0.1-1.6,0-1.7-0.2-2.8c-0.1-0.1-0.1,0.2-0.1,0.4
		c0,1-0.2-0.6-0.3,0C216,108.3,216.3,108.7,216.3,110.3z M213.8,112.3c0.4-0.7,0-2.7,0-4.3c-0.2,0.4-0.2,2.3-0.4,2.7
		c0,0.3,0,0.5,0,0.8C213.5,110.9,213.7,111.7,213.8,112.3z M216.1,117.6c0,2.8,0.5,3.6,0.1,7c0.5-0.9,0.3-1.6,0.6-3.2
		c-0.2,0.2-0.2-0.3-0.3-0.4c0.2-2.2,0-3,0.2-4.9c0.2,0,0.1,1.1,0.3,0.8v-3.7c-0.1,0.8-0.4,0.7-0.6,1.2c0,1.2,0,2.1,0.2,2.4
		C216.5,117.8,216.3,117.6,216.1,117.6z M213.5,120.5c0.2-1.3,0-1.2,0-2c-0.1,0-0.1,0.3-0.2,0.4l0,0v0.1v0.3
		C213.4,119.6,213.2,120.9,213.5,120.5z M214.6,121.1c0.4-1,0.4-1.9,0.6-3.6c-0.2-0.6-0.4,0.1-0.4-0.4
		C214.5,118.2,214.6,120,214.6,121.1z M214.2,123.4c0.1-0.9-0.3-0.2-0.4-0.4c-0.1,1,0.1,2.5-0.3,3.6
		C213.8,128,214.1,124,214.2,123.4z M214.4,135.8c0.6-0.9,0.9-3.8,1.3-6c-0.4,1.3-0.4,0.3-0.6-0.1
		C215,131.4,214.8,133.4,214.4,135.8z M206.9,158.3c0.2-0.4,0.3-1,0-0.4c-0.1,0,0-0.2,0.1-0.4C206.8,157.5,206.3,159.1,206.9,158.3z
		 M200.4,168.2c1.1-1.5,0.7-1,0.8-0.4c0.6-1,2.3-3.8,1.8-2.7l-0.1,0.1l0,0l0.2-0.2c0.4-0.9,0.8-1.6,1.5-2.8c0.3-1,0.2-1.5,0.3-2.2
		C203,163.3,201.9,165.6,200.4,168.2z M196.2,175.2c0.8-0.8,2.1-2.9,2.6-3.7c-0.1-0.1-0.6,0.7-1.2,1.5L196.2,175.2z M194.5,177.5
		c0.2,0,1.1-1.4,1.3-1.6C195.5,175.9,194.6,177.3,194.5,177.5z M137.3,210.3c0.4-0.2,1-0.4,1.9-0.6
		C139.3,209.5,136.6,210.1,137.3,210.3z M137.3,218L137.3,218c0.2-0.1,0.5-0.2,0.8-0.4H138C138.3,217.4,135.9,218.3,137.3,218z
		 M131.2,211.7c0.2,0,3.5-0.6,2.6-0.9C132.9,211.1,131.7,211.4,131.2,211.7z M130.1,218.2c-1.7,0-2.8,0.1-5,0.9h0.1
		c0.1,0,0.2,0,0.3,0C128,218.7,128.9,218.6,130.1,218.2z M129.5,216.7c-0.9,0.2-1.4,0.4-1.6,0.6c0.3-0.1,1.1-0.3,1.2-0.2
		C129.7,217,129.4,216.9,129.5,216.7z M120.7,211.9c0.9,0.1,3,0,4.7-0.3s3-0.7,2.1-0.9c-2.3,0.5-2.9,0.6-5.8,1l0,0
		c-0.2,0.1-0.6,0.1-0.8,0.2H120.7z M117.9,212.9c0.8,0.3,4.3-0.2,6.3-0.4c0.3-0.4-2.6,0.2-2-0.3
		C120.8,212.6,118.8,212.7,117.9,212.9z M80.8,209c1.1,0.4,1.2,0.2,2.3,0.6C83.5,209.4,80.7,208.7,80.8,209z M74.3,209.1
		c0.3,0.1,0.5,0.2,0.8,0.3c0.2,0,0.6,0.2,1.1,0.4c-0.1-0.2-1.7-0.7-1.4-0.8C74.2,208.8,74.3,209,74.3,209.1z M43.2,188.4
		c-0.1-0.2-0.2-0.3-0.2-0.3c-0.1-0.1-0.3-0.2-0.5-0.4c-0.2-0.1-0.5-0.3-0.8-0.6c-0.4-0.3-0.7-0.5-0.7-0.4c1.1,1,0.9,0.7,1.8,1.6
		C42.8,188.3,43,188.3,43.2,188.4z M50.9,195.6c-0.6-0.4-0.9-0.5-1.7-1.1c-1-0.9,0.8,0.4,0.6-0.1l-1-0.7l0,0l-0.3-0.3l0,0
		c-0.7-0.3-1.8-1.1-2.2-1.1c1,0.9,0.8,1.1,1.1,1.6l0,0l1.3,1c0.8,0.6,1.5,1,2.1,1.4C51.2,196.2,50.7,195.7,50.9,195.6z M40.1,181.6
		L40.1,181.6l0.2,0.2l0.2,0.2c0.2,0.1,0.3,0.3,0.3,0.4s-0.1,0-0.3-0.1l-0.3-0.3l0,0c0.5,1.3,2.3,2.9,4.2,4.5c2,1.6,4.1,3.1,5.6,4.4
		c-0.5,0.5-2.1-0.3-4.6-2.5c0,0.4,0.7,0.8,1.4,1.4c-0.8-0.3-2-1.1-3.3-2.3c0,0.3,1.8,1.8,2.9,2.8c-0.4,0-1.7-1-3.1-2.3
		c-1.3-1.2-2.7-2.6-3.4-3.1c-0.3,0.1,1.5,1.6,1.5,1.8l0,0c0.1,0.1,0.1,0.1,0.2,0.2c0.1,0.1,0.2,0.2,0.5,0.4s0.6,0.4,1.1,0.9
		c0.2,0.2,0.4,0.5,0.5,0.7l0,0c1.8,1.6,3.4,2.9,4.7,4.3l0.1,0.1c0.6,0-0.2-0.7-1-1.4c0.6,0.3,1.8,1.1,2.9,1.9
		c1.1,0.8,2.3,1.5,2.9,1.8c0.8,0.7,0.6,1.3,0.1,1.1c0.9,1,2.4,1.4,4.1,2.5c-1-1-0.1-0.9,1.2-0.4c-0.6-0.4-1.2-0.7-1.8-1.1
		c-0.3-0.2-0.5-0.4-0.5-0.4l0,0c0,0,0.2,0,0.4,0.2c0.7,0.4,1.5,0.9,2.3,1.4l0,0c1.9,1,0.7-0.2,2.1,0.4c-0.4-0.3-1.5-1.1-1.4-0.7
		c-1.7-1.1-2.9-1.8-4.3-2.7l0,0l-1-0.6c-1.3-0.8-2.5-1.5-3.8-2.4c-0.2-0.1-0.3-0.3-0.3-0.3l0,0c0,0,0.2,0,0.3,0.2
		c1.2,0.9,2.4,1.6,3.6,2.3l1,0.6c1.2,0.5,2.1,0.6,4.9,2.5c0.1-0.5-2.4-1.9-2.6-2.5c1.2,0.6,2.9,1.6,4.4,2.4c1.5,0.8,2.8,1.3,3.1,1
		c-0.8-0.3-2.5-1.4-3.1-1.6c-0.9-0.6-0.1-0.6-0.7-1.1c0.1-0.2,2.2,1.1,1.2,0.3l0,0c-1.1-0.6-2-1.2-2.9-1.9c-1.3-0.9-2.4-1.7-3.8-2.6
		l0,0c-0.6-0.4-1.2-0.7-1.9-1.2c0.1,0,0.3,0.1,0.7,0.4c0.1-0.2-1.3-1-1.8-1.4c-0.4,0.3-2-0.9-3.2-1.5l0,0c-0.2-0.1-0.3-0.1-0.5-0.2
		c-0.2-0.1-0.5-0.4-0.7-0.5c-0.1-0.1-0.1-0.2-0.1-0.2s0.1,0,0.2,0c0.1,0,0.1,0.1,0.2,0.1c-0.3-0.4-1.8-1.6-2.5-2.3
		c-0.4,0-1.6-1-2.4-1.4l-0.1,0.1c-0.1,0.1,0.2,0.4,0.7,0.9c-1-0.3-3.1-2.3-4.6-3.6C40.8,182,38.8,180.1,40.1,181.6z M7.7,136.2
		c-0.1-0.7-0.3-1.4-0.4-2L7.2,134c-0.2-0.4-0.5-1-0.7-1.9c-0.4-1,0.2,2.2,0.5,3.8C7.3,135.5,7.5,136.4,7.7,136.2z M18.1,155.3
		c0-0.2-0.7-1.8-1.1-2.6C16.9,153,17.8,155.1,18.1,155.3z M19.9,150.3c-0.2-0.1-0.7-0.6-0.5,0.2c0.8,2,2.4,4.3,1.6,2l-0.4-0.8
		C20.4,151.2,20.2,150.8,19.9,150.3L19.9,150.3z M17.8,144.8L17.8,144.8c-0.1,0.4-0.1,0.8-0.2,0.9c0.3,0.7,0.5,1.5,0.8,2.2
		c0.3,0.4,0.2-0.4,0.7,0.2l0,0c-0.2-0.5-0.4-1-0.6-1.4L17.8,144.8z M12.4,130.4c0.5,2.2,0.6,3.4,0.7,4.6s0.1,2.1,0.4,3.7
		c0.5,1.3,1.4,3.7,1.9,5.7c0.7,1.3,1.5,3.6,2.5,6s2.2,4.9,3.4,6.6c-0.3-1.1-0.2-1.7,0-2.1c-1-0.4-2.6-3.6-4-6.9l0,0
		c-0.2-0.4-0.3-0.9-0.5-1.3c-0.1-0.3-0.1-0.6-0.1-0.6l0,0c0.1,0,0.2,0.2,0.3,0.6c0.1,0.3,0.2,0.6,0.3,0.9c0.1,0,0.1,0,0.3,0.3
		c-0.2-0.7-0.7-2.2-0.5-2.3c-0.4-1.1-0.8-2.1-1.1-2.9c-0.1-1.3,0.7-1.3,1.2,0l-0.1-0.4l0,0c-0.8-2.3-0.7-2.4-1.5-4.8
		c0.5,3.1-1.5-1.7-1.2,0.7C13.5,135.1,13.2,131.9,12.4,130.4z M12.1,147.1c0.4,1.4,0.8,2.2,1.2,3.1c0.2-0.2-0.8-2.3-0.1-1.7
		c-1.3-2.8-1.3-3.9-2.4-7c-0.1,0,0,0.6-0.1,0c0,0.6,0.7,1.9,0.2,1.7c0.2,0.9,0.5,1.9,0.9,2.9L12.1,147.1L12.1,147.1z M14.5,146.7
		c-0.5-0.9-0.7-2.6-1.1-2.6C13.8,145.2,14.3,147.4,14.5,146.7z M6.7,131.7L6.7,131.7c0.1,0.6,0.2,0.9,0.4,1.4v0.1
		c0-0.4,0.2-0.4,0.4,0.1c0.5,2.1,0.8,3.7,0.9,4.9C8,138,8,138.7,7.8,138.8c0.3,1,0.2,1.2,0.6,2.5v-0.1c0.2,0.5,0.4,1,0.5,1.5
		c0.1,0.3,0.2,0.7,0.4,1c0.1,0.2,0.1,0.4,0.1,0.4s-0.1,0-0.1-0.2c-0.1-0.4-0.3-0.7-0.4-1.1c-0.2-0.5-0.3-0.9-0.5-1.3v0.1
		c-0.3-0.3-0.8-2.3-1.1-2.3c0.7,2.9,1.1,5.1,2.3,8.1c1,1.5,1.5,3.1,2.7,5.3l0.1,0.2c0-0.2,0-0.3,0-0.4v-0.1c-0.7-1.8-1.6-4.1-1.7-5
		c0.7,1.3,1.4,2.1,2,2.4c0,0,0.1,0,0.1-0.1c-0.3-0.9-0.9-2.4-1-2.9l-0.3-0.7c-0.4-1.1-0.7-2.2-1-3.4c-0.9-3.6-1.6-5.7-2.3-7.5
		c-0.2-1.5-0.7-4.3-1.1-5.7C6.8,129.3,5.8,127,6.7,131.7z M13.2,103.8c-0.1,0.8,0,1,0,1.6h0.2l0.1-1.2
		C13.2,105.2,13.5,103.6,13.2,103.8z M13.2,99.1c0,0.6,0.2,0.3,0.3,0.1c0.1-0.4,0.1-0.7,0.2-1.3v-0.3h-0.1c0-1.2,0,0.9-0.2,0.4
		C13.3,98.4,13.3,99,13.2,99.1z M5.1,86.4C5.3,86,5.5,86,5.6,86.1c0.3-1.4,0.6-2.7,0.9-4.2C6,83,6.1,82.4,6.3,81.5
		c0.2-0.9,0.5-2.1,0.4-2.3l-0.1,0.4l-0.3,0.9l0,0C5.6,83.1,5.3,84.8,5.1,86.4z M5.3,94.8L5.3,94.8c0.1-0.5,0.2-1.1,0.2-1.7l0,0
		c0.1-0.4,0-0.5,0.1-0.8c-0.5,0.8-0.5,0.1-0.3-1c0.1-1.1,0.5-2.6,0.5-3.3c-0.4,0.4-0.7,1.8-1,3.3s-0.5,3.1-0.6,3.8
		C4.3,95.5,5,96.3,5.3,94.8z M11.9,87.4c-0.3-0.1,0.2-1.6,0.3-2.4c-0.4,1.3-1.1,3.6-1.6,5.6s-0.6,3.7-0.2,4c0.2-1.2,0.3-1.4,0.5-2.4
		c0.4-0.4,0.1,0.9,0.4,0.9c0.8-2.8,0.8-4.6,1.4-7.5C12.4,86.5,12.2,85.8,11.9,87.4z M8.9,89.6c0.4-0.8,0.7-2.9,0.8-3.6
		c-0.1,0.1-0.2,0.3-0.3,0.8l0,0c-0.1,0.6-0.3,1.1-0.4,1.6c-0.1,0.4-0.2,0.8-0.3,1.2C8.8,89.6,9,89,8.9,89.6z M11.2,76.4
		c-0.9,2-1.6,5-2.5,8c-0.3,0.6-0.5,1-0.8,1.1c-0.3,1-0.5,2-0.5,2.5c-0.2,0.4-0.2,0-0.6,0.7c-0.2,1.7-0.6,3.2-1,4.1l0,0v0.1
		c-0.1,0.6-0.1,1.1-0.2,1.6v-0.1c0,1.4,0.2,2.4,0.7,1c0-0.7,0.4-2.4,0.6-3.7c0.4-0.4-0.1,2.1,0.4-0.3l0,0c0.1-0.6,0.2-1.2,0.4-1.7
		l0,0c0.1-0.6,0.2-0.9,0.2-1.3c0.2-1.1,0.1,1.2,0.4-0.8c0.1,0.2-0.2,2-0.4,2.4c-0.1,0.3-0.2,0.7-0.2,1.1c-0.1,1.4-0.4,3.2-0.4,4.3
		c0.5-1.3,0.6-3.2,1.2-5.7l0,0c0.1-0.6,0.2-1.1,0.4-1.7c0.1-0.5,0.2-1,0.3-1.4c0.3-1.9,0.5-3.4,0.8-5.1
		C10.2,80.2,10.6,78.5,11.2,76.4z M13.6,71.1c-0.9,2.1-0.9,2.6-1.5,4.3l0.2,0.1C12.6,74.1,13.6,71.8,13.6,71.1z M22.5,59
		c-1,1.7-0.6,1.8-0.7,2.4c0.2-0.5,0.9-1.7,1.1-2.2C22,60.6,22.9,59.1,22.5,59z M27.7,49.7c-0.5,0.8-0.5,0.7-1.4,2
		c0.2-0.2,0.4-0.3,0.1,0.1C27.1,51.4,28.1,49.6,27.7,49.7z M34,44.4l-0.3,0.3l0,0c-1,1.1-1.5,1.7-2.2,2.4c0.1-0.3,0.2-0.5,0-0.6
		c-0.8,1.2-1.6,2.4-2.8,4c0.7-0.7,2-1.7,2.5-2.7c0.5-0.5,0.9-0.9,1.3-1C32.9,46,34,44.8,34,44.4z M49.6,30.7c-0.1,0-0.2,0.1-0.3,0.1
		c-1.3,0.7-3.3,2.4-4.8,3.5c-0.7,0.9-0.9,1.5-1.9,2.7c2.6-1.7,4.9-4.5,6.8-6.2L49.6,30.7z M62,19.4c-1.5,1-2.3,1.2-3.2,2
		c0.3,0.1,2.1-1.1,3.3-1.7L62,19.4z M62.7,14.1c-0.5,0.3-0.7,0.6-1.4,1c0.8-0.1,1.8-1,3.1-1.5C64.8,13,62.6,14.4,62.7,14.1z
		 M74.8,16.4c-2.5,1-3.2,1.7-5.4,2.8l0.1,0.2C72.9,18,74,17.2,74.8,16.4z M73.6,12.8c-0.2-0.2,4.1-1.9,0.7-0.6
		c-0.3,0.3-0.5,0.5-1.5,0.8c0.3,0,0.5-0.1,0.1,0.1c0.4-0.1,0.7-0.3,2-0.7C74.9,12.3,74.2,12.6,73.6,12.8z"/>
	<path class="st0" d="M106.5,213.1c0-0.1-1.7,0-2.8-0.2c-0.7,0.2,0.2,0.4,1.1,0.6c1.3,0.1,2.1,0,2.4-0.2
		C106.4,213.4,105.4,213.1,106.5,213.1z"/>
	<path class="st0" d="M98,221.3c0.4,0.3,1.2,0.1,1.7,0.1C99.3,221.1,98.6,221.3,98,221.3z"/>
	<path class="st0" d="M99.1,217.1c0.1-0.1-0.4-0.2-0.4-0.3h-0.1h0.7c0.3,0,0.4,0,0.3-0.1s-0.4-0.1-0.7-0.1h-0.5l0,0
		c-2.3-0.4-1.5,0.1-2.1,0.1C96.4,216.8,98.3,216.9,99.1,217.1z"/>
	<path class="st0" d="M93.3,216.8c-0.8-0.1-0.2,0.3-1.3,0.1c0,0.1,1.9,0.3,2.5,0.4C94.4,217.1,93.1,217,93.3,216.8z"/>
	<path class="st0" d="M52.3,190.1c0.4,0.3,0.5,0.4,0.6,0.5c1,0.5-0.3-0.6-0.9-0.8C52,190,52.2,190.1,52.3,190.1z"/>
	<path class="st0" d="M19.1,168.6c0,0.1,0.4,0.8,0.3,0.8c0.3,0.5,0.3,0,0.6,0.6c0-0.1-0.2-0.4-0.2-0.4
		C19.4,169,19.5,168.9,19.1,168.6C18.8,167.4,19.7,169.6,19.1,168.6z"/>
	<path class="st0" d="M16.9,161.7c-0.5-0.9,0,0.5,0.4,1.2C17.4,162.7,16.8,161.8,16.9,161.7z"/>
	<path class="st0" d="M25,68.3c-0.2,0.2-0.5,0.8-0.5,0.6c-0.4,0.8,0,0.5-0.3,1.1C24.4,70,24.5,69.1,25,68.3z"/>
	<path class="st0" d="M86.1,6.3C86,6.4,86.1,6.3,86.1,6.3L86.1,6.3z"/>
	<path class="st0" d="M86.2,6.2C87.5,5.5,86.6,6,86.2,6.2L86.2,6.2z"/>
	<path class="st0" d="M166.4,32.3c-0.4,0,0.5,0.5,0.4,0.7c0.7,0.3,1.5,1,2.1,1.5c0-0.2-0.2-0.5-0.3-0.8
		C167.4,32.7,167.3,33,166.4,32.3z"/>
	<path class="st0" d="M205.5,64.8c0.4,0.6,0.7,1.1,1.1,1.6c0.4,0.6,0.7,1.1,1.1,1.7c0.8,1.4,1.4,2.6,1.8,2.6
		c-0.6-1.2-1.6-3.5-1.9-3.2c-0.4-0.7-0.8-1.2-1.1-1.7s-0.6-0.9-1-1.4c-0.1-0.2-0.2-0.3-0.2-0.1C205.3,64.4,205.4,64.6,205.5,64.8z"
		/>
	<path class="st0" d="M185.3,174.7c-0.8,0,1.1-2,0.8-2.7c-1.1,1.3-0.9,1.2-1.9,2.3l0,0c-0.2,0.3-0.4,0.4-0.5,0.6
		c-0.1,0.2-0.2,0.3-0.2,0.3l0,0c0,0,0.2-0.1,0.3-0.3c0.1-0.1,0.1-0.1,0.2-0.3c0.1,0.2-0.4,0.9-0.4,1.1c-2.2,2.5-4.2,4.6-6.1,6.4
		s-3.6,3.5-5.2,5.1c-3.8,2.8-7.8,5.5-10.3,7.5c-1.1,0.4-2.4,1.2-3.7,1.9l-3.5,2.1l0,0c-0.4,0.2-0.8,0.4-1.2,0.6
		c-0.3,0.1-0.5,0.3-0.5,0.4l0,0c0,0.1,0.3,0,0.6-0.1l0.9-0.4c0.4,0,1-0.3,0.8,0.1c1.6-0.9,3.4-1.9,5-2.9s3.2-2.1,4.2-3
		c0.7-0.5,0.3,0.1,0.5,0.1c3.7-2.4,6.1-4.5,8.2-6.6c1-0.8-0.3,0.7,0.5,0c1.9-1.7,2.6-2.8,4.5-4.6c1.3-0.8,3.2-2.5,4.9-4.4
		c1.8-1.9,3.3-4,4.3-5.5l-0.2-0.1C186.7,173.4,186,174,185.3,174.7z"/>
	<path class="st0" d="M218.2,112.3c0.1,0.8,0.2,1.3,0.4,1.7c0.1,0.5,0.3,0.8,0.3,1.5c0,0.4,0.1,0.6,0.1,0.6l0,0
		c0.1-0.1,0.1-0.5,0.1-0.9c0-1.4-0.2-2-0.4-2.5c-0.1-0.3-0.2-0.7-0.3-1.2c0-0.4-0.1-0.5-0.2-0.3C218.2,111.5,218.2,112,218.2,112.3z
		"/>
	<path class="st0" d="M207.3,114.8c0,0.3,0,0.7,0,1c0,0.1-0.1,0.2-0.1,0.3c-0.1,0.2-0.1,0.3-0.2,0.3c-0.1-0.1-0.1,0.1-0.1,0.3
		c0,0.3,0,0.5,0,0.6s0.1,0.1,0.1,0.1c0.1,0,0.2-0.2,0.3-0.4c0-0.1,0.1-0.2,0.1-0.3l0.1-0.1v-0.2c0.1-0.6,0.1-1.5,0.1-1.9
		c0-0.3-0.1-0.4-0.1-0.3C207.3,114.3,207.3,114.6,207.3,114.8z"/>
	<path class="st0" d="M127.6,220.1c-0.1,0-0.3,0.1-0.5,0.1c-0.4,0.1-0.9,0.2-1.2,0.3c-0.1,0-0.1,0.1-0.1,0.1s0.1,0.1,0.2,0.1
		c0.2,0,0.6-0.1,0.7-0.1s0.3-0.1,0.6-0.1c0.2,0,0.5-0.1,0.8-0.2c0.3-0.1,0.3-0.1,0.2-0.2C128.2,220.1,127.9,220.1,127.6,220.1z"/>
	<path class="st0" d="M114.3,218.1c-0.2,0.3-1.7,0.4-3.3,0.5c0.8,0.2,1.8,0.4,3.3,0.4l0,0c0.1,0,0.2,0.1,0.3,0.1c0.1,0,0.4,0,0.6,0
		s0.2-0.1,0.1-0.1s-0.2-0.1-0.2-0.1h0.1c0.7-0.4,3.9-0.3,5.4-0.7c0.3-0.3-0.4-0.3-0.4-0.4C118,217.7,117.1,218,114.3,218.1z"/>
	<path class="st0" d="M53.7,193.9c0.3,0.1,0.5,0.3,0.8,0.5c0.2,0.1,0.3,0.2,0.3,0.1c0-0.1-0.1-0.2-0.3-0.3c-0.4-0.3-0.8-0.5-1.2-0.7
		c-0.1-0.1-0.2-0.1-0.2-0.1s0,0,0,0.1C53.3,193.7,53.5,193.9,53.7,193.9z"/>
	<path class="st0" d="M45.8,187.3c0.2,0.1,0.6,0.4,0.9,0.7l0.5,0.4c0.2,0.1,0.3,0.2,0.3,0.1c0-0.1-0.2-0.3-0.4-0.4l-0.4-0.3
		c-0.5-0.4-1-0.8-1.4-0.9h-0.1c0,0,0,0.1,0.1,0.2C45.4,187,45.6,187.2,45.8,187.3z"/>
	<path class="st0" d="M15.5,158.2L15,157c-0.1-0.2-0.2-0.4-0.3-0.4s0,0.2,0.1,0.4l0.5,1.1c0.1,0.2,0.2,0.4,0.3,0.4
		C15.7,158.6,15.7,158.4,15.5,158.2z"/>
	<path class="st0" d="M35.5,48.1l0.5-0.6c0.2-0.2,0.2-0.3,0.2-0.4c0,0-0.2,0.1-0.3,0.3L35.3,48c-0.2,0.2-0.2,0.3-0.2,0.4
		C35.2,48.4,35.3,48.3,35.5,48.1z"/>
	<path class="st0" d="M41.7,39.6c0.5-0.4,0.9-0.8,1.3-1.1l0.4-0.3c0.2-0.2,0.3-0.3,0.3-0.4l0,0c0,0-0.2,0.1-0.4,0.2l-0.4,0.4
		c-0.3,0.3-0.6,0.6-0.9,0.8c-0.2,0.1-0.3,0.3-0.4,0.4C41.4,39.7,41.5,39.7,41.7,39.6z"/>
	<path class="st0" d="M40.3,30.9c0.6-0.5,1-1,1.4-1.3c0.3-0.3,0.5-0.5,0.8-0.8c0.3-0.2,0.4-0.4,0.4-0.5l0,0c0,0-0.3,0.1-0.6,0.3
		c-0.5,0.4-0.9,0.8-1.2,1.2c-0.3,0.3-0.6,0.6-0.9,0.9c-0.3,0.2-0.4,0.5-0.4,0.5C39.8,31.3,40.1,31.1,40.3,30.9z"/>
	<path class="st0" d="M106.7,13.3c0.4-0.1,0.9-0.1,1.3-0.2c0.3,0,0.4-0.1,0.4-0.1l0,0c-0.1-0.1-0.4-0.1-0.7-0.1
		c-0.5,0-1.1,0.1-1.7,0.2c-0.3,0.1-0.3,0.1-0.1,0.2C106.1,13.4,106.4,13.4,106.7,13.3z"/>
	<path class="st0" d="M161.5,25.5c0.6,0.3,1.3,0.6,2,1.1c0.1,0.1,0.2,0.1,0.2,0.1l0,0c0,0-0.1-0.1-0.2-0.2c-0.8-0.5-1.4-0.8-2.1-1.1
		c-0.1,0-0.2-0.1-0.1,0C161.3,25.4,161.4,25.5,161.5,25.5z"/>
	<path class="st0" d="M209.9,104.1c0.1,0.8,0,0.9,0,0.9c-0.1,0.1-0.1,0.3,0,0.6c0,0.2,0.1,0.3,0.1,0.3l0,0c0.2-0.3,0.2-1.1,0-2.1
		c0-0.3-0.1-0.4-0.1-0.3C209.9,103.5,209.9,103.8,209.9,104.1z"/>
	<path class="st0" d="M47.4,187.2l0.3,0.3c0.9,0.8,1.8,1.6,2.8,2.2c0.2,0.1,0.3,0.1,0.3,0c-0.1-0.1-0.3-0.3-0.5-0.4
		c-0.8-0.6-1.7-1.2-2.5-2l-0.3-0.3c-0.2-0.2-0.4-0.3-0.4-0.2l0,0C47.1,186.8,47.3,187,47.4,187.2z"/>
	<path class="st0" d="M30.8,36.2c0.4-0.5,0.7-0.9,0.8-1.1l0,0c0,0-0.1,0-0.2,0.1s-0.3,0.3-0.3,0.4c-0.1,0.2-0.3,0.5-0.5,0.7
		c-0.1,0.1-0.2,0.3-0.1,0.2C30.5,36.5,30.7,36.3,30.8,36.2z"/>
	<path class="st0" d="M95.8,3.5c0.2-0.1,0.5-0.1,0.8-0.2l0.9-0.2c0.2,0,0.3-0.1,0.3-0.1s0,0-0.1-0.1c-0.2,0-0.6,0-1,0.1
		c-0.2,0.1-0.4,0.1-0.7,0.2c-0.3,0.1-0.7,0.1-1,0.2c-0.3,0.1-0.4,0.2-0.3,0.2C95,3.7,95.4,3.6,95.8,3.5z"/>
	<path class="st0" d="M158.9,25.2c-0.5-0.3-1-0.5-1.5-0.8c-0.3-0.2-0.6-0.3-0.7-0.3s0,0.1,0.3,0.3c0.6,0.4,1.3,0.7,1.9,1
		c0.3,0.1,0.5,0.2,0.6,0.2l0,0C159.4,25.5,159.2,25.3,158.9,25.2z"/>
</g>
</svg>
