<?xml version="1.0" encoding="utf-8"?>
<!-- Generator: Adobe Illustrator 23.1.0, SVG Export Plug-In . SVG Version: 6.00 Build 0)  -->
<svg version="1.1" id="图层_1" xmlns="http://www.w3.org/2000/svg" xmlns:xlink="http://www.w3.org/1999/xlink" x="0px" y="0px"
	 viewBox="0 0 284.3 528.2" style="enable-background:new 0 0 284.3 528.2;" xml:space="preserve">
<style type="text/css">
	.st0{fill-rule:evenodd;clip-rule:evenodd;fill:#75AFDE;}
</style>
<path class="st0" d="M188.9,436c-6.8,3.3-14.3,9.9-22,10.1c-38.3,0.9-76.7,0-115.1-0.2c-6.9,0-13.9,0-20.8,0
	c-7.9,22.2-3.3,34.8,18.3,45.5c27.9,13.8,57.6,14.7,88,10.7c14.6-1.9,29.3-2.7,44-4c0.4,1.8,0.9,3.7,1.3,5.5c-2.3,2-4.2,4.8-6.9,6
	c-39.3,17.7-79.9,25.2-122.1,11.8c-47.7-15.2-64.1-51.9-47-98.7c4.8-13.1,6.6-28.7,4.7-42.4C3,318.7,1.7,259.1,41.8,206
	c13.8-18.3,28.8-32.4,51.3-40.7c29.1-10.6,51.3-28.3,52.9-64.7c0.9-22.5,12.4-42.3,33.8-54.9c7.2-4.2,12-12.8,17.3-19.8
	c6.5-8.5,12.4-17.5,18.4-25.9c4.2,2.3,6.1,2.7,6.5,3.7c14.8,39,15.3,38.4,56.3,76.7c13.1,12.2,3.2,27.3-7.4,33.3
	c-23.5,13.2-22.1,30.9-18.4,53.1c5.4,32.9,2.4,64.3-18.9,93.6c-10.3,14.1-13.6,34.6-16,52.8c-2.7,19.9-0.6,40.4-0.7,60.7
	c-0.1,17.4-2.4,35.9,30.1,33c-8.2,14.3-11.8,29.2-19.5,31.8C216,442.4,201.8,437.3,188.9,436z"/>
</svg>
