<?xml version="1.0" encoding="utf-8"?>
<!-- Generator: Adobe Illustrator 23.1.0, SVG Export Plug-In . SVG Version: 6.00 Build 0)  -->
<svg version="1.1" id="图层_1" xmlns="http://www.w3.org/2000/svg" xmlns:xlink="http://www.w3.org/1999/xlink" x="0px" y="0px"
	 viewBox="0 0 1683.9 1130" xml:space="preserve">
<g>
	<g>
		<g>
			<polygon points="35.2,647.1 248.9,622.6 36.9,657.2 			"/>
		</g>
	</g>
	<g>
		<g>
			<polygon points="37.8,582.3 251.9,603.4 37.3,592.6 			"/>
		</g>
	</g>
	<g>
		<g>
			<polygon points="85.8,614.1 235.6,611 86.7,624.3 			"/>
		</g>
	</g>
</g>
<g>
	<g>
		<g>
			<polygon points="1469.8,51.5 1242.2,266.2 1458.9,41.2	"/>
		</g>
	</g>
	<g>
		<g>
			<polygon points="1425.6,137 1253.8,271.1 1415.7,125.9 			"/>
		</g>
	</g>
	<polygon points="1231,266.7 1359.1,90.8 1371.1,99.7 1231,266.7 	"/>
</g>
<g>
	<g>
		<g>
			<polygon points="325.1,72.6 484.2,247.3 317,80.6 			"/>
		</g>
	</g>
	<g>
		<g>
			<polygon points="385.1,34 503.3,237.7 375.5,40.1 			"/>
		</g>
	</g>
	<g>
		<g>
			<polygon points="387.3,96.8 486.1,228.1 378.6,104 			"/>
		</g>
	</g>
</g>
<g>
	<g>
		<g>
			<polygon points="326.8,1211.7 464.7,953.3 336.4,1215.6 			"/>
		</g>
	</g>
	<g>
		<g>
			<polygon points="275.7,1171.9 451.2,939 283.8,1178.3 			"/>
		</g>
	</g>
	<g>
		<g>
			<polygon points="337.2,1135 445.4,961.9 346.2,1139.9 			"/>
		</g>
	</g>
</g>
<g>
	<g>
		<g>
			<polygon points="1617,709.6 1375.5,667.3 1617.7,701.5 			"/>
		</g>
	</g>
	<g>
		<g>
			<polygon points="1598,757.1 1367.5,680.8 1601.1,749.6 			"/>
		</g>
	</g>
	<g>
		<g>
			<polygon points="1553,719.8 1387.2,679.7 1554.7,712 			"/>
		</g>
	</g>
</g>
<g>
	<g>
		<g>
			<polygon points="1176,1199.4 1098.6,934.6 1188.9,1195.2 			"/>
		</g>
	</g>
	<g>
		<g>
			<polygon points="1125.4,1130.1 1089.7,941.6 1138.7,1127 			"/>
		</g>
	</g>
	<polygon points="1102.9,925.7 1191,1097.2 1178.8,1102.9 1102.9,925.7 	"/>
</g>
<path class="st0" d="M658.9,994.6c-104.6,0-194.1-52.8-253-148.8c-88.8-29.9-123.7-81.7-137.4-120.5c-22.6-64.4-3.1-133.2,25-180.7
	c-37.7-73.5-21.4-132-0.3-168.7c39.9-69.5,125-111,184.1-111c5.9,0,11.5,0.4,16.7,1.3c35.2-80,130.4-127,210.2-127
	c45.4,0,78.6,10.9,97.4,19.3c32.7-32.2,77.2-52.3,117.9-52.3c82.2,0,124.8,44.6,144.5,76c13.9-4.1,30.1-7.3,43.3-7.3
	c41.7,0,64,18.3,75.4,33.7c13.9,18.7,19.7,43.8,17.3,71.5c9.3-0.8,18-1.4,22.7-1.4c118,0,193.6,92.5,207.3,183.9
	c14.2,95-33.2,175.2-121.5,207.8c3.5,11.9,5.2,24.3,5.2,37.1c0,42.4-20.3,89.1-54.3,124.9c-38.3,40.3-89.1,62.5-143.1,62.5
	c0,0,0,0,0,0c-10.7,0-21.2-0.9-31.6-2.6c-17,24.5-56.1,54.8-130.5,54.8c-40.6,0-75.1-9-99.5-25.7
	C799.4,971.5,716.9,994.6,658.9,994.6z"/>
</svg>
