<?xml version="1.0" encoding="utf-8"?>
<!-- Generator: Adobe Illustrator 23.1.0, SVG Export Plug-In . SVG Version: 6.00 Build 0)  -->
<svg version="1.1" id="图层_1" xmlns="http://www.w3.org/2000/svg" xmlns:xlink="http://www.w3.org/1999/xlink" x="0px" y="0px"
	 viewBox="0 0 510.9 231.6" style="enable-background:new 0 0 510.9 231.6;" xml:space="preserve">
<style type="text/css">
	.st0{fill-rule:evenodd;clip-rule:evenodd;fill:#75AFDE;}
</style>
<path class="st0" d="M510.9,13.1c-1.6,9.3-1.5,19.4-5.3,27.7c-11.3,24.8-40.1,35.7-65.5,25.6c-9.9-3.9-19-9.7-28.9-13.6
	c-7.7-3-16.2-4.3-22.4-5.8c8.4,19.4,16.9,37.4,24.1,56c6.2,15.8,15.8,28.2,27.5,40.7c13.2,14,21.2,33.1,30.5,50.4
	c1.3,2.5-1.5,9.4-4.4,11.4c-6.9,5-15.1,8.3-26,14c-0.1-9.7-2-17,0.2-22.7c4.2-10.9,1.1-19.6-6-26.6c-9.5-9.3-19.9-17.8-30.7-25.5
	c-9.3-6.6-19.8-11.8-31.3-18.5c1.1,16.6,9.3,27.1,21.6,34.4c15.1,9,27.3,39.6,20.8,55.7c-1.9,4.8-6.1,9.2-10.4,12.5
	c-8.1,6.2-11.9,0.9-12.7-6.8c-0.4-3.4,1.4-7.2,2.8-10.6c7.2-17.3,4.9-24.4-12-33.2c-7-3.6-14.4-6.4-21.7-9.4
	c-17.2-6.9-32.3-16.3-38.5-33.5c-29,4.4-57.2,12.3-85.4,11.9c-39.5-0.4-77.4,1.7-113.6,18.9c-8.3,3.9-17.5,5.9-25.8,9.8
	c-10.1,4.7-16.9,11.8-17.9,24.3c-0.4,4.8-7.2,12.6-11.3,12.8c-8,0.3-17.1-2.5-23.7-6.9c-2.5-1.7-2-13.5,1.2-17.2
	c11.6-13.5,24.8-25.5,37.8-38.3c-20.6-4.8-36.7,6.4-51.7,19.5c-11.6,10.1-16.9,10.1-27.4-0.9c-6.1-6.4-7.2-12.7,1.2-16.7
	c23.3-10.9,47-21,70.7-31.1c5.9-2.5,13.2-2.3,18.5-5.4c5.6-3.3,10.4-8.6,14.1-14c3.5-5.2,6.1-11.4,7.4-17.5
	c0.9-4.3,0.1-9.9-2.1-13.5c-1.5-2.4-8.5-4.3-10.3-2.9c-2.7,2.1-3.1,7.3-3.9,9.7c-6.6,6.4-14,11.5-18.3,18.5c-4.6,7.4-9.6,8.2-16,5.2
	C58.6,98,51.2,94,44.4,89.3c-2.5-1.7-5.3-7.1-4.3-9.1c8.1-16.7-2.1-37.2,11.6-53c3.3-3.8,1.6-11.6,2.7-17.5c2-11,6.9-12.5,15.2-5.7
	c2.4,1.9,6.5,3.7,9.2,3c31.5-7.9,61.5-1.9,88.7,13.3c30.7,17.1,61.8,22.2,96,16.2c14.4-2.5,29.5,0.2,44.3,0
	c23.4-0.4,46.9-2.4,70.3-1.4c13.9,0.6,28,4.7,41.4,9.1c9.1,2.9,16.9,9.5,25.8,13.5c25.7,11.9,48.4,1.3,56.3-25.9
	c1.9-6.5,3.1-13.1,4.7-19.6C507.7,12.6,509.3,12.8,510.9,13.1z"/>
</svg>
