<?xml version="1.0" encoding="utf-8"?>
<!-- Generator: Adobe Illustrator 23.1.0, SVG Export Plug-In . SVG Version: 6.00 Build 0)  -->
<svg version="1.1" id="图层_1" xmlns="http://www.w3.org/2000/svg" xmlns:xlink="http://www.w3.org/1999/xlink" x="0px" y="0px"
	 viewBox="0 0 545.3 514" style="enable-background:new 0 0 545.3 514;" xml:space="preserve">
<style type="text/css">
	.st0{fill-rule:evenodd;clip-rule:evenodd;fill:#75AFDE;}
</style>
<path class="st0" d="M424.9,72c-21.1-12.6-43-25.3-64.5-38.8c-7.1-4.4-13.6-10.3-18.9-16.7c-2-2.4-0.1-8.2,0.1-12.5
	c4.1,0.2,8.4,0.1,12.5,0.7c3.2,0.5,6.4,1.5,9.4,2.7c2.6,1,6.3,1.7,7.3,3.7c12.6,24.4,36.9,30.4,61.4,40.5c-4.9-17-16.9-32.1-3-51.5
	c2,6,3,9,3.9,12c3.5,11.1,6.4,22.5,11,33.2c1.3,3.1,8.3,6.8,10.8,5.8c3.6-1.5,7.6-7.2,7.6-11c-0.2-8.8-3.3-17.4-4.2-26.2
	c-0.4-3.6,2.1-7.5,3.3-11.3c2.8,3,7.5,5.7,8.2,9.2c3.7,17.7,13.7,36-3.9,53.9c2.8,1.7,6,5,7.4,4.4c2.5-1.1,5.2-4.5,5.5-7.2
	c1.2-10.8,1.1-21.7,2.2-32.5c0.5-5.6,1.3-11.8,4.2-16.1c1.2-1.8,10.7-1.4,12.3,0.9c2.8,4,2.5,10.3,3.5,16.3
	c10.5,4,19.3,0.5,27.2-11.3c1.9-2.9,5.1-4.9,7.7-7.4c1.4,3.2,2.6,6.4,4.3,9.5c14.5,26.6-4,46.4-14.5,67.7
	c-2.2,4.4-7.6,8.2-12.3,10.2c-9.5,3.9-9,8.8-3.2,15.2c6.8,7.5,13.3,15.4,20.9,22.1c6.5,5.7,8.9,13.3,4.5,18.9
	c-4.3,5.5-12.6,8.2-19.6,11.2c-2.2,0.9-5.6-1.2-8.6-1.6c-21.9-3-23.1,1.2-37.3,17.3c-23.2,26.2-38,60.8-72.7,76.5
	c-6.2,2.8-10.7,10.4-15,16.4c-9.8,13.6-19,27.7-28.3,41.6c-1.6,2.4-3.7,5-3.8,7.6c-0.2,19,0,38,0.1,57c0,7.6,1.6,15.5,0.2,22.8
	c-6.7,36.8,5.4,71.1,12.6,109.1c-9.1-2.1-17.6-4-24-5.5c-3.7-31.6-5.5-61.7-11.2-90.9c-5.7-29.4-15.4-58-23.2-86.4
	c-15-5.4-22.5,1.3-26.6,14.7c-4.1,13.7-8.8,27.3-13.3,41c-2.2,6.8-3.6,14.1-7.1,20.3c-17,29.9-22.6,62.5-24.8,98.4
	c-7.7-2.2-14.9-4.3-25.2-7.2c25.4-55.1,26.1-113.4,32.6-173.3c-11.6,0-22.4-0.1-33.2,0c-12.7,0.2-25.4,1-38.1,0.9
	c-19.3-0.2-38.4-1.4-52.1-18c-35,70.4-25.3,134.2,27.6,191c-12.1,8.5-29.6,3.6-35.2-7.7c-14.3-29.1-29.1-58-43.2-87.2
	c-4.4-9.2-7.3-19.1-11-29c-7.5,10.1-17.7,21.3-16.9,37.5c1.4,29.4,3.5,58.8,5.3,88.6c-5,0-12.9,0-22.3,0
	c-1.2-20.3-1.9-40.5-3.6-60.6c-1.6-19.8-3.8-39.5-6.6-59.2c-1.8-12.3,4-20.9,10.3-30.2c7.3-10.7,15-21.7,19.5-33.7
	c2.7-7,2-17.3-1.3-24.3c-7.8-16.8-17.4-32.9-27.3-48.6c-9.1-14.5-16.5-28.8-9.9-46.4c1.3-3.5,2.8-7.4,5.3-10
	c24.8-26.3,53-47.3,91-46.8c63.1,0.8,126.2,2.8,189.2,4.9c16.5,0.6,32.9,3.1,49.2,5.6c18.4,2.9,34.5-0.8,48.5-13.2
	c1-0.8,1.9-1.7,2.9-2.5C408.8,119.6,428.6,102.4,424.9,72z"/>
</svg>
