<?xml version="1.0" encoding="utf-8"?>
<svg version="1.1" id="图层_1" xmlns="http://www.w3.org/2000/svg" xmlns:xlink="http://www.w3.org/1999/xlink" x="0px" y="0px"
	 viewBox="0 0 325 300" xml:space="preserve">
<g>
	<polygon class="st0" points="117.5,179.2 111.1,239 165.5,203.7 205.4,246.3 229.3,197.9 268.3,211.1 255.7,170.9 304.5,138.4 248.8,122.8 273.9,81 226.1,100.9 218.6,65.8 192.2,87.3 172.7,30.5 155.7,101.1 137.5,74.7 137.5,110 79,65.2 99.8,122.8 43.8,129.4 95.1,144.5 26.4,231.9"/>
	<polygon class="st0" points="284.1,37.9 268.4,38.8 278,22.1 259,19.9 240.3,50.9 253.4,49.4 238.5,82.8 	"/>
	<polygon class="st0" points="82.1,120 57.7,92.8 70.6,90.2 43.4,66.4 26,74.2 40.2,87.2 24.9,91.1 	"/>
	<polygon class="st0" points="294.6,242.6 279.6,247.5 294.7,259.5 277.8,268.5 249,246.6 261.8,243.2 235.6,217.6 	"/>
	<polygon class="st0" points="90.5,236.9 66.1,264.2 79.1,266.7 51.8,290.6 34.4,282.7 48.6,269.7 33.3,265.8 	"/>
</g>
</svg>
