<?xml version="1.0" encoding="utf-8"?>
<!-- Generator: Adobe Illustrator 23.1.0, SVG Export Plug-In . SVG Version: 6.00 Build 0)  -->
<svg version="1.1" id="图层_1" xmlns="http://www.w3.org/2000/svg" xmlns:xlink="http://www.w3.org/1999/xlink" x="0px" y="0px"
	 viewBox="0 0 667.7 642" style="enable-background:new 0 0 667.7 642;" xml:space="preserve">
<style type="text/css">
	.st0{fill:#75AFDE;}
</style>
<path class="st0" d="M399.2,40.4l46.8,94.8c10.6,21.5,31.1,36.4,54.8,39.8l104.6,15.2c59.7,8.7,83.6,82.1,40.3,124.2L570,388.2
	c-17.2,16.7-25,40.8-20.9,64.4L567,556.8c10.2,59.5-52.2,104.8-105.6,76.8l-93.5-49.2c-21.2-11.2-46.5-11.2-67.8,0l-93.5,49.2
	c-53.4,28.1-115.8-17.3-105.6-76.8l17.9-104.1c4.1-23.6-3.8-47.7-20.9-64.4l-75.7-73.8C-20.9,272.4,2.9,199,62.7,190.3L167,175
	c23.7-3.4,44.2-18.3,54.8-39.8l46.8-94.8C295.3-13.7,372.4-13.7,399.2,40.4z"/>
</svg>
