<?xml version="1.0" encoding="utf-8"?>
<!-- Generator: Adobe Illustrator 23.1.0, SVG Export Plug-In . SVG Version: 6.00 Build 0)  -->
<svg version="1.1" id="图层_1" xmlns="http://www.w3.org/2000/svg" xmlns:xlink="http://www.w3.org/1999/xlink" x="0px" y="0px"
	 viewBox="0 0 163.4 300.7" style="enable-background:new 0 0 163.4 300.7;" xml:space="preserve">
<style type="text/css">
	.st0{fill:#75AFDE;}
</style>
<g id="XMLID_5_">
	<path class="st0" d="M88.7,3.5c8.4-3.3,102.1,24.9,49.8,194.2S61.3,255,61.3,255S-76.9,68.3,88.7,3.5z"/>
	<g>
		<g>
			<g>
				<g>
					<path class="st0" d="M154.4,174.5C154.5,174.3,154.5,174.1,154.4,174.5L154.4,174.5z"/>
					<path class="st0" d="M30.3,225.6c0-0.1-0.1-0.1-0.1-0.2c-0.3,0-0.6-0.1-0.8-0.1L30.3,225.6z"/>
					<path class="st0" d="M15.7,191.4c0-0.1,0-0.1,0-0.2C15.5,191.2,15.4,191.2,15.7,191.4z"/>
					<path class="st0" d="M79.2,298.8c0.5,0.2,0.8,0.2,1,0.2C79.9,299,79.6,298.9,79.2,298.8z"/>
					<path class="st0" d="M162.1,106.9c0,0,0,0.1,0,0.2c0.1-0.1,0.1-0.3,0.1-0.4L162.1,106.9z"/>
					<path class="st0" d="M162.5,107.7c-0.2,0.8-0.4-0.2-0.4-0.6c-0.4,0.9-0.4,1.8-0.2,2.8C162.3,109.8,162.2,108.1,162.5,107.7z"/>
					<path class="st0" d="M104.8,0h0.4C105.1,0,104.9,0,104.8,0z"/>
					<path class="st0" d="M84.7,280.5c0.1,0,0.2,0,0.2,0C84.8,280.5,84.8,280.5,84.7,280.5z"/>
					<path class="st0" d="M122.4,11l0.6-0.3C122.7,10.7,122.5,10.8,122.4,11z"/>
					<path class="st0" d="M29.4,225.3l-0.3-0.1C29.1,225.3,29.3,225.3,29.4,225.3z"/>
					<path class="st0" d="M4.9,158.5c0.2-0.1,0.3-0.2,0.4-0.3v-0.1L4.9,158.5z"/>
					<path class="st0" d="M69.1,13.3c-0.1-0.1-0.1-0.1-0.2-0.2l-0.4,0.7C68.8,13.6,69,13.4,69.1,13.3z"/>
					<path class="st0" d="M0.9,111c-0.1,0-0.1-0.2-0.2-0.2c-0.2,0.8-0.2,3-0.1,5.8l0.8,0.1C1.2,114.8,1,112.9,0.9,111z"/>
					<path class="st0" d="M27.9,67.4c-1.1,1.1-2.2,2.2-3.2,3.3c2.5-6.6,5.4-11,8.2-15c1.5-2,2.9-3.9,4.5-5.9c1.5-2,3.3-4.1,5.1-6.6
						c-0.1,0.2-0.2,0.5-0.2,0.7c0.7-0.5,0.7-1.5,2.6-3.8c0.9-1.2,2.5-2.5,4.9-4.3c2.4-1.7,5.8-3.7,10.4-5.6l0.1,0.1
						c0.5-0.4,0.3-0.7,1.7-1.1c-1.2,0.3-2.2,0.8-3.3,1.2c0.7-0.8,1.3-1.6,2.1-2.3c0.8-0.8,1.6-1.6,2.8-2.4c0.6-0.2,0.9,0,1.1,0.1
						c0.9-0.7,1.9-1.3,2.9-1.9l2.9-1.8c0.8-0.1,1.5-0.1,2.3-0.2c1.6-1.4-0.2-2.8,5.4-4.4c-2.6-0.4,2.2-2,1.3-2.3c0.3,0,1.1,0,1.6,0
						c3-1.7,8.8-4.4,10-5.7c0,0-3.4,0.6-7.3,1.2c-1.9,0.4-4,0.7-5.8,1c-0.9,0.1-1.8,0.3-2.5,0.4c-0.8,0.1-1.4,0.2-1.9,0.3
						c2.3-1,2.6-1.1,2.1-1.1c-0.4,0-1.6,0.3-2.1,0.3l-0.1,0.5c-2.8,1.1-3.2,0.3-4.7,0.7c0,0.1,0.1,0.1,0.2,0.2l0.1-0.2
						c0.2,0.1,0.2,0.2,0.1,0.4c0.1,0.1,0.1,0.4-0.7,0.7l0.1-0.1c-1.1,0.7-2.9,1.7-3.8,2.1l-0.4-0.6c-0.3,0.6-1.3,1.2-2.7,1.9
						c-1.4,0.7-3.1,1.5-5,2.2c-1.8,0.7-3.6,1.5-5.2,2.2c-1.5,0.7-2.8,1.3-3.4,1.8c-1.5,0.6-2.8,1.7-4.1,2.9
						c-1.3,1.2-2.6,2.7-4.2,3.7c-0.6,0.5-1.1,0.9-1.5,1.2c-0.4,0.3-0.7,0.6-1,0.7c-0.5,0.3-0.8,0.4-1.1,0.5c-0.5,0-0.8-0.2-2.1,0.6
						c-3.1,2.4,1.2,0.1,0.1,1.2c-1.4,0.8-2.6,1.8-3.9,2.7c1.8-2.1,0.4-1.3-0.1-1.1c-0.7,0.7-1.6,1.5-2.5,2.3s-1.7,1.7-2.5,2.5
						s-1.5,1.6-1.9,2.3s-0.6,1.4-0.5,1.8c-1.9,2-3,3-3.7,3.7s-1.2,1.1-1.9,2.1c0.7-0.5,1.7-1.7,2-1.6c-1.7,1.5-0.4,1,0.2,0.3
						c-0.3,0.8-1.2,2-2.3,3.5c-1.1,1.5-2.4,3.2-3.6,4.8c-1.1,1.7-2.2,3.4-2.9,4.7s-1,2.3-0.7,2.7l-0.3-0.1c0.8,1.2,2.4,0.5,2.1,2.9
						c-0.4,0.4-0.8,0.8-1.1,1.2l-0.3,2.4c-0.9,1.3-0.9,0.5-1.1,0.4c-0.8,3.8-2.8,8.7-4,13.1c1.4-1.4,2.9-2.7,4.4-3.9
						c-0.8,1.7-2.1,4.2-2.8,6.4c-0.4,1.1-0.7,2.1-0.9,2.9C5.8,91,5.8,91.6,6,91.8l-1.5,2.1c-1.5,3.7-1.3,5.1-1,5.9s0.9,1,0.5,2.5
						l-1.4,3.8l0.2-3.9c-0.9,3.8-1.3,5.4-2.1,8.5l0,0c0-0.2,0.1-0.3,0.2-0.4v0.6c0.6,0.5,1.1,2.5,1.1,5.2c0,1.9,0.3,3.7,0.4,5.7
						c0.2,2,0.3,4.3,0,7.4l1.4,1.4c-0.1,1.6-0.1,3.1-0.1,4.7l-1,0.1c-0.2-1.1-0.4-2.5-0.6-4c-0.2-1.5-0.5-3.2-0.7-4.9
						c-0.5-3.4-0.8-7-0.9-10L0,116.4c0.1,1.8,0.3,3.6,0.5,5.3c0.2,1.7,0.5,3.3,0.5,4.4c-0.1,1.1-0.8,4.1-1.7,2.1l1.2,2
						c0.4,2.9,0.7,5.1,1,6.9c0.3,1.8,0.5,3.3,0.7,4.8c0.2,1.5,0.4,3,0.6,4.9c0.1,0.9,0.3,2,0.4,3.2c0.2,1.2,0.4,2.5,0.6,4l0.2-1.1
						c0.8,2.3,1.7,4.5,1.1,5.4c1.7,7.1,3.4,14.4,3.8,19.3l1.4,0.6c0.5,1.4-0.4,4.2,1.4,4.4l1.6,2.9c0.6,2,1.8,2.9,2,5.4l0,0l0,0
						c0,0.1,0,0.3,0,0.5c0,0,0.1,0,0.1-0.1c1.3,4.5,1-0.4,2.4,4.8c-0.1,1.9,2.1,1.2,2.9,3.6l-0.5,3.1c0.5,2.4,1.3,3.6,2.3,4.9
						c1,1.4,2.2,2.9,3.7,6c1,3.2,0.4,5.3-1.7,3.9c2.7,2,1.5,0.8,4,4c-0.3,0.8-0.6,0.5-1.5,0c1,3.5,1.5,1.7,2.8,4.1
						c1.4,0.1,3.5,0,4,0.7l-0.2-1.1c1.9,2.2,3.7,4.7,4.8,7.8l-0.6,0.2l2,2.9l-0.5,0.6c0.9,1.4,1.8,2.8,2.8,4.1l-0.2-0.7
						c0.7,0.9,2.9,4.1,3.8,6.1l-0.4,0.2c1,2.6,2.4,4.8,4,6.8c0.8,1,1.7,2.1,2.6,3.1c0.5,0.5,0.9,1,1.4,1.6c0.2,0.2,0.4,0.3,0.6,0.5
						c0,0.1,0.1,0.2,0.2,0.4l0.1,0.2v0.1l0.1,0.2c-0.2-0.2-0.3-0.1-0.5-0.1s-0.3,0-0.5,0c-0.1,0.1-0.1,0.2-0.1,0.2
						c0,0.1,0.1,0.3,0.1,0.4c0.1,0.2,0.3,0.3,0.6,0.3c0.4,0.1,0.9,0.3,1.2,1.8l-1,0.5c2.1,2.2,0.7,3.4,0.8,5.4l1-1.3
						c0.3,1.1,0.6,2.3,0.9,3.4c1,3.8-0.8,2.9-1.7,2.6c0.7,0.7,1.3,1.4,2,2.1l-0.9,1c2.1,1.3,0.5,2,2.8,4.9c-0.3,0.5-1-0.2-0.5,1
						c1.4,1.5,3,3.1,4.6,4.5c-0.9-0.9-1.8-1.9-2.6-2.8l1.8-0.5c1.5,1.3,2.2,2.4,2.7,3.5c0.3,0.5,0.5,1.1,0.8,1.6s0.7,1,1.2,1.5
						l-1.6-1.3c1.6,1.8,2.3,2.8,2.9,3.7c0.6,0.9,0.9,1.7,1.9,2.9c-0.5-0.9-1.1-2.2,0.6-0.9c1.3,1,0.2,1,1.3,2.2
						c1.1-0.7,4.4,1.2,8.4,2.9c-0.1,0.1-0.2,0.3-0.5,0.3c0.5,0.1,1,0,1.5,0.1c0.5,0,1.1,0.2,2,0.4c-0.4,0.4-0.9,0.8-1.3,1.2
						c1.3-0.2,2.6-0.5,3.8-1c1.2,0.2,2.7-0.2,3.8-0.4c1.1-0.3,1.8-0.5,1.8-0.1l-1.3,0.6c3.1-0.6,5.6-1.7,7.8-3
						c1.2-0.6,2.1-1.3,3.1-2c0.9-0.7,1.8-1.4,2.7-2.2l0.9,0.7c0-1,1.4-2.2,2.5-3.2c1.2-1.1,2-2,1.1-2.5c1.2-0.6,2.4-2.5,3.4-4
						s1.8-2.5,2.3-1.4c2.3-3.2,3.4-6,4.6-8.8c0.6-1.4,1.3-2.9,2-4.5c0.4-0.8,0.8-1.6,1.3-2.5s1-1.8,1.6-2.7c1.5-1,3.1-3.6,4.5-6.6
						c1.4-2.9,2.8-6.3,3.9-8.9c3.5-10.5,5.3-17.4,8.4-28.1c2.3-2.8,3.4-6.8,4.3-10.9c0.9-4.1,1.8-8.3,3.5-11.6l-0.4-2.2
						c2.9-4.2,3-11.8,6.1-17.9c0-1.7,0.1-2.6,0.1-3c-0.1,0.3-0.4,0.7-1,0.7c0.9-1.8,1.3-5.7,2.4-5.1v0.5c1.2,0.6,0.7-5.9,2.2-7.8
						l-1.6,0.9c0.3-1.2,0.6-2.4,1-3.6l0.1,1c0.2-8.1,1.4-13.7,2.6-19.3c1.1-5.6,2.2-11.1,1.4-18.7c1.3,2.1-0.6-3,1-3.1
						c1.1-1.8,1.1-3.6,0.7-5.3c-0.4-1.7-1-3.3-1.3-4.9c-0.1,0-0.2,0-0.3-0.2c0.1-1.8,0.2-3.6,0.2-5.5c2.1,3.3-1.7-3.9,0-0.9
						c0.6-7.2,0.1-15.5-1.3-24c-0.7-4.3-1.7-8.6-2.7-12.8c-1.1-4.3-2.3-8.5-3.6-12.5l-0.2,0.9c-1.3-4.1-4-8.8-4.7-12.1
						c-0.7-3.4-4.5-5.8-5.2-6.8c-2.6-2.6-3-6.3-2.2-5c-2.4-3.1-5.9-4.9-8.9-9.4c0.1-1.3-2.8-3.7-5.6-5.8c-2.8-2.1-5.5-3.8-5-4.6
						l-0.2,0.1c-2.3-2.7-5.2-4.4-8.3-6c-3.1-1.6-6.3-2.9-9.6-4.9c0,0,0.2-0.1,0.5-0.1c-2.8-0.1-5.6,0-8.3,0.3
						c-1.4,0.2-2.7,0.4-4.1,0.7c-1.3,0.4-2.7,0.7-4.1,1.6c1.1,0,1.5,0.5,1.8,1c0.4,0.5,0.6,1,0.9,1.6c0.5,1.1,0.9,2.2,1.3,3.3
						c2.8,2.2,5.6,5,7.8,7.9c4.2,1.7,8.3,4.1,12.2,6.8c3.8,2.8,7.4,6,10.7,9.6c4.5,6.4,7.9,13.4,10.4,20.8c3.9,8.6,6.6,18,8.2,27.7
						c0.8,4.8,1.4,9.8,1.7,14.8s0.4,10,0.4,15.1l1.3,4.4c-1.5,5.9-2,12.7-2.8,19.7c-0.7,7-1.6,14.1-3.8,20.3l1.2,0.5
						c-0.6,3.6-1.4,3.2-1.8,4.1c-1.8,8.4-3.7,16.9-6,25.3c-2.2,8.4-4.7,16.8-7.3,25.1c-5.2,16.4-11.2,32.2-18.7,45.4
						c-0.5,0.6-1.1,1.5-1.8,2.6c-0.6,1.1-1.4,2.3-2.1,3.5s-1.4,2.4-2.1,3.3c-0.7,1-1.3,1.6-1.8,2l-0.7,1.6l-0.8,1.5
						c-0.5,1-1.1,2-1.7,2.9c-1.2,1.8-2.5,3.5-3.9,4.9c-1.3,1.3-2.7,2.3-3.6,2.6c-0.2,0.1-0.4,0.2-0.5,0.2c-0.1,0.1-0.3,0-0.3,0.1
						c-0.2,0-0.4,0-0.6-0.1l0.1-0.1c-0.2,0-0.5,0-1.2-0.3c0-0.1,0.1-0.3,0.2-0.3c-1.2-0.1-2.9-1.8-4.3-4.3s-2.6-5.6-3.6-8.4l0.3,0.3
						c-1.1-2.5-2.1-5.1-2.9-7.7c-0.4-1.3-0.9-2.6-1.3-4l-0.6-2l-0.5-2l-0.5-2.1l-1.7-2.3l-1.2-1.7l-1.7-2.4
						c-1.1-1.6-2.2-3.2-3.3-4.8c-2.2-3.2-4.3-6.5-6.4-9.8c-4.1-6.6-8.1-13.3-11.7-20.1c-7.3-13.7-13.5-28-17.8-43.2
						c-0.9-4.3-2-8.6-3.1-13.1s-2.3-9-3.3-13.7c-2-9.3-3.3-19.2-2.4-28.7c0.3-0.9,0.5-3.9,0.9-8s1-9.2,2-14.2s2.4-9.9,3.7-13.7
						c0.7-1.9,1.3-3.5,1.7-4.8C27.5,68.7,27.8,67.8,27.9,67.4z"/>
					<path class="st0" d="M64.7,25.9L64.6,26C64.9,26.4,65,26.1,64.7,25.9z"/>
					<path class="st0" d="M5.1,85.1c0-0.1,0.1-0.2,0.1-0.3l-0.9,0.9L5.1,85.1z"/>
					<path class="st0" d="M31.6,33.8c-1.9,1.8-1.9,2-1.5,1.9C30.8,35,31.3,34.4,31.6,33.8z"/>
					<path class="st0" d="M81.3,15.9c1.2-0.5,0.6-0.6-0.2-0.6c-1.1,0.6-1.9,1-1.9,1C79.8,16.1,80.6,16.1,81.3,15.9z"/>
					<path class="st0" d="M73.5,11.7l0.2-0.6C73,11.6,73.1,11.7,73.5,11.7z"/>
				</g>
			</g>
		</g>
	</g>
</g>
</svg>
