<?xml version="1.0" encoding="utf-8"?>
<!-- Generator: Adobe Illustrator 23.1.0, SVG Export Plug-In . SVG Version: 6.00 Build 0)  -->
<svg version="1.1" xmlns="http://www.w3.org/2000/svg" xmlns:xlink="http://www.w3.org/1999/xlink" x="0px" y="0px"
	 viewBox="0 0 450.6 464.5" style="enable-background:new 0 0 450.6 464.5;" xml:space="preserve">
<g id="Shamrock">
	<path class="st0" d="M377.9,207.1c-7-4.8-14.8-7.8-22.7-9.1l0.1,0l-27.7-5.1l23.4-14.1c8.7-4,16.5-10.4,22.4-18.9
		c17.4-25.2,11.1-59.8-14.2-77.2c-12.3-8.5-26.7-11.3-40.4-9.1c-2.8-13.5-10.6-26-22.8-34.5c-25.2-17.4-59.8-11.1-77.2,14.2
		c-4.8,7-7.8,14.8-9.1,22.7l0-0.1l-5.7,31.4l-11.2-18.6c-4-8.7-10.4-16.5-18.9-22.4c-25.2-17.4-59.8-11.1-77.2,14.2
		c-8.5,12.3-11.3,26.7-9.1,40.4c-13.5,2.8-26,10.6-34.5,22.8c-17.4,25.2-11.1,59.8,14.2,77.2c7,4.8,14.8,7.8,22.7,9.1l-0.1,0
		l24.7,4.5l-19.5,11.8c-8.7,4-16.5,10.4-22.4,18.9C55,290.5,61.3,325,86.6,342.5c12.3,8.5,26.7,11.3,40.4,9.1
		c2.8,13.5,10.6,26,22.8,34.5c25.2,17.4,59.8,11.1,77.2-14.2c4.8-7,7.8-14.8,9.1-22.7l0,0.1l0.5-2.5c7.4,33.7-7.7,58.1-10.5,65.4
		c-2.9,7.4-2.3,19.2,11.7,15.5s32.6-54,20.5-78.2c3.5,4.6,7.8,8.8,12.8,12.3c25.2,17.4,59.8,11.1,77.2-14.2
		c8.5-12.3,11.3-26.7,9.1-40.4c13.5-2.8,26-10.6,34.5-22.8C409.4,259.1,403.1,224.5,377.9,207.1z"/>
</g>
</svg>
