<?xml version="1.0" encoding="utf-8"?>
<!-- Generator: Adobe Illustrator 23.1.0, SVG Export Plug-In . SVG Version: 6.00 Build 0)  -->
<svg version="1.1" id="图层_1" xmlns="http://www.w3.org/2000/svg" xmlns:xlink="http://www.w3.org/1999/xlink" x="0px" y="0px"
	 viewBox="0 0 830.5 1031.3" style="enable-background:new 0 0 830.5 1031.3;" xml:space="preserve">
<style type="text/css">
	.st0{fill:#75AFDE;}
</style>
<path class="st0" d="M254.6,622.9c-26.1,24.1-49.6,50.9-72.5,78c-40.3,47.5-69.6,97.9-100,151.7c-32.8,58-55.8,112.4-63.7,178.6
	c-5.8,1.3-11.5-3.6-13.2-9.3s-0.4-11.8,0.8-17.6c6.9-31.6,14-63.4,27-93c7.9-17.9,17.9-34.8,27.9-51.7
	c28.1-47.4,56.3-94.8,87.3-140.4c29.7-43.6,65.6-79.2,91.2-125.5c29.1-52.6,4-111.6-32.4-154.7c-29.1-34.6-66.7-61-104.1-86.5
	c-34.4-23.5-73-55.4-94.4-92c-10-17.1-12.4-40.2-0.5-56.1c3.1-4.2,7.1-7.7,9.6-12.3c5.6-10.5,2.1-23.8,6.4-34.8
	c5.8-14.7,23.5-21.4,31.3-35.2c3.8-6.8,4.9-14.8,7.6-22.1c2.7-7.3,8-14.6,15.7-15.8c4.3-0.7,8.6,0.7,12.9,1.6
	c50,11.2,95.1-43.9,136.5-65.5C267.3-0.3,302-3.2,345.2,2.6c33.2,4.4,61,18.6,94.8,12.7c31.7-5.5,63.7,5.8,93.8,17.4
	c26.9,10.4,58.1,23.7,76.1,47.3c15.5,20.2,9.1,53.7,32.8,67c28.2,15.8,51.1-9.3,62.5,29.1c6,20.2-6,43,6.1,62
	c14.8,23.2,56.3,23.2,62.7,49.9c3.3,13.8-5.3,27.5-7,41.6c-5.2,42.8,50.6,68.4,61.5,110.1c10.5,40.3-23.8,78.9-26.3,120.4
	c-2.7,45-25.6,87.9-79.2,85.6c-25.1-1.1-48.6-12-71.9-21.5c-50.9-20.7-104.3-35-158.7-42.6c-45.9-6.4-107.9-27.2-153-14.9
	c-17.5,4.8-33.1,14.6-47.7,25.4C278.7,601.7,266.4,612,254.6,622.9z"/>
</svg>
