<?xml version="1.0" encoding="utf-8"?>
<!-- Generator: Adobe Illustrator 23.1.0, SVG Export Plug-In . SVG Version: 6.00 Build 0)  -->
<svg version="1.1" id="图层_1" xmlns="http://www.w3.org/2000/svg" xmlns:xlink="http://www.w3.org/1999/xlink" x="0px" y="0px"
	 viewBox="0 0 262.6 277.6" style="enable-background:new 0 0 262.6 277.6;" xml:space="preserve">
<style type="text/css">
	.st0{fill:#75AFDE;}
</style>
<g>
	<path class="st0" d="M145.7,126.3l-8.9-2.9c-0.4,1.2-39.9,122.1-88,138.7l13.5,15.5C104.9,255.4,144.1,131.2,145.7,126.3z"/>
	<path class="st0" d="M234.6,49.8c-8.9-32.6-51.7-33.3-59.4-13.8c7.7-19.5-24.1-48.1-52.8-30.4c-32.9,20.3-34.8,81.7,8.7,142.3
		C204.3,133.2,244.8,87.1,234.6,49.8z"/>
	<path class="st0" d="M10.6,86.3c-23.8,24-3,61.4,17.7,58.3c-20.7,3.1-29.6,44.9,0.1,60.9c34,18.4,88.1-10.7,118.8-78.7
		C98,70.9,37.8,58.8,10.6,86.3z"/>
	<path class="st0" d="M168.4,265.5c32.7,8.6,54.7-28.1,41.7-44.5c13,16.4,53.7,3.2,52.7-30.6c-1.1-38.6-53.3-70.9-127.6-63.6
		C111.3,197.5,131,255.7,168.4,265.5z"/>
</g>
</svg>
