<?xml version="1.0" encoding="utf-8"?>
<!-- Generator: Adobe Illustrator 23.1.0, SVG Export Plug-In . SVG Version: 6.00 Build 0)  -->
<svg version="1.1" id="图层_1" xmlns="http://www.w3.org/2000/svg" xmlns:xlink="http://www.w3.org/1999/xlink" x="0px" y="0px"
	 viewBox="0 0 171 182.7" style="enable-background:new 0 0 171 182.7;" xml:space="preserve">
<style type="text/css">
	.st0{fill:#75AFDE;}
</style>
<g id="XMLID_9_">
	<g>
		<g>
			<g>
				<g>
					<path class="st0" d="M168.2,177.4c-0.1,1,0.7,0.6,0.8,0.8C168.8,176.5,168,177.5,168.2,177.4z"/>
					<polygon class="st0" points="166.6,161.2 166.8,161.5 166.1,159.2 					"/>
					<path class="st0" d="M166.6,146.1c-1.2,1.4,0.2,5.5-0.2,8.2l-0.3,0.4l1,1.2C166.9,152.7,166.2,148.4,166.6,146.1z"/>
					<path class="st0" d="M169.2,138.1c-0.5,0.5-0.4-1.7-0.1,1.9c0.1-0.2,0.1-0.2,0.1-0.3C169.2,139.3,169.2,138.8,169.2,138.1z"/>
					<path class="st0" d="M169.2,139.6C169.2,141.2,169.6,138.6,169.2,139.6L169.2,139.6z"/>
					<path class="st0" d="M168.9,132.3l0.4,2.1c0.3-0.4,0.4-2.3,0.6-1.6C169.7,130.6,169.4,131,168.9,132.3z"/>
					<path class="st0" d="M168,130.3l0.2,1.1C168.3,131.2,168.4,130.9,168,130.3z"/>
					<path class="st0" d="M168.6,133.7l-0.4-2.3c-0.2,0.3-0.6,0.3,0.1,1.1C168,132.2,168.3,132.7,168.6,133.7z"/>
					<path class="st0" d="M168.4,135c-0.3,1.2-0.4,2.7-0.9,0.6C167.7,139.6,168.6,139,168.4,135z"/>
					<path class="st0" d="M165.3,145.4l-0.4,1.6l0.4,1.4C165.1,147.6,165.7,145.3,165.3,145.4z"/>
					<path class="st0" d="M169.6,119.2c-0.3-0.1-0.7,0.7-1,0.9l0.3,1.6C169,120.8,169.2,119.3,169.6,119.2z"/>
					<path class="st0" d="M168.5,120.1l-0.4-2.3C168,119.8,168.2,120.2,168.5,120.1z"/>
					<polygon class="st0" points="166.7,129.9 167.6,133.7 166.6,129.2 					"/>
					<polygon class="st0" points="169.6,110.4 170.2,111.7 169.3,109.3 					"/>
					<path class="st0" d="M169.5,104.5c0.5,1,0.9-1.3,1.2-0.3c-0.1-1.6-0.5-3-0.9-4.2C170,101.3,169.9,102.7,169.5,104.5z"/>
					<path class="st0" d="M169.2,97.9c0.1,0.7,0.3,1.3,0.6,2.1C169.6,99.3,169.5,98.6,169.2,97.9z"/>
					<path class="st0" d="M168.2,113.8c0.2-0.2,0.6-0.5,0.8-1.8l-0.7,0.9C168.2,113.2,168.2,113.5,168.2,113.8z"/>
					<path class="st0" d="M168.2,112.9L168.2,112.9c0-1,0.1-1.7,0.1-2C168.3,111.2,168.2,111.8,168.2,112.9z"/>
					<path class="st0" d="M168.2,114c0-0.1,0-0.2,0-0.2C168.1,113.9,168.1,113.9,168.2,114z"/>
					<path class="st0" d="M167.3,123.8c-0.4-1.4-0.9-4.2-1.5-1.4C166.3,123.4,166.7,121.8,167.3,123.8z"/>
					<path class="st0" d="M167.3,115.2l-0.2,2.5c0.2-0.1,0.5-0.5,0.7,0.2L167.3,115.2z"/>
					<polygon class="st0" points="167.1,114 167.3,115.2 167.3,114.3 					"/>
					<path class="st0" d="M168.5,102.2c-0.3-1.1-0.4-2.2-0.4-3.5c-0.1,1.4-0.2,2.9-0.2,4.3C168.1,103.1,168.5,103.7,168.5,102.2z"/>
					<path class="st0" d="M168.3,107.4c0-0.1,0-0.2,0-0.2C168.2,107.3,168.2,107.4,168.3,107.4z"/>
					<path class="st0" d="M168.1,85.7c-0.1,0.1-0.1,0.1-0.1,0.2c0,0,0.1,0,0.1,0.1V85.7z"/>
					<path class="st0" d="M167.7,103.1c-0.1,1.1,0,1.7,0.3,2.3c-0.1-0.8-0.1-1.6-0.1-2.5C167.8,102.8,167.7,102.8,167.7,103.1z"/>
					<path class="st0" d="M168.8,94.3c-0.1,0.6-0.3,1.2-0.4,1.8C168.7,95.6,169,94.5,168.8,94.3z"/>
					<path class="st0" d="M168.4,106.8c0,0.1,0,0.1,0,0.2C168.6,106.6,168.6,106.7,168.4,106.8z"/>
					<path class="st0" d="M168.4,106.8c-0.1-0.5-0.3-1-0.4-1.4c0.1,0.6,0.1,1.2,0.3,1.8C168.3,107,168.4,106.9,168.4,106.8z"/>
					<path class="st0" d="M163.4,81.8c0.7,0.2,1.3,3,0.6,5.4c0.5,2.4,2.8,0.8,4-1.2c-0.3-0.1-0.6-0.1-1-2.5
						c-0.4,0.8-0.9,5.4-1.5,3.3c-0.4-3.2,0.2-2.6,0.6-4.2c-0.9,1.3-1.2-4.1-2.5-3.4L164,82C163.8,82,163.5,81,163.4,81.8z"/>
					<path class="st0" d="M167.9,90.5l0.1,1c0.1-1.1,0.4-2,0.9-3.5c-0.3-1.7-0.6-2-0.8-2.1l-0.1,4.9L167.9,90.5z"/>
					<path class="st0" d="M168,96c-0.8-0.8-1.1-3.2-1.9-1.7c0.1,2.9,0.6,2.1,0.9,3.8C166.9,93.4,167.5,99.5,168,96
						c0.1,1,0.1,1.8,0.1,2.6c0.1-0.8,0.2-1.7,0.3-2.4c0,0,0,0.1-0.1,0.1l0,0l0,0c-0.1,0.2-0.1,0.3-0.1,0v-0.1
						C168.2,96.2,168.1,96.1,168,96c0.2-1.4,0.2-0.2,0.3,0.2l0.1,0.1l0,0l-0.4-4.8C167.9,92.5,167.9,93.8,168,96z"/>
					<path class="st0" d="M164.2,119.9c0.1-0.2,0.1-0.1,0.2-0.2C164.3,119.4,164.3,119.3,164.2,119.9z"/>
					<path class="st0" d="M164.7,117.9c0.1,0.3,0.4,0.6,0.3,1.8c-0.2,1-0.4,0-0.6,0.1c0.2,0.7,0.5,2.4,0.9,0.3l-0.1-0.3
						c0.3-1.9,1.2-4.4,1.3-4C165.8,116.1,165.3,116.6,164.7,117.9z"/>
					<path class="st0" d="M166.1,106.8l-0.4-3.9l-0.6,2l0.4-0.1C165.4,107,165.8,106.5,166.1,106.8z"/>
					<polygon class="st0" points="168.5,85.2 169.3,85.8 168.1,83.5 					"/>
					<polygon class="st0" points="168.4,80.1 169.1,80.3 168.6,78.9 					"/>
					<path class="st0" d="M9,62.2l0.2,1.2C9.1,62.8,9,62.5,9,62.2z"/>
					<path class="st0" d="M9,53.8l-0.3-0.2C8.9,54,9,54.1,9,53.8z"/>
					<path class="st0" d="M112.1,1.5c-1.7-0.6-3.6-1.6-3.4-0.9l0.5,0.8C110.5,1.2,111.4,1.3,112.1,1.5z"/>
					<path class="st0" d="M25.7,6c0.2,0.1,0.3,0.1,0.5,0.2c0.4-0.3,0.8-0.5,1.1-0.7C26.9,5.6,26.3,5.8,25.7,6z"/>
					<path class="st0" d="M24.6,9.1l-2.2-0.5C22.8,8.8,23.5,8.9,24.6,9.1z"/>
					<path class="st0" d="M9.8,108.1l0.8,1.4C10.5,107.4,10.1,108.3,9.8,108.1z"/>
					<path class="st0" d="M168.1,27.5c0.3-1.5,0.4-2.6,0.4-3.6C168.1,25.6,167.5,27,168.1,27.5z"/>
					<path class="st0" d="M1,58.9c0.1,0.7,0.3,1,0.5,1C1.3,59.2,1.2,58.7,1,58.9z"/>
					<path class="st0" d="M168.5,19.6c-0.1,0.3-0.1,0.5-0.2,0.8c0.1,1.1,0.2,2.1,0.2,3.4C168.9,22.6,169.1,21.1,168.5,19.6z"/>
					<path class="st0" d="M101.4,173.9c0.1,0,0.3,0.1,0.4,0.1C101.8,173.9,101.6,173.9,101.4,173.9z"/>
					<path class="st0" d="M149.9,181.5c-0.5,0.1-1.3,0.1-2,0.1C148.2,181.6,148.8,181.6,149.9,181.5z"/>
					<path class="st0" d="M168.7,59.4C168.7,60.5,168.8,59.6,168.7,59.4L168.7,59.4z"/>
					<path class="st0" d="M165.7,64.7c-0.1-0.2-0.2-0.4-0.4-0.4C165.5,64.4,165.7,64.5,165.7,64.7z"/>
					<path class="st0" d="M163.9,8.8L163.9,8.8C163.7,9.1,163.8,9.1,163.9,8.8z"/>
					<path class="st0" d="M168.4,61.1c0.1-0.4,0.2-0.9,0.2-1.4C168.5,59.9,168.5,60.3,168.4,61.1z"/>
					<path class="st0" d="M168.7,60.9c0,0.4-0.1,0.7-0.1,0.9C168.8,61.9,168.8,61.8,168.7,60.9z"/>
					<path class="st0" d="M168.7,57.9c0,0.6,0,1.2-0.1,1.8c0.1-0.2,0.1-0.3,0.1-0.3C168.7,59.1,168.7,58.7,168.7,57.9z"/>
					<path class="st0" d="M12.1,175.9c0.1,0,0.2,0,0.2,0.1C13.4,175.7,13,175.7,12.1,175.9z"/>
					<path class="st0" d="M83.8,9.3C83.9,9.3,83.9,9.3,83.8,9.3C83.9,9.2,83.8,9.2,83.8,9.3L83.8,9.3z"/>
					<path class="st0" d="M79.9,9.8c1.7-0.9,2.6-0.8,3.9-0.6L82.5,7L79.9,9.8z"/>
					<path class="st0" d="M9.2,82.3l0.7-2.8c1.1,3.3,0.7,5.7,1.7,3.1C9.2,82.2,11.4,71.9,9,71.5l0.5-1.8c0,0.5,0.1,0.6,0.1,1.1
						c1.1-3.5-1.7-2.6-1.4-7.2C8.4,62,8.7,60.9,9,62l-0.6-3.5c0.1-1,0.4-0.8,0.4,0.3l-0.2-5.4h0.1c-0.4-0.8-0.9-2.5-1.2-3.3
						c0.3-1.4,0.3,0.7,0.5,0.3l-0.6-3c0.6-1.2,1.2,1.3,1.1,3.3c2.3-2.8-0.6-2.5,0.8-8.5L9.6,45c1.3-1.8,0.9-4,1.7-7.2
						c-0.4,0.8-2.1,6.4-2.7,3.1c0.2-0.9,0.3-2.1-0.2-3.8c0.8,0,0.6-1.7,0.6-3.8l1.1,0.2c-0.3-2.3-0.9-2.1-1.4-3.5
						c0.1-2.6,1-3.1,1.7-3.7c0.2-4.1-1.4,2.8-1.6-2c0.4-3.4,0-5.8-0.7-9.9c0.4-2.4,0.7,0.4,1-0.4l-0.4-1l-0.2-0.5
						c-0.1-0.1-0.1-0.2-0.2-0.3c0-0.3,0.3-0.1,0.4-0.1c-0.2-0.4-0.4-0.5-0.7-0.7S7.5,11,7.3,10C6.8,9.6,7,8.9,7.4,8.4
						C8.2,8.6,9,8.9,9.6,9s1.1,0.1,1.6-0.3c0.5,0.3-0.2,0.7,0,1.1c0.1-0.1,0.2-0.1,0.5-0.2c0.3-0.1,0.5-0.1,0.7-0.1
						c0.4-0.1,0.8-0.1,1.2-0.2c0.7-0.1,1.1-0.2,1.6-0.3c1-0.3,1.8-0.5,3.8-1.1l3.3,0.7C19.9,7.8,23,6.8,25.7,6
						c-0.9-0.4-1.6-0.8-2.1-0.9L28,4.5c0.5,0.2,0.1,0.6-0.6,1c0.3-0.1,0.6-0.2,0.8-0.3c1.6,0.4,0.8,1.1-0.4,1.7
						c-0.5-0.2-1.1-0.4-1.6-0.7c-1.1,0.7-2.1,1.4-1.9,2.1C24.6,8.1,25.2,8,25.8,8c-0.3,0.2-0.5,0.4-0.3,0.5c0.1,0.1,0.6-0.1,1.3-0.4
						l1,1.2L28,8.8l5.7,0.8c4.1-1.2,7.7-3.1,14.2-3.6c-1.6,0.9-0.3,1.5-0.4,2.6c-1.8-1.1-5,0.5-8.4,0.3C40.9,9,40.5,9.5,40,9.7l6-1
						c-0.1,0.9,1.3,0.7,2.8,1C47.6,8,53.3,8.6,55.7,8c0.2,0.6-0.4,1.2-3.4,1c3.3,1.3,4.3-2,7.5-0.9c-0.7,0-1.1-0.1-1.4,0.2
						c1.7-0.5,5.9-0.1,4.9,0.4h-0.7c4.8,0.2,14.7,0,15.4-1.5c0.1,0.2-0.6,1.8-0.9,2.1l8.6-4.9c-0.8,1.3,2.2,4.3-1.8,5
						c1.2,0.2,2.6,0.4,5-0.1C88.1,9,87,7.4,88,7.3c3,1.4,2.1,0.7,5.7,1.9c-1.2-0.3,0.1-2.3,2-2.2c-0.3,0.3,0.2,2-0.5,2.2l4.6-1.9
						c-1.2,0.4-0.2,1.6,0.8,2.2c-0.5-0.4,4,0,5.2-0.2l-2-0.4c5.2,0.3,5.2-2.7,10.4-2.6c-0.6,0.4-1.6,2.5,1.1,2.7
						c1.2-1,5.4-4.8,9.9-5.6l0.9,0.6l3.5-0.7c-2.2,1.5-8.4,4.6-11.7,5.9c2,0.4,0.6,0.7,3.5,0.6c1,0.5-1.6,0.8-2.5,0.8l6.8,0.3
						c-0.3-1.2,5.2-1.2,5-2.1l-7.4,1.2c-0.3-1.2,4.3-3.3,9.1-3.1c1.2,0.5-0.9,2.1-0.8,2.5c0.6-0.4,4.6-0.8,5-0.5l-2.1,0.6
						c2.7,0.4,4.4-1.5,7.6-0.4c1.1,0.1,3.3,1.5,3.5,0.8c-1.8-1.3-2.2-5.4-1-6.4c0.4,0.1,5.9,1.3,7.1,1.9c1.8,1-2.8,2.5-1.2,3.4
						c0.1-0.3,1.1-0.7,1.5-0.8c1.2,0.3-0.5,1,2.1,0.8c0.4-1.2,5.2,0.1,1.2-1c0.6-0.1,1.1-0.1,1.5-0.1s0.6,0.1,0.9,0.1
						c0.5,0.1,1,0.2,2,0.2c-0.1-0.3,0.3-0.7,1-1.1s1.9-0.9,3.2-1.2c0.3,0.5,0.5,1.2,0.6,2c-0.3,0-0.7,0.9-0.9,1.2
						c-0.1,5-0.6,7.8-0.6,12.6c-0.3,0.4-0.6,2.7-1.1,1.8c0.2,0.7,0.6,1.3,0.6,2.8c-1,2.8-0.2-3.3-1.4-1.1c0.7,0.2,0.9,3.8,1.4,5.9
						c1.1-0.6,0.2-4.8-0.2-6.9c1.5,0,3,3.6,3.7,8.6c0.4,4-0.9,1.7-0.7,2.4c-0.3,7.4,2.6,6.3,1.5,12.5c-0.9,2.5-1.9,0.1-2.5,0.7
						c-0.4-3.2,0.6-5,0.6-7.1l-0.4,2.7c-0.3-1-0.5-3.2-0.3-4.3c-0.8,2-0.2,12.6-0.9,18.3c0.3,1,0.6,2.8,1,2l-0.1-1.8
						c0.8-1.7,1,3.4,1.4,1.1c0.5,2.4,1.4,5.2,0.9,8.6l-1.1,0.6c0.3-0.1,0.6-2.2,0.3-3.2c0.5,1.4-1.4,5.3-0.1,6.8l0.7-2.4
						c0.5,2.4,1.7,5.5,1.3,8.5c1.1-1.4-0.1-0.7,1.1-2.9c-1.5,1.9,0.1-7.8-1.5-4.8c1.4-2.2,0.6-3.8,1.8-6.7c-0.4,0.1-0.7,1-0.5-1.5
						c-0.1-0.1-0.2-0.4-0.3-0.6c0-0.1,0-0.1,0-0.2c0,0.1,0,0.1,0,0.1c-0.1-0.1-0.1-0.1,0,0.1c-0.1,0.6-0.3,1.1-0.5,1.3
						c-0.8-1.3-0.8-5.3-1.2-6.7c0.2-1.5,0.4,0.6,0.8-0.2l-0.6-2c0.8-0.2,1.3-4,1.8-0.5v-3.2c0.4-1.9,0.6-4.5,0.3-6.1
						c0.2-1.5-0.9-3.8-0.3-2.5l-0.5-5h0.2c0.1-5-1.3-10.2,0.1-15.9c-0.2-1.7-0.4-3.4-0.2-6.2l0.7-0.5c-0.1-0.6,0.1-3.8,0.2-6.3
						c0.1-2.6,0.2-5-0.2-5.5c0.1-0.4,0.2-0.8,0.3-1.2c-1.8-0.7-6.8-0.7-11.6-0.6c-1.3,0.1-2.7,0.1-4,0.2c-1.2,0.1-2.4,0.1-3.2,0
						l-0.1,0.9c-2.6-0.1-5.1,0.2-8.3,0.6l0.2,0.8c-2.8,0.6-7.1-0.6-11.5-0.5c0.3-0.3,1.4-0.2,2.2,0c-5.3-1.8-11.1,1.3-15.9,0
						c-1.2,0.3-2.1,0.2-2.9,0c0.1,0,0.2,0,0.3,0c-0.1,0-0.3,0-0.5,0c-0.5-0.1-1.1-0.3-1.7-0.4c0.5,0.2,1,0.3,1.4,0.4
						c-0.9,0-2.3,0.1-3.7,0.3l-0.6-0.8c-0.1,0-0.2,0-0.3,0c-1.3-0.3-1.1,0.4-0.4,1c-0.7,0.1-1.3,0.3-1.8,0.5c-1.1-1.3-3.6,0.4-5.1-1
						c-0.9,0.7-6.8,0.5-7.6,2c-0.1-0.2-0.4-0.3,0.3-0.3c-1.5-0.2-3-0.3-4.4,0.1l-0.6-1.1L86,4.5c-2-0.6-2.8-1-0.8-1.8
						c-4.8,1.3-3.9,0.5-8,1.7l0.2-0.7c-1.5,0-3.8,0.9-4.7,0.4C69.4,2.8,56.5,3.9,48,2.7c1.6,2-3.9-0.9-4.3,0.7
						c-0.5-0.5-1.7-0.8-0.3-1.2c-4.3,0.5-6.5-0.8-9.4,0.6c-0.5-0.5,0.9-0.7,0.5-1c-0.3,0.1-1.4,0.4-1.8,0.1
						c-0.4-0.3,0.6-0.4,1.3-0.6c-4.4,0.1-4.8,1.6-5.2,2.9c-2.2-0.7-3.3-0.6-4.9,0.3C23.3,3.7,22,3.2,24.7,3
						c-1.5-0.1-9.4-0.7-9.5,0.4c-0.5-0.3-2.1-0.1-2.6,0.1c-2.2-0.1-3.3-0.1-4.5-0.1c-1.3,0-2.5,0-4.8,0.1l1.4,0.2
						C4.5,4.1,4.1,4.3,3.4,4.3c0.1,1.3-0.3,2.5-0.2,4.8L3,9c-0.1,0.9-0.2,1.8-0.3,2.4c0,0.3,0,0.6-0.1,0.9c0,0.2,0,0.4,0,0.6
						c0,0.6,0,1,0.1,1.3c0.1,0.7,0.2,1.3-0.4,4.4l0.8-0.3c1.8,0.6-1.1,5.5-0.4,9.1L3.3,26c0.6,2-2.4,5.5-2.7,7.4
						c-0.2,0.4-0.3-0.7-0.4-1.3c-1,5.1,1.1,0.7,1.3,4.5c-0.6,0.7-1.5-0.9-1.6,1.7c-0.5,1.3,1.9,7.5,0.8,11c0.4-0.8,0.9-1.5,1.2,0.2
						c0.2,2.7-1.7,7.4-0.3,9.8c-0.1,0.3-0.2,0.5-0.3,0.5c0.4,2.1,0.6,6.8,1.4,8c-2.9,1.9,1.4,13-1.3,12.9l0.1,6.4l-0.3-0.2
						c-0.2,4.1,0.5,5.6,1.1,7C2.4,95,2.1,94.3,2,94.3c-0.5,6-0.4,6.6,0.9,11.6L2,106.4c0.5,1.4-1.3,8.7-0.3,14.5
						c-0.1-0.1-0.3-0.2-0.4-0.7c1,6.6-2.4,15.8,0.7,18.3l0.8,4.4c0.2-5.6,1.3,0.8,1.9-1.5c0.2,2.2-0.9,5.7-1.1,3l0.2-0.4
						c-1.6-1-0.6,7-1.7,6.9c0,4.7-0.1,9.3-0.3,13.9c-0.1,2.3-0.2,4.6-0.3,6.8c-0.1,3.5-0.2,6.9-0.2,10.3c2.6,0,5.1,0.1,7.7,0.1
						c-0.5-0.4-0.9-0.8-1.3-1.3l4.7,0.1c0.5,0.1,0.8,0.4,0.7,0.6c-0.1,0.1-0.2,0.2-0.6,0.3c-0.4,0.1-0.6,0.1-1.7,0.1
						c0.3,0.1,0.6,0.1,0.9,0.2c0.2,0,0.4,0,0.7,0c0.5,0,1-0.1,1.4-0.3c0.9-0.3,1.7-0.7,1.7-0.8c5.1,0.5-2,1.5-0.4,1.5l2.1-0.1
						l-0.5-0.1c1.7-0.5,1.9-1.1,5-1c2,0.3,1,0.8,1.8,0.8c0,0.1,0.3,0.1,1.2,0l4.6,0.1l-1.8-1c2-0.5,4.3,0.1,2.2-1.1
						c3.1,1.7,17,0.6,19,1.2c2.8-0.7,5.6-0.7,9.1-0.6c-0.9-0.2-1.4-1.3,1.6-1.2c-1.1,2.3,5.5,1,7.9,2.7c-2.2-1.1,8.5-0.3,5.1-1.8
						c2.5,0.2,0.2,0.9,2.1,1.4c5.9-0.9,13.1,0.6,20.4,0.3c0.1-0.3-1.1-0.8,0.5-1.2l3.9,1.5c1.4-0.1,1.3-1.8,4-0.7
						c-0.4-0.3-0.9-0.6,0-0.7c14.4,1.5,29.4-1.2,44,1.6c-2-0.6-0.7-0.6,0.9-0.7c-1-0.1,0-0.8-0.2-1.2l6.1,1.1
						c1.1-1.1,6.6-0.1,7.2-1.2l-1.9,0.2c2.6-1.3-3.6-2.9-3.2-4.5c-2.9,1.5-7.6-2.2-12.3-0.1c-1.1-0.3,0.9-0.5,0.3-0.9
						c-1.2,0.7-2.6,0.9-5.3,0.5l0.3-0.2c-7.5,0.2-10.8-0.5-19.3-1l0.6,0.8c-1.8-0.1-2.2-0.4-3.1-0.6c-2.1,1.2,5.1,0.1,3.2,1.4
						c-2.4-1.7-12.8,0-14.5-1.9c-2.8,0,0.8,0.9-2,0.9l-0.7-0.5l-0.7,0.7c-1.8-0.1-2.8-0.8-2.8-1.2c0.4,0.1,1.3-0.1,1.7-0.2
						c-2.4-0.6-6.7,0.2-7.5,0l2.7,0.3c-7.7,0.5-17-0.2-24.4,0.9l0.6,0.4c-5.6,0.7-4.5-0.4-10.7-0.1l0.2-0.1
						c-1.2,0.4-2.9,0.6-4.6,0.5c1.6-0.4-2.9-0.9-0.9-1.4c-6.1,0.8-3,0.6-7.1,2l-0.9-0.6c-1.4,0.6-1.5,0.9-4.6,1.1
						c2.5-0.6-2-1,0.9-1.7c-6.5-1.4-9.6,1.4-12.6-0.6c-3,1.8,5.6,1,4,1.4c1.4,0.6-2.5,1.3-4.5,1.1c-2.1,0-3.5-2.3-8.7-2.2
						c0.5,0,0.5-0.1,1.1-0.1c-2-0.4-3.8,0.6-6.2-0.1c-1.3,1.1-3.1-0.1-3.5,1.3l4.8-0.3c-1.4,0.2-2.7,0.7-4.2,1
						c-0.8,0.2-1.6,0.3-2.5,0.4c-1,0.1-1.8,0-2.6-0.2c0.2-0.1,0.5-0.3,0.9-0.4c0.2-0.1,0.4-0.1,0.6-0.2c0.2-0.1,0.5-0.1,0.7-0.2
						c-0.2-0.1-0.3-0.1-0.5-0.1s-0.2,0-0.3,0c-0.2,0-0.4,0-0.6,0.1c-0.4,0.1-0.9,0.1-1.2-0.1c0.2-0.3,0.6-0.5,0.9-0.6
						c0.2-0.1,0.4-0.1,0.6-0.1c0.1,0,0.2,0,0.3,0s0.3,0,0.4,0c1.8,0,3.9,0,5.3-0.6c-1.4-0.6-5.5,1-4-0.5c-0.3,0.2-0.5,0.4-0.8,0.5
						c-0.1,0.1-0.3,0.1-0.4,0.1l-0.2,0.1H12c-0.3,0.1-0.6,0.1-0.9,0c-0.7-0.1-1.1-0.3-2.4,0.2c-0.1,0-0.1-0.1-0.2-0.1
						c0.3-0.2,0.6-0.4,0.8-0.6c-0.1-0.1-0.5-0.3-0.5-0.9c0.4,0.1,0.7,0.1,1.1,0.1c-0.4-0.1-0.3-0.9,0-1.4l0.2-0.4c0,0,0,0,0-0.1
						v-0.3l0.1-0.5c0.1-0.7,0.1-1.4,0-2.1c0,1.4-0.1,2.2-0.1,2.7c-0.1,0.3-0.1,0.2-0.2,0.3c-0.1,0-0.1,0-0.2,0c-0.3,0-0.7-0.3-1,0.4
						c-0.1-0.3-0.2-1.2-0.2-1.8s0-1.1,0.1-1.5c0.1-0.8,0.4-1.4,0.8-1.9c0.6-1.1,1.3-2.4,1.1-6.3c0.1,1.1-0.5,4-0.9,2.4
						c0.2-1.5,0.5-3.5,0.9-4.4c-0.2-5.3-0.8,0.8-1.4-1.4c1-1.8-0.4-2.6-0.7-4.9h0.8c0.5-6-1.7-1.6-1.1-7l1.2,2.3L9,144.9l0.9,0.6
						c-0.7-3.1-0.5-4-0.3-7c-0.6,0.7-1.5-0.4-1.5-3c0.5-1.8,0.8,1,0.7-2.8c0.5,0.9,1.2,1.8,0.4,3.4c0.3,0.2,0.5,0.8,0.8,1
						c0.6-1.9,0.1-4.9,0.1-6.3c0,0.5-0.1,1.1-0.2,1.5l-1.2-5.4c0.3-0.9,0.6-0.2,0.8,0.5c-0.1-1.1-0.5-1.9-0.6-3.5
						c0.7,0.4,1.4,0.3,1.7,2.6l-0.8-5.2c0.3-0.3,0.8-2.7,1.1-2c0.4-2.9-1.3-7.1-0.8-10.9c-0.1-0.2-0.3-0.6-0.4-1.4
						c0.1-3.6,1-6.8,0.1-11l1.2-2.4c-0.3-3.3-1.5,3.3-2-2.3c-0.4-3.9,1-1.5,1.4-2.8C9.3,86.1,8,82.7,9,79.1
						C9.3,80.3,9.1,81.2,9.2,82.3z M8.6,41.3c0.2,0.8,0.7,2.4,0.2,3C7.9,43.3,8.4,42.6,8.6,41.3z M31.8,7.6
						c-0.6,0.3-1.5,0.1-2.5-0.2C30,7.3,30.9,7.4,31.8,7.6z M168,47.5C168,47.5,168,47.4,168,47.5C168.3,45.6,168.2,46.3,168,47.5z
						 M167.7,51.2c0.1,0.4,0.2,0.3,0.4,0.2c-0.2-0.3-0.2-1.1-0.2-2C167.6,49.6,167.5,50.1,167.7,51.2z M23.8,181.5l-0.7-0.2
						C24.7,181.1,24.2,181.3,23.8,181.5z"/>
					<path class="st0" d="M24.7,8.7c-0.2-0.1-0.3-0.3-0.3-0.4C24.1,8.4,24.1,8.6,24.7,8.7z"/>
					<path class="st0" d="M9.6,107.9L9.6,107.9c0.1,0.2,0.1,0.2,0.1,0.2L9.6,107.9z"/>
					<path class="st0" d="M152.3,9.2c-0.8-0.1-1.2-0.3-1.5-0.4C150.8,9,151.1,9.1,152.3,9.2z"/>
					<path class="st0" d="M169.1,70.7l-0.2-2.4c0,1.1-0.1,1.6-0.3,2.1C168.8,70.4,169.1,70,169.1,70.7z"/>
					<path class="st0" d="M163.9,91.2c0.1,0.3,0,0.7,0.1,1.1l0.4-0.1C164.4,90.7,164.1,89.7,163.9,91.2z"/>
					<path class="st0" d="M166.3,72.9c-0.7,0.2-0.5,1.7-0.3,3.3c0-0.1,0-0.2,0-0.3C167,76.4,166.6,74.7,166.3,72.9z"/>
					<path class="st0" d="M166,76.6c0,0.5,0.1,1,0,1.5C166.4,78.3,166.1,77.5,166,76.6z"/>
					<path class="st0" d="M168.1,55.9c-0.2,0.8,0.9,0.5,0.6,0.9C169.6,57.7,167.7,51.6,168.1,55.9z"/>
					<polygon class="st0" points="164,74.2 164.9,73.6 164.2,72.7 					"/>
					<path class="st0" d="M164.6,61.2l-0.2,2.6c0.1,0,0.2,0.3,0.3,0.7C164.7,62.9,164.9,61.1,164.6,61.2z"/>
					<path class="st0" d="M164.7,64.5c0,0.8,0,1.7,0.1,2.1C164.8,66.2,164.8,65.2,164.7,64.5z"/>
					<polygon class="st0" points="163.7,70.6 163.9,69.8 164,68 					"/>
					<path class="st0" d="M164.8,32.8l-0.3-2.9c-0.3-0.3-0.5,0.5-0.4,1.6C164.4,32.1,164.5,33.2,164.8,32.8z"/>
					<path class="st0" d="M162.4,41.5c0.2-0.8,0.4-0.8,0.7-1.3l-1.1-0.1L162.4,41.5z"/>
					<path class="st0" d="M162.2,33.1c-0.3-0.3-0.9-4.2-0.8-0.5C161.7,32.8,161.9,35.7,162.2,33.1z"/>
					<polygon class="st0" points="147.8,6.2 148.6,6.2 148.5,4.5 					"/>
					<path class="st0" d="M109.5,10.5c3.4,0.4,0.8-1.1,3.9-0.6c0.8-0.4-2.5-0.4-1.7-0.8C109.7,9.5,108.6,9.3,109.5,10.5z"/>
					<path class="st0" d="M111.7,9.1c0.3-0.1,0.7-0.1,1.1-0.3C112.2,9,111.9,9,111.7,9.1z"/>
					<polygon class="st0" points="157.9,182.4 160.1,182.8 158.7,182.2 					"/>
					<path class="st0" d="M162.1,181.1l0.5,1.1l1.3-1C163.5,181.3,162.5,181.4,162.1,181.1z"/>
					<path class="st0" d="M10.9,35.2L10.6,35c-0.3,0.3-0.3,0.8-0.4,1.9L10.9,35.2z"/>
					<polygon class="st0" points="10.1,65 10.1,64.5 9.1,65.4 					"/>
					<path class="st0" d="M11.4,90c0-1-0.2-2.2-0.1-3.3C11.4,89,10.1,90.3,11.4,90z"/>
				</g>
			</g>
		</g>
	</g>
</g>
</svg>
