<?xml version="1.0" encoding="utf-8"?>
<!-- Generator: Adobe Illustrator 23.1.0, SVG Export Plug-In . SVG Version: 6.00 Build 0)  -->
<svg version="1.1" id="图层_1" xmlns="http://www.w3.org/2000/svg" xmlns:xlink="http://www.w3.org/1999/xlink" x="0px" y="0px"
	 viewBox="0 0 585.3 333" style="enable-background:new 0 0 585.3 333;" xml:space="preserve">
<style type="text/css">
	.st0{fill-rule:evenodd;clip-rule:evenodd;fill:#75AFDE;}
</style>
<path class="st0" d="M295.6,228.7c2,27.6,3.6,50.6,5.2,73.1c-18,6.4-34.8,12.8-52,18.1c-5.9,1.8-13,2.2-19,0.9
	c-6-1.3-11.4-5.4-17.1-8.3c3-5.8,4.6-13.4,9.2-17.2c17.7-14.5,19.7-31,4.6-48.3c-9.1-10.5-17.8-21.4-26.9-32c-1-1.1-3-1.4-5.8-2.6
	c-1,4.8-1.9,8.9-2.8,13.4c-5.1,0-10,1.1-14.1-0.2c-9.8-3.2-13.7,0.3-20.6,8.3c-18.6,21.4-39.1,41.7-61.4,59.3
	c-19.8,15.6-58-3.5-60.8-28.7c-1.4-12.4-4.2-22.3-15.1-30.9C2,220.2-3,200.2,1.3,172.8c4.5,6.6,7.2,11.1,10.5,15
	c5.2,6.2,10.3,12.8,16.5,17.9c22,18.4,36.4,12.5,41.7-16.2c3.2-17.3,4.1-33.3-14.5-43.6c-4.9-2.7-7.9-8.8-9.7-16.2
	c6,1.5,12.1,2.9,18.1,4.4c6.1,1.6,12.2,3.3,18.3,4.9c11-42,11-42,32-28.1c6.9-9.9,13.4-20.2,21-29.7c6.1-7.6,13.6-14.1,20.3-21.2
	C161,54.5,166,48.6,171,42.8c4.1-4.7,7.3-11.4,12.5-14c22.9-11.6,44.7-24.1,73.4-20c54.5,7.9,109,5.4,163.3-6.6
	c30-6.7,59.4,2.4,85.5,17.8c20,11.7,38.7,25.9,57.4,39.8c3.9,2.9,6.1,9.2,7.5,14.4c4.1,15.7,8.4,31.5,10.7,47.5
	c2.5,17.3,2.7,34.8,4,53.9c-3.4,0.5-8.2,1.2-14.1,2c-0.8,2.6-1.7,5.9-2.8,9.1c-3.1,8.7-3.8,21.1-10,25.3c-14.7,9.8-11,20.8-7.2,33
	c5.2,16.5,3.3,30.4-11.8,41.5c-8.1,6-14.1,12.6-12.2,25.9c1.5,10.1-5.4,21.2-20.2,20.8c-16.8-0.5-33.7-0.1-50.5-0.1
	c-1.3-2.1-2.6-4.3-4-6.4c7.6-9.1,13.6-20.6,23.1-26.9c13.3-8.8,13.4-18.7,9.7-31.3c-4-13.8-8-26.8-22.7-34.5
	c-8.4-4.4-14.4-13.3-22.3-20.9C397.4,243,351.2,255.2,295.6,228.7z"/>
</svg>
