<?xml version="1.0" encoding="utf-8"?>
<!-- Generator: Adobe Illustrator 23.1.0, SVG Export Plug-In . SVG Version: 6.00 Build 0)  -->
<svg version="1.1" id="图层_1" xmlns="http://www.w3.org/2000/svg" xmlns:xlink="http://www.w3.org/1999/xlink" x="0px" y="0px"
	 viewBox="0 0 1295.9 1422.7" style="enable-background:new 0 0 1295.9 1422.7;" xml:space="preserve">
<style type="text/css">
	.st0{fill:#75AFDE;}
</style>
<g>
	<g>
		<path class="st0" d="M1295.9,665.5c-57.6-52.1-132.5-83.6-214.4-83.6c-83,0-158.8,32.3-216.7,85.7c-58-53.3-133.9-85.6-216.9-85.6
			s-158.8,32.3-216.7,85.7C373.3,614.3,297.5,582,214.4,582C132.5,582,57.6,613.4,0,665.5C18.5,325.7,301.5,55.9,647.9,55.9
			S1277.4,325.7,1295.9,665.5z"/>
		<path class="st0" d="M674.7,59.8c0,5-4.7,9.1-10.4,9.1l0,0c-5.7,0-10.4-4.1-10.4-9.1V9.1c0-5,4.7-9.1,10.4-9.1l0,0
			c5.7,0,10.4,4.1,10.4,9.1V59.8z"/>
		<rect x="650.2" y="582" class="st0" width="29.2" height="707"/>
	</g>
	<path class="st0" d="M584,1422.7c-55.3,0-100.4-42.8-100.4-95.5h39c0,31.2,27.5,56.5,61.4,56.5c33.8,0,61.4-25.3,61.4-56.5v-66.1
		h39v66.1C684.3,1379.9,639.3,1422.7,584,1422.7z"/>
</g>
</svg>
