<?xml version="1.0" encoding="utf-8"?>
<!-- Generator: Adobe Illustrator 23.1.0, SVG Export Plug-In . SVG Version: 6.00 Build 0)  -->
<svg version="1.1" id="图层_1" xmlns="http://www.w3.org/2000/svg" xmlns:xlink="http://www.w3.org/1999/xlink" x="0px" y="0px"
	 viewBox="0 0 590 577" style="enable-background:new 0 0 590 577;" xml:space="preserve">
<path class="st0" d="M536.7,385.6c-11.4,9.5-24.3,15.9-37.9,19.1c5.2,12.7,7.6,26.8,6.6,41.4c-3.6,50.9-47.7,89.4-98.7,85.8
	c-14.8-1-28.5-5.5-40.5-12.6c-5.1,12.8-13.1,24.6-24,34.4c-38,34.2-96.4,31.1-130.6-6.8c-9.9-11-16.7-23.8-20.4-37.2
	c-12.5,5.6-26.5,8.6-41.1,8.1c-51-1.8-91-44.6-89.2-95.6c0.5-14.8,4.5-28.7,11.1-40.9c-12.9-4.6-25-12.2-35.2-22.8
	c-35.5-36.7-34.5-95.3,2.3-130.7c10.7-10.3,23.2-17.5,36.4-21.7c-6.1-12.3-9.5-26.2-9.5-40.8c0-51.1,41.4-92.5,92.5-92.5
	c24.8,0,47.4,9.8,64,25.7c3.4-22.6,15.1-44,34.5-59.2c40.2-31.4,98.4-24.3,129.8,15.9c9.1,11.7,15,24.9,17.8,38.5
	c12.9-4.8,27-6.7,41.6-5.2c50.8,5.3,87.6,50.8,82.3,101.6c-1.5,14.8-6.5,28.3-14,40c12.6,5.5,24.1,14,33.5,25.2
	C581,294.5,575.9,352.8,536.7,385.6z"/>
</svg>
